<?xml version="1.0" encoding="UTF-8"?>
<svg width="360px" height="360px" viewBox="0 0 360 360" version="1.1" xmlns="http://www.w3.org/2000/svg" xmlns:xlink="http://www.w3.org/1999/xlink">
    <title>access_israel__effort_estimation</title>
    <g id="access_israel__effort_estimation" stroke="none" stroke-width="1" fill="none" fill-rule="evenodd">
        <g id="Group-2" transform="translate(0.000000, 19.000000)">
            <g id="Group" transform="translate(87.000000, 14.000000)" fill="#1A1A1A" font-family="Lato-Regular, Lato" font-size="16" font-weight="normal">
                <text id="Google-forms-survey.">
                    <tspan x="0" y="234">Google forms survey.</tspan>
                </text>
                <text id="Mobile-app">
                    <tspan x="133" y="16">Mobile app</tspan>
                </text>
            </g>
            <path d="M185.5,7 L185.5,146.5 L325,146.5 L325,147.5 L185.5,147.5 L185.5,287 L184.5,287 L184.5,147.5 L45,147.5 L45,146.5 L184.5,146.5 L184.5,7 L185.5,7 Z" id="Combined-Shape" fill-opacity="0.25" fill="#000000"></path>
            <path d="M316,13 C322.632953,13 328,18.3675156 328,25 C328,31.6329531 322.632437,37 316,37 C309.367047,37 304,31.6324844 304,25 C304,18.3670469 309.367563,13 316,13 Z M316,14.875 C310.403453,14.875 305.875,19.4038281 305.875,25 C305.875,30.5965469 310.403875,35.125 316,35.125 C321.596547,35.125 326.125,30.5961719 326.125,25 C326.125,19.4034531 321.596125,14.875 316,14.875 Z M319.083404,20.6050012 C319.445532,20.2428237 320.032756,20.2427774 320.395024,20.6050012 C320.757199,20.967225 320.757152,21.5544534 320.394978,21.9166308 L320.394978,21.9166308 L317.644953,24.6666754 L320.394978,27.4167199 C320.757199,27.7788974 320.757245,28.3661257 320.395024,28.7283495 C320.032803,29.0905733 319.445486,29.090527 319.083404,28.7283495 L319.083404,28.7283495 L316.333333,25.978305 L313.583263,28.7283495 C313.221181,29.0904806 312.633957,29.0906197 312.271643,28.7283495 C311.909422,28.3661721 311.909468,27.7789437 312.271689,27.4167199 L312.271689,27.4167199 L315.021713,24.6666754 L312.271689,21.9166308 C311.909468,21.5544534 311.909468,20.967225 312.271643,20.6050012 C312.633817,20.2427774 313.221134,20.2427774 313.583263,20.6050012 L313.583263,20.6050012 L316.333333,23.3550457 Z" id="Combined-Shape" fill="#FF4343" fill-rule="nonzero"></path>
            <path d="M66,230 C72.6329531,230 78,235.367516 78,242 C78,248.632953 72.6324375,254 66,254 C59.3670469,254 54,248.632484 54,242 C54,235.367047 59.3675625,230 66,230 Z M66,231.875 C60.4034531,231.875 55.875,236.403828 55.875,242 C55.875,247.596547 60.403875,252.125 66,252.125 C71.5965469,252.125 76.125,247.596172 76.125,242 C76.125,236.403453 71.596125,231.875 66,231.875 Z M69.083404,237.605001 C69.4455324,237.242824 70.0327564,237.242777 70.395024,237.605001 C70.7571988,237.967225 70.7571524,238.554453 70.3949776,238.916631 L70.3949776,238.916631 L67.6449533,241.666675 L70.3949776,244.41672 C70.7571988,244.778897 70.7572451,245.366126 70.395024,245.72835 C70.0328028,246.090573 69.4454861,246.090527 69.083404,245.72835 L69.083404,245.72835 L66.3333333,242.978305 L63.5832627,245.72835 C63.2211806,246.090481 62.6339566,246.09062 62.2716427,245.72835 C61.9094215,245.366172 61.9094679,244.778944 62.2716891,244.41672 L62.2716891,244.41672 L65.0217134,241.666675 L62.2716891,238.916631 C61.9094679,238.554453 61.9094679,237.967225 62.2716427,237.605001 C62.6338175,237.242777 63.2211342,237.242777 63.5832627,237.605001 L63.5832627,237.605001 L66.3333333,240.355046 Z" id="Combined-Shape" fill="#FF4343" fill-rule="nonzero"></path>
            <g id="Group" transform="translate(62.000000, 80.000000)" fill="#1A1A1A" font-family="Lato-Bold, Lato" font-size="16" font-weight="bold">
                <text id="Online-survey">
                    <tspan x="0" y="16">Online survey</tspan>
                </text>
            </g>
            <path id="Line" d="M305.5,279.5 L329.5,291.5 L305.5,303.5 L305.5,293.5 L37.5,293.5 L37.5,289.5 L305.5,289.5 L305.5,279.5 Z" fill="#000000" fill-rule="nonzero"></path>
            <path id="Line" d="M39.5,2.5 L51.5,26.5 L41.5,26.5 L41.5,293.5 L37.5,293.5 L37.5,26.5 L27.5,26.5 L39.5,2.5 Z" fill="#000000" fill-rule="nonzero"></path>
            <text id="Effort" font-family="Quicksand-Light_Medium, Quicksand" font-size="24" font-weight="400" fill="#1C1C1C">
                <tspan x="156" y="322">Effort</tspan>
            </text>
            <text id="Low" font-family="Quicksand-Light_Medium, Quicksand" font-size="16" font-weight="400" fill="#1C1C1C">
                <tspan x="34" y="316">Low</tspan>
            </text>
            <text id="High" font-family="Quicksand-Light_Medium, Quicksand" font-size="16" font-weight="400" fill="#1C1C1C">
                <tspan x="293" y="316">High</tspan>
            </text>
            <text id="High" font-family="Quicksand-Light_Medium, Quicksand" font-size="16" font-weight="400" fill="#1C1C1C">
                <tspan x="50" y="16">High</tspan>
            </text>
            <text id="Impact" transform="translate(15.500000, 138.000000) rotate(-90.000000) translate(-15.500000, -138.000000) " font-family="Quicksand-Light_Medium, Quicksand" font-size="24" font-weight="400" fill="#1C1C1C">
                <tspan x="-24" y="147">Impact</tspan>
            </text>
            <path d="M141,41 C150.925312,41 159,49.0746875 159,59 C159,68.9253125 150.925312,77 141,77 C131.074688,77 123,68.9253125 123,59 C123,49.0746875 131.074688,41 141,41 Z M141,43.9188828 C132.684422,43.9188828 125.918883,50.6844922 125.918883,59 C125.918883,67.3160703 132.684492,74.0811172 141,74.0811172 C149.316,74.0811172 156.081117,67.316 156.081117,59 C156.081117,50.6844219 149.316,43.9188828 141,43.9188828 Z M149.229172,52.7346755 C149.839781,52.1518696 150.803711,52.178867 151.381892,52.7918423 C151.961028,53.4053339 151.935204,54.3745134 151.325109,54.9563605 L151.325109,54.9563605 L140.513233,65.2657045 C140.218309,65.5458586 139.841658,65.6857143 139.465007,65.6857143 C139.068035,65.6857143 138.672089,65.5305895 138.374158,65.2228479 L138.374158,65.2228479 L132.689033,59.3541445 C132.102267,58.7483243 132.114959,57.7791448 132.717498,57.1891837 C133.32055,56.5986326 134.283453,56.61191 134.870732,57.2177302 L134.870732,57.2177302 L139.507632,62.0044696 Z" id="Combined-Shape" fill="#22AB5C" fill-rule="nonzero"></path>
        </g>
    </g>
</svg>