<svg width="342" height="477" viewBox="0 0 342 477" fill="none" xmlns="http://www.w3.org/2000/svg">
<path d="M9 393.398C9.5612 392.738 10.1625 392.114 10.8 391.529V406.338C10.7898 406.558 10.7846 406.778 10.7846 407C10.7846 407.222 10.7898 407.442 10.8 407.662V422.471C10.1625 421.886 9.5612 421.262 9 420.602V393.398Z" fill="url(#paint0_linear_273_204)"/>
<path d="M24.7846 421C20.6116 421 16.8649 419.174 14.3 416.278V425.073C17.4336 426.933 21.0921 428 25 428C36.598 428 46 418.598 46 407C46 395.402 36.598 386 25 386C21.0921 386 17.4336 387.067 14.3 388.927V397.722C16.8649 394.826 20.6116 393 24.7846 393C32.5166 393 38.7846 399.268 38.7846 407C38.7846 414.732 32.5166 421 24.7846 421Z" fill="url(#paint1_linear_273_204)"/>
<path d="M6 398.044C4.71728 400.761 4 403.797 4 407C4 410.203 4.71728 413.239 6 415.956V398.044Z" fill="url(#paint2_linear_273_204)"/>
<path d="M25.9861 418C25.9861 418 24.8818 415.709 28.0519 414.393C35.2495 411.404 32.4701 403.135 32.4818 403.869C32.558 408.714 26.9811 408.914 28.6183 408.249C32.1177 406.826 33.0538 395.909 22.1484 396.001C22.0583 396.001 22.1566 396.077 22.3582 396.233C23.1302 396.83 25.4163 398.597 24.4432 401.795C23.7777 403.981 21.4136 405.039 20.2245 403.273C19.7734 402.603 20.0566 401.343 20.1806 400.791C20.2182 400.624 20.2412 400.521 20.2245 400.521C18.8811 400.472 13.2621 408.527 21.0201 413.957C21.3444 414.184 21.329 414.053 21.2822 413.656C21.1639 412.652 20.845 409.944 25.2939 406.993C25.355 406.952 25.3156 406.996 25.2095 407.113C24.4043 408.002 19.7546 413.134 25.9861 418Z" fill="url(#paint3_linear_273_204)"/>
<path d="M9 393.398C9.5612 392.738 10.1625 392.114 10.8 391.529V406.338C10.7898 406.558 10.7846 406.778 10.7846 407C10.7846 407.222 10.7898 407.442 10.8 407.662V422.471C10.1625 421.886 9.5612 421.262 9 420.602V393.398Z" fill="url(#paint4_linear_273_204)"/>
<path d="M6 398.044C4.71728 400.761 4 403.797 4 407C4 410.203 4.71728 413.239 6 415.956V398.044Z" fill="url(#paint5_linear_273_204)"/>
<path d="M67.14 395.35H70.56L79.8 416.5H75.9L73.77 411.43H63.84L61.68 416.5H57.9L67.14 395.35ZM72.42 408.16L68.79 399.76L65.19 408.16H72.42ZM81.9812 400.66H85.6112V403.3C86.1912 402.48 86.9112 401.78 87.7712 401.2C88.6312 400.62 89.7112 400.33 91.0112 400.33C91.9312 400.33 92.8312 400.51 93.7112 400.87C94.6112 401.23 95.4012 401.76 96.0812 402.46C96.7612 403.16 97.3112 404.02 97.7312 405.04C98.1512 406.06 98.3612 407.23 98.3612 408.55V408.61C98.3612 409.93 98.1512 411.1 97.7312 412.12C97.3312 413.14 96.7812 414 96.0812 414.7C95.4012 415.4 94.6212 415.93 93.7412 416.29C92.8612 416.65 91.9512 416.83 91.0112 416.83C89.6912 416.83 88.6012 416.55 87.7412 415.99C86.8812 415.43 86.1712 414.78 85.6112 414.04V421.3H81.9812V400.66ZM90.1412 413.68C90.7612 413.68 91.3412 413.56 91.8812 413.32C92.4412 413.08 92.9212 412.75 93.3212 412.33C93.7412 411.89 94.0712 411.36 94.3112 410.74C94.5512 410.1 94.6712 409.39 94.6712 408.61V408.55C94.6712 407.79 94.5512 407.1 94.3112 406.48C94.0712 405.84 93.7412 405.3 93.3212 404.86C92.9212 404.42 92.4412 404.08 91.8812 403.84C91.3412 403.6 90.7612 403.48 90.1412 403.48C89.5212 403.48 88.9312 403.6 88.3712 403.84C87.8112 404.08 87.3212 404.43 86.9012 404.89C86.4812 405.33 86.1412 405.86 85.8812 406.48C85.6412 407.1 85.5212 407.79 85.5212 408.55V408.61C85.5212 409.37 85.6412 410.06 85.8812 410.68C86.1412 411.3 86.4812 411.84 86.9012 412.3C87.3212 412.74 87.8112 413.08 88.3712 413.32C88.9312 413.56 89.5212 413.68 90.1412 413.68ZM101.108 400.66H104.738V403.3C105.318 402.48 106.038 401.78 106.898 401.2C107.758 400.62 108.838 400.33 110.138 400.33C111.058 400.33 111.958 400.51 112.838 400.87C113.738 401.23 114.528 401.76 115.208 402.46C115.888 403.16 116.438 404.02 116.858 405.04C117.278 406.06 117.488 407.23 117.488 408.55V408.61C117.488 409.93 117.278 411.1 116.858 412.12C116.458 413.14 115.908 414 115.208 414.7C114.528 415.4 113.748 415.93 112.868 416.29C111.988 416.65 111.078 416.83 110.138 416.83C108.818 416.83 107.728 416.55 106.868 415.99C106.008 415.43 105.298 414.78 104.738 414.04V421.3H101.108V400.66ZM109.268 413.68C109.888 413.68 110.468 413.56 111.008 413.32C111.568 413.08 112.048 412.75 112.448 412.33C112.868 411.89 113.198 411.36 113.438 410.74C113.678 410.1 113.798 409.39 113.798 408.61V408.55C113.798 407.79 113.678 407.1 113.438 406.48C113.198 405.84 112.868 405.3 112.448 404.86C112.048 404.42 111.568 404.08 111.008 403.84C110.468 403.6 109.888 403.48 109.268 403.48C108.648 403.48 108.058 403.6 107.498 403.84C106.938 404.08 106.448 404.43 106.028 404.89C105.608 405.33 105.268 405.86 105.008 406.48C104.768 407.1 104.648 407.79 104.648 408.55V408.61C104.648 409.37 104.768 410.06 105.008 410.68C105.268 411.3 105.608 411.84 106.028 412.3C106.448 412.74 106.938 413.08 107.498 413.32C108.058 413.56 108.648 413.68 109.268 413.68ZM128.005 416.8C126.385 416.8 124.835 416.53 123.355 415.99C121.875 415.43 120.505 414.58 119.245 413.44L121.465 410.8C122.485 411.68 123.515 412.36 124.555 412.84C125.615 413.3 126.795 413.53 128.095 413.53C129.235 413.53 130.135 413.29 130.795 412.81C131.475 412.31 131.815 411.67 131.815 410.89V410.83C131.815 410.45 131.745 410.12 131.605 409.84C131.485 409.54 131.245 409.26 130.885 409C130.545 408.74 130.065 408.5 129.445 408.28C128.845 408.06 128.055 407.84 127.075 407.62C125.955 407.36 124.955 407.07 124.075 406.75C123.215 406.41 122.485 406.01 121.885 405.55C121.305 405.07 120.855 404.49 120.535 403.81C120.235 403.13 120.085 402.31 120.085 401.35V401.29C120.085 400.39 120.265 399.57 120.625 398.83C120.985 398.07 121.475 397.43 122.095 396.91C122.735 396.37 123.495 395.95 124.375 395.65C125.255 395.35 126.215 395.2 127.255 395.2C128.795 395.2 130.175 395.43 131.395 395.89C132.635 396.33 133.795 396.98 134.875 397.84L132.895 400.63C131.935 399.93 130.985 399.4 130.045 399.04C129.105 398.66 128.155 398.47 127.195 398.47C126.115 398.47 125.275 398.71 124.675 399.19C124.075 399.67 123.775 400.26 123.775 400.96V401.02C123.775 401.42 123.845 401.78 123.985 402.1C124.125 402.4 124.385 402.68 124.765 402.94C125.145 403.18 125.655 403.41 126.295 403.63C126.935 403.85 127.765 404.08 128.785 404.32C129.885 404.6 130.855 404.91 131.695 405.25C132.535 405.59 133.235 406.01 133.795 406.51C134.375 406.99 134.805 407.56 135.085 408.22C135.365 408.86 135.505 409.61 135.505 410.47V410.53C135.505 411.51 135.315 412.39 134.935 413.17C134.575 413.95 134.065 414.61 133.405 415.15C132.745 415.69 131.955 416.1 131.035 416.38C130.115 416.66 129.105 416.8 128.005 416.8ZM145.745 416.86C144.565 416.86 143.475 416.65 142.475 416.23C141.475 415.79 140.605 415.2 139.865 414.46C139.145 413.72 138.575 412.85 138.155 411.85C137.755 410.85 137.555 409.79 137.555 408.67V408.61C137.555 407.49 137.755 406.43 138.155 405.43C138.575 404.41 139.155 403.53 139.895 402.79C140.635 402.03 141.505 401.43 142.505 400.99C143.505 400.55 144.605 400.33 145.805 400.33C146.545 400.33 147.215 400.4 147.815 400.54C148.435 400.66 148.995 400.84 149.495 401.08C150.015 401.32 150.485 401.61 150.905 401.95C151.345 402.29 151.755 402.66 152.135 403.06L149.855 405.49C149.295 404.91 148.695 404.44 148.055 404.08C147.435 403.7 146.675 403.51 145.775 403.51C145.115 403.51 144.505 403.65 143.945 403.93C143.385 404.19 142.895 404.55 142.475 405.01C142.075 405.45 141.755 405.98 141.515 406.6C141.295 407.22 141.185 407.87 141.185 408.55V408.61C141.185 409.31 141.295 409.97 141.515 410.59C141.755 411.21 142.085 411.75 142.505 412.21C142.925 412.67 143.425 413.03 144.005 413.29C144.585 413.55 145.225 413.68 145.925 413.68C146.785 413.68 147.535 413.5 148.175 413.14C148.835 412.78 149.455 412.31 150.035 411.73L152.225 413.89C151.445 414.77 150.555 415.49 149.555 416.05C148.555 416.59 147.285 416.86 145.745 416.86ZM159.123 416.83C158.383 416.83 157.673 416.72 156.993 416.5C156.313 416.3 155.713 416 155.193 415.6C154.693 415.18 154.283 414.67 153.963 414.07C153.663 413.45 153.513 412.74 153.513 411.94V411.88C153.513 411.02 153.673 410.27 153.993 409.63C154.313 408.99 154.753 408.46 155.313 408.04C155.893 407.62 156.583 407.31 157.383 407.11C158.203 406.89 159.093 406.78 160.053 406.78C160.953 406.78 161.733 406.84 162.393 406.96C163.053 407.08 163.693 407.24 164.313 407.44V407.05C164.313 405.91 163.973 405.05 163.293 404.47C162.633 403.89 161.663 403.6 160.383 403.6C159.483 403.6 158.683 403.69 157.983 403.87C157.283 404.05 156.573 404.29 155.853 404.59L154.893 401.74C155.773 401.34 156.673 401.03 157.593 400.81C158.513 400.57 159.603 400.45 160.863 400.45C163.223 400.45 164.973 401.04 166.113 402.22C166.693 402.8 167.123 403.5 167.403 404.32C167.683 405.14 167.823 406.07 167.823 407.11V416.5H164.283V414.52C163.743 415.16 163.053 415.71 162.213 416.17C161.373 416.61 160.343 416.83 159.123 416.83ZM160.143 414.19C160.743 414.19 161.303 414.11 161.823 413.95C162.343 413.79 162.783 413.56 163.143 413.26C163.523 412.96 163.823 412.6 164.043 412.18C164.263 411.76 164.373 411.3 164.373 410.8V409.72C163.913 409.54 163.373 409.39 162.753 409.27C162.153 409.15 161.493 409.09 160.773 409.09C159.593 409.09 158.673 409.32 158.013 409.78C157.373 410.24 157.053 410.89 157.053 411.73V411.79C157.053 412.55 157.343 413.14 157.923 413.56C158.523 413.98 159.263 414.19 160.143 414.19ZM171.171 400.66H174.801V403.09C175.061 402.73 175.341 402.38 175.641 402.04C175.961 401.7 176.321 401.41 176.721 401.17C177.141 400.91 177.591 400.71 178.071 400.57C178.571 400.41 179.131 400.33 179.751 400.33C181.551 400.33 182.941 400.88 183.921 401.98C184.901 403.08 185.391 404.55 185.391 406.39V416.5H181.761V407.5C181.761 406.26 181.461 405.31 180.861 404.65C180.281 403.97 179.451 403.63 178.371 403.63C177.311 403.63 176.451 403.98 175.791 404.68C175.131 405.36 174.801 406.32 174.801 407.56V416.5H171.171V400.66ZM204.538 416.8C202.918 416.8 201.368 416.53 199.888 415.99C198.408 415.43 197.038 414.58 195.778 413.44L197.998 410.8C199.018 411.68 200.048 412.36 201.088 412.84C202.148 413.3 203.328 413.53 204.628 413.53C205.768 413.53 206.668 413.29 207.328 412.81C208.008 412.31 208.348 411.67 208.348 410.89V410.83C208.348 410.45 208.278 410.12 208.138 409.84C208.018 409.54 207.778 409.26 207.418 409C207.078 408.74 206.598 408.5 205.978 408.28C205.378 408.06 204.588 407.84 203.608 407.62C202.488 407.36 201.488 407.07 200.608 406.75C199.748 406.41 199.018 406.01 198.418 405.55C197.838 405.07 197.388 404.49 197.068 403.81C196.768 403.13 196.618 402.31 196.618 401.35V401.29C196.618 400.39 196.798 399.57 197.158 398.83C197.518 398.07 198.008 397.43 198.628 396.91C199.268 396.37 200.028 395.95 200.908 395.65C201.788 395.35 202.748 395.2 203.788 395.2C205.328 395.2 206.708 395.43 207.928 395.89C209.168 396.33 210.328 396.98 211.408 397.84L209.428 400.63C208.468 399.93 207.518 399.4 206.578 399.04C205.638 398.66 204.688 398.47 203.728 398.47C202.648 398.47 201.808 398.71 201.208 399.19C200.608 399.67 200.308 400.26 200.308 400.96V401.02C200.308 401.42 200.378 401.78 200.518 402.1C200.658 402.4 200.918 402.68 201.298 402.94C201.678 403.18 202.188 403.41 202.828 403.63C203.468 403.85 204.298 404.08 205.318 404.32C206.418 404.6 207.388 404.91 208.228 405.25C209.068 405.59 209.768 406.01 210.328 406.51C210.908 406.99 211.338 407.56 211.618 408.22C211.898 408.86 212.038 409.61 212.038 410.47V410.53C212.038 411.51 211.848 412.39 211.468 413.17C211.108 413.95 210.598 414.61 209.938 415.15C209.278 415.69 208.488 416.1 207.568 416.38C206.648 416.66 205.638 416.8 204.538 416.8ZM222.488 416.86C221.288 416.86 220.168 416.65 219.128 416.23C218.108 415.79 217.218 415.2 216.458 414.46C215.718 413.72 215.138 412.85 214.718 411.85C214.298 410.85 214.088 409.79 214.088 408.67V408.61C214.088 407.47 214.298 406.4 214.718 405.4C215.158 404.4 215.748 403.53 216.488 402.79C217.248 402.03 218.138 401.43 219.158 400.99C220.198 400.55 221.328 400.33 222.548 400.33C223.768 400.33 224.888 400.55 225.908 400.99C226.948 401.41 227.838 402 228.578 402.76C229.338 403.5 229.928 404.37 230.348 405.37C230.768 406.35 230.978 407.41 230.978 408.55V408.61C230.978 409.73 230.758 410.79 230.318 411.79C229.898 412.79 229.308 413.67 228.548 414.43C227.808 415.17 226.918 415.76 225.878 416.2C224.838 416.64 223.708 416.86 222.488 416.86ZM222.548 413.68C223.288 413.68 223.948 413.55 224.528 413.29C225.128 413.01 225.638 412.65 226.058 412.21C226.478 411.75 226.798 411.22 227.018 410.62C227.238 410 227.348 409.35 227.348 408.67V408.61C227.348 407.91 227.228 407.25 226.988 406.63C226.748 406.01 226.408 405.47 225.968 405.01C225.548 404.55 225.038 404.19 224.438 403.93C223.858 403.65 223.208 403.51 222.488 403.51C221.768 403.51 221.108 403.65 220.508 403.93C219.928 404.19 219.428 404.55 219.008 405.01C218.588 405.45 218.268 405.98 218.048 406.6C217.828 407.22 217.718 407.87 217.718 408.55V408.61C217.718 409.31 217.838 409.97 218.078 410.59C218.318 411.19 218.648 411.72 219.068 412.18C219.508 412.64 220.018 413.01 220.598 413.29C221.198 413.55 221.848 413.68 222.548 413.68ZM239.135 416.83C237.335 416.83 235.945 416.28 234.965 415.18C233.985 414.08 233.495 412.6 233.495 410.74V400.66H237.125V409.66C237.125 410.9 237.415 411.85 237.995 412.51C238.595 413.17 239.435 413.5 240.515 413.5C241.575 413.5 242.435 413.16 243.095 412.48C243.755 411.8 244.085 410.84 244.085 409.6V400.66H247.745V416.5H244.085V414.04C243.565 414.8 242.915 415.46 242.135 416.02C241.355 416.56 240.355 416.83 239.135 416.83ZM251.278 400.66H254.908V404.23C255.408 403.03 256.118 402.07 257.038 401.35C257.958 400.63 259.118 400.3 260.518 400.36V404.2H260.308C259.508 404.2 258.778 404.33 258.118 404.59C257.458 404.85 256.888 405.24 256.408 405.76C255.928 406.28 255.558 406.94 255.298 407.74C255.038 408.52 254.908 409.43 254.908 410.47V416.5H251.278V400.66ZM269.463 416.86C268.283 416.86 267.193 416.65 266.193 416.23C265.193 415.79 264.323 415.2 263.583 414.46C262.863 413.72 262.293 412.85 261.873 411.85C261.473 410.85 261.273 409.79 261.273 408.67V408.61C261.273 407.49 261.473 406.43 261.873 405.43C262.293 404.41 262.873 403.53 263.613 402.79C264.353 402.03 265.223 401.43 266.223 400.99C267.223 400.55 268.323 400.33 269.523 400.33C270.263 400.33 270.933 400.4 271.533 400.54C272.153 400.66 272.713 400.84 273.213 401.08C273.733 401.32 274.203 401.61 274.623 401.95C275.063 402.29 275.473 402.66 275.853 403.06L273.573 405.49C273.013 404.91 272.413 404.44 271.773 404.08C271.153 403.7 270.393 403.51 269.493 403.51C268.833 403.51 268.223 403.65 267.663 403.93C267.103 404.19 266.613 404.55 266.193 405.01C265.793 405.45 265.473 405.98 265.233 406.6C265.013 407.22 264.903 407.87 264.903 408.55V408.61C264.903 409.31 265.013 409.97 265.233 410.59C265.473 411.21 265.803 411.75 266.223 412.21C266.643 412.67 267.143 413.03 267.723 413.29C268.303 413.55 268.943 413.68 269.643 413.68C270.503 413.68 271.253 413.5 271.893 413.14C272.553 412.78 273.173 412.31 273.753 411.73L275.943 413.89C275.163 414.77 274.273 415.49 273.273 416.05C272.273 416.59 271.003 416.86 269.463 416.86ZM285.103 416.86C283.963 416.86 282.893 416.66 281.893 416.26C280.913 415.86 280.053 415.3 279.312 414.58C278.593 413.86 278.023 413 277.603 412C277.183 410.98 276.973 409.86 276.973 408.64V408.58C276.973 407.44 277.163 406.37 277.542 405.37C277.923 404.37 278.453 403.5 279.133 402.76C279.833 402 280.653 401.41 281.593 400.99C282.533 400.55 283.573 400.33 284.713 400.33C285.973 400.33 287.073 400.56 288.013 401.02C288.973 401.48 289.763 402.1 290.383 402.88C291.023 403.66 291.503 404.57 291.823 405.61C292.143 406.63 292.303 407.71 292.303 408.85C292.303 409.01 292.293 409.18 292.273 409.36C292.273 409.52 292.263 409.69 292.243 409.87H280.603C280.803 411.17 281.313 412.17 282.133 412.87C282.973 413.55 283.983 413.89 285.163 413.89C286.063 413.89 286.843 413.73 287.503 413.41C288.163 413.09 288.813 412.62 289.453 412L291.583 413.89C290.823 414.79 289.913 415.51 288.853 416.05C287.813 416.59 286.563 416.86 285.103 416.86ZM288.703 407.47C288.643 406.89 288.513 406.35 288.313 405.85C288.113 405.33 287.843 404.89 287.503 404.53C287.163 404.15 286.753 403.85 286.273 403.63C285.813 403.41 285.283 403.3 284.683 403.3C283.563 403.3 282.633 403.69 281.893 404.47C281.173 405.23 280.733 406.23 280.573 407.47H288.703Z" fill="#0066B0"/>
<path d="M9 209C4.58172 209 1 205.418 1 201C1 197.58 3.14617 194.661 6.16522 193.517C6.05624 192.693 6 191.853 6 191C6 180.507 14.5066 172 25 172C34.7114 172 42.7211 179.286 43.861 188.69C46.9488 190.638 49 194.079 49 198C49 204.075 44.0751 209 38 209H27V204.858C33.7846 203.888 39 198.053 39 191C39 183.268 32.732 177 25 177C17.268 177 11 183.268 11 191C11 198.053 16.2154 203.888 23 204.858V209H9Z" fill="url(#paint6_linear_273_204)"/>
<path d="M28.0519 198.393C24.8818 199.709 25.9861 202 25.9861 202C19.7546 197.134 24.4042 192.002 25.2095 191.113C25.3156 190.995 25.355 190.952 25.2939 190.993C20.845 193.944 21.1639 196.652 21.2822 197.656C21.329 198.053 21.3444 198.184 21.0201 197.957C13.2621 192.527 18.8811 184.472 20.2245 184.521C20.2412 184.521 20.2182 184.623 20.1807 184.791C20.0567 185.342 19.7734 186.603 20.2245 187.273C21.4136 189.039 23.7777 187.981 24.4432 185.795C25.4163 182.597 23.1302 180.83 22.3582 180.233C22.1566 180.077 22.0583 180.001 22.1484 180.001C33.0538 179.909 32.1176 190.826 28.6183 192.249C26.9811 192.914 32.558 192.714 32.4818 187.869C32.4701 187.135 35.2495 195.404 28.0519 198.393Z" fill="url(#paint7_linear_273_204)"/>
<path d="M67.14 179.35H70.56L79.8 200.5H75.9L73.77 195.43H63.84L61.68 200.5H57.9L67.14 179.35ZM72.42 192.16L68.79 183.76L65.19 192.16H72.42ZM81.9812 184.66H85.6112V187.3C86.1912 186.48 86.9112 185.78 87.7712 185.2C88.6312 184.62 89.7112 184.33 91.0112 184.33C91.9312 184.33 92.8312 184.51 93.7112 184.87C94.6112 185.23 95.4012 185.76 96.0812 186.46C96.7612 187.16 97.3112 188.02 97.7312 189.04C98.1512 190.06 98.3612 191.23 98.3612 192.55V192.61C98.3612 193.93 98.1512 195.1 97.7312 196.12C97.3312 197.14 96.7812 198 96.0812 198.7C95.4012 199.4 94.6212 199.93 93.7412 200.29C92.8612 200.65 91.9512 200.83 91.0112 200.83C89.6912 200.83 88.6012 200.55 87.7412 199.99C86.8812 199.43 86.1712 198.78 85.6112 198.04V205.3H81.9812V184.66ZM90.1412 197.68C90.7612 197.68 91.3412 197.56 91.8812 197.32C92.4412 197.08 92.9212 196.75 93.3212 196.33C93.7412 195.89 94.0712 195.36 94.3112 194.74C94.5512 194.1 94.6712 193.39 94.6712 192.61V192.55C94.6712 191.79 94.5512 191.1 94.3112 190.48C94.0712 189.84 93.7412 189.3 93.3212 188.86C92.9212 188.42 92.4412 188.08 91.8812 187.84C91.3412 187.6 90.7612 187.48 90.1412 187.48C89.5212 187.48 88.9312 187.6 88.3712 187.84C87.8112 188.08 87.3212 188.43 86.9012 188.89C86.4812 189.33 86.1412 189.86 85.8812 190.48C85.6412 191.1 85.5212 191.79 85.5212 192.55V192.61C85.5212 193.37 85.6412 194.06 85.8812 194.68C86.1412 195.3 86.4812 195.84 86.9012 196.3C87.3212 196.74 87.8112 197.08 88.3712 197.32C88.9312 197.56 89.5212 197.68 90.1412 197.68ZM101.108 184.66H104.738V187.3C105.318 186.48 106.038 185.78 106.898 185.2C107.758 184.62 108.838 184.33 110.138 184.33C111.058 184.33 111.958 184.51 112.838 184.87C113.738 185.23 114.528 185.76 115.208 186.46C115.888 187.16 116.438 188.02 116.858 189.04C117.278 190.06 117.488 191.23 117.488 192.55V192.61C117.488 193.93 117.278 195.1 116.858 196.12C116.458 197.14 115.908 198 115.208 198.7C114.528 199.4 113.748 199.93 112.868 200.29C111.988 200.65 111.078 200.83 110.138 200.83C108.818 200.83 107.728 200.55 106.868 199.99C106.008 199.43 105.298 198.78 104.738 198.04V205.3H101.108V184.66ZM109.268 197.68C109.888 197.68 110.468 197.56 111.008 197.32C111.568 197.08 112.048 196.75 112.448 196.33C112.868 195.89 113.198 195.36 113.438 194.74C113.678 194.1 113.798 193.39 113.798 192.61V192.55C113.798 191.79 113.678 191.1 113.438 190.48C113.198 189.84 112.868 189.3 112.448 188.86C112.048 188.42 111.568 188.08 111.008 187.84C110.468 187.6 109.888 187.48 109.268 187.48C108.648 187.48 108.058 187.6 107.498 187.84C106.938 188.08 106.448 188.43 106.028 188.89C105.608 189.33 105.268 189.86 105.008 190.48C104.768 191.1 104.648 191.79 104.648 192.55V192.61C104.648 193.37 104.768 194.06 105.008 194.68C105.268 195.3 105.608 195.84 106.028 196.3C106.448 196.74 106.938 197.08 107.498 197.32C108.058 197.56 108.648 197.68 109.268 197.68ZM128.005 200.8C126.385 200.8 124.835 200.53 123.355 199.99C121.875 199.43 120.505 198.58 119.245 197.44L121.465 194.8C122.485 195.68 123.515 196.36 124.555 196.84C125.615 197.3 126.795 197.53 128.095 197.53C129.235 197.53 130.135 197.29 130.795 196.81C131.475 196.31 131.815 195.67 131.815 194.89V194.83C131.815 194.45 131.745 194.12 131.605 193.84C131.485 193.54 131.245 193.26 130.885 193C130.545 192.74 130.065 192.5 129.445 192.28C128.845 192.06 128.055 191.84 127.075 191.62C125.955 191.36 124.955 191.07 124.075 190.75C123.215 190.41 122.485 190.01 121.885 189.55C121.305 189.07 120.855 188.49 120.535 187.81C120.235 187.13 120.085 186.31 120.085 185.35V185.29C120.085 184.39 120.265 183.57 120.625 182.83C120.985 182.07 121.475 181.43 122.095 180.91C122.735 180.37 123.495 179.95 124.375 179.65C125.255 179.35 126.215 179.2 127.255 179.2C128.795 179.2 130.175 179.43 131.395 179.89C132.635 180.33 133.795 180.98 134.875 181.84L132.895 184.63C131.935 183.93 130.985 183.4 130.045 183.04C129.105 182.66 128.155 182.47 127.195 182.47C126.115 182.47 125.275 182.71 124.675 183.19C124.075 183.67 123.775 184.26 123.775 184.96V185.02C123.775 185.42 123.845 185.78 123.985 186.1C124.125 186.4 124.385 186.68 124.765 186.94C125.145 187.18 125.655 187.41 126.295 187.63C126.935 187.85 127.765 188.08 128.785 188.32C129.885 188.6 130.855 188.91 131.695 189.25C132.535 189.59 133.235 190.01 133.795 190.51C134.375 190.99 134.805 191.56 135.085 192.22C135.365 192.86 135.505 193.61 135.505 194.47V194.53C135.505 195.51 135.315 196.39 134.935 197.17C134.575 197.95 134.065 198.61 133.405 199.15C132.745 199.69 131.955 200.1 131.035 200.38C130.115 200.66 129.105 200.8 128.005 200.8ZM145.745 200.86C144.565 200.86 143.475 200.65 142.475 200.23C141.475 199.79 140.605 199.2 139.865 198.46C139.145 197.72 138.575 196.85 138.155 195.85C137.755 194.85 137.555 193.79 137.555 192.67V192.61C137.555 191.49 137.755 190.43 138.155 189.43C138.575 188.41 139.155 187.53 139.895 186.79C140.635 186.03 141.505 185.43 142.505 184.99C143.505 184.55 144.605 184.33 145.805 184.33C146.545 184.33 147.215 184.4 147.815 184.54C148.435 184.66 148.995 184.84 149.495 185.08C150.015 185.32 150.485 185.61 150.905 185.95C151.345 186.29 151.755 186.66 152.135 187.06L149.855 189.49C149.295 188.91 148.695 188.44 148.055 188.08C147.435 187.7 146.675 187.51 145.775 187.51C145.115 187.51 144.505 187.65 143.945 187.93C143.385 188.19 142.895 188.55 142.475 189.01C142.075 189.45 141.755 189.98 141.515 190.6C141.295 191.22 141.185 191.87 141.185 192.55V192.61C141.185 193.31 141.295 193.97 141.515 194.59C141.755 195.21 142.085 195.75 142.505 196.21C142.925 196.67 143.425 197.03 144.005 197.29C144.585 197.55 145.225 197.68 145.925 197.68C146.785 197.68 147.535 197.5 148.175 197.14C148.835 196.78 149.455 196.31 150.035 195.73L152.225 197.89C151.445 198.77 150.555 199.49 149.555 200.05C148.555 200.59 147.285 200.86 145.745 200.86ZM159.123 200.83C158.383 200.83 157.673 200.72 156.993 200.5C156.313 200.3 155.713 200 155.193 199.6C154.693 199.18 154.283 198.67 153.963 198.07C153.663 197.45 153.513 196.74 153.513 195.94V195.88C153.513 195.02 153.673 194.27 153.993 193.63C154.313 192.99 154.753 192.46 155.313 192.04C155.893 191.62 156.583 191.31 157.383 191.11C158.203 190.89 159.093 190.78 160.053 190.78C160.953 190.78 161.733 190.84 162.393 190.96C163.053 191.08 163.693 191.24 164.313 191.44V191.05C164.313 189.91 163.973 189.05 163.293 188.47C162.633 187.89 161.663 187.6 160.383 187.6C159.483 187.6 158.683 187.69 157.983 187.87C157.283 188.05 156.573 188.29 155.853 188.59L154.893 185.74C155.773 185.34 156.673 185.03 157.593 184.81C158.513 184.57 159.603 184.45 160.863 184.45C163.223 184.45 164.973 185.04 166.113 186.22C166.693 186.8 167.123 187.5 167.403 188.32C167.683 189.14 167.823 190.07 167.823 191.11V200.5H164.283V198.52C163.743 199.16 163.053 199.71 162.213 200.17C161.373 200.61 160.343 200.83 159.123 200.83ZM160.143 198.19C160.743 198.19 161.303 198.11 161.823 197.95C162.343 197.79 162.783 197.56 163.143 197.26C163.523 196.96 163.823 196.6 164.043 196.18C164.263 195.76 164.373 195.3 164.373 194.8V193.72C163.913 193.54 163.373 193.39 162.753 193.27C162.153 193.15 161.493 193.09 160.773 193.09C159.593 193.09 158.673 193.32 158.013 193.78C157.373 194.24 157.053 194.89 157.053 195.73V195.79C157.053 196.55 157.343 197.14 157.923 197.56C158.523 197.98 159.263 198.19 160.143 198.19ZM171.171 184.66H174.801V187.09C175.061 186.73 175.341 186.38 175.641 186.04C175.961 185.7 176.321 185.41 176.721 185.17C177.141 184.91 177.591 184.71 178.071 184.57C178.571 184.41 179.131 184.33 179.751 184.33C181.551 184.33 182.941 184.88 183.921 185.98C184.901 187.08 185.391 188.55 185.391 190.39V200.5H181.761V191.5C181.761 190.26 181.461 189.31 180.861 188.65C180.281 187.97 179.451 187.63 178.371 187.63C177.311 187.63 176.451 187.98 175.791 188.68C175.131 189.36 174.801 190.32 174.801 191.56V200.5H171.171V184.66ZM204.005 200.86C202.805 200.86 201.685 200.65 200.645 200.23C199.625 199.79 198.735 199.2 197.975 198.46C197.235 197.72 196.655 196.85 196.235 195.85C195.815 194.85 195.605 193.79 195.605 192.67V192.61C195.605 191.47 195.815 190.4 196.235 189.4C196.675 188.4 197.265 187.53 198.005 186.79C198.765 186.03 199.655 185.43 200.675 184.99C201.715 184.55 202.845 184.33 204.065 184.33C205.285 184.33 206.405 184.55 207.425 184.99C208.465 185.41 209.355 186 210.095 186.76C210.855 187.5 211.445 188.37 211.865 189.37C212.285 190.35 212.495 191.41 212.495 192.55V192.61C212.495 193.73 212.275 194.79 211.835 195.79C211.415 196.79 210.825 197.67 210.065 198.43C209.325 199.17 208.435 199.76 207.395 200.2C206.355 200.64 205.225 200.86 204.005 200.86ZM204.065 197.68C204.805 197.68 205.465 197.55 206.045 197.29C206.645 197.01 207.155 196.65 207.575 196.21C207.995 195.75 208.315 195.22 208.535 194.62C208.755 194 208.865 193.35 208.865 192.67V192.61C208.865 191.91 208.745 191.25 208.505 190.63C208.265 190.01 207.925 189.47 207.485 189.01C207.065 188.55 206.555 188.19 205.955 187.93C205.375 187.65 204.725 187.51 204.005 187.51C203.285 187.51 202.625 187.65 202.025 187.93C201.445 188.19 200.945 188.55 200.525 189.01C200.105 189.45 199.785 189.98 199.565 190.6C199.345 191.22 199.235 191.87 199.235 192.55V192.61C199.235 193.31 199.355 193.97 199.595 194.59C199.835 195.19 200.165 195.72 200.585 196.18C201.025 196.64 201.535 197.01 202.115 197.29C202.715 197.55 203.365 197.68 204.065 197.68ZM215.192 184.66H218.822V187.09C219.082 186.73 219.362 186.38 219.662 186.04C219.982 185.7 220.342 185.41 220.742 185.17C221.162 184.91 221.612 184.71 222.092 184.57C222.592 184.41 223.152 184.33 223.772 184.33C225.572 184.33 226.962 184.88 227.942 185.98C228.922 187.08 229.412 188.55 229.412 190.39V200.5H225.782V191.5C225.782 190.26 225.482 189.31 224.882 188.65C224.302 187.97 223.472 187.63 222.392 187.63C221.332 187.63 220.472 187.98 219.812 188.68C219.152 189.36 218.822 190.32 218.822 191.56V200.5H215.192V184.66ZM250.96 200.86C249.42 200.86 248 200.58 246.7 200.02C245.4 199.46 244.27 198.7 243.31 197.74C242.37 196.76 241.63 195.61 241.09 194.29C240.55 192.97 240.28 191.56 240.28 190.06V190C240.28 188.5 240.54 187.1 241.06 185.8C241.6 184.48 242.35 183.33 243.31 182.35C244.27 181.35 245.41 180.57 246.73 180.01C248.05 179.43 249.51 179.14 251.11 179.14C252.07 179.14 252.94 179.22 253.72 179.38C254.52 179.54 255.25 179.77 255.91 180.07C256.57 180.35 257.18 180.69 257.74 181.09C258.3 181.49 258.83 181.93 259.33 182.41L256.96 185.14C256.12 184.36 255.23 183.73 254.29 183.25C253.35 182.77 252.28 182.53 251.08 182.53C250.08 182.53 249.15 182.73 248.29 183.13C247.45 183.51 246.72 184.04 246.1 184.72C245.5 185.38 245.02 186.16 244.66 187.06C244.32 187.96 244.15 188.92 244.15 189.94V190C244.15 191.02 244.32 191.99 244.66 192.91C245 193.81 245.48 194.6 246.1 195.28C246.72 195.94 247.45 196.47 248.29 196.87C249.15 197.25 250.08 197.44 251.08 197.44C252.36 197.44 253.46 197.2 254.38 196.72C255.3 196.24 256.21 195.58 257.11 194.74L259.48 197.14C258.94 197.72 258.37 198.24 257.77 198.7C257.19 199.14 256.56 199.53 255.88 199.87C255.2 200.19 254.45 200.43 253.63 200.59C252.83 200.77 251.94 200.86 250.96 200.86ZM262.148 178.6H265.778V200.5H262.148V178.6ZM277.052 200.86C275.852 200.86 274.732 200.65 273.692 200.23C272.672 199.79 271.782 199.2 271.022 198.46C270.282 197.72 269.702 196.85 269.282 195.85C268.862 194.85 268.652 193.79 268.652 192.67V192.61C268.652 191.47 268.862 190.4 269.282 189.4C269.722 188.4 270.312 187.53 271.052 186.79C271.812 186.03 272.702 185.43 273.722 184.99C274.762 184.55 275.892 184.33 277.112 184.33C278.332 184.33 279.452 184.55 280.472 184.99C281.512 185.41 282.402 186 283.142 186.76C283.902 187.5 284.492 188.37 284.912 189.37C285.332 190.35 285.542 191.41 285.542 192.55V192.61C285.542 193.73 285.322 194.79 284.882 195.79C284.462 196.79 283.872 197.67 283.112 198.43C282.372 199.17 281.482 199.76 280.442 200.2C279.402 200.64 278.272 200.86 277.052 200.86ZM277.112 197.68C277.852 197.68 278.512 197.55 279.092 197.29C279.692 197.01 280.202 196.65 280.622 196.21C281.042 195.75 281.362 195.22 281.582 194.62C281.802 194 281.912 193.35 281.912 192.67V192.61C281.912 191.91 281.792 191.25 281.552 190.63C281.312 190.01 280.972 189.47 280.532 189.01C280.112 188.55 279.602 188.19 279.002 187.93C278.422 187.65 277.772 187.51 277.052 187.51C276.332 187.51 275.672 187.65 275.072 187.93C274.492 188.19 273.992 188.55 273.572 189.01C273.152 189.45 272.832 189.98 272.612 190.6C272.392 191.22 272.282 191.87 272.282 192.55V192.61C272.282 193.31 272.402 193.97 272.642 194.59C272.882 195.19 273.212 195.72 273.632 196.18C274.072 196.64 274.582 197.01 275.162 197.29C275.762 197.55 276.412 197.68 277.112 197.68ZM293.699 200.83C291.899 200.83 290.509 200.28 289.529 199.18C288.549 198.08 288.059 196.6 288.059 194.74V184.66H291.689V193.66C291.689 194.9 291.979 195.85 292.559 196.51C293.159 197.17 293.999 197.5 295.079 197.5C296.139 197.5 296.999 197.16 297.659 196.48C298.319 195.8 298.649 194.84 298.649 193.6V184.66H302.309V200.5H298.649V198.04C298.129 198.8 297.479 199.46 296.699 200.02C295.919 200.56 294.919 200.83 293.699 200.83ZM312.382 200.83C311.443 200.83 310.533 200.65 309.653 200.29C308.773 199.93 307.993 199.4 307.312 198.7C306.633 198 306.083 197.14 305.663 196.12C305.243 195.1 305.033 193.93 305.033 192.61V192.55C305.033 191.23 305.233 190.06 305.633 189.04C306.053 188.02 306.603 187.16 307.283 186.46C307.963 185.76 308.743 185.23 309.623 184.87C310.523 184.51 311.443 184.33 312.382 184.33C313.043 184.33 313.633 184.41 314.153 184.57C314.693 184.71 315.183 184.91 315.623 185.17C316.063 185.43 316.463 185.73 316.823 186.07C317.183 186.39 317.503 186.74 317.783 187.12V178.6H321.413V200.5H317.783V197.86C317.203 198.68 316.473 199.38 315.593 199.96C314.733 200.54 313.663 200.83 312.382 200.83ZM313.253 197.68C313.853 197.68 314.433 197.56 314.993 197.32C315.553 197.08 316.043 196.74 316.463 196.3C316.883 195.84 317.213 195.3 317.453 194.68C317.713 194.06 317.843 193.37 317.843 192.61V192.55C317.843 191.79 317.713 191.1 317.453 190.48C317.213 189.84 316.883 189.3 316.463 188.86C316.043 188.42 315.553 188.08 314.993 187.84C314.433 187.6 313.853 187.48 313.253 187.48C312.633 187.48 312.043 187.6 311.482 187.84C310.943 188.06 310.463 188.39 310.043 188.83C309.623 189.27 309.293 189.81 309.053 190.45C308.813 191.07 308.693 191.77 308.693 192.55V192.61C308.693 193.37 308.813 194.07 309.053 194.71C309.293 195.33 309.623 195.86 310.043 196.3C310.463 196.74 310.943 197.08 311.482 197.32C312.043 197.56 312.633 197.68 313.253 197.68Z" fill="#0066B0"/>
<path d="M28.0519 342.393C24.8818 343.709 25.9861 346 25.9861 346C19.7546 341.134 24.4042 336.002 25.2095 335.113C25.3156 334.995 25.355 334.952 25.2939 334.993C20.845 337.944 21.1639 340.652 21.2822 341.656C21.329 342.053 21.3444 342.184 21.0201 341.957C13.2621 336.527 18.8811 328.472 20.2245 328.521C20.2412 328.521 20.2182 328.623 20.1807 328.791C20.0567 329.342 19.7734 330.603 20.2245 331.273C21.4136 333.039 23.7777 331.981 24.4432 329.795C25.4163 326.597 23.1302 324.83 22.3582 324.233C22.1566 324.077 22.0583 324.001 22.1484 324.001C33.0538 323.909 32.1176 334.826 28.6183 336.249C26.9811 336.914 32.558 336.714 32.4818 331.869C32.4701 331.135 35.2495 339.404 28.0519 342.393Z" fill="url(#paint8_linear_273_204)"/>
<path d="M23 321.142C16.2154 322.112 11 327.947 11 335C11 337.101 11.4627 339.093 12.2917 340.882L5 345.091V319C5 316.791 6.79086 315 9 315H23V321.142Z" fill="url(#paint9_linear_273_204)"/>
<path d="M27 321.142C33.7846 322.112 39 327.947 39 335C39 337.133 38.523 339.155 37.6698 340.964L45 345.196V319C45 316.791 43.2091 315 41 315H27V321.142Z" fill="url(#paint10_linear_273_204)"/>
<path d="M45 349.815L35.4591 344.307C32.8949 347.186 29.1593 349 25 349C20.8075 349 17.0454 347.157 14.4796 344.237L5 349.71V351C5 353.209 6.79086 355 9 355H41C43.2091 355 45 353.209 45 351V349.815Z" fill="url(#paint11_linear_273_204)"/>
<path d="M67.14 323.35H70.56L79.8 344.5H75.9L73.77 339.43H63.84L61.68 344.5H57.9L67.14 323.35ZM72.42 336.16L68.79 327.76L65.19 336.16H72.42ZM81.9812 328.66H85.6112V331.3C86.1912 330.48 86.9112 329.78 87.7712 329.2C88.6312 328.62 89.7112 328.33 91.0112 328.33C91.9312 328.33 92.8312 328.51 93.7112 328.87C94.6112 329.23 95.4012 329.76 96.0812 330.46C96.7612 331.16 97.3112 332.02 97.7312 333.04C98.1512 334.06 98.3612 335.23 98.3612 336.55V336.61C98.3612 337.93 98.1512 339.1 97.7312 340.12C97.3312 341.14 96.7812 342 96.0812 342.7C95.4012 343.4 94.6212 343.93 93.7412 344.29C92.8612 344.65 91.9512 344.83 91.0112 344.83C89.6912 344.83 88.6012 344.55 87.7412 343.99C86.8812 343.43 86.1712 342.78 85.6112 342.04V349.3H81.9812V328.66ZM90.1412 341.68C90.7612 341.68 91.3412 341.56 91.8812 341.32C92.4412 341.08 92.9212 340.75 93.3212 340.33C93.7412 339.89 94.0712 339.36 94.3112 338.74C94.5512 338.1 94.6712 337.39 94.6712 336.61V336.55C94.6712 335.79 94.5512 335.1 94.3112 334.48C94.0712 333.84 93.7412 333.3 93.3212 332.86C92.9212 332.42 92.4412 332.08 91.8812 331.84C91.3412 331.6 90.7612 331.48 90.1412 331.48C89.5212 331.48 88.9312 331.6 88.3712 331.84C87.8112 332.08 87.3212 332.43 86.9012 332.89C86.4812 333.33 86.1412 333.86 85.8812 334.48C85.6412 335.1 85.5212 335.79 85.5212 336.55V336.61C85.5212 337.37 85.6412 338.06 85.8812 338.68C86.1412 339.3 86.4812 339.84 86.9012 340.3C87.3212 340.74 87.8112 341.08 88.3712 341.32C88.9312 341.56 89.5212 341.68 90.1412 341.68ZM101.108 328.66H104.738V331.3C105.318 330.48 106.038 329.78 106.898 329.2C107.758 328.62 108.838 328.33 110.138 328.33C111.058 328.33 111.958 328.51 112.838 328.87C113.738 329.23 114.528 329.76 115.208 330.46C115.888 331.16 116.438 332.02 116.858 333.04C117.278 334.06 117.488 335.23 117.488 336.55V336.61C117.488 337.93 117.278 339.1 116.858 340.12C116.458 341.14 115.908 342 115.208 342.7C114.528 343.4 113.748 343.93 112.868 344.29C111.988 344.65 111.078 344.83 110.138 344.83C108.818 344.83 107.728 344.55 106.868 343.99C106.008 343.43 105.298 342.78 104.738 342.04V349.3H101.108V328.66ZM109.268 341.68C109.888 341.68 110.468 341.56 111.008 341.32C111.568 341.08 112.048 340.75 112.448 340.33C112.868 339.89 113.198 339.36 113.438 338.74C113.678 338.1 113.798 337.39 113.798 336.61V336.55C113.798 335.79 113.678 335.1 113.438 334.48C113.198 333.84 112.868 333.3 112.448 332.86C112.048 332.42 111.568 332.08 111.008 331.84C110.468 331.6 109.888 331.48 109.268 331.48C108.648 331.48 108.058 331.6 107.498 331.84C106.938 332.08 106.448 332.43 106.028 332.89C105.608 333.33 105.268 333.86 105.008 334.48C104.768 335.1 104.648 335.79 104.648 336.55V336.61C104.648 337.37 104.768 338.06 105.008 338.68C105.268 339.3 105.608 339.84 106.028 340.3C106.448 340.74 106.938 341.08 107.498 341.32C108.058 341.56 108.648 341.68 109.268 341.68ZM128.005 344.8C126.385 344.8 124.835 344.53 123.355 343.99C121.875 343.43 120.505 342.58 119.245 341.44L121.465 338.8C122.485 339.68 123.515 340.36 124.555 340.84C125.615 341.3 126.795 341.53 128.095 341.53C129.235 341.53 130.135 341.29 130.795 340.81C131.475 340.31 131.815 339.67 131.815 338.89V338.83C131.815 338.45 131.745 338.12 131.605 337.84C131.485 337.54 131.245 337.26 130.885 337C130.545 336.74 130.065 336.5 129.445 336.28C128.845 336.06 128.055 335.84 127.075 335.62C125.955 335.36 124.955 335.07 124.075 334.75C123.215 334.41 122.485 334.01 121.885 333.55C121.305 333.07 120.855 332.49 120.535 331.81C120.235 331.13 120.085 330.31 120.085 329.35V329.29C120.085 328.39 120.265 327.57 120.625 326.83C120.985 326.07 121.475 325.43 122.095 324.91C122.735 324.37 123.495 323.95 124.375 323.65C125.255 323.35 126.215 323.2 127.255 323.2C128.795 323.2 130.175 323.43 131.395 323.89C132.635 324.33 133.795 324.98 134.875 325.84L132.895 328.63C131.935 327.93 130.985 327.4 130.045 327.04C129.105 326.66 128.155 326.47 127.195 326.47C126.115 326.47 125.275 326.71 124.675 327.19C124.075 327.67 123.775 328.26 123.775 328.96V329.02C123.775 329.42 123.845 329.78 123.985 330.1C124.125 330.4 124.385 330.68 124.765 330.94C125.145 331.18 125.655 331.41 126.295 331.63C126.935 331.85 127.765 332.08 128.785 332.32C129.885 332.6 130.855 332.91 131.695 333.25C132.535 333.59 133.235 334.01 133.795 334.51C134.375 334.99 134.805 335.56 135.085 336.22C135.365 336.86 135.505 337.61 135.505 338.47V338.53C135.505 339.51 135.315 340.39 134.935 341.17C134.575 341.95 134.065 342.61 133.405 343.15C132.745 343.69 131.955 344.1 131.035 344.38C130.115 344.66 129.105 344.8 128.005 344.8ZM145.745 344.86C144.565 344.86 143.475 344.65 142.475 344.23C141.475 343.79 140.605 343.2 139.865 342.46C139.145 341.72 138.575 340.85 138.155 339.85C137.755 338.85 137.555 337.79 137.555 336.67V336.61C137.555 335.49 137.755 334.43 138.155 333.43C138.575 332.41 139.155 331.53 139.895 330.79C140.635 330.03 141.505 329.43 142.505 328.99C143.505 328.55 144.605 328.33 145.805 328.33C146.545 328.33 147.215 328.4 147.815 328.54C148.435 328.66 148.995 328.84 149.495 329.08C150.015 329.32 150.485 329.61 150.905 329.95C151.345 330.29 151.755 330.66 152.135 331.06L149.855 333.49C149.295 332.91 148.695 332.44 148.055 332.08C147.435 331.7 146.675 331.51 145.775 331.51C145.115 331.51 144.505 331.65 143.945 331.93C143.385 332.19 142.895 332.55 142.475 333.01C142.075 333.45 141.755 333.98 141.515 334.6C141.295 335.22 141.185 335.87 141.185 336.55V336.61C141.185 337.31 141.295 337.97 141.515 338.59C141.755 339.21 142.085 339.75 142.505 340.21C142.925 340.67 143.425 341.03 144.005 341.29C144.585 341.55 145.225 341.68 145.925 341.68C146.785 341.68 147.535 341.5 148.175 341.14C148.835 340.78 149.455 340.31 150.035 339.73L152.225 341.89C151.445 342.77 150.555 343.49 149.555 344.05C148.555 344.59 147.285 344.86 145.745 344.86ZM159.123 344.83C158.383 344.83 157.673 344.72 156.993 344.5C156.313 344.3 155.713 344 155.193 343.6C154.693 343.18 154.283 342.67 153.963 342.07C153.663 341.45 153.513 340.74 153.513 339.94V339.88C153.513 339.02 153.673 338.27 153.993 337.63C154.313 336.99 154.753 336.46 155.313 336.04C155.893 335.62 156.583 335.31 157.383 335.11C158.203 334.89 159.093 334.78 160.053 334.78C160.953 334.78 161.733 334.84 162.393 334.96C163.053 335.08 163.693 335.24 164.313 335.44V335.05C164.313 333.91 163.973 333.05 163.293 332.47C162.633 331.89 161.663 331.6 160.383 331.6C159.483 331.6 158.683 331.69 157.983 331.87C157.283 332.05 156.573 332.29 155.853 332.59L154.893 329.74C155.773 329.34 156.673 329.03 157.593 328.81C158.513 328.57 159.603 328.45 160.863 328.45C163.223 328.45 164.973 329.04 166.113 330.22C166.693 330.8 167.123 331.5 167.403 332.32C167.683 333.14 167.823 334.07 167.823 335.11V344.5H164.283V342.52C163.743 343.16 163.053 343.71 162.213 344.17C161.373 344.61 160.343 344.83 159.123 344.83ZM160.143 342.19C160.743 342.19 161.303 342.11 161.823 341.95C162.343 341.79 162.783 341.56 163.143 341.26C163.523 340.96 163.823 340.6 164.043 340.18C164.263 339.76 164.373 339.3 164.373 338.8V337.72C163.913 337.54 163.373 337.39 162.753 337.27C162.153 337.15 161.493 337.09 160.773 337.09C159.593 337.09 158.673 337.32 158.013 337.78C157.373 338.24 157.053 338.89 157.053 339.73V339.79C157.053 340.55 157.343 341.14 157.923 341.56C158.523 341.98 159.263 342.19 160.143 342.19ZM171.171 328.66H174.801V331.09C175.061 330.73 175.341 330.38 175.641 330.04C175.961 329.7 176.321 329.41 176.721 329.17C177.141 328.91 177.591 328.71 178.071 328.57C178.571 328.41 179.131 328.33 179.751 328.33C181.551 328.33 182.941 328.88 183.921 329.98C184.901 331.08 185.391 332.55 185.391 334.39V344.5H181.761V335.5C181.761 334.26 181.461 333.31 180.861 332.65C180.281 331.97 179.451 331.63 178.371 331.63C177.311 331.63 176.451 331.98 175.791 332.68C175.131 333.36 174.801 334.32 174.801 335.56V344.5H171.171V328.66ZM197.188 323.5H212.758V326.8H200.878V332.26H211.408V335.56H200.878V341.2H212.908V344.5H197.188V323.5ZM215.866 328.66H219.496V331.09C219.756 330.73 220.036 330.38 220.336 330.04C220.656 329.7 221.016 329.41 221.416 329.17C221.836 328.91 222.286 328.71 222.766 328.57C223.266 328.41 223.826 328.33 224.446 328.33C226.246 328.33 227.636 328.88 228.616 329.98C229.596 331.08 230.086 332.55 230.086 334.39V344.5H226.456V335.5C226.456 334.26 226.156 333.31 225.556 332.65C224.976 331.97 224.146 331.63 223.066 331.63C222.006 331.63 221.146 331.98 220.486 332.68C219.826 333.36 219.496 334.32 219.496 335.56V344.5H215.866V328.66ZM238.779 344.77C238.119 344.77 237.509 344.69 236.949 344.53C236.389 344.37 235.899 344.11 235.479 343.75C235.079 343.39 234.769 342.92 234.549 342.34C234.329 341.74 234.219 341 234.219 340.12V331.78H232.209V328.66H234.219V324.31H237.849V328.66H242.109V331.78H237.849V339.55C237.849 340.25 238.019 340.76 238.359 341.08C238.699 341.38 239.179 341.53 239.799 341.53C240.579 341.53 241.329 341.35 242.049 340.99V343.96C241.589 344.22 241.099 344.42 240.579 344.56C240.079 344.7 239.479 344.77 238.779 344.77ZM251.624 344.86C250.484 344.86 249.414 344.66 248.414 344.26C247.434 343.86 246.574 343.3 245.834 342.58C245.114 341.86 244.544 341 244.124 340C243.704 338.98 243.494 337.86 243.494 336.64V336.58C243.494 335.44 243.684 334.37 244.064 333.37C244.444 332.37 244.974 331.5 245.654 330.76C246.354 330 247.174 329.41 248.114 328.99C249.054 328.55 250.094 328.33 251.234 328.33C252.494 328.33 253.594 328.56 254.534 329.02C255.494 329.48 256.284 330.1 256.904 330.88C257.544 331.66 258.024 332.57 258.344 333.61C258.664 334.63 258.824 335.71 258.824 336.85C258.824 337.01 258.814 337.18 258.794 337.36C258.794 337.52 258.784 337.69 258.764 337.87H247.124C247.324 339.17 247.834 340.17 248.654 340.87C249.494 341.55 250.504 341.89 251.684 341.89C252.584 341.89 253.364 341.73 254.024 341.41C254.684 341.09 255.334 340.62 255.974 340L258.104 341.89C257.344 342.79 256.434 343.51 255.374 344.05C254.334 344.59 253.084 344.86 251.624 344.86ZM255.224 335.47C255.164 334.89 255.034 334.35 254.834 333.85C254.634 333.33 254.364 332.89 254.024 332.53C253.684 332.15 253.274 331.85 252.794 331.63C252.334 331.41 251.804 331.3 251.204 331.3C250.084 331.3 249.154 331.69 248.414 332.47C247.694 333.23 247.254 334.23 247.094 335.47H255.224ZM261.469 328.66H265.099V332.23C265.599 331.03 266.309 330.07 267.229 329.35C268.149 328.63 269.309 328.3 270.709 328.36V332.2H270.499C269.699 332.2 268.969 332.33 268.309 332.59C267.649 332.85 267.079 333.24 266.599 333.76C266.119 334.28 265.749 334.94 265.489 335.74C265.229 336.52 265.099 337.43 265.099 338.47V344.5H261.469V328.66ZM272.862 328.66H276.492V331.3C277.072 330.48 277.792 329.78 278.652 329.2C279.512 328.62 280.592 328.33 281.892 328.33C282.812 328.33 283.712 328.51 284.592 328.87C285.492 329.23 286.282 329.76 286.962 330.46C287.642 331.16 288.192 332.02 288.612 333.04C289.032 334.06 289.242 335.23 289.242 336.55V336.61C289.242 337.93 289.032 339.1 288.612 340.12C288.212 341.14 287.662 342 286.962 342.7C286.282 343.4 285.502 343.93 284.622 344.29C283.742 344.65 282.832 344.83 281.892 344.83C280.572 344.83 279.482 344.55 278.622 343.99C277.762 343.43 277.052 342.78 276.492 342.04V349.3H272.862V328.66ZM281.022 341.68C281.642 341.68 282.222 341.56 282.762 341.32C283.322 341.08 283.802 340.75 284.202 340.33C284.622 339.89 284.952 339.36 285.192 338.74C285.432 338.1 285.552 337.39 285.552 336.61V336.55C285.552 335.79 285.432 335.1 285.192 334.48C284.952 333.84 284.622 333.3 284.202 332.86C283.802 332.42 283.322 332.08 282.762 331.84C282.222 331.6 281.642 331.48 281.022 331.48C280.402 331.48 279.812 331.6 279.252 331.84C278.692 332.08 278.202 332.43 277.782 332.89C277.362 333.33 277.022 333.86 276.762 334.48C276.522 335.1 276.402 335.79 276.402 336.55V336.61C276.402 337.37 276.522 338.06 276.762 338.68C277.022 339.3 277.362 339.84 277.782 340.3C278.202 340.74 278.692 341.08 279.252 341.32C279.812 341.56 280.402 341.68 281.022 341.68ZM291.989 328.66H295.619V332.23C296.119 331.03 296.829 330.07 297.749 329.35C298.669 328.63 299.829 328.3 301.229 328.36V332.2H301.019C300.219 332.2 299.489 332.33 298.829 332.59C298.169 332.85 297.599 333.24 297.119 333.76C296.639 334.28 296.269 334.94 296.009 335.74C295.749 336.52 295.619 337.43 295.619 338.47V344.5H291.989V328.66ZM303.442 322.78H307.342V326.23H303.442V322.78ZM303.592 328.66H307.222V344.5H303.592V328.66ZM316.396 344.8C315.256 344.8 314.096 344.6 312.916 344.2C311.756 343.8 310.676 343.21 309.676 342.43L311.296 339.97C312.176 340.61 313.056 341.1 313.936 341.44C314.816 341.76 315.666 341.92 316.486 341.92C317.266 341.92 317.866 341.77 318.286 341.47C318.726 341.15 318.946 340.73 318.946 340.21V340.15C318.946 339.85 318.846 339.59 318.646 339.37C318.466 339.15 318.206 338.96 317.866 338.8C317.546 338.64 317.166 338.49 316.726 338.35C316.306 338.21 315.866 338.07 315.406 337.93C314.826 337.77 314.236 337.58 313.636 337.36C313.056 337.14 312.526 336.86 312.046 336.52C311.586 336.16 311.206 335.72 310.906 335.2C310.606 334.68 310.456 334.04 310.456 333.28V333.22C310.456 332.48 310.596 331.81 310.876 331.21C311.176 330.61 311.576 330.1 312.076 329.68C312.596 329.26 313.196 328.94 313.876 328.72C314.576 328.5 315.316 328.39 316.096 328.39C317.096 328.39 318.106 328.55 319.126 328.87C320.146 329.19 321.076 329.63 321.916 330.19L320.476 332.77C319.716 332.31 318.946 331.95 318.166 331.69C317.386 331.41 316.666 331.27 316.006 331.27C315.306 331.27 314.756 331.42 314.356 331.72C313.976 332 313.786 332.37 313.786 332.83V332.89C313.786 333.19 313.886 333.45 314.086 333.67C314.286 333.87 314.546 334.06 314.866 334.24C315.206 334.4 315.586 334.56 316.006 334.72C316.446 334.86 316.896 335 317.356 335.14C317.936 335.32 318.516 335.53 319.096 335.77C319.676 336.01 320.196 336.31 320.656 336.67C321.136 337.01 321.526 337.43 321.826 337.93C322.126 338.43 322.276 339.04 322.276 339.76V339.82C322.276 340.66 322.126 341.39 321.826 342.01C321.526 342.63 321.106 343.15 320.566 343.57C320.046 343.97 319.426 344.28 318.706 344.5C317.986 344.7 317.216 344.8 316.396 344.8ZM332.255 344.86C331.115 344.86 330.045 344.66 329.045 344.26C328.065 343.86 327.205 343.3 326.465 342.58C325.745 341.86 325.175 341 324.755 340C324.335 338.98 324.125 337.86 324.125 336.64V336.58C324.125 335.44 324.315 334.37 324.695 333.37C325.075 332.37 325.605 331.5 326.285 330.76C326.985 330 327.805 329.41 328.745 328.99C329.685 328.55 330.725 328.33 331.865 328.33C333.125 328.33 334.225 328.56 335.165 329.02C336.125 329.48 336.915 330.1 337.535 330.88C338.175 331.66 338.655 332.57 338.975 333.61C339.295 334.63 339.455 335.71 339.455 336.85C339.455 337.01 339.445 337.18 339.425 337.36C339.425 337.52 339.415 337.69 339.395 337.87H327.755C327.955 339.17 328.465 340.17 329.285 340.87C330.125 341.55 331.135 341.89 332.315 341.89C333.215 341.89 333.995 341.73 334.655 341.41C335.315 341.09 335.965 340.62 336.605 340L338.735 341.89C337.975 342.79 337.065 343.51 336.005 344.05C334.965 344.59 333.715 344.86 332.255 344.86ZM335.855 335.47C335.795 334.89 335.665 334.35 335.465 333.85C335.265 333.33 334.995 332.89 334.655 332.53C334.315 332.15 333.905 331.85 333.425 331.63C332.965 331.41 332.435 331.3 331.835 331.3C330.715 331.3 329.785 331.69 329.045 332.47C328.325 333.23 327.885 334.23 327.725 335.47H335.855Z" fill="#0066B0"/>
<path d="M34.75 274.005L46 280.5L34.75 286.995V284H25C13.402 284 4 274.598 4 263C4 251.402 13.402 242 25 242C36.598 242 46 251.402 46 263C46 266.925 44.923 270.599 43.0484 273.742L36.9683 270.268C38.2575 268.149 39 265.661 39 263C39 255.268 32.732 249 25 249C17.268 249 11 255.268 11 263C11 270.732 17.268 277 25 277H34.75V274.005Z" fill="url(#paint12_linear_273_204)"/>
<path d="M28.0519 270.393C24.8818 271.709 25.9861 274 25.9861 274C19.7546 269.134 24.4042 264.002 25.2095 263.113C25.3156 262.995 25.355 262.952 25.2939 262.993C20.845 265.944 21.1639 268.652 21.2822 269.656C21.329 270.053 21.3444 270.184 21.0201 269.957C13.2621 264.527 18.8811 256.472 20.2245 256.521C20.2412 256.521 20.2182 256.623 20.1806 256.791C20.0566 257.342 19.7734 258.603 20.2245 259.273C21.4136 261.039 23.7777 259.981 24.4432 257.795C25.4163 254.597 23.1302 252.83 22.3582 252.233C22.1566 252.077 22.0583 252.001 22.1484 252.001C33.0538 251.909 32.1176 262.826 28.6183 264.249C26.9811 264.914 32.558 264.714 32.4818 259.869C32.4701 259.135 35.2495 267.404 28.0519 270.393Z" fill="url(#paint13_linear_273_204)"/>
<path d="M67.14 251.35H70.56L79.8 272.5H75.9L73.77 267.43H63.84L61.68 272.5H57.9L67.14 251.35ZM72.42 264.16L68.79 255.76L65.19 264.16H72.42ZM81.9812 256.66H85.6112V259.3C86.1912 258.48 86.9112 257.78 87.7712 257.2C88.6312 256.62 89.7112 256.33 91.0112 256.33C91.9312 256.33 92.8312 256.51 93.7112 256.87C94.6112 257.23 95.4012 257.76 96.0812 258.46C96.7612 259.16 97.3112 260.02 97.7312 261.04C98.1512 262.06 98.3612 263.23 98.3612 264.55V264.61C98.3612 265.93 98.1512 267.1 97.7312 268.12C97.3312 269.14 96.7812 270 96.0812 270.7C95.4012 271.4 94.6212 271.93 93.7412 272.29C92.8612 272.65 91.9512 272.83 91.0112 272.83C89.6912 272.83 88.6012 272.55 87.7412 271.99C86.8812 271.43 86.1712 270.78 85.6112 270.04V277.3H81.9812V256.66ZM90.1412 269.68C90.7612 269.68 91.3412 269.56 91.8812 269.32C92.4412 269.08 92.9212 268.75 93.3212 268.33C93.7412 267.89 94.0712 267.36 94.3112 266.74C94.5512 266.1 94.6712 265.39 94.6712 264.61V264.55C94.6712 263.79 94.5512 263.1 94.3112 262.48C94.0712 261.84 93.7412 261.3 93.3212 260.86C92.9212 260.42 92.4412 260.08 91.8812 259.84C91.3412 259.6 90.7612 259.48 90.1412 259.48C89.5212 259.48 88.9312 259.6 88.3712 259.84C87.8112 260.08 87.3212 260.43 86.9012 260.89C86.4812 261.33 86.1412 261.86 85.8812 262.48C85.6412 263.1 85.5212 263.79 85.5212 264.55V264.61C85.5212 265.37 85.6412 266.06 85.8812 266.68C86.1412 267.3 86.4812 267.84 86.9012 268.3C87.3212 268.74 87.8112 269.08 88.3712 269.32C88.9312 269.56 89.5212 269.68 90.1412 269.68ZM101.108 256.66H104.738V259.3C105.318 258.48 106.038 257.78 106.898 257.2C107.758 256.62 108.838 256.33 110.138 256.33C111.058 256.33 111.958 256.51 112.838 256.87C113.738 257.23 114.528 257.76 115.208 258.46C115.888 259.16 116.438 260.02 116.858 261.04C117.278 262.06 117.488 263.23 117.488 264.55V264.61C117.488 265.93 117.278 267.1 116.858 268.12C116.458 269.14 115.908 270 115.208 270.7C114.528 271.4 113.748 271.93 112.868 272.29C111.988 272.65 111.078 272.83 110.138 272.83C108.818 272.83 107.728 272.55 106.868 271.99C106.008 271.43 105.298 270.78 104.738 270.04V277.3H101.108V256.66ZM109.268 269.68C109.888 269.68 110.468 269.56 111.008 269.32C111.568 269.08 112.048 268.75 112.448 268.33C112.868 267.89 113.198 267.36 113.438 266.74C113.678 266.1 113.798 265.39 113.798 264.61V264.55C113.798 263.79 113.678 263.1 113.438 262.48C113.198 261.84 112.868 261.3 112.448 260.86C112.048 260.42 111.568 260.08 111.008 259.84C110.468 259.6 109.888 259.48 109.268 259.48C108.648 259.48 108.058 259.6 107.498 259.84C106.938 260.08 106.448 260.43 106.028 260.89C105.608 261.33 105.268 261.86 105.008 262.48C104.768 263.1 104.648 263.79 104.648 264.55V264.61C104.648 265.37 104.768 266.06 105.008 266.68C105.268 267.3 105.608 267.84 106.028 268.3C106.448 268.74 106.938 269.08 107.498 269.32C108.058 269.56 108.648 269.68 109.268 269.68ZM128.005 272.8C126.385 272.8 124.835 272.53 123.355 271.99C121.875 271.43 120.505 270.58 119.245 269.44L121.465 266.8C122.485 267.68 123.515 268.36 124.555 268.84C125.615 269.3 126.795 269.53 128.095 269.53C129.235 269.53 130.135 269.29 130.795 268.81C131.475 268.31 131.815 267.67 131.815 266.89V266.83C131.815 266.45 131.745 266.12 131.605 265.84C131.485 265.54 131.245 265.26 130.885 265C130.545 264.74 130.065 264.5 129.445 264.28C128.845 264.06 128.055 263.84 127.075 263.62C125.955 263.36 124.955 263.07 124.075 262.75C123.215 262.41 122.485 262.01 121.885 261.55C121.305 261.07 120.855 260.49 120.535 259.81C120.235 259.13 120.085 258.31 120.085 257.35V257.29C120.085 256.39 120.265 255.57 120.625 254.83C120.985 254.07 121.475 253.43 122.095 252.91C122.735 252.37 123.495 251.95 124.375 251.65C125.255 251.35 126.215 251.2 127.255 251.2C128.795 251.2 130.175 251.43 131.395 251.89C132.635 252.33 133.795 252.98 134.875 253.84L132.895 256.63C131.935 255.93 130.985 255.4 130.045 255.04C129.105 254.66 128.155 254.47 127.195 254.47C126.115 254.47 125.275 254.71 124.675 255.19C124.075 255.67 123.775 256.26 123.775 256.96V257.02C123.775 257.42 123.845 257.78 123.985 258.1C124.125 258.4 124.385 258.68 124.765 258.94C125.145 259.18 125.655 259.41 126.295 259.63C126.935 259.85 127.765 260.08 128.785 260.32C129.885 260.6 130.855 260.91 131.695 261.25C132.535 261.59 133.235 262.01 133.795 262.51C134.375 262.99 134.805 263.56 135.085 264.22C135.365 264.86 135.505 265.61 135.505 266.47V266.53C135.505 267.51 135.315 268.39 134.935 269.17C134.575 269.95 134.065 270.61 133.405 271.15C132.745 271.69 131.955 272.1 131.035 272.38C130.115 272.66 129.105 272.8 128.005 272.8ZM145.745 272.86C144.565 272.86 143.475 272.65 142.475 272.23C141.475 271.79 140.605 271.2 139.865 270.46C139.145 269.72 138.575 268.85 138.155 267.85C137.755 266.85 137.555 265.79 137.555 264.67V264.61C137.555 263.49 137.755 262.43 138.155 261.43C138.575 260.41 139.155 259.53 139.895 258.79C140.635 258.03 141.505 257.43 142.505 256.99C143.505 256.55 144.605 256.33 145.805 256.33C146.545 256.33 147.215 256.4 147.815 256.54C148.435 256.66 148.995 256.84 149.495 257.08C150.015 257.32 150.485 257.61 150.905 257.95C151.345 258.29 151.755 258.66 152.135 259.06L149.855 261.49C149.295 260.91 148.695 260.44 148.055 260.08C147.435 259.7 146.675 259.51 145.775 259.51C145.115 259.51 144.505 259.65 143.945 259.93C143.385 260.19 142.895 260.55 142.475 261.01C142.075 261.45 141.755 261.98 141.515 262.6C141.295 263.22 141.185 263.87 141.185 264.55V264.61C141.185 265.31 141.295 265.97 141.515 266.59C141.755 267.21 142.085 267.75 142.505 268.21C142.925 268.67 143.425 269.03 144.005 269.29C144.585 269.55 145.225 269.68 145.925 269.68C146.785 269.68 147.535 269.5 148.175 269.14C148.835 268.78 149.455 268.31 150.035 267.73L152.225 269.89C151.445 270.77 150.555 271.49 149.555 272.05C148.555 272.59 147.285 272.86 145.745 272.86ZM159.123 272.83C158.383 272.83 157.673 272.72 156.993 272.5C156.313 272.3 155.713 272 155.193 271.6C154.693 271.18 154.283 270.67 153.963 270.07C153.663 269.45 153.513 268.74 153.513 267.94V267.88C153.513 267.02 153.673 266.27 153.993 265.63C154.313 264.99 154.753 264.46 155.313 264.04C155.893 263.62 156.583 263.31 157.383 263.11C158.203 262.89 159.093 262.78 160.053 262.78C160.953 262.78 161.733 262.84 162.393 262.96C163.053 263.08 163.693 263.24 164.313 263.44V263.05C164.313 261.91 163.973 261.05 163.293 260.47C162.633 259.89 161.663 259.6 160.383 259.6C159.483 259.6 158.683 259.69 157.983 259.87C157.283 260.05 156.573 260.29 155.853 260.59L154.893 257.74C155.773 257.34 156.673 257.03 157.593 256.81C158.513 256.57 159.603 256.45 160.863 256.45C163.223 256.45 164.973 257.04 166.113 258.22C166.693 258.8 167.123 259.5 167.403 260.32C167.683 261.14 167.823 262.07 167.823 263.11V272.5H164.283V270.52C163.743 271.16 163.053 271.71 162.213 272.17C161.373 272.61 160.343 272.83 159.123 272.83ZM160.143 270.19C160.743 270.19 161.303 270.11 161.823 269.95C162.343 269.79 162.783 269.56 163.143 269.26C163.523 268.96 163.823 268.6 164.043 268.18C164.263 267.76 164.373 267.3 164.373 266.8V265.72C163.913 265.54 163.373 265.39 162.753 265.27C162.153 265.15 161.493 265.09 160.773 265.09C159.593 265.09 158.673 265.32 158.013 265.78C157.373 266.24 157.053 266.89 157.053 267.73V267.79C157.053 268.55 157.343 269.14 157.923 269.56C158.523 269.98 159.263 270.19 160.143 270.19ZM171.171 256.66H174.801V259.09C175.061 258.73 175.341 258.38 175.641 258.04C175.961 257.7 176.321 257.41 176.721 257.17C177.141 256.91 177.591 256.71 178.071 256.57C178.571 256.41 179.131 256.33 179.751 256.33C181.551 256.33 182.941 256.88 183.921 257.98C184.901 259.08 185.391 260.55 185.391 262.39V272.5H181.761V263.5C181.761 262.26 181.461 261.31 180.861 260.65C180.281 259.97 179.451 259.63 178.371 259.63C177.311 259.63 176.451 259.98 175.791 260.68C175.131 261.36 174.801 262.32 174.801 263.56V272.5H171.171V256.66ZM206.562 272.86C204.922 272.86 203.432 272.59 202.092 272.05C200.752 271.49 199.602 270.73 198.642 269.77C197.702 268.79 196.972 267.65 196.452 266.35C195.932 265.03 195.672 263.6 195.672 262.06V262C195.672 260.54 195.932 259.15 196.452 257.83C196.992 256.51 197.742 255.36 198.702 254.38C199.662 253.38 200.802 252.59 202.122 252.01C203.462 251.43 204.922 251.14 206.502 251.14C207.422 251.14 208.252 251.21 208.992 251.35C209.752 251.47 210.452 251.65 211.092 251.89C211.732 252.13 212.332 252.43 212.892 252.79C213.472 253.13 214.032 253.53 214.572 253.99L212.232 256.78C211.832 256.44 211.422 256.13 211.002 255.85C210.582 255.57 210.142 255.34 209.682 255.16C209.222 254.96 208.712 254.81 208.152 254.71C207.612 254.59 207.012 254.53 206.352 254.53C205.392 254.53 204.492 254.73 203.652 255.13C202.832 255.53 202.112 256.07 201.492 256.75C200.892 257.41 200.412 258.19 200.052 259.09C199.712 259.99 199.542 260.94 199.542 261.94V262C199.542 263.08 199.712 264.08 200.052 265C200.392 265.92 200.872 266.71 201.492 267.37C202.132 268.03 202.882 268.55 203.742 268.93C204.622 269.31 205.602 269.5 206.682 269.5C207.682 269.5 208.612 269.36 209.472 269.08C210.352 268.78 211.112 268.39 211.752 267.91V263.98H206.382V260.77H215.322V269.59C214.802 270.03 214.222 270.45 213.582 270.85C212.962 271.25 212.282 271.6 211.542 271.9C210.822 272.2 210.042 272.43 209.202 272.59C208.362 272.77 207.482 272.86 206.562 272.86ZM226.238 272.86C225.038 272.86 223.918 272.65 222.878 272.23C221.858 271.79 220.968 271.2 220.208 270.46C219.468 269.72 218.888 268.85 218.468 267.85C218.048 266.85 217.838 265.79 217.838 264.67V264.61C217.838 263.47 218.048 262.4 218.468 261.4C218.908 260.4 219.498 259.53 220.238 258.79C220.998 258.03 221.888 257.43 222.908 256.99C223.948 256.55 225.078 256.33 226.298 256.33C227.518 256.33 228.638 256.55 229.658 256.99C230.698 257.41 231.588 258 232.328 258.76C233.088 259.5 233.678 260.37 234.098 261.37C234.518 262.35 234.728 263.41 234.728 264.55V264.61C234.728 265.73 234.508 266.79 234.068 267.79C233.648 268.79 233.058 269.67 232.298 270.43C231.558 271.17 230.668 271.76 229.628 272.2C228.588 272.64 227.458 272.86 226.238 272.86ZM226.298 269.68C227.038 269.68 227.698 269.55 228.278 269.29C228.878 269.01 229.388 268.65 229.808 268.21C230.228 267.75 230.548 267.22 230.768 266.62C230.988 266 231.098 265.35 231.098 264.67V264.61C231.098 263.91 230.978 263.25 230.738 262.63C230.498 262.01 230.158 261.47 229.718 261.01C229.298 260.55 228.788 260.19 228.188 259.93C227.608 259.65 226.958 259.51 226.238 259.51C225.518 259.51 224.858 259.65 224.258 259.93C223.678 260.19 223.178 260.55 222.758 261.01C222.338 261.45 222.018 261.98 221.798 262.6C221.578 263.22 221.468 263.87 221.468 264.55V264.61C221.468 265.31 221.588 265.97 221.828 266.59C222.068 267.19 222.398 267.72 222.818 268.18C223.258 268.64 223.768 269.01 224.348 269.29C224.948 269.55 225.598 269.68 226.298 269.68ZM237.545 252.55V251.5H241.805V252.55L240.695 265.84H238.685L237.545 252.55ZM237.695 268.36H241.685V272.5H237.695V268.36Z" fill="#0066B0"/>
<path fill-rule="evenodd" clip-rule="evenodd" d="M22.7846 96.5359C24.0222 95.8214 25.547 95.8214 26.7846 96.5359L43.5692 106.226C44.8068 106.941 45.5692 108.262 45.5692 109.691V115.108L31.621 107.161C29.5992 106.027 27.2674 105.381 24.7846 105.381C20.8673 105.381 17.3257 106.99 14.7847 109.583V101.155L22.7846 96.5359ZM10.7846 103.464L6 106.226C4.7624 106.941 4 108.262 4 109.691V129.072C4 130.501 4.7624 131.821 6 132.536L14.0527 137.185L21.3684 132.961C15.5996 131.515 11.2508 126.489 10.8198 120.381H10.7846L10.7846 103.464ZM22.7857 133.24L22.8109 133.283L22.8667 133.251C22.8397 133.247 22.8127 133.243 22.7857 133.24ZM18.0527 139.495L24.3109 135.881L24.3109 135.881L32.5445 131.128C36.328 128.621 38.7846 124.259 38.7846 119.381C38.7846 118.181 38.6335 117.015 38.3493 115.904L45.5692 120.072V129.072C45.5692 130.501 44.8068 131.821 43.5692 132.536L26.7846 142.226C25.547 142.941 24.0222 142.941 22.7846 142.226L18.0527 139.495ZM27.8365 126.774C24.6664 128.09 25.7707 130.381 25.7707 130.381C19.5392 125.515 24.1889 120.383 24.9941 119.494C25.1002 119.377 25.1396 119.333 25.0785 119.374C20.6296 122.326 20.9485 125.033 21.0668 126.037C21.1136 126.435 21.129 126.565 20.8047 126.338C13.0467 120.908 18.6657 112.853 20.0091 112.902C20.0258 112.903 20.0028 113.005 19.9652 113.172L19.9652 113.172L19.9652 113.172L19.9652 113.172C19.8412 113.724 19.558 114.984 20.0091 115.654C21.1982 117.42 23.5623 116.362 24.2278 114.176C25.2009 110.978 22.9148 109.211 22.1428 108.614C21.9412 108.459 21.8429 108.383 21.933 108.382C32.8384 108.29 31.9023 119.207 28.4029 120.63C26.7657 121.295 32.3426 121.095 32.2664 116.25C32.2547 115.516 35.0341 123.785 27.8365 126.774Z" fill="url(#paint14_linear_273_204)"/>
<path d="M67.14 107.35H70.56L79.8 128.5H75.9L73.77 123.43H63.84L61.68 128.5H57.9L67.14 107.35ZM72.42 120.16L68.79 111.76L65.19 120.16H72.42ZM81.9812 112.66H85.6112V115.3C86.1912 114.48 86.9112 113.78 87.7712 113.2C88.6312 112.62 89.7112 112.33 91.0112 112.33C91.9312 112.33 92.8312 112.51 93.7112 112.87C94.6112 113.23 95.4012 113.76 96.0812 114.46C96.7612 115.16 97.3112 116.02 97.7312 117.04C98.1512 118.06 98.3612 119.23 98.3612 120.55V120.61C98.3612 121.93 98.1512 123.1 97.7312 124.12C97.3312 125.14 96.7812 126 96.0812 126.7C95.4012 127.4 94.6212 127.93 93.7412 128.29C92.8612 128.65 91.9512 128.83 91.0112 128.83C89.6912 128.83 88.6012 128.55 87.7412 127.99C86.8812 127.43 86.1712 126.78 85.6112 126.04V133.3H81.9812V112.66ZM90.1412 125.68C90.7612 125.68 91.3412 125.56 91.8812 125.32C92.4412 125.08 92.9212 124.75 93.3212 124.33C93.7412 123.89 94.0712 123.36 94.3112 122.74C94.5512 122.1 94.6712 121.39 94.6712 120.61V120.55C94.6712 119.79 94.5512 119.1 94.3112 118.48C94.0712 117.84 93.7412 117.3 93.3212 116.86C92.9212 116.42 92.4412 116.08 91.8812 115.84C91.3412 115.6 90.7612 115.48 90.1412 115.48C89.5212 115.48 88.9312 115.6 88.3712 115.84C87.8112 116.08 87.3212 116.43 86.9012 116.89C86.4812 117.33 86.1412 117.86 85.8812 118.48C85.6412 119.1 85.5212 119.79 85.5212 120.55V120.61C85.5212 121.37 85.6412 122.06 85.8812 122.68C86.1412 123.3 86.4812 123.84 86.9012 124.3C87.3212 124.74 87.8112 125.08 88.3712 125.32C88.9312 125.56 89.5212 125.68 90.1412 125.68ZM101.108 112.66H104.738V115.3C105.318 114.48 106.038 113.78 106.898 113.2C107.758 112.62 108.838 112.33 110.138 112.33C111.058 112.33 111.958 112.51 112.838 112.87C113.738 113.23 114.528 113.76 115.208 114.46C115.888 115.16 116.438 116.02 116.858 117.04C117.278 118.06 117.488 119.23 117.488 120.55V120.61C117.488 121.93 117.278 123.1 116.858 124.12C116.458 125.14 115.908 126 115.208 126.7C114.528 127.4 113.748 127.93 112.868 128.29C111.988 128.65 111.078 128.83 110.138 128.83C108.818 128.83 107.728 128.55 106.868 127.99C106.008 127.43 105.298 126.78 104.738 126.04V133.3H101.108V112.66ZM109.268 125.68C109.888 125.68 110.468 125.56 111.008 125.32C111.568 125.08 112.048 124.75 112.448 124.33C112.868 123.89 113.198 123.36 113.438 122.74C113.678 122.1 113.798 121.39 113.798 120.61V120.55C113.798 119.79 113.678 119.1 113.438 118.48C113.198 117.84 112.868 117.3 112.448 116.86C112.048 116.42 111.568 116.08 111.008 115.84C110.468 115.6 109.888 115.48 109.268 115.48C108.648 115.48 108.058 115.6 107.498 115.84C106.938 116.08 106.448 116.43 106.028 116.89C105.608 117.33 105.268 117.86 105.008 118.48C104.768 119.1 104.648 119.79 104.648 120.55V120.61C104.648 121.37 104.768 122.06 105.008 122.68C105.268 123.3 105.608 123.84 106.028 124.3C106.448 124.74 106.938 125.08 107.498 125.32C108.058 125.56 108.648 125.68 109.268 125.68ZM128.005 128.8C126.385 128.8 124.835 128.53 123.355 127.99C121.875 127.43 120.505 126.58 119.245 125.44L121.465 122.8C122.485 123.68 123.515 124.36 124.555 124.84C125.615 125.3 126.795 125.53 128.095 125.53C129.235 125.53 130.135 125.29 130.795 124.81C131.475 124.31 131.815 123.67 131.815 122.89V122.83C131.815 122.45 131.745 122.12 131.605 121.84C131.485 121.54 131.245 121.26 130.885 121C130.545 120.74 130.065 120.5 129.445 120.28C128.845 120.06 128.055 119.84 127.075 119.62C125.955 119.36 124.955 119.07 124.075 118.75C123.215 118.41 122.485 118.01 121.885 117.55C121.305 117.07 120.855 116.49 120.535 115.81C120.235 115.13 120.085 114.31 120.085 113.35V113.29C120.085 112.39 120.265 111.57 120.625 110.83C120.985 110.07 121.475 109.43 122.095 108.91C122.735 108.37 123.495 107.95 124.375 107.65C125.255 107.35 126.215 107.2 127.255 107.2C128.795 107.2 130.175 107.43 131.395 107.89C132.635 108.33 133.795 108.98 134.875 109.84L132.895 112.63C131.935 111.93 130.985 111.4 130.045 111.04C129.105 110.66 128.155 110.47 127.195 110.47C126.115 110.47 125.275 110.71 124.675 111.19C124.075 111.67 123.775 112.26 123.775 112.96V113.02C123.775 113.42 123.845 113.78 123.985 114.1C124.125 114.4 124.385 114.68 124.765 114.94C125.145 115.18 125.655 115.41 126.295 115.63C126.935 115.85 127.765 116.08 128.785 116.32C129.885 116.6 130.855 116.91 131.695 117.25C132.535 117.59 133.235 118.01 133.795 118.51C134.375 118.99 134.805 119.56 135.085 120.22C135.365 120.86 135.505 121.61 135.505 122.47V122.53C135.505 123.51 135.315 124.39 134.935 125.17C134.575 125.95 134.065 126.61 133.405 127.15C132.745 127.69 131.955 128.1 131.035 128.38C130.115 128.66 129.105 128.8 128.005 128.8ZM145.745 128.86C144.565 128.86 143.475 128.65 142.475 128.23C141.475 127.79 140.605 127.2 139.865 126.46C139.145 125.72 138.575 124.85 138.155 123.85C137.755 122.85 137.555 121.79 137.555 120.67V120.61C137.555 119.49 137.755 118.43 138.155 117.43C138.575 116.41 139.155 115.53 139.895 114.79C140.635 114.03 141.505 113.43 142.505 112.99C143.505 112.55 144.605 112.33 145.805 112.33C146.545 112.33 147.215 112.4 147.815 112.54C148.435 112.66 148.995 112.84 149.495 113.08C150.015 113.32 150.485 113.61 150.905 113.95C151.345 114.29 151.755 114.66 152.135 115.06L149.855 117.49C149.295 116.91 148.695 116.44 148.055 116.08C147.435 115.7 146.675 115.51 145.775 115.51C145.115 115.51 144.505 115.65 143.945 115.93C143.385 116.19 142.895 116.55 142.475 117.01C142.075 117.45 141.755 117.98 141.515 118.6C141.295 119.22 141.185 119.87 141.185 120.55V120.61C141.185 121.31 141.295 121.97 141.515 122.59C141.755 123.21 142.085 123.75 142.505 124.21C142.925 124.67 143.425 125.03 144.005 125.29C144.585 125.55 145.225 125.68 145.925 125.68C146.785 125.68 147.535 125.5 148.175 125.14C148.835 124.78 149.455 124.31 150.035 123.73L152.225 125.89C151.445 126.77 150.555 127.49 149.555 128.05C148.555 128.59 147.285 128.86 145.745 128.86ZM159.123 128.83C158.383 128.83 157.673 128.72 156.993 128.5C156.313 128.3 155.713 128 155.193 127.6C154.693 127.18 154.283 126.67 153.963 126.07C153.663 125.45 153.513 124.74 153.513 123.94V123.88C153.513 123.02 153.673 122.27 153.993 121.63C154.313 120.99 154.753 120.46 155.313 120.04C155.893 119.62 156.583 119.31 157.383 119.11C158.203 118.89 159.093 118.78 160.053 118.78C160.953 118.78 161.733 118.84 162.393 118.96C163.053 119.08 163.693 119.24 164.313 119.44V119.05C164.313 117.91 163.973 117.05 163.293 116.47C162.633 115.89 161.663 115.6 160.383 115.6C159.483 115.6 158.683 115.69 157.983 115.87C157.283 116.05 156.573 116.29 155.853 116.59L154.893 113.74C155.773 113.34 156.673 113.03 157.593 112.81C158.513 112.57 159.603 112.45 160.863 112.45C163.223 112.45 164.973 113.04 166.113 114.22C166.693 114.8 167.123 115.5 167.403 116.32C167.683 117.14 167.823 118.07 167.823 119.11V128.5H164.283V126.52C163.743 127.16 163.053 127.71 162.213 128.17C161.373 128.61 160.343 128.83 159.123 128.83ZM160.143 126.19C160.743 126.19 161.303 126.11 161.823 125.95C162.343 125.79 162.783 125.56 163.143 125.26C163.523 124.96 163.823 124.6 164.043 124.18C164.263 123.76 164.373 123.3 164.373 122.8V121.72C163.913 121.54 163.373 121.39 162.753 121.27C162.153 121.15 161.493 121.09 160.773 121.09C159.593 121.09 158.673 121.32 158.013 121.78C157.373 122.24 157.053 122.89 157.053 123.73V123.79C157.053 124.55 157.343 125.14 157.923 125.56C158.523 125.98 159.263 126.19 160.143 126.19ZM171.171 112.66H174.801V115.09C175.061 114.73 175.341 114.38 175.641 114.04C175.961 113.7 176.321 113.41 176.721 113.17C177.141 112.91 177.591 112.71 178.071 112.57C178.571 112.41 179.131 112.33 179.751 112.33C181.551 112.33 182.941 112.88 183.921 113.98C184.901 115.08 185.391 116.55 185.391 118.39V128.5H181.761V119.5C181.761 118.26 181.461 117.31 180.861 116.65C180.281 115.97 179.451 115.63 178.371 115.63C177.311 115.63 176.451 115.98 175.791 116.68C175.131 117.36 174.801 118.32 174.801 119.56V128.5H171.171V112.66ZM204.538 128.8C202.918 128.8 201.368 128.53 199.888 127.99C198.408 127.43 197.038 126.58 195.778 125.44L197.998 122.8C199.018 123.68 200.048 124.36 201.088 124.84C202.148 125.3 203.328 125.53 204.628 125.53C205.768 125.53 206.668 125.29 207.328 124.81C208.008 124.31 208.348 123.67 208.348 122.89V122.83C208.348 122.45 208.278 122.12 208.138 121.84C208.018 121.54 207.778 121.26 207.418 121C207.078 120.74 206.598 120.5 205.978 120.28C205.378 120.06 204.588 119.84 203.608 119.62C202.488 119.36 201.488 119.07 200.608 118.75C199.748 118.41 199.018 118.01 198.418 117.55C197.838 117.07 197.388 116.49 197.068 115.81C196.768 115.13 196.618 114.31 196.618 113.35V113.29C196.618 112.39 196.798 111.57 197.158 110.83C197.518 110.07 198.008 109.43 198.628 108.91C199.268 108.37 200.028 107.95 200.908 107.65C201.788 107.35 202.748 107.2 203.788 107.2C205.328 107.2 206.708 107.43 207.928 107.89C209.168 108.33 210.328 108.98 211.408 109.84L209.428 112.63C208.468 111.93 207.518 111.4 206.578 111.04C205.638 110.66 204.688 110.47 203.728 110.47C202.648 110.47 201.808 110.71 201.208 111.19C200.608 111.67 200.308 112.26 200.308 112.96V113.02C200.308 113.42 200.378 113.78 200.518 114.1C200.658 114.4 200.918 114.68 201.298 114.94C201.678 115.18 202.188 115.41 202.828 115.63C203.468 115.85 204.298 116.08 205.318 116.32C206.418 116.6 207.388 116.91 208.228 117.25C209.068 117.59 209.768 118.01 210.328 118.51C210.908 118.99 211.338 119.56 211.618 120.22C211.898 120.86 212.038 121.61 212.038 122.47V122.53C212.038 123.51 211.848 124.39 211.468 125.17C211.108 125.95 210.598 126.61 209.938 127.15C209.278 127.69 208.488 128.1 207.568 128.38C206.648 128.66 205.638 128.8 204.538 128.8ZM220.121 128.77C219.461 128.77 218.851 128.69 218.291 128.53C217.731 128.37 217.241 128.11 216.821 127.75C216.421 127.39 216.111 126.92 215.891 126.34C215.671 125.74 215.561 125 215.561 124.12V115.78H213.551V112.66H215.561V108.31H219.191V112.66H223.451V115.78H219.191V123.55C219.191 124.25 219.361 124.76 219.701 125.08C220.041 125.38 220.521 125.53 221.141 125.53C221.921 125.53 222.671 125.35 223.391 124.99V127.96C222.931 128.22 222.441 128.42 221.921 128.56C221.421 128.7 220.821 128.77 220.121 128.77ZM230.705 128.83C229.965 128.83 229.255 128.72 228.575 128.5C227.895 128.3 227.295 128 226.775 127.6C226.275 127.18 225.865 126.67 225.545 126.07C225.245 125.45 225.095 124.74 225.095 123.94V123.88C225.095 123.02 225.255 122.27 225.575 121.63C225.895 120.99 226.335 120.46 226.895 120.04C227.475 119.62 228.165 119.31 228.965 119.11C229.785 118.89 230.675 118.78 231.635 118.78C232.535 118.78 233.315 118.84 233.975 118.96C234.635 119.08 235.275 119.24 235.895 119.44V119.05C235.895 117.91 235.555 117.05 234.875 116.47C234.215 115.89 233.245 115.6 231.965 115.6C231.065 115.6 230.265 115.69 229.565 115.87C228.865 116.05 228.155 116.29 227.435 116.59L226.475 113.74C227.355 113.34 228.255 113.03 229.175 112.81C230.095 112.57 231.185 112.45 232.445 112.45C234.805 112.45 236.555 113.04 237.695 114.22C238.275 114.8 238.705 115.5 238.985 116.32C239.265 117.14 239.405 118.07 239.405 119.11V128.5H235.865V126.52C235.325 127.16 234.635 127.71 233.795 128.17C232.955 128.61 231.925 128.83 230.705 128.83ZM231.725 126.19C232.325 126.19 232.885 126.11 233.405 125.95C233.925 125.79 234.365 125.56 234.725 125.26C235.105 124.96 235.405 124.6 235.625 124.18C235.845 123.76 235.955 123.3 235.955 122.8V121.72C235.495 121.54 234.955 121.39 234.335 121.27C233.735 121.15 233.075 121.09 232.355 121.09C231.175 121.09 230.255 121.32 229.595 121.78C228.955 122.24 228.635 122.89 228.635 123.73V123.79C228.635 124.55 228.925 125.14 229.505 125.56C230.105 125.98 230.845 126.19 231.725 126.19ZM242.753 112.66H246.383V115.09C246.643 114.73 246.923 114.38 247.223 114.04C247.543 113.7 247.903 113.41 248.303 113.17C248.723 112.91 249.173 112.71 249.653 112.57C250.153 112.41 250.713 112.33 251.333 112.33C253.133 112.33 254.523 112.88 255.503 113.98C256.483 115.08 256.973 116.55 256.973 118.39V128.5H253.343V119.5C253.343 118.26 253.043 117.31 252.443 116.65C251.863 115.97 251.033 115.63 249.953 115.63C248.893 115.63 248.033 115.98 247.373 116.68C246.713 117.36 246.383 118.32 246.383 119.56V128.5H242.753V112.66ZM266.896 128.83C265.956 128.83 265.046 128.65 264.166 128.29C263.286 127.93 262.506 127.4 261.826 126.7C261.146 126 260.596 125.14 260.176 124.12C259.756 123.1 259.546 121.93 259.546 120.61V120.55C259.546 119.23 259.746 118.06 260.146 117.04C260.566 116.02 261.116 115.16 261.796 114.46C262.476 113.76 263.256 113.23 264.136 112.87C265.036 112.51 265.956 112.33 266.896 112.33C267.556 112.33 268.146 112.41 268.666 112.57C269.206 112.71 269.696 112.91 270.136 113.17C270.576 113.43 270.976 113.73 271.336 114.07C271.696 114.39 272.016 114.74 272.296 115.12V106.6H275.926V128.5H272.296V125.86C271.716 126.68 270.986 127.38 270.106 127.96C269.246 128.54 268.176 128.83 266.896 128.83ZM267.766 125.68C268.366 125.68 268.946 125.56 269.506 125.32C270.066 125.08 270.556 124.74 270.976 124.3C271.396 123.84 271.726 123.3 271.966 122.68C272.226 122.06 272.356 121.37 272.356 120.61V120.55C272.356 119.79 272.226 119.1 271.966 118.48C271.726 117.84 271.396 117.3 270.976 116.86C270.556 116.42 270.066 116.08 269.506 115.84C268.946 115.6 268.366 115.48 267.766 115.48C267.146 115.48 266.556 115.6 265.996 115.84C265.456 116.06 264.976 116.39 264.556 116.83C264.136 117.27 263.806 117.81 263.566 118.45C263.326 119.07 263.206 119.77 263.206 120.55V120.61C263.206 121.37 263.326 122.07 263.566 122.71C263.806 123.33 264.136 123.86 264.556 124.3C264.976 124.74 265.456 125.08 265.996 125.32C266.556 125.56 267.146 125.68 267.766 125.68ZM284.043 128.83C283.303 128.83 282.593 128.72 281.913 128.5C281.233 128.3 280.633 128 280.113 127.6C279.613 127.18 279.203 126.67 278.883 126.07C278.583 125.45 278.433 124.74 278.433 123.94V123.88C278.433 123.02 278.593 122.27 278.913 121.63C279.233 120.99 279.673 120.46 280.233 120.04C280.813 119.62 281.503 119.31 282.303 119.11C283.123 118.89 284.013 118.78 284.973 118.78C285.873 118.78 286.653 118.84 287.313 118.96C287.973 119.08 288.613 119.24 289.233 119.44V119.05C289.233 117.91 288.893 117.05 288.213 116.47C287.553 115.89 286.583 115.6 285.303 115.6C284.403 115.6 283.603 115.69 282.903 115.87C282.203 116.05 281.493 116.29 280.773 116.59L279.813 113.74C280.693 113.34 281.593 113.03 282.513 112.81C283.433 112.57 284.523 112.45 285.783 112.45C288.143 112.45 289.893 113.04 291.033 114.22C291.613 114.8 292.043 115.5 292.323 116.32C292.603 117.14 292.743 118.07 292.743 119.11V128.5H289.203V126.52C288.663 127.16 287.973 127.71 287.133 128.17C286.293 128.61 285.263 128.83 284.043 128.83ZM285.063 126.19C285.663 126.19 286.223 126.11 286.743 125.95C287.263 125.79 287.703 125.56 288.063 125.26C288.443 124.96 288.743 124.6 288.963 124.18C289.183 123.76 289.293 123.3 289.293 122.8V121.72C288.833 121.54 288.293 121.39 287.673 121.27C287.073 121.15 286.413 121.09 285.693 121.09C284.513 121.09 283.593 121.32 282.933 121.78C282.293 122.24 281.973 122.89 281.973 123.73V123.79C281.973 124.55 282.263 125.14 282.843 125.56C283.443 125.98 284.183 126.19 285.063 126.19ZM296.091 112.66H299.721V116.23C300.221 115.03 300.931 114.07 301.851 113.35C302.771 112.63 303.931 112.3 305.331 112.36V116.2H305.121C304.321 116.2 303.591 116.33 302.931 116.59C302.271 116.85 301.701 117.24 301.221 117.76C300.741 118.28 300.371 118.94 300.111 119.74C299.851 120.52 299.721 121.43 299.721 122.47V128.5H296.091V112.66ZM313.584 128.83C312.644 128.83 311.734 128.65 310.854 128.29C309.974 127.93 309.194 127.4 308.514 126.7C307.834 126 307.284 125.14 306.864 124.12C306.444 123.1 306.234 121.93 306.234 120.61V120.55C306.234 119.23 306.434 118.06 306.834 117.04C307.254 116.02 307.804 115.16 308.484 114.46C309.164 113.76 309.944 113.23 310.824 112.87C311.724 112.51 312.644 112.33 313.584 112.33C314.244 112.33 314.834 112.41 315.354 112.57C315.894 112.71 316.384 112.91 316.824 113.17C317.264 113.43 317.664 113.73 318.024 114.07C318.384 114.39 318.704 114.74 318.984 115.12V106.6H322.614V128.5H318.984V125.86C318.404 126.68 317.674 127.38 316.794 127.96C315.934 128.54 314.864 128.83 313.584 128.83ZM314.454 125.68C315.054 125.68 315.634 125.56 316.194 125.32C316.754 125.08 317.244 124.74 317.664 124.3C318.084 123.84 318.414 123.3 318.654 122.68C318.914 122.06 319.044 121.37 319.044 120.61V120.55C319.044 119.79 318.914 119.1 318.654 118.48C318.414 117.84 318.084 117.3 317.664 116.86C317.244 116.42 316.754 116.08 316.194 115.84C315.634 115.6 315.054 115.48 314.454 115.48C313.834 115.48 313.244 115.6 312.684 115.84C312.144 116.06 311.664 116.39 311.244 116.83C310.824 117.27 310.494 117.81 310.254 118.45C310.014 119.07 309.894 119.77 309.894 120.55V120.61C309.894 121.37 310.014 122.07 310.254 122.71C310.494 123.33 310.824 123.86 311.244 124.3C311.664 124.74 312.144 125.08 312.684 125.32C313.244 125.56 313.834 125.68 314.454 125.68Z" fill="#0066B0"/>
<circle cx="25" cy="25" r="22" fill="white"/>
<path fill-rule="evenodd" clip-rule="evenodd" d="M25 1C38.2459 1 49 11.7541 49 25C49 38.246 38.2459 49 25 49C11.754 49 1 38.246 1 25C1 11.7541 11.754 1 25 1ZM26.7039 43.6143C26.7039 43.6143 24.7957 39.7375 30.2734 37.5098C42.7104 32.4519 37.9078 18.46 37.9279 19.7014C38.0597 27.9001 28.4231 28.2391 31.2522 27.113C37.2988 24.706 38.9164 6.23186 20.0726 6.38672C19.321 6.39295 26.1586 9.3672 24.0378 16.1915C22.8879 19.8909 18.803 21.6812 16.7482 18.6931C15.7322 17.2156 16.872 14.0401 16.7482 14.0357C14.427 13.9535 4.71762 27.5845 18.1229 36.7723C20.0991 38.1268 14.7771 31.9599 25.5077 24.9875C26.4145 24.3979 14.5174 34.2952 26.7039 43.6143Z" fill="url(#paint15_linear_273_204)"/>
<path d="M67.1399 13.35H70.5599L79.7999 34.5H75.8999L73.7699 29.43H63.8399L61.6799 34.5H57.8999L67.1399 13.35ZM72.4199 26.16L68.7899 17.76L65.1899 26.16H72.4199ZM81.9811 18.66H85.6111V21.2999C86.1911 20.4799 86.9111 19.78 87.7711 19.2C88.6311 18.62 89.7111 18.33 91.0111 18.33C91.9311 18.33 92.8311 18.51 93.7111 18.87C94.6111 19.23 95.4011 19.7599 96.0811 20.4599C96.7611 21.1599 97.3111 22.02 97.7311 23.04C98.1511 24.06 98.3611 25.2299 98.3611 26.5499V26.61C98.3611 27.93 98.1511 29.0999 97.7311 30.1199C97.3311 31.1399 96.7811 32 96.0811 32.7C95.4011 33.4 94.6211 33.93 93.7411 34.29C92.8611 34.65 91.9511 34.83 91.0111 34.83C89.6911 34.83 88.6011 34.55 87.7411 33.99C86.8811 33.43 86.1711 32.78 85.6111 32.04V39.2999H81.9811V18.66ZM90.1411 31.68C90.7611 31.68 91.3411 31.56 91.8811 31.32C92.4411 31.08 92.9211 30.75 93.3211 30.33C93.7411 29.89 94.0711 29.36 94.3111 28.74C94.5511 28.1 94.6711 27.39 94.6711 26.61V26.5499C94.6711 25.7899 94.5511 25.0999 94.3111 24.4799C94.0711 23.8399 93.7411 23.3 93.3211 22.86C92.9211 22.42 92.4411 22.08 91.8811 21.84C91.3411 21.6 90.7611 21.4799 90.1411 21.4799C89.5211 21.4799 88.9311 21.6 88.3711 21.84C87.8111 22.08 87.3211 22.4299 86.9011 22.8899C86.4811 23.3299 86.1411 23.8599 85.8811 24.4799C85.6411 25.0999 85.5211 25.7899 85.5211 26.5499V26.61C85.5211 27.37 85.6411 28.06 85.8811 28.68C86.1411 29.3 86.4811 29.8399 86.9011 30.2999C87.3211 30.7399 87.8111 31.08 88.3711 31.32C88.9311 31.56 89.5211 31.68 90.1411 31.68ZM101.108 18.66H104.738V21.2999C105.318 20.4799 106.038 19.78 106.898 19.2C107.758 18.62 108.838 18.33 110.138 18.33C111.058 18.33 111.958 18.51 112.838 18.87C113.738 19.23 114.528 19.7599 115.208 20.4599C115.888 21.1599 116.438 22.02 116.858 23.04C117.278 24.06 117.488 25.2299 117.488 26.5499V26.61C117.488 27.93 117.278 29.0999 116.858 30.1199C116.458 31.1399 115.908 32 115.208 32.7C114.528 33.4 113.748 33.93 112.868 34.29C111.988 34.65 111.078 34.83 110.138 34.83C108.818 34.83 107.728 34.55 106.868 33.99C106.008 33.43 105.298 32.78 104.738 32.04V39.2999H101.108V18.66ZM109.268 31.68C109.888 31.68 110.468 31.56 111.008 31.32C111.568 31.08 112.048 30.75 112.448 30.33C112.868 29.89 113.198 29.36 113.438 28.74C113.678 28.1 113.798 27.39 113.798 26.61V26.5499C113.798 25.7899 113.678 25.0999 113.438 24.4799C113.198 23.8399 112.868 23.3 112.448 22.86C112.048 22.42 111.568 22.08 111.008 21.84C110.468 21.6 109.888 21.4799 109.268 21.4799C108.648 21.4799 108.058 21.6 107.498 21.84C106.938 22.08 106.448 22.4299 106.028 22.8899C105.608 23.3299 105.268 23.8599 105.008 24.4799C104.768 25.0999 104.648 25.7899 104.648 26.5499V26.61C104.648 27.37 104.768 28.06 105.008 28.68C105.268 29.3 105.608 29.8399 106.028 30.2999C106.448 30.7399 106.938 31.08 107.498 31.32C108.058 31.56 108.648 31.68 109.268 31.68ZM128.005 34.7999C126.385 34.7999 124.835 34.53 123.355 33.99C121.875 33.43 120.505 32.5799 119.245 31.4399L121.465 28.7999C122.485 29.6799 123.515 30.36 124.555 30.84C125.615 31.3 126.795 31.5299 128.095 31.5299C129.235 31.5299 130.135 31.29 130.795 30.81C131.475 30.31 131.815 29.6699 131.815 28.8899V28.83C131.815 28.45 131.745 28.12 131.605 27.84C131.485 27.54 131.245 27.26 130.885 27C130.545 26.74 130.065 26.5 129.445 26.28C128.845 26.06 128.055 25.84 127.075 25.62C125.955 25.36 124.955 25.07 124.075 24.75C123.215 24.41 122.485 24.0099 121.885 23.5499C121.305 23.0699 120.855 22.4899 120.535 21.8099C120.235 21.1299 120.085 20.31 120.085 19.35V19.29C120.085 18.39 120.265 17.57 120.625 16.83C120.985 16.07 121.475 15.43 122.095 14.91C122.735 14.37 123.495 13.95 124.375 13.65C125.255 13.35 126.215 13.2 127.255 13.2C128.795 13.2 130.175 13.4299 131.395 13.8899C132.635 14.3299 133.795 14.98 134.875 15.84L132.895 18.6299C131.935 17.9299 130.985 17.4 130.045 17.04C129.105 16.66 128.155 16.4699 127.195 16.4699C126.115 16.4699 125.275 16.71 124.675 17.19C124.075 17.67 123.775 18.2599 123.775 18.9599V19.02C123.775 19.42 123.845 19.78 123.985 20.1C124.125 20.4 124.385 20.68 124.765 20.94C125.145 21.18 125.655 21.4099 126.295 21.6299C126.935 21.8499 127.765 22.08 128.785 22.32C129.885 22.6 130.855 22.91 131.695 23.25C132.535 23.59 133.235 24.01 133.795 24.51C134.375 24.99 134.805 25.5599 135.085 26.2199C135.365 26.8599 135.505 27.6099 135.505 28.4699V28.53C135.505 29.51 135.315 30.3899 134.935 31.1699C134.575 31.9499 134.065 32.61 133.405 33.15C132.745 33.69 131.955 34.1 131.035 34.38C130.115 34.66 129.105 34.7999 128.005 34.7999ZM145.745 34.86C144.565 34.86 143.475 34.6499 142.475 34.2299C141.475 33.7899 140.605 33.1999 139.865 32.4599C139.145 31.7199 138.575 30.8499 138.155 29.8499C137.755 28.8499 137.555 27.79 137.555 26.67V26.61C137.555 25.49 137.755 24.43 138.155 23.43C138.575 22.41 139.155 21.53 139.895 20.79C140.635 20.03 141.505 19.43 142.505 18.99C143.505 18.55 144.605 18.33 145.805 18.33C146.545 18.33 147.215 18.4 147.815 18.54C148.435 18.66 148.995 18.84 149.495 19.08C150.015 19.32 150.485 19.61 150.905 19.95C151.345 20.29 151.755 20.6599 152.135 21.0599L149.855 23.49C149.295 22.91 148.695 22.44 148.055 22.08C147.435 21.7 146.675 21.51 145.775 21.51C145.115 21.51 144.505 21.65 143.945 21.93C143.385 22.19 142.895 22.55 142.475 23.01C142.075 23.45 141.755 23.98 141.515 24.6C141.295 25.22 141.185 25.8699 141.185 26.5499V26.61C141.185 27.31 141.295 27.97 141.515 28.59C141.755 29.21 142.085 29.7499 142.505 30.2099C142.925 30.6699 143.425 31.03 144.005 31.29C144.585 31.55 145.225 31.68 145.925 31.68C146.785 31.68 147.535 31.4999 148.175 31.1399C148.835 30.7799 149.455 30.3099 150.035 29.7299L152.225 31.8899C151.445 32.7699 150.555 33.4899 149.555 34.0499C148.555 34.5899 147.285 34.86 145.745 34.86ZM159.123 34.83C158.383 34.83 157.673 34.72 156.993 34.5C156.313 34.3 155.713 33.9999 155.193 33.5999C154.693 33.1799 154.283 32.67 153.963 32.07C153.663 31.45 153.513 30.7399 153.513 29.9399V29.88C153.513 29.02 153.673 28.2699 153.993 27.6299C154.313 26.9899 154.753 26.46 155.313 26.04C155.893 25.62 156.583 25.31 157.383 25.11C158.203 24.89 159.093 24.78 160.053 24.78C160.953 24.78 161.733 24.8399 162.393 24.9599C163.053 25.0799 163.693 25.24 164.313 25.44V25.0499C164.313 23.9099 163.973 23.0499 163.293 22.4699C162.633 21.8899 161.663 21.6 160.383 21.6C159.483 21.6 158.683 21.69 157.983 21.87C157.283 22.05 156.573 22.29 155.853 22.59L154.893 19.74C155.773 19.34 156.673 19.0299 157.593 18.8099C158.513 18.5699 159.603 18.45 160.863 18.45C163.223 18.45 164.973 19.0399 166.113 20.2199C166.693 20.7999 167.123 21.5 167.403 22.32C167.683 23.14 167.823 24.07 167.823 25.11V34.5H164.283V32.52C163.743 33.16 163.053 33.7099 162.213 34.1699C161.373 34.6099 160.343 34.83 159.123 34.83ZM160.143 32.1899C160.743 32.1899 161.303 32.11 161.823 31.95C162.343 31.79 162.783 31.5599 163.143 31.2599C163.523 30.9599 163.823 30.6 164.043 30.18C164.263 29.76 164.373 29.2999 164.373 28.7999V27.7199C163.913 27.5399 163.373 27.39 162.753 27.27C162.153 27.15 161.493 27.09 160.773 27.09C159.593 27.09 158.673 27.32 158.013 27.78C157.373 28.24 157.053 28.8899 157.053 29.7299V29.79C157.053 30.55 157.343 31.14 157.923 31.56C158.523 31.98 159.263 32.1899 160.143 32.1899ZM171.171 18.66H174.801V21.09C175.061 20.73 175.341 20.38 175.641 20.04C175.961 19.7 176.321 19.41 176.721 19.17C177.141 18.91 177.591 18.71 178.071 18.57C178.571 18.41 179.131 18.33 179.751 18.33C181.551 18.33 182.941 18.8799 183.921 19.9799C184.901 21.0799 185.391 22.5499 185.391 24.3899V34.5H181.761V25.5C181.761 24.26 181.461 23.31 180.861 22.65C180.281 21.97 179.451 21.6299 178.371 21.6299C177.311 21.6299 176.451 21.98 175.791 22.68C175.131 23.36 174.801 24.3199 174.801 25.5599V34.5H171.171V18.66Z" fill="#0066B0"/>
<path d="M25.6464 83.3536C25.8417 83.5488 26.1583 83.5488 26.3536 83.3536L29.5355 80.1716C29.7308 79.9763 29.7308 79.6597 29.5355 79.4645C29.3403 79.2692 29.0237 79.2692 28.8284 79.4645L26 82.2929L23.1716 79.4645C22.9763 79.2692 22.6597 79.2692 22.4645 79.4645C22.2692 79.6597 22.2692 79.9763 22.4645 80.1716L25.6464 83.3536ZM25.5 59L25.5 83L26.5 83L26.5 59L25.5 59Z" fill="white" fill-opacity="0.33"/>
<defs>
<linearGradient id="paint0_linear_273_204" x1="46" y1="386" x2="4.00001" y2="428" gradientUnits="userSpaceOnUse">
<stop stop-color="#0066B0"/>
<stop offset="1" stop-color="#2ABDEA"/>
</linearGradient>
<linearGradient id="paint1_linear_273_204" x1="46" y1="386" x2="4.00001" y2="428" gradientUnits="userSpaceOnUse">
<stop stop-color="#0066B0"/>
<stop offset="1" stop-color="#2ABDEA"/>
</linearGradient>
<linearGradient id="paint2_linear_273_204" x1="46" y1="386" x2="4.00001" y2="428" gradientUnits="userSpaceOnUse">
<stop stop-color="#0066B0"/>
<stop offset="1" stop-color="#2ABDEA"/>
</linearGradient>
<linearGradient id="paint3_linear_273_204" x1="46" y1="386" x2="4.00001" y2="428" gradientUnits="userSpaceOnUse">
<stop stop-color="#0066B0"/>
<stop offset="1" stop-color="#2ABDEA"/>
</linearGradient>
<linearGradient id="paint4_linear_273_204" x1="20.23" y1="391.529" x2="-5.2265" y2="404.881" gradientUnits="userSpaceOnUse">
<stop stop-color="#0066B0"/>
<stop offset="1" stop-color="#2ABDEA"/>
</linearGradient>
<linearGradient id="paint5_linear_273_204" x1="20.23" y1="391.529" x2="-5.2265" y2="404.881" gradientUnits="userSpaceOnUse">
<stop stop-color="#0066B0"/>
<stop offset="1" stop-color="#2ABDEA"/>
</linearGradient>
<linearGradient id="paint6_linear_273_204" x1="49" y1="172" x2="13.2189" y2="218.419" gradientUnits="userSpaceOnUse">
<stop stop-color="#0066B0"/>
<stop offset="1" stop-color="#2ABDEA"/>
</linearGradient>
<linearGradient id="paint7_linear_273_204" x1="49" y1="172" x2="13.2189" y2="218.419" gradientUnits="userSpaceOnUse">
<stop stop-color="#0066B0"/>
<stop offset="1" stop-color="#2ABDEA"/>
</linearGradient>
<linearGradient id="paint8_linear_273_204" x1="45" y1="315" x2="5" y2="355" gradientUnits="userSpaceOnUse">
<stop stop-color="#0066B0"/>
<stop offset="1" stop-color="#2ABDEA"/>
</linearGradient>
<linearGradient id="paint9_linear_273_204" x1="45" y1="315" x2="5" y2="355" gradientUnits="userSpaceOnUse">
<stop stop-color="#0066B0"/>
<stop offset="1" stop-color="#2ABDEA"/>
</linearGradient>
<linearGradient id="paint10_linear_273_204" x1="45" y1="315" x2="5" y2="355" gradientUnits="userSpaceOnUse">
<stop stop-color="#0066B0"/>
<stop offset="1" stop-color="#2ABDEA"/>
</linearGradient>
<linearGradient id="paint11_linear_273_204" x1="45" y1="315" x2="5" y2="355" gradientUnits="userSpaceOnUse">
<stop stop-color="#0066B0"/>
<stop offset="1" stop-color="#2ABDEA"/>
</linearGradient>
<linearGradient id="paint12_linear_273_204" x1="46" y1="242" x2="1.11136" y2="283.901" gradientUnits="userSpaceOnUse">
<stop stop-color="#0066B0"/>
<stop offset="1" stop-color="#2ABDEA"/>
</linearGradient>
<linearGradient id="paint13_linear_273_204" x1="46" y1="242" x2="1.11136" y2="283.901" gradientUnits="userSpaceOnUse">
<stop stop-color="#0066B0"/>
<stop offset="1" stop-color="#2ABDEA"/>
</linearGradient>
<linearGradient id="paint14_linear_273_204" x1="45.5692" y1="96" x2="-0.871025" y2="137.283" gradientUnits="userSpaceOnUse">
<stop stop-color="#0066B0"/>
<stop offset="1" stop-color="#2ABDEA"/>
</linearGradient>
<linearGradient id="paint15_linear_273_204" x1="49" y1="1" x2="1.00001" y2="49" gradientUnits="userSpaceOnUse">
<stop stop-color="#0066B0"/>
<stop offset="1" stop-color="#2ABDEA"/>
</linearGradient>
</defs>
</svg>
