<svg width="341" height="408" viewBox="0 0 341 408" fill="none" xmlns="http://www.w3.org/2000/svg">
<path d="M8 278.398C8.5612 277.738 9.16246 277.114 9.8 276.529V291.338C9.7898 291.558 9.78464 291.778 9.78464 292C9.78464 292.222 9.7898 292.442 9.8 292.662V307.471C9.16246 306.886 8.5612 306.262 8 305.602V278.398Z" fill="url(#paint0_linear_244_67)"/>
<path d="M23.7846 306C19.6116 306 15.8649 304.174 13.3 301.278V310.073C16.4336 311.933 20.0921 313 24 313C35.598 313 45 303.598 45 292C45 280.402 35.598 271 24 271C20.0921 271 16.4336 272.067 13.3 273.927V282.722C15.8649 279.826 19.6116 278 23.7846 278C31.5166 278 37.7846 284.268 37.7846 292C37.7846 299.732 31.5166 306 23.7846 306Z" fill="url(#paint1_linear_244_67)"/>
<path d="M5 283.044C3.71728 285.761 3 288.797 3 292C3 295.203 3.71728 298.239 5 300.956V283.044Z" fill="url(#paint2_linear_244_67)"/>
<path d="M24.9861 303C24.9861 303 23.8818 300.709 27.0519 299.393C34.2495 296.404 31.4701 288.135 31.4818 288.869C31.558 293.714 25.9811 293.914 27.6183 293.249C31.1177 291.826 32.0538 280.909 21.1484 281.001C21.0583 281.001 21.1566 281.077 21.3582 281.233C22.1302 281.83 24.4163 283.597 23.4432 286.795C22.7777 288.981 20.4136 290.039 19.2245 288.273C18.7734 287.603 19.0566 286.343 19.1806 285.791C19.2182 285.624 19.2412 285.521 19.2245 285.521C17.8811 285.472 12.2621 293.527 20.0201 298.957C20.3444 299.184 20.329 299.053 20.2822 298.656C20.1639 297.652 19.845 294.944 24.2939 291.993C24.355 291.952 24.3156 291.996 24.2095 292.113C23.4043 293.002 18.7546 298.134 24.9861 303Z" fill="url(#paint3_linear_244_67)"/>
<path d="M8 278.398C8.5612 277.738 9.16246 277.114 9.8 276.529V291.338C9.7898 291.558 9.78464 291.778 9.78464 292C9.78464 292.222 9.7898 292.442 9.8 292.662V307.471C9.16246 306.886 8.5612 306.262 8 305.602V278.398Z" fill="url(#paint4_linear_244_67)"/>
<path d="M5 283.044C3.71728 285.761 3 288.797 3 292C3 295.203 3.71728 298.239 5 300.956V283.044Z" fill="url(#paint5_linear_244_67)"/>
<path d="M66.14 280.35H69.56L78.8 301.5H74.9L72.77 296.43H62.84L60.68 301.5H56.9L66.14 280.35ZM71.42 293.16L67.79 284.76L64.19 293.16H71.42ZM80.9812 285.66H84.6112V288.3C85.1912 287.48 85.9112 286.78 86.7712 286.2C87.6312 285.62 88.7112 285.33 90.0112 285.33C90.9312 285.33 91.8312 285.51 92.7112 285.87C93.6112 286.23 94.4012 286.76 95.0812 287.46C95.7612 288.16 96.3112 289.02 96.7312 290.04C97.1512 291.06 97.3612 292.23 97.3612 293.55V293.61C97.3612 294.93 97.1512 296.1 96.7312 297.12C96.3312 298.14 95.7812 299 95.0812 299.7C94.4012 300.4 93.6212 300.93 92.7412 301.29C91.8612 301.65 90.9512 301.83 90.0112 301.83C88.6912 301.83 87.6012 301.55 86.7412 300.99C85.8812 300.43 85.1712 299.78 84.6112 299.04V306.3H80.9812V285.66ZM89.1412 298.68C89.7612 298.68 90.3412 298.56 90.8812 298.32C91.4412 298.08 91.9212 297.75 92.3212 297.33C92.7412 296.89 93.0712 296.36 93.3112 295.74C93.5512 295.1 93.6712 294.39 93.6712 293.61V293.55C93.6712 292.79 93.5512 292.1 93.3112 291.48C93.0712 290.84 92.7412 290.3 92.3212 289.86C91.9212 289.42 91.4412 289.08 90.8812 288.84C90.3412 288.6 89.7612 288.48 89.1412 288.48C88.5212 288.48 87.9312 288.6 87.3712 288.84C86.8112 289.08 86.3212 289.43 85.9012 289.89C85.4812 290.33 85.1412 290.86 84.8812 291.48C84.6412 292.1 84.5212 292.79 84.5212 293.55V293.61C84.5212 294.37 84.6412 295.06 84.8812 295.68C85.1412 296.3 85.4812 296.84 85.9012 297.3C86.3212 297.74 86.8112 298.08 87.3712 298.32C87.9312 298.56 88.5212 298.68 89.1412 298.68ZM100.108 285.66H103.738V288.3C104.318 287.48 105.038 286.78 105.898 286.2C106.758 285.62 107.838 285.33 109.138 285.33C110.058 285.33 110.958 285.51 111.838 285.87C112.738 286.23 113.528 286.76 114.208 287.46C114.888 288.16 115.438 289.02 115.858 290.04C116.278 291.06 116.488 292.23 116.488 293.55V293.61C116.488 294.93 116.278 296.1 115.858 297.12C115.458 298.14 114.908 299 114.208 299.7C113.528 300.4 112.748 300.93 111.868 301.29C110.988 301.65 110.078 301.83 109.138 301.83C107.818 301.83 106.728 301.55 105.868 300.99C105.008 300.43 104.298 299.78 103.738 299.04V306.3H100.108V285.66ZM108.268 298.68C108.888 298.68 109.468 298.56 110.008 298.32C110.568 298.08 111.048 297.75 111.448 297.33C111.868 296.89 112.198 296.36 112.438 295.74C112.678 295.1 112.798 294.39 112.798 293.61V293.55C112.798 292.79 112.678 292.1 112.438 291.48C112.198 290.84 111.868 290.3 111.448 289.86C111.048 289.42 110.568 289.08 110.008 288.84C109.468 288.6 108.888 288.48 108.268 288.48C107.648 288.48 107.058 288.6 106.498 288.84C105.938 289.08 105.448 289.43 105.028 289.89C104.608 290.33 104.268 290.86 104.008 291.48C103.768 292.1 103.648 292.79 103.648 293.55V293.61C103.648 294.37 103.768 295.06 104.008 295.68C104.268 296.3 104.608 296.84 105.028 297.3C105.448 297.74 105.938 298.08 106.498 298.32C107.058 298.56 107.648 298.68 108.268 298.68ZM127.005 301.8C125.385 301.8 123.835 301.53 122.355 300.99C120.875 300.43 119.505 299.58 118.245 298.44L120.465 295.8C121.485 296.68 122.515 297.36 123.555 297.84C124.615 298.3 125.795 298.53 127.095 298.53C128.235 298.53 129.135 298.29 129.795 297.81C130.475 297.31 130.815 296.67 130.815 295.89V295.83C130.815 295.45 130.745 295.12 130.605 294.84C130.485 294.54 130.245 294.26 129.885 294C129.545 293.74 129.065 293.5 128.445 293.28C127.845 293.06 127.055 292.84 126.075 292.62C124.955 292.36 123.955 292.07 123.075 291.75C122.215 291.41 121.485 291.01 120.885 290.55C120.305 290.07 119.855 289.49 119.535 288.81C119.235 288.13 119.085 287.31 119.085 286.35V286.29C119.085 285.39 119.265 284.57 119.625 283.83C119.985 283.07 120.475 282.43 121.095 281.91C121.735 281.37 122.495 280.95 123.375 280.65C124.255 280.35 125.215 280.2 126.255 280.2C127.795 280.2 129.175 280.43 130.395 280.89C131.635 281.33 132.795 281.98 133.875 282.84L131.895 285.63C130.935 284.93 129.985 284.4 129.045 284.04C128.105 283.66 127.155 283.47 126.195 283.47C125.115 283.47 124.275 283.71 123.675 284.19C123.075 284.67 122.775 285.26 122.775 285.96V286.02C122.775 286.42 122.845 286.78 122.985 287.1C123.125 287.4 123.385 287.68 123.765 287.94C124.145 288.18 124.655 288.41 125.295 288.63C125.935 288.85 126.765 289.08 127.785 289.32C128.885 289.6 129.855 289.91 130.695 290.25C131.535 290.59 132.235 291.01 132.795 291.51C133.375 291.99 133.805 292.56 134.085 293.22C134.365 293.86 134.505 294.61 134.505 295.47V295.53C134.505 296.51 134.315 297.39 133.935 298.17C133.575 298.95 133.065 299.61 132.405 300.15C131.745 300.69 130.955 301.1 130.035 301.38C129.115 301.66 128.105 301.8 127.005 301.8ZM144.745 301.86C143.565 301.86 142.475 301.65 141.475 301.23C140.475 300.79 139.605 300.2 138.865 299.46C138.145 298.72 137.575 297.85 137.155 296.85C136.755 295.85 136.555 294.79 136.555 293.67V293.61C136.555 292.49 136.755 291.43 137.155 290.43C137.575 289.41 138.155 288.53 138.895 287.79C139.635 287.03 140.505 286.43 141.505 285.99C142.505 285.55 143.605 285.33 144.805 285.33C145.545 285.33 146.215 285.4 146.815 285.54C147.435 285.66 147.995 285.84 148.495 286.08C149.015 286.32 149.485 286.61 149.905 286.95C150.345 287.29 150.755 287.66 151.135 288.06L148.855 290.49C148.295 289.91 147.695 289.44 147.055 289.08C146.435 288.7 145.675 288.51 144.775 288.51C144.115 288.51 143.505 288.65 142.945 288.93C142.385 289.19 141.895 289.55 141.475 290.01C141.075 290.45 140.755 290.98 140.515 291.6C140.295 292.22 140.185 292.87 140.185 293.55V293.61C140.185 294.31 140.295 294.97 140.515 295.59C140.755 296.21 141.085 296.75 141.505 297.21C141.925 297.67 142.425 298.03 143.005 298.29C143.585 298.55 144.225 298.68 144.925 298.68C145.785 298.68 146.535 298.5 147.175 298.14C147.835 297.78 148.455 297.31 149.035 296.73L151.225 298.89C150.445 299.77 149.555 300.49 148.555 301.05C147.555 301.59 146.285 301.86 144.745 301.86ZM158.123 301.83C157.383 301.83 156.673 301.72 155.993 301.5C155.313 301.3 154.713 301 154.193 300.6C153.693 300.18 153.283 299.67 152.963 299.07C152.663 298.45 152.513 297.74 152.513 296.94V296.88C152.513 296.02 152.673 295.27 152.993 294.63C153.313 293.99 153.753 293.46 154.313 293.04C154.893 292.62 155.583 292.31 156.383 292.11C157.203 291.89 158.093 291.78 159.053 291.78C159.953 291.78 160.733 291.84 161.393 291.96C162.053 292.08 162.693 292.24 163.313 292.44V292.05C163.313 290.91 162.973 290.05 162.293 289.47C161.633 288.89 160.663 288.6 159.383 288.6C158.483 288.6 157.683 288.69 156.983 288.87C156.283 289.05 155.573 289.29 154.853 289.59L153.893 286.74C154.773 286.34 155.673 286.03 156.593 285.81C157.513 285.57 158.603 285.45 159.863 285.45C162.223 285.45 163.973 286.04 165.113 287.22C165.693 287.8 166.123 288.5 166.403 289.32C166.683 290.14 166.823 291.07 166.823 292.11V301.5H163.283V299.52C162.743 300.16 162.053 300.71 161.213 301.17C160.373 301.61 159.343 301.83 158.123 301.83ZM159.143 299.19C159.743 299.19 160.303 299.11 160.823 298.95C161.343 298.79 161.783 298.56 162.143 298.26C162.523 297.96 162.823 297.6 163.043 297.18C163.263 296.76 163.373 296.3 163.373 295.8V294.72C162.913 294.54 162.373 294.39 161.753 294.27C161.153 294.15 160.493 294.09 159.773 294.09C158.593 294.09 157.673 294.32 157.013 294.78C156.373 295.24 156.053 295.89 156.053 296.73V296.79C156.053 297.55 156.343 298.14 156.923 298.56C157.523 298.98 158.263 299.19 159.143 299.19ZM170.171 285.66H173.801V288.09C174.061 287.73 174.341 287.38 174.641 287.04C174.961 286.7 175.321 286.41 175.721 286.17C176.141 285.91 176.591 285.71 177.071 285.57C177.571 285.41 178.131 285.33 178.751 285.33C180.551 285.33 181.941 285.88 182.921 286.98C183.901 288.08 184.391 289.55 184.391 291.39V301.5H180.761V292.5C180.761 291.26 180.461 290.31 179.861 289.65C179.281 288.97 178.451 288.63 177.371 288.63C176.311 288.63 175.451 288.98 174.791 289.68C174.131 290.36 173.801 291.32 173.801 292.56V301.5H170.171V285.66ZM203.538 301.8C201.918 301.8 200.368 301.53 198.888 300.99C197.408 300.43 196.038 299.58 194.778 298.44L196.998 295.8C198.018 296.68 199.048 297.36 200.088 297.84C201.148 298.3 202.328 298.53 203.628 298.53C204.768 298.53 205.668 298.29 206.328 297.81C207.008 297.31 207.348 296.67 207.348 295.89V295.83C207.348 295.45 207.278 295.12 207.138 294.84C207.018 294.54 206.778 294.26 206.418 294C206.078 293.74 205.598 293.5 204.978 293.28C204.378 293.06 203.588 292.84 202.608 292.62C201.488 292.36 200.488 292.07 199.608 291.75C198.748 291.41 198.018 291.01 197.418 290.55C196.838 290.07 196.388 289.49 196.068 288.81C195.768 288.13 195.618 287.31 195.618 286.35V286.29C195.618 285.39 195.798 284.57 196.158 283.83C196.518 283.07 197.008 282.43 197.628 281.91C198.268 281.37 199.028 280.95 199.908 280.65C200.788 280.35 201.748 280.2 202.788 280.2C204.328 280.2 205.708 280.43 206.928 280.89C208.168 281.33 209.328 281.98 210.408 282.84L208.428 285.63C207.468 284.93 206.518 284.4 205.578 284.04C204.638 283.66 203.688 283.47 202.728 283.47C201.648 283.47 200.808 283.71 200.208 284.19C199.608 284.67 199.308 285.26 199.308 285.96V286.02C199.308 286.42 199.378 286.78 199.518 287.1C199.658 287.4 199.918 287.68 200.298 287.94C200.678 288.18 201.188 288.41 201.828 288.63C202.468 288.85 203.298 289.08 204.318 289.32C205.418 289.6 206.388 289.91 207.228 290.25C208.068 290.59 208.768 291.01 209.328 291.51C209.908 291.99 210.338 292.56 210.618 293.22C210.898 293.86 211.038 294.61 211.038 295.47V295.53C211.038 296.51 210.848 297.39 210.468 298.17C210.108 298.95 209.598 299.61 208.938 300.15C208.278 300.69 207.488 301.1 206.568 301.38C205.648 301.66 204.638 301.8 203.538 301.8ZM221.488 301.86C220.288 301.86 219.168 301.65 218.128 301.23C217.108 300.79 216.218 300.2 215.458 299.46C214.718 298.72 214.138 297.85 213.718 296.85C213.298 295.85 213.088 294.79 213.088 293.67V293.61C213.088 292.47 213.298 291.4 213.718 290.4C214.158 289.4 214.748 288.53 215.488 287.79C216.248 287.03 217.138 286.43 218.158 285.99C219.198 285.55 220.328 285.33 221.548 285.33C222.768 285.33 223.888 285.55 224.908 285.99C225.948 286.41 226.838 287 227.578 287.76C228.338 288.5 228.928 289.37 229.348 290.37C229.768 291.35 229.978 292.41 229.978 293.55V293.61C229.978 294.73 229.758 295.79 229.318 296.79C228.898 297.79 228.308 298.67 227.548 299.43C226.808 300.17 225.918 300.76 224.878 301.2C223.838 301.64 222.708 301.86 221.488 301.86ZM221.548 298.68C222.288 298.68 222.948 298.55 223.528 298.29C224.128 298.01 224.638 297.65 225.058 297.21C225.478 296.75 225.798 296.22 226.018 295.62C226.238 295 226.348 294.35 226.348 293.67V293.61C226.348 292.91 226.228 292.25 225.988 291.63C225.748 291.01 225.408 290.47 224.968 290.01C224.548 289.55 224.038 289.19 223.438 288.93C222.858 288.65 222.208 288.51 221.488 288.51C220.768 288.51 220.108 288.65 219.508 288.93C218.928 289.19 218.428 289.55 218.008 290.01C217.588 290.45 217.268 290.98 217.048 291.6C216.828 292.22 216.718 292.87 216.718 293.55V293.61C216.718 294.31 216.838 294.97 217.078 295.59C217.318 296.19 217.648 296.72 218.068 297.18C218.508 297.64 219.018 298.01 219.598 298.29C220.198 298.55 220.848 298.68 221.548 298.68ZM238.135 301.83C236.335 301.83 234.945 301.28 233.965 300.18C232.985 299.08 232.495 297.6 232.495 295.74V285.66H236.125V294.66C236.125 295.9 236.415 296.85 236.995 297.51C237.595 298.17 238.435 298.5 239.515 298.5C240.575 298.5 241.435 298.16 242.095 297.48C242.755 296.8 243.085 295.84 243.085 294.6V285.66H246.745V301.5H243.085V299.04C242.565 299.8 241.915 300.46 241.135 301.02C240.355 301.56 239.355 301.83 238.135 301.83ZM250.278 285.66H253.908V289.23C254.408 288.03 255.118 287.07 256.038 286.35C256.958 285.63 258.118 285.3 259.518 285.36V289.2H259.308C258.508 289.2 257.778 289.33 257.118 289.59C256.458 289.85 255.888 290.24 255.408 290.76C254.928 291.28 254.558 291.94 254.298 292.74C254.038 293.52 253.908 294.43 253.908 295.47V301.5H250.278V285.66ZM268.463 301.86C267.283 301.86 266.193 301.65 265.193 301.23C264.193 300.79 263.323 300.2 262.583 299.46C261.863 298.72 261.293 297.85 260.873 296.85C260.473 295.85 260.273 294.79 260.273 293.67V293.61C260.273 292.49 260.473 291.43 260.873 290.43C261.293 289.41 261.873 288.53 262.613 287.79C263.353 287.03 264.223 286.43 265.223 285.99C266.223 285.55 267.323 285.33 268.523 285.33C269.263 285.33 269.933 285.4 270.533 285.54C271.153 285.66 271.713 285.84 272.213 286.08C272.733 286.32 273.203 286.61 273.623 286.95C274.063 287.29 274.473 287.66 274.853 288.06L272.573 290.49C272.013 289.91 271.413 289.44 270.773 289.08C270.153 288.7 269.393 288.51 268.493 288.51C267.833 288.51 267.223 288.65 266.663 288.93C266.103 289.19 265.613 289.55 265.193 290.01C264.793 290.45 264.473 290.98 264.233 291.6C264.013 292.22 263.903 292.87 263.903 293.55V293.61C263.903 294.31 264.013 294.97 264.233 295.59C264.473 296.21 264.803 296.75 265.223 297.21C265.643 297.67 266.143 298.03 266.723 298.29C267.303 298.55 267.943 298.68 268.643 298.68C269.503 298.68 270.253 298.5 270.893 298.14C271.553 297.78 272.173 297.31 272.753 296.73L274.943 298.89C274.163 299.77 273.273 300.49 272.273 301.05C271.273 301.59 270.003 301.86 268.463 301.86ZM284.103 301.86C282.963 301.86 281.893 301.66 280.893 301.26C279.913 300.86 279.053 300.3 278.312 299.58C277.593 298.86 277.023 298 276.603 297C276.183 295.98 275.973 294.86 275.973 293.64V293.58C275.973 292.44 276.163 291.37 276.542 290.37C276.923 289.37 277.453 288.5 278.133 287.76C278.833 287 279.653 286.41 280.593 285.99C281.533 285.55 282.573 285.33 283.713 285.33C284.973 285.33 286.073 285.56 287.013 286.02C287.973 286.48 288.763 287.1 289.383 287.88C290.023 288.66 290.503 289.57 290.823 290.61C291.143 291.63 291.303 292.71 291.303 293.85C291.303 294.01 291.293 294.18 291.273 294.36C291.273 294.52 291.263 294.69 291.243 294.87H279.603C279.803 296.17 280.313 297.17 281.133 297.87C281.973 298.55 282.983 298.89 284.163 298.89C285.063 298.89 285.843 298.73 286.503 298.41C287.163 298.09 287.813 297.62 288.453 297L290.583 298.89C289.823 299.79 288.913 300.51 287.853 301.05C286.813 301.59 285.563 301.86 284.103 301.86ZM287.703 292.47C287.643 291.89 287.513 291.35 287.313 290.85C287.113 290.33 286.843 289.89 286.503 289.53C286.163 289.15 285.753 288.85 285.273 288.63C284.813 288.41 284.283 288.3 283.683 288.3C282.563 288.3 281.633 288.69 280.893 289.47C280.173 290.23 279.733 291.23 279.573 292.47H287.703Z" fill="#0066B0"/>
<path d="M9 134C4.58172 134 1 130.418 1 126C1 122.58 3.14617 119.661 6.16522 118.517C6.05624 117.693 6 116.853 6 116C6 105.507 14.5066 97 25 97C34.7114 97 42.7211 104.286 43.861 113.69C46.9488 115.638 49 119.079 49 123C49 129.075 44.0751 134 38 134H27V129.858C33.7846 128.888 39 123.053 39 116C39 108.268 32.732 102 25 102C17.268 102 11 108.268 11 116C11 123.053 16.2154 128.888 23 129.858V134H9Z" fill="url(#paint6_linear_244_67)"/>
<path d="M28.0519 123.393C24.8818 124.709 25.9861 127 25.9861 127C19.7546 122.134 24.4042 117.002 25.2095 116.113C25.3156 115.995 25.355 115.952 25.2939 115.993C20.845 118.944 21.1639 121.652 21.2822 122.656C21.329 123.053 21.3444 123.184 21.0201 122.957C13.2621 117.527 18.8811 109.472 20.2245 109.521C20.2412 109.521 20.2182 109.623 20.1807 109.791C20.0567 110.342 19.7734 111.603 20.2245 112.273C21.4136 114.039 23.7777 112.981 24.4432 110.795C25.4163 107.597 23.1302 105.83 22.3582 105.233C22.1566 105.077 22.0583 105.001 22.1484 105.001C33.0538 104.909 32.1176 115.826 28.6183 117.249C26.9811 117.914 32.558 117.714 32.4818 112.869C32.4701 112.135 35.2495 120.404 28.0519 123.393Z" fill="url(#paint7_linear_244_67)"/>
<path d="M67.14 104.35H70.56L79.8 125.5H75.9L73.77 120.43H63.84L61.68 125.5H57.9L67.14 104.35ZM72.42 117.16L68.79 108.76L65.19 117.16H72.42ZM81.9812 109.66H85.6112V112.3C86.1912 111.48 86.9112 110.78 87.7712 110.2C88.6312 109.62 89.7112 109.33 91.0112 109.33C91.9312 109.33 92.8312 109.51 93.7112 109.87C94.6112 110.23 95.4012 110.76 96.0812 111.46C96.7612 112.16 97.3112 113.02 97.7312 114.04C98.1512 115.06 98.3612 116.23 98.3612 117.55V117.61C98.3612 118.93 98.1512 120.1 97.7312 121.12C97.3312 122.14 96.7812 123 96.0812 123.7C95.4012 124.4 94.6212 124.93 93.7412 125.29C92.8612 125.65 91.9512 125.83 91.0112 125.83C89.6912 125.83 88.6012 125.55 87.7412 124.99C86.8812 124.43 86.1712 123.78 85.6112 123.04V130.3H81.9812V109.66ZM90.1412 122.68C90.7612 122.68 91.3412 122.56 91.8812 122.32C92.4412 122.08 92.9212 121.75 93.3212 121.33C93.7412 120.89 94.0712 120.36 94.3112 119.74C94.5512 119.1 94.6712 118.39 94.6712 117.61V117.55C94.6712 116.79 94.5512 116.1 94.3112 115.48C94.0712 114.84 93.7412 114.3 93.3212 113.86C92.9212 113.42 92.4412 113.08 91.8812 112.84C91.3412 112.6 90.7612 112.48 90.1412 112.48C89.5212 112.48 88.9312 112.6 88.3712 112.84C87.8112 113.08 87.3212 113.43 86.9012 113.89C86.4812 114.33 86.1412 114.86 85.8812 115.48C85.6412 116.1 85.5212 116.79 85.5212 117.55V117.61C85.5212 118.37 85.6412 119.06 85.8812 119.68C86.1412 120.3 86.4812 120.84 86.9012 121.3C87.3212 121.74 87.8112 122.08 88.3712 122.32C88.9312 122.56 89.5212 122.68 90.1412 122.68ZM101.108 109.66H104.738V112.3C105.318 111.48 106.038 110.78 106.898 110.2C107.758 109.62 108.838 109.33 110.138 109.33C111.058 109.33 111.958 109.51 112.838 109.87C113.738 110.23 114.528 110.76 115.208 111.46C115.888 112.16 116.438 113.02 116.858 114.04C117.278 115.06 117.488 116.23 117.488 117.55V117.61C117.488 118.93 117.278 120.1 116.858 121.12C116.458 122.14 115.908 123 115.208 123.7C114.528 124.4 113.748 124.93 112.868 125.29C111.988 125.65 111.078 125.83 110.138 125.83C108.818 125.83 107.728 125.55 106.868 124.99C106.008 124.43 105.298 123.78 104.738 123.04V130.3H101.108V109.66ZM109.268 122.68C109.888 122.68 110.468 122.56 111.008 122.32C111.568 122.08 112.048 121.75 112.448 121.33C112.868 120.89 113.198 120.36 113.438 119.74C113.678 119.1 113.798 118.39 113.798 117.61V117.55C113.798 116.79 113.678 116.1 113.438 115.48C113.198 114.84 112.868 114.3 112.448 113.86C112.048 113.42 111.568 113.08 111.008 112.84C110.468 112.6 109.888 112.48 109.268 112.48C108.648 112.48 108.058 112.6 107.498 112.84C106.938 113.08 106.448 113.43 106.028 113.89C105.608 114.33 105.268 114.86 105.008 115.48C104.768 116.1 104.648 116.79 104.648 117.55V117.61C104.648 118.37 104.768 119.06 105.008 119.68C105.268 120.3 105.608 120.84 106.028 121.3C106.448 121.74 106.938 122.08 107.498 122.32C108.058 122.56 108.648 122.68 109.268 122.68ZM128.005 125.8C126.385 125.8 124.835 125.53 123.355 124.99C121.875 124.43 120.505 123.58 119.245 122.44L121.465 119.8C122.485 120.68 123.515 121.36 124.555 121.84C125.615 122.3 126.795 122.53 128.095 122.53C129.235 122.53 130.135 122.29 130.795 121.81C131.475 121.31 131.815 120.67 131.815 119.89V119.83C131.815 119.45 131.745 119.12 131.605 118.84C131.485 118.54 131.245 118.26 130.885 118C130.545 117.74 130.065 117.5 129.445 117.28C128.845 117.06 128.055 116.84 127.075 116.62C125.955 116.36 124.955 116.07 124.075 115.75C123.215 115.41 122.485 115.01 121.885 114.55C121.305 114.07 120.855 113.49 120.535 112.81C120.235 112.13 120.085 111.31 120.085 110.35V110.29C120.085 109.39 120.265 108.57 120.625 107.83C120.985 107.07 121.475 106.43 122.095 105.91C122.735 105.37 123.495 104.95 124.375 104.65C125.255 104.35 126.215 104.2 127.255 104.2C128.795 104.2 130.175 104.43 131.395 104.89C132.635 105.33 133.795 105.98 134.875 106.84L132.895 109.63C131.935 108.93 130.985 108.4 130.045 108.04C129.105 107.66 128.155 107.47 127.195 107.47C126.115 107.47 125.275 107.71 124.675 108.19C124.075 108.67 123.775 109.26 123.775 109.96V110.02C123.775 110.42 123.845 110.78 123.985 111.1C124.125 111.4 124.385 111.68 124.765 111.94C125.145 112.18 125.655 112.41 126.295 112.63C126.935 112.85 127.765 113.08 128.785 113.32C129.885 113.6 130.855 113.91 131.695 114.25C132.535 114.59 133.235 115.01 133.795 115.51C134.375 115.99 134.805 116.56 135.085 117.22C135.365 117.86 135.505 118.61 135.505 119.47V119.53C135.505 120.51 135.315 121.39 134.935 122.17C134.575 122.95 134.065 123.61 133.405 124.15C132.745 124.69 131.955 125.1 131.035 125.38C130.115 125.66 129.105 125.8 128.005 125.8ZM145.745 125.86C144.565 125.86 143.475 125.65 142.475 125.23C141.475 124.79 140.605 124.2 139.865 123.46C139.145 122.72 138.575 121.85 138.155 120.85C137.755 119.85 137.555 118.79 137.555 117.67V117.61C137.555 116.49 137.755 115.43 138.155 114.43C138.575 113.41 139.155 112.53 139.895 111.79C140.635 111.03 141.505 110.43 142.505 109.99C143.505 109.55 144.605 109.33 145.805 109.33C146.545 109.33 147.215 109.4 147.815 109.54C148.435 109.66 148.995 109.84 149.495 110.08C150.015 110.32 150.485 110.61 150.905 110.95C151.345 111.29 151.755 111.66 152.135 112.06L149.855 114.49C149.295 113.91 148.695 113.44 148.055 113.08C147.435 112.7 146.675 112.51 145.775 112.51C145.115 112.51 144.505 112.65 143.945 112.93C143.385 113.19 142.895 113.55 142.475 114.01C142.075 114.45 141.755 114.98 141.515 115.6C141.295 116.22 141.185 116.87 141.185 117.55V117.61C141.185 118.31 141.295 118.97 141.515 119.59C141.755 120.21 142.085 120.75 142.505 121.21C142.925 121.67 143.425 122.03 144.005 122.29C144.585 122.55 145.225 122.68 145.925 122.68C146.785 122.68 147.535 122.5 148.175 122.14C148.835 121.78 149.455 121.31 150.035 120.73L152.225 122.89C151.445 123.77 150.555 124.49 149.555 125.05C148.555 125.59 147.285 125.86 145.745 125.86ZM159.123 125.83C158.383 125.83 157.673 125.72 156.993 125.5C156.313 125.3 155.713 125 155.193 124.6C154.693 124.18 154.283 123.67 153.963 123.07C153.663 122.45 153.513 121.74 153.513 120.94V120.88C153.513 120.02 153.673 119.27 153.993 118.63C154.313 117.99 154.753 117.46 155.313 117.04C155.893 116.62 156.583 116.31 157.383 116.11C158.203 115.89 159.093 115.78 160.053 115.78C160.953 115.78 161.733 115.84 162.393 115.96C163.053 116.08 163.693 116.24 164.313 116.44V116.05C164.313 114.91 163.973 114.05 163.293 113.47C162.633 112.89 161.663 112.6 160.383 112.6C159.483 112.6 158.683 112.69 157.983 112.87C157.283 113.05 156.573 113.29 155.853 113.59L154.893 110.74C155.773 110.34 156.673 110.03 157.593 109.81C158.513 109.57 159.603 109.45 160.863 109.45C163.223 109.45 164.973 110.04 166.113 111.22C166.693 111.8 167.123 112.5 167.403 113.32C167.683 114.14 167.823 115.07 167.823 116.11V125.5H164.283V123.52C163.743 124.16 163.053 124.71 162.213 125.17C161.373 125.61 160.343 125.83 159.123 125.83ZM160.143 123.19C160.743 123.19 161.303 123.11 161.823 122.95C162.343 122.79 162.783 122.56 163.143 122.26C163.523 121.96 163.823 121.6 164.043 121.18C164.263 120.76 164.373 120.3 164.373 119.8V118.72C163.913 118.54 163.373 118.39 162.753 118.27C162.153 118.15 161.493 118.09 160.773 118.09C159.593 118.09 158.673 118.32 158.013 118.78C157.373 119.24 157.053 119.89 157.053 120.73V120.79C157.053 121.55 157.343 122.14 157.923 122.56C158.523 122.98 159.263 123.19 160.143 123.19ZM171.171 109.66H174.801V112.09C175.061 111.73 175.341 111.38 175.641 111.04C175.961 110.7 176.321 110.41 176.721 110.17C177.141 109.91 177.591 109.71 178.071 109.57C178.571 109.41 179.131 109.33 179.751 109.33C181.551 109.33 182.941 109.88 183.921 110.98C184.901 112.08 185.391 113.55 185.391 115.39V125.5H181.761V116.5C181.761 115.26 181.461 114.31 180.861 113.65C180.281 112.97 179.451 112.63 178.371 112.63C177.311 112.63 176.451 112.98 175.791 113.68C175.131 114.36 174.801 115.32 174.801 116.56V125.5H171.171V109.66ZM204.005 125.86C202.805 125.86 201.685 125.65 200.645 125.23C199.625 124.79 198.735 124.2 197.975 123.46C197.235 122.72 196.655 121.85 196.235 120.85C195.815 119.85 195.605 118.79 195.605 117.67V117.61C195.605 116.47 195.815 115.4 196.235 114.4C196.675 113.4 197.265 112.53 198.005 111.79C198.765 111.03 199.655 110.43 200.675 109.99C201.715 109.55 202.845 109.33 204.065 109.33C205.285 109.33 206.405 109.55 207.425 109.99C208.465 110.41 209.355 111 210.095 111.76C210.855 112.5 211.445 113.37 211.865 114.37C212.285 115.35 212.495 116.41 212.495 117.55V117.61C212.495 118.73 212.275 119.79 211.835 120.79C211.415 121.79 210.825 122.67 210.065 123.43C209.325 124.17 208.435 124.76 207.395 125.2C206.355 125.64 205.225 125.86 204.005 125.86ZM204.065 122.68C204.805 122.68 205.465 122.55 206.045 122.29C206.645 122.01 207.155 121.65 207.575 121.21C207.995 120.75 208.315 120.22 208.535 119.62C208.755 119 208.865 118.35 208.865 117.67V117.61C208.865 116.91 208.745 116.25 208.505 115.63C208.265 115.01 207.925 114.47 207.485 114.01C207.065 113.55 206.555 113.19 205.955 112.93C205.375 112.65 204.725 112.51 204.005 112.51C203.285 112.51 202.625 112.65 202.025 112.93C201.445 113.19 200.945 113.55 200.525 114.01C200.105 114.45 199.785 114.98 199.565 115.6C199.345 116.22 199.235 116.87 199.235 117.55V117.61C199.235 118.31 199.355 118.97 199.595 119.59C199.835 120.19 200.165 120.72 200.585 121.18C201.025 121.64 201.535 122.01 202.115 122.29C202.715 122.55 203.365 122.68 204.065 122.68ZM215.192 109.66H218.822V112.09C219.082 111.73 219.362 111.38 219.662 111.04C219.982 110.7 220.342 110.41 220.742 110.17C221.162 109.91 221.612 109.71 222.092 109.57C222.592 109.41 223.152 109.33 223.772 109.33C225.572 109.33 226.962 109.88 227.942 110.98C228.922 112.08 229.412 113.55 229.412 115.39V125.5H225.782V116.5C225.782 115.26 225.482 114.31 224.882 113.65C224.302 112.97 223.472 112.63 222.392 112.63C221.332 112.63 220.472 112.98 219.812 113.68C219.152 114.36 218.822 115.32 218.822 116.56V125.5H215.192V109.66ZM250.96 125.86C249.42 125.86 248 125.58 246.7 125.02C245.4 124.46 244.27 123.7 243.31 122.74C242.37 121.76 241.63 120.61 241.09 119.29C240.55 117.97 240.28 116.56 240.28 115.06V115C240.28 113.5 240.54 112.1 241.06 110.8C241.6 109.48 242.35 108.33 243.31 107.35C244.27 106.35 245.41 105.57 246.73 105.01C248.05 104.43 249.51 104.14 251.11 104.14C252.07 104.14 252.94 104.22 253.72 104.38C254.52 104.54 255.25 104.77 255.91 105.07C256.57 105.35 257.18 105.69 257.74 106.09C258.3 106.49 258.83 106.93 259.33 107.41L256.96 110.14C256.12 109.36 255.23 108.73 254.29 108.25C253.35 107.77 252.28 107.53 251.08 107.53C250.08 107.53 249.15 107.73 248.29 108.13C247.45 108.51 246.72 109.04 246.1 109.72C245.5 110.38 245.02 111.16 244.66 112.06C244.32 112.96 244.15 113.92 244.15 114.94V115C244.15 116.02 244.32 116.99 244.66 117.91C245 118.81 245.48 119.6 246.1 120.28C246.72 120.94 247.45 121.47 248.29 121.87C249.15 122.25 250.08 122.44 251.08 122.44C252.36 122.44 253.46 122.2 254.38 121.72C255.3 121.24 256.21 120.58 257.11 119.74L259.48 122.14C258.94 122.72 258.37 123.24 257.77 123.7C257.19 124.14 256.56 124.53 255.88 124.87C255.2 125.19 254.45 125.43 253.63 125.59C252.83 125.77 251.94 125.86 250.96 125.86ZM262.148 103.6H265.778V125.5H262.148V103.6ZM277.052 125.86C275.852 125.86 274.732 125.65 273.692 125.23C272.672 124.79 271.782 124.2 271.022 123.46C270.282 122.72 269.702 121.85 269.282 120.85C268.862 119.85 268.652 118.79 268.652 117.67V117.61C268.652 116.47 268.862 115.4 269.282 114.4C269.722 113.4 270.312 112.53 271.052 111.79C271.812 111.03 272.702 110.43 273.722 109.99C274.762 109.55 275.892 109.33 277.112 109.33C278.332 109.33 279.452 109.55 280.472 109.99C281.512 110.41 282.402 111 283.142 111.76C283.902 112.5 284.492 113.37 284.912 114.37C285.332 115.35 285.542 116.41 285.542 117.55V117.61C285.542 118.73 285.322 119.79 284.882 120.79C284.462 121.79 283.872 122.67 283.112 123.43C282.372 124.17 281.482 124.76 280.442 125.2C279.402 125.64 278.272 125.86 277.052 125.86ZM277.112 122.68C277.852 122.68 278.512 122.55 279.092 122.29C279.692 122.01 280.202 121.65 280.622 121.21C281.042 120.75 281.362 120.22 281.582 119.62C281.802 119 281.912 118.35 281.912 117.67V117.61C281.912 116.91 281.792 116.25 281.552 115.63C281.312 115.01 280.972 114.47 280.532 114.01C280.112 113.55 279.602 113.19 279.002 112.93C278.422 112.65 277.772 112.51 277.052 112.51C276.332 112.51 275.672 112.65 275.072 112.93C274.492 113.19 273.992 113.55 273.572 114.01C273.152 114.45 272.832 114.98 272.612 115.6C272.392 116.22 272.282 116.87 272.282 117.55V117.61C272.282 118.31 272.402 118.97 272.642 119.59C272.882 120.19 273.212 120.72 273.632 121.18C274.072 121.64 274.582 122.01 275.162 122.29C275.762 122.55 276.412 122.68 277.112 122.68ZM293.699 125.83C291.899 125.83 290.509 125.28 289.529 124.18C288.549 123.08 288.059 121.6 288.059 119.74V109.66H291.689V118.66C291.689 119.9 291.979 120.85 292.559 121.51C293.159 122.17 293.999 122.5 295.079 122.5C296.139 122.5 296.999 122.16 297.659 121.48C298.319 120.8 298.649 119.84 298.649 118.6V109.66H302.309V125.5H298.649V123.04C298.129 123.8 297.479 124.46 296.699 125.02C295.919 125.56 294.919 125.83 293.699 125.83ZM312.382 125.83C311.443 125.83 310.533 125.65 309.653 125.29C308.773 124.93 307.993 124.4 307.312 123.7C306.633 123 306.083 122.14 305.663 121.12C305.243 120.1 305.033 118.93 305.033 117.61V117.55C305.033 116.23 305.233 115.06 305.633 114.04C306.053 113.02 306.603 112.16 307.283 111.46C307.963 110.76 308.743 110.23 309.623 109.87C310.523 109.51 311.443 109.33 312.382 109.33C313.043 109.33 313.633 109.41 314.153 109.57C314.693 109.71 315.183 109.91 315.623 110.17C316.063 110.43 316.463 110.73 316.823 111.07C317.183 111.39 317.503 111.74 317.783 112.12V103.6H321.413V125.5H317.783V122.86C317.203 123.68 316.473 124.38 315.593 124.96C314.733 125.54 313.663 125.83 312.382 125.83ZM313.253 122.68C313.853 122.68 314.433 122.56 314.993 122.32C315.553 122.08 316.043 121.74 316.463 121.3C316.883 120.84 317.213 120.3 317.453 119.68C317.713 119.06 317.843 118.37 317.843 117.61V117.55C317.843 116.79 317.713 116.1 317.453 115.48C317.213 114.84 316.883 114.3 316.463 113.86C316.043 113.42 315.553 113.08 314.993 112.84C314.433 112.6 313.853 112.48 313.253 112.48C312.633 112.48 312.043 112.6 311.482 112.84C310.943 113.06 310.463 113.39 310.043 113.83C309.623 114.27 309.293 114.81 309.053 115.45C308.813 116.07 308.693 116.77 308.693 117.55V117.61C308.693 118.37 308.813 119.07 309.053 119.71C309.293 120.33 309.623 120.86 310.043 121.3C310.463 121.74 310.943 122.08 311.482 122.32C312.043 122.56 312.633 122.68 313.253 122.68Z" fill="#0066B0"/>
<path d="M28.0519 35.3926C24.8818 36.709 25.9861 39 25.9861 39C19.7546 34.1341 24.4042 29.0015 25.2095 28.1126C25.3156 27.9955 25.355 27.9521 25.2939 27.9926C20.845 30.9444 21.1639 33.6518 21.2822 34.6558C21.329 35.0533 21.3444 35.1838 21.0201 34.9568C13.2621 29.5273 18.8811 21.4721 20.2245 21.5207C20.2412 21.5213 20.2182 21.6233 20.1807 21.7906C20.0567 22.3423 19.7734 23.6031 20.2245 24.273C21.4136 26.0388 23.7777 24.9808 24.4432 22.7947C25.4163 19.5971 23.1302 17.8299 22.3582 17.2332C22.1566 17.0773 22.0583 17.0013 22.1484 17.0006C33.0538 16.9091 32.1176 27.8262 28.6183 29.2486C26.9811 29.9141 32.558 29.7138 32.4818 24.8688C32.4701 24.1352 35.2495 32.4036 28.0519 35.3926Z" fill="url(#paint8_linear_244_67)"/>
<path d="M23 14.1418C16.2154 15.1122 11 20.9471 11 28C11 30.1007 11.4627 32.0933 12.2917 33.8816L5 38.0914V12C5 9.79086 6.79086 8 9 8H23V14.1418Z" fill="url(#paint9_linear_244_67)"/>
<path d="M27 14.1418C33.7846 15.1122 39 20.9471 39 28C39 30.1331 38.523 32.1547 37.6698 33.964L45 38.1962V12C45 9.79086 43.2091 8 41 8H27V14.1418Z" fill="url(#paint10_linear_244_67)"/>
<path d="M45 42.815L35.4591 37.3065C32.8949 40.1862 29.1593 42 25 42C20.8075 42 17.0454 40.1571 14.4796 37.2372L5 42.7102V44C5 46.2091 6.79086 48 9 48H41C43.2091 48 45 46.2091 45 44V42.815Z" fill="url(#paint11_linear_244_67)"/>
<path d="M67.14 16.35H70.56L79.8 37.5H75.9L73.77 32.43H63.84L61.68 37.5H57.9L67.14 16.35ZM72.42 29.16L68.79 20.76L65.19 29.16H72.42ZM81.9812 21.66H85.6112V24.3C86.1912 23.48 86.9112 22.78 87.7712 22.2C88.6312 21.62 89.7112 21.33 91.0112 21.33C91.9312 21.33 92.8312 21.51 93.7112 21.87C94.6112 22.23 95.4012 22.76 96.0812 23.46C96.7612 24.16 97.3112 25.02 97.7312 26.04C98.1512 27.06 98.3612 28.23 98.3612 29.55V29.61C98.3612 30.93 98.1512 32.1 97.7312 33.12C97.3312 34.14 96.7812 35 96.0812 35.7C95.4012 36.4 94.6212 36.93 93.7412 37.29C92.8612 37.65 91.9512 37.83 91.0112 37.83C89.6912 37.83 88.6012 37.55 87.7412 36.99C86.8812 36.43 86.1712 35.78 85.6112 35.04V42.3H81.9812V21.66ZM90.1412 34.68C90.7612 34.68 91.3412 34.56 91.8812 34.32C92.4412 34.08 92.9212 33.75 93.3212 33.33C93.7412 32.89 94.0712 32.36 94.3112 31.74C94.5512 31.1 94.6712 30.39 94.6712 29.61V29.55C94.6712 28.79 94.5512 28.1 94.3112 27.48C94.0712 26.84 93.7412 26.3 93.3212 25.86C92.9212 25.42 92.4412 25.08 91.8812 24.84C91.3412 24.6 90.7612 24.48 90.1412 24.48C89.5212 24.48 88.9312 24.6 88.3712 24.84C87.8112 25.08 87.3212 25.43 86.9012 25.89C86.4812 26.33 86.1412 26.86 85.8812 27.48C85.6412 28.1 85.5212 28.79 85.5212 29.55V29.61C85.5212 30.37 85.6412 31.06 85.8812 31.68C86.1412 32.3 86.4812 32.84 86.9012 33.3C87.3212 33.74 87.8112 34.08 88.3712 34.32C88.9312 34.56 89.5212 34.68 90.1412 34.68ZM101.108 21.66H104.738V24.3C105.318 23.48 106.038 22.78 106.898 22.2C107.758 21.62 108.838 21.33 110.138 21.33C111.058 21.33 111.958 21.51 112.838 21.87C113.738 22.23 114.528 22.76 115.208 23.46C115.888 24.16 116.438 25.02 116.858 26.04C117.278 27.06 117.488 28.23 117.488 29.55V29.61C117.488 30.93 117.278 32.1 116.858 33.12C116.458 34.14 115.908 35 115.208 35.7C114.528 36.4 113.748 36.93 112.868 37.29C111.988 37.65 111.078 37.83 110.138 37.83C108.818 37.83 107.728 37.55 106.868 36.99C106.008 36.43 105.298 35.78 104.738 35.04V42.3H101.108V21.66ZM109.268 34.68C109.888 34.68 110.468 34.56 111.008 34.32C111.568 34.08 112.048 33.75 112.448 33.33C112.868 32.89 113.198 32.36 113.438 31.74C113.678 31.1 113.798 30.39 113.798 29.61V29.55C113.798 28.79 113.678 28.1 113.438 27.48C113.198 26.84 112.868 26.3 112.448 25.86C112.048 25.42 111.568 25.08 111.008 24.84C110.468 24.6 109.888 24.48 109.268 24.48C108.648 24.48 108.058 24.6 107.498 24.84C106.938 25.08 106.448 25.43 106.028 25.89C105.608 26.33 105.268 26.86 105.008 27.48C104.768 28.1 104.648 28.79 104.648 29.55V29.61C104.648 30.37 104.768 31.06 105.008 31.68C105.268 32.3 105.608 32.84 106.028 33.3C106.448 33.74 106.938 34.08 107.498 34.32C108.058 34.56 108.648 34.68 109.268 34.68ZM128.005 37.8C126.385 37.8 124.835 37.53 123.355 36.99C121.875 36.43 120.505 35.58 119.245 34.44L121.465 31.8C122.485 32.68 123.515 33.36 124.555 33.84C125.615 34.3 126.795 34.53 128.095 34.53C129.235 34.53 130.135 34.29 130.795 33.81C131.475 33.31 131.815 32.67 131.815 31.89V31.83C131.815 31.45 131.745 31.12 131.605 30.84C131.485 30.54 131.245 30.26 130.885 30C130.545 29.74 130.065 29.5 129.445 29.28C128.845 29.06 128.055 28.84 127.075 28.62C125.955 28.36 124.955 28.07 124.075 27.75C123.215 27.41 122.485 27.01 121.885 26.55C121.305 26.07 120.855 25.49 120.535 24.81C120.235 24.13 120.085 23.31 120.085 22.35V22.29C120.085 21.39 120.265 20.57 120.625 19.83C120.985 19.07 121.475 18.43 122.095 17.91C122.735 17.37 123.495 16.95 124.375 16.65C125.255 16.35 126.215 16.2 127.255 16.2C128.795 16.2 130.175 16.43 131.395 16.89C132.635 17.33 133.795 17.98 134.875 18.84L132.895 21.63C131.935 20.93 130.985 20.4 130.045 20.04C129.105 19.66 128.155 19.47 127.195 19.47C126.115 19.47 125.275 19.71 124.675 20.19C124.075 20.67 123.775 21.26 123.775 21.96V22.02C123.775 22.42 123.845 22.78 123.985 23.1C124.125 23.4 124.385 23.68 124.765 23.94C125.145 24.18 125.655 24.41 126.295 24.63C126.935 24.85 127.765 25.08 128.785 25.32C129.885 25.6 130.855 25.91 131.695 26.25C132.535 26.59 133.235 27.01 133.795 27.51C134.375 27.99 134.805 28.56 135.085 29.22C135.365 29.86 135.505 30.61 135.505 31.47V31.53C135.505 32.51 135.315 33.39 134.935 34.17C134.575 34.95 134.065 35.61 133.405 36.15C132.745 36.69 131.955 37.1 131.035 37.38C130.115 37.66 129.105 37.8 128.005 37.8ZM145.745 37.86C144.565 37.86 143.475 37.65 142.475 37.23C141.475 36.79 140.605 36.2 139.865 35.46C139.145 34.72 138.575 33.85 138.155 32.85C137.755 31.85 137.555 30.79 137.555 29.67V29.61C137.555 28.49 137.755 27.43 138.155 26.43C138.575 25.41 139.155 24.53 139.895 23.79C140.635 23.03 141.505 22.43 142.505 21.99C143.505 21.55 144.605 21.33 145.805 21.33C146.545 21.33 147.215 21.4 147.815 21.54C148.435 21.66 148.995 21.84 149.495 22.08C150.015 22.32 150.485 22.61 150.905 22.95C151.345 23.29 151.755 23.66 152.135 24.06L149.855 26.49C149.295 25.91 148.695 25.44 148.055 25.08C147.435 24.7 146.675 24.51 145.775 24.51C145.115 24.51 144.505 24.65 143.945 24.93C143.385 25.19 142.895 25.55 142.475 26.01C142.075 26.45 141.755 26.98 141.515 27.6C141.295 28.22 141.185 28.87 141.185 29.55V29.61C141.185 30.31 141.295 30.97 141.515 31.59C141.755 32.21 142.085 32.75 142.505 33.21C142.925 33.67 143.425 34.03 144.005 34.29C144.585 34.55 145.225 34.68 145.925 34.68C146.785 34.68 147.535 34.5 148.175 34.14C148.835 33.78 149.455 33.31 150.035 32.73L152.225 34.89C151.445 35.77 150.555 36.49 149.555 37.05C148.555 37.59 147.285 37.86 145.745 37.86ZM159.123 37.83C158.383 37.83 157.673 37.72 156.993 37.5C156.313 37.3 155.713 37 155.193 36.6C154.693 36.18 154.283 35.67 153.963 35.07C153.663 34.45 153.513 33.74 153.513 32.94V32.88C153.513 32.02 153.673 31.27 153.993 30.63C154.313 29.99 154.753 29.46 155.313 29.04C155.893 28.62 156.583 28.31 157.383 28.11C158.203 27.89 159.093 27.78 160.053 27.78C160.953 27.78 161.733 27.84 162.393 27.96C163.053 28.08 163.693 28.24 164.313 28.44V28.05C164.313 26.91 163.973 26.05 163.293 25.47C162.633 24.89 161.663 24.6 160.383 24.6C159.483 24.6 158.683 24.69 157.983 24.87C157.283 25.05 156.573 25.29 155.853 25.59L154.893 22.74C155.773 22.34 156.673 22.03 157.593 21.81C158.513 21.57 159.603 21.45 160.863 21.45C163.223 21.45 164.973 22.04 166.113 23.22C166.693 23.8 167.123 24.5 167.403 25.32C167.683 26.14 167.823 27.07 167.823 28.11V37.5H164.283V35.52C163.743 36.16 163.053 36.71 162.213 37.17C161.373 37.61 160.343 37.83 159.123 37.83ZM160.143 35.19C160.743 35.19 161.303 35.11 161.823 34.95C162.343 34.79 162.783 34.56 163.143 34.26C163.523 33.96 163.823 33.6 164.043 33.18C164.263 32.76 164.373 32.3 164.373 31.8V30.72C163.913 30.54 163.373 30.39 162.753 30.27C162.153 30.15 161.493 30.09 160.773 30.09C159.593 30.09 158.673 30.32 158.013 30.78C157.373 31.24 157.053 31.89 157.053 32.73V32.79C157.053 33.55 157.343 34.14 157.923 34.56C158.523 34.98 159.263 35.19 160.143 35.19ZM171.171 21.66H174.801V24.09C175.061 23.73 175.341 23.38 175.641 23.04C175.961 22.7 176.321 22.41 176.721 22.17C177.141 21.91 177.591 21.71 178.071 21.57C178.571 21.41 179.131 21.33 179.751 21.33C181.551 21.33 182.941 21.88 183.921 22.98C184.901 24.08 185.391 25.55 185.391 27.39V37.5H181.761V28.5C181.761 27.26 181.461 26.31 180.861 25.65C180.281 24.97 179.451 24.63 178.371 24.63C177.311 24.63 176.451 24.98 175.791 25.68C175.131 26.36 174.801 27.32 174.801 28.56V37.5H171.171V21.66ZM197.188 16.5H212.758V19.8H200.878V25.26H211.408V28.56H200.878V34.2H212.908V37.5H197.188V16.5ZM215.866 21.66H219.496V24.09C219.756 23.73 220.036 23.38 220.336 23.04C220.656 22.7 221.016 22.41 221.416 22.17C221.836 21.91 222.286 21.71 222.766 21.57C223.266 21.41 223.826 21.33 224.446 21.33C226.246 21.33 227.636 21.88 228.616 22.98C229.596 24.08 230.086 25.55 230.086 27.39V37.5H226.456V28.5C226.456 27.26 226.156 26.31 225.556 25.65C224.976 24.97 224.146 24.63 223.066 24.63C222.006 24.63 221.146 24.98 220.486 25.68C219.826 26.36 219.496 27.32 219.496 28.56V37.5H215.866V21.66ZM238.779 37.77C238.119 37.77 237.509 37.69 236.949 37.53C236.389 37.37 235.899 37.11 235.479 36.75C235.079 36.39 234.769 35.92 234.549 35.34C234.329 34.74 234.219 34 234.219 33.12V24.78H232.209V21.66H234.219V17.31H237.849V21.66H242.109V24.78H237.849V32.55C237.849 33.25 238.019 33.76 238.359 34.08C238.699 34.38 239.179 34.53 239.799 34.53C240.579 34.53 241.329 34.35 242.049 33.99V36.96C241.589 37.22 241.099 37.42 240.579 37.56C240.079 37.7 239.479 37.77 238.779 37.77ZM251.624 37.86C250.484 37.86 249.414 37.66 248.414 37.26C247.434 36.86 246.574 36.3 245.834 35.58C245.114 34.86 244.544 34 244.124 33C243.704 31.98 243.494 30.86 243.494 29.64V29.58C243.494 28.44 243.684 27.37 244.064 26.37C244.444 25.37 244.974 24.5 245.654 23.76C246.354 23 247.174 22.41 248.114 21.99C249.054 21.55 250.094 21.33 251.234 21.33C252.494 21.33 253.594 21.56 254.534 22.02C255.494 22.48 256.284 23.1 256.904 23.88C257.544 24.66 258.024 25.57 258.344 26.61C258.664 27.63 258.824 28.71 258.824 29.85C258.824 30.01 258.814 30.18 258.794 30.36C258.794 30.52 258.784 30.69 258.764 30.87H247.124C247.324 32.17 247.834 33.17 248.654 33.87C249.494 34.55 250.504 34.89 251.684 34.89C252.584 34.89 253.364 34.73 254.024 34.41C254.684 34.09 255.334 33.62 255.974 33L258.104 34.89C257.344 35.79 256.434 36.51 255.374 37.05C254.334 37.59 253.084 37.86 251.624 37.86ZM255.224 28.47C255.164 27.89 255.034 27.35 254.834 26.85C254.634 26.33 254.364 25.89 254.024 25.53C253.684 25.15 253.274 24.85 252.794 24.63C252.334 24.41 251.804 24.3 251.204 24.3C250.084 24.3 249.154 24.69 248.414 25.47C247.694 26.23 247.254 27.23 247.094 28.47H255.224ZM261.469 21.66H265.099V25.23C265.599 24.03 266.309 23.07 267.229 22.35C268.149 21.63 269.309 21.3 270.709 21.36V25.2H270.499C269.699 25.2 268.969 25.33 268.309 25.59C267.649 25.85 267.079 26.24 266.599 26.76C266.119 27.28 265.749 27.94 265.489 28.74C265.229 29.52 265.099 30.43 265.099 31.47V37.5H261.469V21.66ZM272.862 21.66H276.492V24.3C277.072 23.48 277.792 22.78 278.652 22.2C279.512 21.62 280.592 21.33 281.892 21.33C282.812 21.33 283.712 21.51 284.592 21.87C285.492 22.23 286.282 22.76 286.962 23.46C287.642 24.16 288.192 25.02 288.612 26.04C289.032 27.06 289.242 28.23 289.242 29.55V29.61C289.242 30.93 289.032 32.1 288.612 33.12C288.212 34.14 287.662 35 286.962 35.7C286.282 36.4 285.502 36.93 284.622 37.29C283.742 37.65 282.832 37.83 281.892 37.83C280.572 37.83 279.482 37.55 278.622 36.99C277.762 36.43 277.052 35.78 276.492 35.04V42.3H272.862V21.66ZM281.022 34.68C281.642 34.68 282.222 34.56 282.762 34.32C283.322 34.08 283.802 33.75 284.202 33.33C284.622 32.89 284.952 32.36 285.192 31.74C285.432 31.1 285.552 30.39 285.552 29.61V29.55C285.552 28.79 285.432 28.1 285.192 27.48C284.952 26.84 284.622 26.3 284.202 25.86C283.802 25.42 283.322 25.08 282.762 24.84C282.222 24.6 281.642 24.48 281.022 24.48C280.402 24.48 279.812 24.6 279.252 24.84C278.692 25.08 278.202 25.43 277.782 25.89C277.362 26.33 277.022 26.86 276.762 27.48C276.522 28.1 276.402 28.79 276.402 29.55V29.61C276.402 30.37 276.522 31.06 276.762 31.68C277.022 32.3 277.362 32.84 277.782 33.3C278.202 33.74 278.692 34.08 279.252 34.32C279.812 34.56 280.402 34.68 281.022 34.68ZM291.989 21.66H295.619V25.23C296.119 24.03 296.829 23.07 297.749 22.35C298.669 21.63 299.829 21.3 301.229 21.36V25.2H301.019C300.219 25.2 299.489 25.33 298.829 25.59C298.169 25.85 297.599 26.24 297.119 26.76C296.639 27.28 296.269 27.94 296.009 28.74C295.749 29.52 295.619 30.43 295.619 31.47V37.5H291.989V21.66ZM303.442 15.78H307.342V19.23H303.442V15.78ZM303.592 21.66H307.222V37.5H303.592V21.66ZM316.396 37.8C315.256 37.8 314.096 37.6 312.916 37.2C311.756 36.8 310.676 36.21 309.676 35.43L311.296 32.97C312.176 33.61 313.056 34.1 313.936 34.44C314.816 34.76 315.666 34.92 316.486 34.92C317.266 34.92 317.866 34.77 318.286 34.47C318.726 34.15 318.946 33.73 318.946 33.21V33.15C318.946 32.85 318.846 32.59 318.646 32.37C318.466 32.15 318.206 31.96 317.866 31.8C317.546 31.64 317.166 31.49 316.726 31.35C316.306 31.21 315.866 31.07 315.406 30.93C314.826 30.77 314.236 30.58 313.636 30.36C313.056 30.14 312.526 29.86 312.046 29.52C311.586 29.16 311.206 28.72 310.906 28.2C310.606 27.68 310.456 27.04 310.456 26.28V26.22C310.456 25.48 310.596 24.81 310.876 24.21C311.176 23.61 311.576 23.1 312.076 22.68C312.596 22.26 313.196 21.94 313.876 21.72C314.576 21.5 315.316 21.39 316.096 21.39C317.096 21.39 318.106 21.55 319.126 21.87C320.146 22.19 321.076 22.63 321.916 23.19L320.476 25.77C319.716 25.31 318.946 24.95 318.166 24.69C317.386 24.41 316.666 24.27 316.006 24.27C315.306 24.27 314.756 24.42 314.356 24.72C313.976 25 313.786 25.37 313.786 25.83V25.89C313.786 26.19 313.886 26.45 314.086 26.67C314.286 26.87 314.546 27.06 314.866 27.24C315.206 27.4 315.586 27.56 316.006 27.72C316.446 27.86 316.896 28 317.356 28.14C317.936 28.32 318.516 28.53 319.096 28.77C319.676 29.01 320.196 29.31 320.656 29.67C321.136 30.01 321.526 30.43 321.826 30.93C322.126 31.43 322.276 32.04 322.276 32.76V32.82C322.276 33.66 322.126 34.39 321.826 35.01C321.526 35.63 321.106 36.15 320.566 36.57C320.046 36.97 319.426 37.28 318.706 37.5C317.986 37.7 317.216 37.8 316.396 37.8ZM332.255 37.86C331.115 37.86 330.045 37.66 329.045 37.26C328.065 36.86 327.205 36.3 326.465 35.58C325.745 34.86 325.175 34 324.755 33C324.335 31.98 324.125 30.86 324.125 29.64V29.58C324.125 28.44 324.315 27.37 324.695 26.37C325.075 25.37 325.605 24.5 326.285 23.76C326.985 23 327.805 22.41 328.745 21.99C329.685 21.55 330.725 21.33 331.865 21.33C333.125 21.33 334.225 21.56 335.165 22.02C336.125 22.48 336.915 23.1 337.535 23.88C338.175 24.66 338.655 25.57 338.975 26.61C339.295 27.63 339.455 28.71 339.455 29.85C339.455 30.01 339.445 30.18 339.425 30.36C339.425 30.52 339.415 30.69 339.395 30.87H327.755C327.955 32.17 328.465 33.17 329.285 33.87C330.125 34.55 331.135 34.89 332.315 34.89C333.215 34.89 333.995 34.73 334.655 34.41C335.315 34.09 335.965 33.62 336.605 33L338.735 34.89C337.975 35.79 337.065 36.51 336.005 37.05C334.965 37.59 333.715 37.86 332.255 37.86ZM335.855 28.47C335.795 27.89 335.665 27.35 335.465 26.85C335.265 26.33 334.995 25.89 334.655 25.53C334.315 25.15 333.905 24.85 333.425 24.63C332.965 24.41 332.435 24.3 331.835 24.3C330.715 24.3 329.785 24.69 329.045 25.47C328.325 26.23 327.885 27.23 327.725 28.47H335.855Z" fill="#0066B0"/>
<path d="M33.75 215.005L45 221.5L33.75 227.995V225H24C12.402 225 3 215.598 3 204C3 192.402 12.402 183 24 183C35.598 183 45 192.402 45 204C45 207.925 43.923 211.599 42.0484 214.742L35.9683 211.268C37.2575 209.149 38 206.661 38 204C38 196.268 31.732 190 24 190C16.268 190 10 196.268 10 204C10 211.732 16.268 218 24 218H33.75V215.005Z" fill="url(#paint12_linear_244_67)"/>
<path d="M27.0519 211.393C23.8818 212.709 24.9861 215 24.9861 215C18.7546 210.134 23.4042 205.002 24.2095 204.113C24.3156 203.995 24.355 203.952 24.2939 203.993C19.845 206.944 20.1639 209.652 20.2822 210.656C20.329 211.053 20.3444 211.184 20.0201 210.957C12.2621 205.527 17.8811 197.472 19.2245 197.521C19.2412 197.521 19.2182 197.623 19.1806 197.791C19.0566 198.342 18.7734 199.603 19.2245 200.273C20.4136 202.039 22.7777 200.981 23.4432 198.795C24.4163 195.597 22.1302 193.83 21.3582 193.233C21.1566 193.077 21.0583 193.001 21.1484 193.001C32.0538 192.909 31.1176 203.826 27.6183 205.249C25.9811 205.914 31.558 205.714 31.4818 200.869C31.4701 200.135 34.2495 208.404 27.0519 211.393Z" fill="url(#paint13_linear_244_67)"/>
<path d="M66.14 192.35H69.56L78.8 213.5H74.9L72.77 208.43H62.84L60.68 213.5H56.9L66.14 192.35ZM71.42 205.16L67.79 196.76L64.19 205.16H71.42ZM80.9812 197.66H84.6112V200.3C85.1912 199.48 85.9112 198.78 86.7712 198.2C87.6312 197.62 88.7112 197.33 90.0112 197.33C90.9312 197.33 91.8312 197.51 92.7112 197.87C93.6112 198.23 94.4012 198.76 95.0812 199.46C95.7612 200.16 96.3112 201.02 96.7312 202.04C97.1512 203.06 97.3612 204.23 97.3612 205.55V205.61C97.3612 206.93 97.1512 208.1 96.7312 209.12C96.3312 210.14 95.7812 211 95.0812 211.7C94.4012 212.4 93.6212 212.93 92.7412 213.29C91.8612 213.65 90.9512 213.83 90.0112 213.83C88.6912 213.83 87.6012 213.55 86.7412 212.99C85.8812 212.43 85.1712 211.78 84.6112 211.04V218.3H80.9812V197.66ZM89.1412 210.68C89.7612 210.68 90.3412 210.56 90.8812 210.32C91.4412 210.08 91.9212 209.75 92.3212 209.33C92.7412 208.89 93.0712 208.36 93.3112 207.74C93.5512 207.1 93.6712 206.39 93.6712 205.61V205.55C93.6712 204.79 93.5512 204.1 93.3112 203.48C93.0712 202.84 92.7412 202.3 92.3212 201.86C91.9212 201.42 91.4412 201.08 90.8812 200.84C90.3412 200.6 89.7612 200.48 89.1412 200.48C88.5212 200.48 87.9312 200.6 87.3712 200.84C86.8112 201.08 86.3212 201.43 85.9012 201.89C85.4812 202.33 85.1412 202.86 84.8812 203.48C84.6412 204.1 84.5212 204.79 84.5212 205.55V205.61C84.5212 206.37 84.6412 207.06 84.8812 207.68C85.1412 208.3 85.4812 208.84 85.9012 209.3C86.3212 209.74 86.8112 210.08 87.3712 210.32C87.9312 210.56 88.5212 210.68 89.1412 210.68ZM100.108 197.66H103.738V200.3C104.318 199.48 105.038 198.78 105.898 198.2C106.758 197.62 107.838 197.33 109.138 197.33C110.058 197.33 110.958 197.51 111.838 197.87C112.738 198.23 113.528 198.76 114.208 199.46C114.888 200.16 115.438 201.02 115.858 202.04C116.278 203.06 116.488 204.23 116.488 205.55V205.61C116.488 206.93 116.278 208.1 115.858 209.12C115.458 210.14 114.908 211 114.208 211.7C113.528 212.4 112.748 212.93 111.868 213.29C110.988 213.65 110.078 213.83 109.138 213.83C107.818 213.83 106.728 213.55 105.868 212.99C105.008 212.43 104.298 211.78 103.738 211.04V218.3H100.108V197.66ZM108.268 210.68C108.888 210.68 109.468 210.56 110.008 210.32C110.568 210.08 111.048 209.75 111.448 209.33C111.868 208.89 112.198 208.36 112.438 207.74C112.678 207.1 112.798 206.39 112.798 205.61V205.55C112.798 204.79 112.678 204.1 112.438 203.48C112.198 202.84 111.868 202.3 111.448 201.86C111.048 201.42 110.568 201.08 110.008 200.84C109.468 200.6 108.888 200.48 108.268 200.48C107.648 200.48 107.058 200.6 106.498 200.84C105.938 201.08 105.448 201.43 105.028 201.89C104.608 202.33 104.268 202.86 104.008 203.48C103.768 204.1 103.648 204.79 103.648 205.55V205.61C103.648 206.37 103.768 207.06 104.008 207.68C104.268 208.3 104.608 208.84 105.028 209.3C105.448 209.74 105.938 210.08 106.498 210.32C107.058 210.56 107.648 210.68 108.268 210.68ZM127.005 213.8C125.385 213.8 123.835 213.53 122.355 212.99C120.875 212.43 119.505 211.58 118.245 210.44L120.465 207.8C121.485 208.68 122.515 209.36 123.555 209.84C124.615 210.3 125.795 210.53 127.095 210.53C128.235 210.53 129.135 210.29 129.795 209.81C130.475 209.31 130.815 208.67 130.815 207.89V207.83C130.815 207.45 130.745 207.12 130.605 206.84C130.485 206.54 130.245 206.26 129.885 206C129.545 205.74 129.065 205.5 128.445 205.28C127.845 205.06 127.055 204.84 126.075 204.62C124.955 204.36 123.955 204.07 123.075 203.75C122.215 203.41 121.485 203.01 120.885 202.55C120.305 202.07 119.855 201.49 119.535 200.81C119.235 200.13 119.085 199.31 119.085 198.35V198.29C119.085 197.39 119.265 196.57 119.625 195.83C119.985 195.07 120.475 194.43 121.095 193.91C121.735 193.37 122.495 192.95 123.375 192.65C124.255 192.35 125.215 192.2 126.255 192.2C127.795 192.2 129.175 192.43 130.395 192.89C131.635 193.33 132.795 193.98 133.875 194.84L131.895 197.63C130.935 196.93 129.985 196.4 129.045 196.04C128.105 195.66 127.155 195.47 126.195 195.47C125.115 195.47 124.275 195.71 123.675 196.19C123.075 196.67 122.775 197.26 122.775 197.96V198.02C122.775 198.42 122.845 198.78 122.985 199.1C123.125 199.4 123.385 199.68 123.765 199.94C124.145 200.18 124.655 200.41 125.295 200.63C125.935 200.85 126.765 201.08 127.785 201.32C128.885 201.6 129.855 201.91 130.695 202.25C131.535 202.59 132.235 203.01 132.795 203.51C133.375 203.99 133.805 204.56 134.085 205.22C134.365 205.86 134.505 206.61 134.505 207.47V207.53C134.505 208.51 134.315 209.39 133.935 210.17C133.575 210.95 133.065 211.61 132.405 212.15C131.745 212.69 130.955 213.1 130.035 213.38C129.115 213.66 128.105 213.8 127.005 213.8ZM144.745 213.86C143.565 213.86 142.475 213.65 141.475 213.23C140.475 212.79 139.605 212.2 138.865 211.46C138.145 210.72 137.575 209.85 137.155 208.85C136.755 207.85 136.555 206.79 136.555 205.67V205.61C136.555 204.49 136.755 203.43 137.155 202.43C137.575 201.41 138.155 200.53 138.895 199.79C139.635 199.03 140.505 198.43 141.505 197.99C142.505 197.55 143.605 197.33 144.805 197.33C145.545 197.33 146.215 197.4 146.815 197.54C147.435 197.66 147.995 197.84 148.495 198.08C149.015 198.32 149.485 198.61 149.905 198.95C150.345 199.29 150.755 199.66 151.135 200.06L148.855 202.49C148.295 201.91 147.695 201.44 147.055 201.08C146.435 200.7 145.675 200.51 144.775 200.51C144.115 200.51 143.505 200.65 142.945 200.93C142.385 201.19 141.895 201.55 141.475 202.01C141.075 202.45 140.755 202.98 140.515 203.6C140.295 204.22 140.185 204.87 140.185 205.55V205.61C140.185 206.31 140.295 206.97 140.515 207.59C140.755 208.21 141.085 208.75 141.505 209.21C141.925 209.67 142.425 210.03 143.005 210.29C143.585 210.55 144.225 210.68 144.925 210.68C145.785 210.68 146.535 210.5 147.175 210.14C147.835 209.78 148.455 209.31 149.035 208.73L151.225 210.89C150.445 211.77 149.555 212.49 148.555 213.05C147.555 213.59 146.285 213.86 144.745 213.86ZM158.123 213.83C157.383 213.83 156.673 213.72 155.993 213.5C155.313 213.3 154.713 213 154.193 212.6C153.693 212.18 153.283 211.67 152.963 211.07C152.663 210.45 152.513 209.74 152.513 208.94V208.88C152.513 208.02 152.673 207.27 152.993 206.63C153.313 205.99 153.753 205.46 154.313 205.04C154.893 204.62 155.583 204.31 156.383 204.11C157.203 203.89 158.093 203.78 159.053 203.78C159.953 203.78 160.733 203.84 161.393 203.96C162.053 204.08 162.693 204.24 163.313 204.44V204.05C163.313 202.91 162.973 202.05 162.293 201.47C161.633 200.89 160.663 200.6 159.383 200.6C158.483 200.6 157.683 200.69 156.983 200.87C156.283 201.05 155.573 201.29 154.853 201.59L153.893 198.74C154.773 198.34 155.673 198.03 156.593 197.81C157.513 197.57 158.603 197.45 159.863 197.45C162.223 197.45 163.973 198.04 165.113 199.22C165.693 199.8 166.123 200.5 166.403 201.32C166.683 202.14 166.823 203.07 166.823 204.11V213.5H163.283V211.52C162.743 212.16 162.053 212.71 161.213 213.17C160.373 213.61 159.343 213.83 158.123 213.83ZM159.143 211.19C159.743 211.19 160.303 211.11 160.823 210.95C161.343 210.79 161.783 210.56 162.143 210.26C162.523 209.96 162.823 209.6 163.043 209.18C163.263 208.76 163.373 208.3 163.373 207.8V206.72C162.913 206.54 162.373 206.39 161.753 206.27C161.153 206.15 160.493 206.09 159.773 206.09C158.593 206.09 157.673 206.32 157.013 206.78C156.373 207.24 156.053 207.89 156.053 208.73V208.79C156.053 209.55 156.343 210.14 156.923 210.56C157.523 210.98 158.263 211.19 159.143 211.19ZM170.171 197.66H173.801V200.09C174.061 199.73 174.341 199.38 174.641 199.04C174.961 198.7 175.321 198.41 175.721 198.17C176.141 197.91 176.591 197.71 177.071 197.57C177.571 197.41 178.131 197.33 178.751 197.33C180.551 197.33 181.941 197.88 182.921 198.98C183.901 200.08 184.391 201.55 184.391 203.39V213.5H180.761V204.5C180.761 203.26 180.461 202.31 179.861 201.65C179.281 200.97 178.451 200.63 177.371 200.63C176.311 200.63 175.451 200.98 174.791 201.68C174.131 202.36 173.801 203.32 173.801 204.56V213.5H170.171V197.66ZM205.562 213.86C203.922 213.86 202.432 213.59 201.092 213.05C199.752 212.49 198.602 211.73 197.642 210.77C196.702 209.79 195.972 208.65 195.452 207.35C194.932 206.03 194.672 204.6 194.672 203.06V203C194.672 201.54 194.932 200.15 195.452 198.83C195.992 197.51 196.742 196.36 197.702 195.38C198.662 194.38 199.802 193.59 201.122 193.01C202.462 192.43 203.922 192.14 205.502 192.14C206.422 192.14 207.252 192.21 207.992 192.35C208.752 192.47 209.452 192.65 210.092 192.89C210.732 193.13 211.332 193.43 211.892 193.79C212.472 194.13 213.032 194.53 213.572 194.99L211.232 197.78C210.832 197.44 210.422 197.13 210.002 196.85C209.582 196.57 209.142 196.34 208.682 196.16C208.222 195.96 207.712 195.81 207.152 195.71C206.612 195.59 206.012 195.53 205.352 195.53C204.392 195.53 203.492 195.73 202.652 196.13C201.832 196.53 201.112 197.07 200.492 197.75C199.892 198.41 199.412 199.19 199.052 200.09C198.712 200.99 198.542 201.94 198.542 202.94V203C198.542 204.08 198.712 205.08 199.052 206C199.392 206.92 199.872 207.71 200.492 208.37C201.132 209.03 201.882 209.55 202.742 209.93C203.622 210.31 204.602 210.5 205.682 210.5C206.682 210.5 207.612 210.36 208.472 210.08C209.352 209.78 210.112 209.39 210.752 208.91V204.98H205.382V201.77H214.322V210.59C213.802 211.03 213.222 211.45 212.582 211.85C211.962 212.25 211.282 212.6 210.542 212.9C209.822 213.2 209.042 213.43 208.202 213.59C207.362 213.77 206.482 213.86 205.562 213.86ZM225.238 213.86C224.038 213.86 222.918 213.65 221.878 213.23C220.858 212.79 219.968 212.2 219.208 211.46C218.468 210.72 217.888 209.85 217.468 208.85C217.048 207.85 216.838 206.79 216.838 205.67V205.61C216.838 204.47 217.048 203.4 217.468 202.4C217.908 201.4 218.498 200.53 219.238 199.79C219.998 199.03 220.888 198.43 221.908 197.99C222.948 197.55 224.078 197.33 225.298 197.33C226.518 197.33 227.638 197.55 228.658 197.99C229.698 198.41 230.588 199 231.328 199.76C232.088 200.5 232.678 201.37 233.098 202.37C233.518 203.35 233.728 204.41 233.728 205.55V205.61C233.728 206.73 233.508 207.79 233.068 208.79C232.648 209.79 232.058 210.67 231.298 211.43C230.558 212.17 229.668 212.76 228.628 213.2C227.588 213.64 226.458 213.86 225.238 213.86ZM225.298 210.68C226.038 210.68 226.698 210.55 227.278 210.29C227.878 210.01 228.388 209.65 228.808 209.21C229.228 208.75 229.548 208.22 229.768 207.62C229.988 207 230.098 206.35 230.098 205.67V205.61C230.098 204.91 229.978 204.25 229.738 203.63C229.498 203.01 229.158 202.47 228.718 202.01C228.298 201.55 227.788 201.19 227.188 200.93C226.608 200.65 225.958 200.51 225.238 200.51C224.518 200.51 223.858 200.65 223.258 200.93C222.678 201.19 222.178 201.55 221.758 202.01C221.338 202.45 221.018 202.98 220.798 203.6C220.578 204.22 220.468 204.87 220.468 205.55V205.61C220.468 206.31 220.588 206.97 220.828 207.59C221.068 208.19 221.398 208.72 221.818 209.18C222.258 209.64 222.768 210.01 223.348 210.29C223.948 210.55 224.598 210.68 225.298 210.68ZM236.545 193.55V192.5H240.805V193.55L239.695 206.84H237.685L236.545 193.55ZM236.695 209.36H240.685V213.5H236.695V209.36Z" fill="#0066B0"/>
<path fill-rule="evenodd" clip-rule="evenodd" d="M21.7846 357.536C23.0222 356.821 24.547 356.821 25.7846 357.536L42.5692 367.226C43.8068 367.941 44.5692 369.262 44.5692 370.691V376.108L30.621 368.161C28.5992 367.027 26.2674 366.381 23.7846 366.381C19.8673 366.381 16.3257 367.99 13.7847 370.583V362.155L21.7846 357.536ZM9.78459 364.464L5 367.226C3.7624 367.941 3 369.262 3 370.691V390.072C3 391.501 3.7624 392.821 5 393.536L13.0527 398.185L20.3684 393.961C14.5996 392.515 10.2508 387.489 9.81977 381.381H9.78459L9.78459 364.464ZM21.7857 394.24L21.8109 394.283L21.8667 394.251C21.8397 394.247 21.8127 394.243 21.7857 394.24ZM17.0527 400.495L23.3109 396.881L23.3109 396.881L31.5445 392.128C35.328 389.621 37.7846 385.259 37.7846 380.381C37.7846 379.181 37.6335 378.015 37.3493 376.904L44.5692 381.072V390.072C44.5692 391.501 43.8068 392.821 42.5692 393.536L25.7846 403.226C24.547 403.941 23.0222 403.941 21.7846 403.226L17.0527 400.495ZM26.8365 387.774C23.6664 389.09 24.7707 391.381 24.7707 391.381C18.5392 386.515 23.1889 381.383 23.9941 380.494C24.1002 380.377 24.1396 380.333 24.0785 380.374C19.6296 383.326 19.9485 386.033 20.0668 387.037C20.1136 387.435 20.129 387.565 19.8047 387.338C12.0467 381.908 17.6657 373.853 19.0091 373.902C19.0258 373.903 19.0028 374.005 18.9652 374.172L18.9652 374.172L18.9652 374.172L18.9652 374.172C18.8412 374.724 18.558 375.984 19.0091 376.654C20.1982 378.42 22.5623 377.362 23.2278 375.176C24.2009 371.978 21.9148 370.211 21.1428 369.614C20.9412 369.459 20.8429 369.383 20.933 369.382C31.8384 369.29 30.9023 380.207 27.4029 381.63C25.7657 382.295 31.3426 382.095 31.2664 377.25C31.2547 376.516 34.0341 384.785 26.8365 387.774Z" fill="url(#paint14_linear_244_67)"/>
<path d="M66.14 368.35H69.56L78.8 389.5H74.9L72.77 384.43H62.84L60.68 389.5H56.9L66.14 368.35ZM71.42 381.16L67.79 372.76L64.19 381.16H71.42ZM80.9812 373.66H84.6112V376.3C85.1912 375.48 85.9112 374.78 86.7712 374.2C87.6312 373.62 88.7112 373.33 90.0112 373.33C90.9312 373.33 91.8312 373.51 92.7112 373.87C93.6112 374.23 94.4012 374.76 95.0812 375.46C95.7612 376.16 96.3112 377.02 96.7312 378.04C97.1512 379.06 97.3612 380.23 97.3612 381.55V381.61C97.3612 382.93 97.1512 384.1 96.7312 385.12C96.3312 386.14 95.7812 387 95.0812 387.7C94.4012 388.4 93.6212 388.93 92.7412 389.29C91.8612 389.65 90.9512 389.83 90.0112 389.83C88.6912 389.83 87.6012 389.55 86.7412 388.99C85.8812 388.43 85.1712 387.78 84.6112 387.04V394.3H80.9812V373.66ZM89.1412 386.68C89.7612 386.68 90.3412 386.56 90.8812 386.32C91.4412 386.08 91.9212 385.75 92.3212 385.33C92.7412 384.89 93.0712 384.36 93.3112 383.74C93.5512 383.1 93.6712 382.39 93.6712 381.61V381.55C93.6712 380.79 93.5512 380.1 93.3112 379.48C93.0712 378.84 92.7412 378.3 92.3212 377.86C91.9212 377.42 91.4412 377.08 90.8812 376.84C90.3412 376.6 89.7612 376.48 89.1412 376.48C88.5212 376.48 87.9312 376.6 87.3712 376.84C86.8112 377.08 86.3212 377.43 85.9012 377.89C85.4812 378.33 85.1412 378.86 84.8812 379.48C84.6412 380.1 84.5212 380.79 84.5212 381.55V381.61C84.5212 382.37 84.6412 383.06 84.8812 383.68C85.1412 384.3 85.4812 384.84 85.9012 385.3C86.3212 385.74 86.8112 386.08 87.3712 386.32C87.9312 386.56 88.5212 386.68 89.1412 386.68ZM100.108 373.66H103.738V376.3C104.318 375.48 105.038 374.78 105.898 374.2C106.758 373.62 107.838 373.33 109.138 373.33C110.058 373.33 110.958 373.51 111.838 373.87C112.738 374.23 113.528 374.76 114.208 375.46C114.888 376.16 115.438 377.02 115.858 378.04C116.278 379.06 116.488 380.23 116.488 381.55V381.61C116.488 382.93 116.278 384.1 115.858 385.12C115.458 386.14 114.908 387 114.208 387.7C113.528 388.4 112.748 388.93 111.868 389.29C110.988 389.65 110.078 389.83 109.138 389.83C107.818 389.83 106.728 389.55 105.868 388.99C105.008 388.43 104.298 387.78 103.738 387.04V394.3H100.108V373.66ZM108.268 386.68C108.888 386.68 109.468 386.56 110.008 386.32C110.568 386.08 111.048 385.75 111.448 385.33C111.868 384.89 112.198 384.36 112.438 383.74C112.678 383.1 112.798 382.39 112.798 381.61V381.55C112.798 380.79 112.678 380.1 112.438 379.48C112.198 378.84 111.868 378.3 111.448 377.86C111.048 377.42 110.568 377.08 110.008 376.84C109.468 376.6 108.888 376.48 108.268 376.48C107.648 376.48 107.058 376.6 106.498 376.84C105.938 377.08 105.448 377.43 105.028 377.89C104.608 378.33 104.268 378.86 104.008 379.48C103.768 380.1 103.648 380.79 103.648 381.55V381.61C103.648 382.37 103.768 383.06 104.008 383.68C104.268 384.3 104.608 384.84 105.028 385.3C105.448 385.74 105.938 386.08 106.498 386.32C107.058 386.56 107.648 386.68 108.268 386.68ZM127.005 389.8C125.385 389.8 123.835 389.53 122.355 388.99C120.875 388.43 119.505 387.58 118.245 386.44L120.465 383.8C121.485 384.68 122.515 385.36 123.555 385.84C124.615 386.3 125.795 386.53 127.095 386.53C128.235 386.53 129.135 386.29 129.795 385.81C130.475 385.31 130.815 384.67 130.815 383.89V383.83C130.815 383.45 130.745 383.12 130.605 382.84C130.485 382.54 130.245 382.26 129.885 382C129.545 381.74 129.065 381.5 128.445 381.28C127.845 381.06 127.055 380.84 126.075 380.62C124.955 380.36 123.955 380.07 123.075 379.75C122.215 379.41 121.485 379.01 120.885 378.55C120.305 378.07 119.855 377.49 119.535 376.81C119.235 376.13 119.085 375.31 119.085 374.35V374.29C119.085 373.39 119.265 372.57 119.625 371.83C119.985 371.07 120.475 370.43 121.095 369.91C121.735 369.37 122.495 368.95 123.375 368.65C124.255 368.35 125.215 368.2 126.255 368.2C127.795 368.2 129.175 368.43 130.395 368.89C131.635 369.33 132.795 369.98 133.875 370.84L131.895 373.63C130.935 372.93 129.985 372.4 129.045 372.04C128.105 371.66 127.155 371.47 126.195 371.47C125.115 371.47 124.275 371.71 123.675 372.19C123.075 372.67 122.775 373.26 122.775 373.96V374.02C122.775 374.42 122.845 374.78 122.985 375.1C123.125 375.4 123.385 375.68 123.765 375.94C124.145 376.18 124.655 376.41 125.295 376.63C125.935 376.85 126.765 377.08 127.785 377.32C128.885 377.6 129.855 377.91 130.695 378.25C131.535 378.59 132.235 379.01 132.795 379.51C133.375 379.99 133.805 380.56 134.085 381.22C134.365 381.86 134.505 382.61 134.505 383.47V383.53C134.505 384.51 134.315 385.39 133.935 386.17C133.575 386.95 133.065 387.61 132.405 388.15C131.745 388.69 130.955 389.1 130.035 389.38C129.115 389.66 128.105 389.8 127.005 389.8ZM144.745 389.86C143.565 389.86 142.475 389.65 141.475 389.23C140.475 388.79 139.605 388.2 138.865 387.46C138.145 386.72 137.575 385.85 137.155 384.85C136.755 383.85 136.555 382.79 136.555 381.67V381.61C136.555 380.49 136.755 379.43 137.155 378.43C137.575 377.41 138.155 376.53 138.895 375.79C139.635 375.03 140.505 374.43 141.505 373.99C142.505 373.55 143.605 373.33 144.805 373.33C145.545 373.33 146.215 373.4 146.815 373.54C147.435 373.66 147.995 373.84 148.495 374.08C149.015 374.32 149.485 374.61 149.905 374.95C150.345 375.29 150.755 375.66 151.135 376.06L148.855 378.49C148.295 377.91 147.695 377.44 147.055 377.08C146.435 376.7 145.675 376.51 144.775 376.51C144.115 376.51 143.505 376.65 142.945 376.93C142.385 377.19 141.895 377.55 141.475 378.01C141.075 378.45 140.755 378.98 140.515 379.6C140.295 380.22 140.185 380.87 140.185 381.55V381.61C140.185 382.31 140.295 382.97 140.515 383.59C140.755 384.21 141.085 384.75 141.505 385.21C141.925 385.67 142.425 386.03 143.005 386.29C143.585 386.55 144.225 386.68 144.925 386.68C145.785 386.68 146.535 386.5 147.175 386.14C147.835 385.78 148.455 385.31 149.035 384.73L151.225 386.89C150.445 387.77 149.555 388.49 148.555 389.05C147.555 389.59 146.285 389.86 144.745 389.86ZM158.123 389.83C157.383 389.83 156.673 389.72 155.993 389.5C155.313 389.3 154.713 389 154.193 388.6C153.693 388.18 153.283 387.67 152.963 387.07C152.663 386.45 152.513 385.74 152.513 384.94V384.88C152.513 384.02 152.673 383.27 152.993 382.63C153.313 381.99 153.753 381.46 154.313 381.04C154.893 380.62 155.583 380.31 156.383 380.11C157.203 379.89 158.093 379.78 159.053 379.78C159.953 379.78 160.733 379.84 161.393 379.96C162.053 380.08 162.693 380.24 163.313 380.44V380.05C163.313 378.91 162.973 378.05 162.293 377.47C161.633 376.89 160.663 376.6 159.383 376.6C158.483 376.6 157.683 376.69 156.983 376.87C156.283 377.05 155.573 377.29 154.853 377.59L153.893 374.74C154.773 374.34 155.673 374.03 156.593 373.81C157.513 373.57 158.603 373.45 159.863 373.45C162.223 373.45 163.973 374.04 165.113 375.22C165.693 375.8 166.123 376.5 166.403 377.32C166.683 378.14 166.823 379.07 166.823 380.11V389.5H163.283V387.52C162.743 388.16 162.053 388.71 161.213 389.17C160.373 389.61 159.343 389.83 158.123 389.83ZM159.143 387.19C159.743 387.19 160.303 387.11 160.823 386.95C161.343 386.79 161.783 386.56 162.143 386.26C162.523 385.96 162.823 385.6 163.043 385.18C163.263 384.76 163.373 384.3 163.373 383.8V382.72C162.913 382.54 162.373 382.39 161.753 382.27C161.153 382.15 160.493 382.09 159.773 382.09C158.593 382.09 157.673 382.32 157.013 382.78C156.373 383.24 156.053 383.89 156.053 384.73V384.79C156.053 385.55 156.343 386.14 156.923 386.56C157.523 386.98 158.263 387.19 159.143 387.19ZM170.171 373.66H173.801V376.09C174.061 375.73 174.341 375.38 174.641 375.04C174.961 374.7 175.321 374.41 175.721 374.17C176.141 373.91 176.591 373.71 177.071 373.57C177.571 373.41 178.131 373.33 178.751 373.33C180.551 373.33 181.941 373.88 182.921 374.98C183.901 376.08 184.391 377.55 184.391 379.39V389.5H180.761V380.5C180.761 379.26 180.461 378.31 179.861 377.65C179.281 376.97 178.451 376.63 177.371 376.63C176.311 376.63 175.451 376.98 174.791 377.68C174.131 378.36 173.801 379.32 173.801 380.56V389.5H170.171V373.66ZM203.538 389.8C201.918 389.8 200.368 389.53 198.888 388.99C197.408 388.43 196.038 387.58 194.778 386.44L196.998 383.8C198.018 384.68 199.048 385.36 200.088 385.84C201.148 386.3 202.328 386.53 203.628 386.53C204.768 386.53 205.668 386.29 206.328 385.81C207.008 385.31 207.348 384.67 207.348 383.89V383.83C207.348 383.45 207.278 383.12 207.138 382.84C207.018 382.54 206.778 382.26 206.418 382C206.078 381.74 205.598 381.5 204.978 381.28C204.378 381.06 203.588 380.84 202.608 380.62C201.488 380.36 200.488 380.07 199.608 379.75C198.748 379.41 198.018 379.01 197.418 378.55C196.838 378.07 196.388 377.49 196.068 376.81C195.768 376.13 195.618 375.31 195.618 374.35V374.29C195.618 373.39 195.798 372.57 196.158 371.83C196.518 371.07 197.008 370.43 197.628 369.91C198.268 369.37 199.028 368.95 199.908 368.65C200.788 368.35 201.748 368.2 202.788 368.2C204.328 368.2 205.708 368.43 206.928 368.89C208.168 369.33 209.328 369.98 210.408 370.84L208.428 373.63C207.468 372.93 206.518 372.4 205.578 372.04C204.638 371.66 203.688 371.47 202.728 371.47C201.648 371.47 200.808 371.71 200.208 372.19C199.608 372.67 199.308 373.26 199.308 373.96V374.02C199.308 374.42 199.378 374.78 199.518 375.1C199.658 375.4 199.918 375.68 200.298 375.94C200.678 376.18 201.188 376.41 201.828 376.63C202.468 376.85 203.298 377.08 204.318 377.32C205.418 377.6 206.388 377.91 207.228 378.25C208.068 378.59 208.768 379.01 209.328 379.51C209.908 379.99 210.338 380.56 210.618 381.22C210.898 381.86 211.038 382.61 211.038 383.47V383.53C211.038 384.51 210.848 385.39 210.468 386.17C210.108 386.95 209.598 387.61 208.938 388.15C208.278 388.69 207.488 389.1 206.568 389.38C205.648 389.66 204.638 389.8 203.538 389.8ZM219.121 389.77C218.461 389.77 217.851 389.69 217.291 389.53C216.731 389.37 216.241 389.11 215.821 388.75C215.421 388.39 215.111 387.92 214.891 387.34C214.671 386.74 214.561 386 214.561 385.12V376.78H212.551V373.66H214.561V369.31H218.191V373.66H222.451V376.78H218.191V384.55C218.191 385.25 218.361 385.76 218.701 386.08C219.041 386.38 219.521 386.53 220.141 386.53C220.921 386.53 221.671 386.35 222.391 385.99V388.96C221.931 389.22 221.441 389.42 220.921 389.56C220.421 389.7 219.821 389.77 219.121 389.77ZM229.705 389.83C228.965 389.83 228.255 389.72 227.575 389.5C226.895 389.3 226.295 389 225.775 388.6C225.275 388.18 224.865 387.67 224.545 387.07C224.245 386.45 224.095 385.74 224.095 384.94V384.88C224.095 384.02 224.255 383.27 224.575 382.63C224.895 381.99 225.335 381.46 225.895 381.04C226.475 380.62 227.165 380.31 227.965 380.11C228.785 379.89 229.675 379.78 230.635 379.78C231.535 379.78 232.315 379.84 232.975 379.96C233.635 380.08 234.275 380.24 234.895 380.44V380.05C234.895 378.91 234.555 378.05 233.875 377.47C233.215 376.89 232.245 376.6 230.965 376.6C230.065 376.6 229.265 376.69 228.565 376.87C227.865 377.05 227.155 377.29 226.435 377.59L225.475 374.74C226.355 374.34 227.255 374.03 228.175 373.81C229.095 373.57 230.185 373.45 231.445 373.45C233.805 373.45 235.555 374.04 236.695 375.22C237.275 375.8 237.705 376.5 237.985 377.32C238.265 378.14 238.405 379.07 238.405 380.11V389.5H234.865V387.52C234.325 388.16 233.635 388.71 232.795 389.17C231.955 389.61 230.925 389.83 229.705 389.83ZM230.725 387.19C231.325 387.19 231.885 387.11 232.405 386.95C232.925 386.79 233.365 386.56 233.725 386.26C234.105 385.96 234.405 385.6 234.625 385.18C234.845 384.76 234.955 384.3 234.955 383.8V382.72C234.495 382.54 233.955 382.39 233.335 382.27C232.735 382.15 232.075 382.09 231.355 382.09C230.175 382.09 229.255 382.32 228.595 382.78C227.955 383.24 227.635 383.89 227.635 384.73V384.79C227.635 385.55 227.925 386.14 228.505 386.56C229.105 386.98 229.845 387.19 230.725 387.19ZM241.753 373.66H245.383V376.09C245.643 375.73 245.923 375.38 246.223 375.04C246.543 374.7 246.903 374.41 247.303 374.17C247.723 373.91 248.173 373.71 248.653 373.57C249.153 373.41 249.713 373.33 250.333 373.33C252.133 373.33 253.523 373.88 254.503 374.98C255.483 376.08 255.973 377.55 255.973 379.39V389.5H252.343V380.5C252.343 379.26 252.043 378.31 251.443 377.65C250.863 376.97 250.033 376.63 248.953 376.63C247.893 376.63 247.033 376.98 246.373 377.68C245.713 378.36 245.383 379.32 245.383 380.56V389.5H241.753V373.66ZM265.896 389.83C264.956 389.83 264.046 389.65 263.166 389.29C262.286 388.93 261.506 388.4 260.826 387.7C260.146 387 259.596 386.14 259.176 385.12C258.756 384.1 258.546 382.93 258.546 381.61V381.55C258.546 380.23 258.746 379.06 259.146 378.04C259.566 377.02 260.116 376.16 260.796 375.46C261.476 374.76 262.256 374.23 263.136 373.87C264.036 373.51 264.956 373.33 265.896 373.33C266.556 373.33 267.146 373.41 267.666 373.57C268.206 373.71 268.696 373.91 269.136 374.17C269.576 374.43 269.976 374.73 270.336 375.07C270.696 375.39 271.016 375.74 271.296 376.12V367.6H274.926V389.5H271.296V386.86C270.716 387.68 269.986 388.38 269.106 388.96C268.246 389.54 267.176 389.83 265.896 389.83ZM266.766 386.68C267.366 386.68 267.946 386.56 268.506 386.32C269.066 386.08 269.556 385.74 269.976 385.3C270.396 384.84 270.726 384.3 270.966 383.68C271.226 383.06 271.356 382.37 271.356 381.61V381.55C271.356 380.79 271.226 380.1 270.966 379.48C270.726 378.84 270.396 378.3 269.976 377.86C269.556 377.42 269.066 377.08 268.506 376.84C267.946 376.6 267.366 376.48 266.766 376.48C266.146 376.48 265.556 376.6 264.996 376.84C264.456 377.06 263.976 377.39 263.556 377.83C263.136 378.27 262.806 378.81 262.566 379.45C262.326 380.07 262.206 380.77 262.206 381.55V381.61C262.206 382.37 262.326 383.07 262.566 383.71C262.806 384.33 263.136 384.86 263.556 385.3C263.976 385.74 264.456 386.08 264.996 386.32C265.556 386.56 266.146 386.68 266.766 386.68ZM283.043 389.83C282.303 389.83 281.593 389.72 280.913 389.5C280.233 389.3 279.633 389 279.113 388.6C278.613 388.18 278.203 387.67 277.883 387.07C277.583 386.45 277.433 385.74 277.433 384.94V384.88C277.433 384.02 277.593 383.27 277.913 382.63C278.233 381.99 278.673 381.46 279.233 381.04C279.813 380.62 280.503 380.31 281.303 380.11C282.123 379.89 283.013 379.78 283.973 379.78C284.873 379.78 285.653 379.84 286.313 379.96C286.973 380.08 287.613 380.24 288.233 380.44V380.05C288.233 378.91 287.893 378.05 287.213 377.47C286.553 376.89 285.583 376.6 284.303 376.6C283.403 376.6 282.603 376.69 281.903 376.87C281.203 377.05 280.493 377.29 279.773 377.59L278.813 374.74C279.693 374.34 280.593 374.03 281.513 373.81C282.433 373.57 283.523 373.45 284.783 373.45C287.143 373.45 288.893 374.04 290.033 375.22C290.613 375.8 291.043 376.5 291.323 377.32C291.603 378.14 291.743 379.07 291.743 380.11V389.5H288.203V387.52C287.663 388.16 286.973 388.71 286.133 389.17C285.293 389.61 284.263 389.83 283.043 389.83ZM284.063 387.19C284.663 387.19 285.223 387.11 285.743 386.95C286.263 386.79 286.703 386.56 287.063 386.26C287.443 385.96 287.743 385.6 287.963 385.18C288.183 384.76 288.293 384.3 288.293 383.8V382.72C287.833 382.54 287.293 382.39 286.673 382.27C286.073 382.15 285.413 382.09 284.693 382.09C283.513 382.09 282.593 382.32 281.933 382.78C281.293 383.24 280.973 383.89 280.973 384.73V384.79C280.973 385.55 281.263 386.14 281.843 386.56C282.443 386.98 283.183 387.19 284.063 387.19ZM295.091 373.66H298.721V377.23C299.221 376.03 299.931 375.07 300.851 374.35C301.771 373.63 302.931 373.3 304.331 373.36V377.2H304.121C303.321 377.2 302.591 377.33 301.931 377.59C301.271 377.85 300.701 378.24 300.221 378.76C299.741 379.28 299.371 379.94 299.111 380.74C298.851 381.52 298.721 382.43 298.721 383.47V389.5H295.091V373.66ZM312.584 389.83C311.644 389.83 310.734 389.65 309.854 389.29C308.974 388.93 308.194 388.4 307.514 387.7C306.834 387 306.284 386.14 305.864 385.12C305.444 384.1 305.234 382.93 305.234 381.61V381.55C305.234 380.23 305.434 379.06 305.834 378.04C306.254 377.02 306.804 376.16 307.484 375.46C308.164 374.76 308.944 374.23 309.824 373.87C310.724 373.51 311.644 373.33 312.584 373.33C313.244 373.33 313.834 373.41 314.354 373.57C314.894 373.71 315.384 373.91 315.824 374.17C316.264 374.43 316.664 374.73 317.024 375.07C317.384 375.39 317.704 375.74 317.984 376.12V367.6H321.614V389.5H317.984V386.86C317.404 387.68 316.674 388.38 315.794 388.96C314.934 389.54 313.864 389.83 312.584 389.83ZM313.454 386.68C314.054 386.68 314.634 386.56 315.194 386.32C315.754 386.08 316.244 385.74 316.664 385.3C317.084 384.84 317.414 384.3 317.654 383.68C317.914 383.06 318.044 382.37 318.044 381.61V381.55C318.044 380.79 317.914 380.1 317.654 379.48C317.414 378.84 317.084 378.3 316.664 377.86C316.244 377.42 315.754 377.08 315.194 376.84C314.634 376.6 314.054 376.48 313.454 376.48C312.834 376.48 312.244 376.6 311.684 376.84C311.144 377.06 310.664 377.39 310.244 377.83C309.824 378.27 309.494 378.81 309.254 379.45C309.014 380.07 308.894 380.77 308.894 381.55V381.61C308.894 382.37 309.014 383.07 309.254 383.71C309.494 384.33 309.824 384.86 310.244 385.3C310.664 385.74 311.144 386.08 311.684 386.32C312.244 386.56 312.834 386.68 313.454 386.68Z" fill="#0066B0"/>
<defs>
<linearGradient id="paint0_linear_244_67" x1="45" y1="271" x2="3.00001" y2="313" gradientUnits="userSpaceOnUse">
<stop stop-color="#0066B0"/>
<stop offset="1" stop-color="#2ABDEA"/>
</linearGradient>
<linearGradient id="paint1_linear_244_67" x1="45" y1="271" x2="3.00001" y2="313" gradientUnits="userSpaceOnUse">
<stop stop-color="#0066B0"/>
<stop offset="1" stop-color="#2ABDEA"/>
</linearGradient>
<linearGradient id="paint2_linear_244_67" x1="45" y1="271" x2="3.00001" y2="313" gradientUnits="userSpaceOnUse">
<stop stop-color="#0066B0"/>
<stop offset="1" stop-color="#2ABDEA"/>
</linearGradient>
<linearGradient id="paint3_linear_244_67" x1="45" y1="271" x2="3.00001" y2="313" gradientUnits="userSpaceOnUse">
<stop stop-color="#0066B0"/>
<stop offset="1" stop-color="#2ABDEA"/>
</linearGradient>
<linearGradient id="paint4_linear_244_67" x1="19.23" y1="276.529" x2="-6.2265" y2="289.881" gradientUnits="userSpaceOnUse">
<stop stop-color="#0066B0"/>
<stop offset="1" stop-color="#2ABDEA"/>
</linearGradient>
<linearGradient id="paint5_linear_244_67" x1="19.23" y1="276.529" x2="-6.2265" y2="289.881" gradientUnits="userSpaceOnUse">
<stop stop-color="#0066B0"/>
<stop offset="1" stop-color="#2ABDEA"/>
</linearGradient>
<linearGradient id="paint6_linear_244_67" x1="49" y1="97" x2="13.2189" y2="143.419" gradientUnits="userSpaceOnUse">
<stop stop-color="#0066B0"/>
<stop offset="1" stop-color="#2ABDEA"/>
</linearGradient>
<linearGradient id="paint7_linear_244_67" x1="49" y1="97" x2="13.2189" y2="143.419" gradientUnits="userSpaceOnUse">
<stop stop-color="#0066B0"/>
<stop offset="1" stop-color="#2ABDEA"/>
</linearGradient>
<linearGradient id="paint8_linear_244_67" x1="45" y1="8" x2="5" y2="48" gradientUnits="userSpaceOnUse">
<stop stop-color="#0066B0"/>
<stop offset="1" stop-color="#2ABDEA"/>
</linearGradient>
<linearGradient id="paint9_linear_244_67" x1="45" y1="8" x2="5" y2="48" gradientUnits="userSpaceOnUse">
<stop stop-color="#0066B0"/>
<stop offset="1" stop-color="#2ABDEA"/>
</linearGradient>
<linearGradient id="paint10_linear_244_67" x1="45" y1="8" x2="5" y2="48" gradientUnits="userSpaceOnUse">
<stop stop-color="#0066B0"/>
<stop offset="1" stop-color="#2ABDEA"/>
</linearGradient>
<linearGradient id="paint11_linear_244_67" x1="45" y1="8" x2="5" y2="48" gradientUnits="userSpaceOnUse">
<stop stop-color="#0066B0"/>
<stop offset="1" stop-color="#2ABDEA"/>
</linearGradient>
<linearGradient id="paint12_linear_244_67" x1="45" y1="183" x2="0.111362" y2="224.901" gradientUnits="userSpaceOnUse">
<stop stop-color="#0066B0"/>
<stop offset="1" stop-color="#2ABDEA"/>
</linearGradient>
<linearGradient id="paint13_linear_244_67" x1="45" y1="183" x2="0.111362" y2="224.901" gradientUnits="userSpaceOnUse">
<stop stop-color="#0066B0"/>
<stop offset="1" stop-color="#2ABDEA"/>
</linearGradient>
<linearGradient id="paint14_linear_244_67" x1="44.5692" y1="357" x2="-1.87103" y2="398.283" gradientUnits="userSpaceOnUse">
<stop stop-color="#0066B0"/>
<stop offset="1" stop-color="#2ABDEA"/>
</linearGradient>
</defs>
</svg>
