<svg width="280" height="280" viewBox="0 0 280 280" fill="none" xmlns="http://www.w3.org/2000/svg">
<g style="mix-blend-mode:screen">
<mask id="path-1-inside-1_1_2" fill="white">
<path fill-rule="evenodd" clip-rule="evenodd" d="M18 190.833C18 213.293 36.2071 231.5 58.6667 231.5H129.833V221.333C129.833 211.167 120.938 208.625 120.938 208.625H121.083C90.9611 200.34 68.8333 172.754 68.8333 140C68.8333 100.696 100.696 68.8333 140 68.8333C179.304 68.8333 211.167 100.696 211.167 140C211.167 172.754 189.039 200.34 158.917 208.625H159.063C159.063 208.625 150.167 211.167 150.167 221.333V231.5H206.083C236.965 231.5 262 206.465 262 175.583C262 155.653 251.573 138.158 235.877 128.256C230.082 80.4533 189.366 43.4167 140 43.4167C86.6586 43.4167 43.4167 86.6585 43.4167 140C43.4167 144.337 43.7026 148.608 44.2565 152.794C28.9097 158.611 18 173.448 18 190.833ZM145.013 195.917C145.013 195.917 139.399 184.271 155.514 177.579C192.102 162.385 177.973 120.354 178.032 124.083C178.42 148.712 150.071 149.73 158.393 146.347C176.181 139.117 180.94 83.6212 125.504 84.0864C125.046 84.0899 125.546 84.4763 126.571 85.2688C130.495 88.302 142.116 97.2853 137.17 113.54C133.787 124.652 121.769 130.031 115.725 121.054C113.431 117.649 114.872 111.24 115.502 108.436V108.435V108.435V108.434C115.693 107.585 115.809 107.067 115.725 107.064C108.896 106.817 80.3323 147.764 119.769 175.364C121.417 176.518 121.339 175.854 121.101 173.834C120.5 168.73 118.879 154.967 141.494 139.962C141.805 139.756 141.604 139.977 141.065 140.572C136.971 145.091 113.336 171.182 145.013 195.917Z"/>
</mask>
<path fill-rule="evenodd" clip-rule="evenodd" d="M18 190.833C18 213.293 36.2071 231.5 58.6667 231.5H129.833V221.333C129.833 211.167 120.938 208.625 120.938 208.625H121.083C90.9611 200.34 68.8333 172.754 68.8333 140C68.8333 100.696 100.696 68.8333 140 68.8333C179.304 68.8333 211.167 100.696 211.167 140C211.167 172.754 189.039 200.34 158.917 208.625H159.063C159.063 208.625 150.167 211.167 150.167 221.333V231.5H206.083C236.965 231.5 262 206.465 262 175.583C262 155.653 251.573 138.158 235.877 128.256C230.082 80.4533 189.366 43.4167 140 43.4167C86.6586 43.4167 43.4167 86.6585 43.4167 140C43.4167 144.337 43.7026 148.608 44.2565 152.794C28.9097 158.611 18 173.448 18 190.833ZM145.013 195.917C145.013 195.917 139.399 184.271 155.514 177.579C192.102 162.385 177.973 120.354 178.032 124.083C178.42 148.712 150.071 149.73 158.393 146.347C176.181 139.117 180.94 83.6212 125.504 84.0864C125.046 84.0899 125.546 84.4763 126.571 85.2688C130.495 88.302 142.116 97.2853 137.17 113.54C133.787 124.652 121.769 130.031 115.725 121.054C113.431 117.649 114.872 111.24 115.502 108.436V108.435V108.435V108.434C115.693 107.585 115.809 107.067 115.725 107.064C108.896 106.817 80.3323 147.764 119.769 175.364C121.417 176.518 121.339 175.854 121.101 173.834C120.5 168.73 118.879 154.967 141.494 139.962C141.805 139.756 141.604 139.977 141.065 140.572C136.971 145.091 113.336 171.182 145.013 195.917Z" fill="white" fill-opacity="0.15"/>
<path d="M129.833 231.5V232.5H130.833V231.5H129.833ZM120.938 208.625V207.625L120.663 209.587L120.938 208.625ZM121.083 208.625V209.625L121.348 207.661L121.083 208.625ZM158.917 208.625L158.652 207.661L158.917 209.625V208.625ZM159.063 208.625L159.337 209.587L159.063 207.625V208.625ZM150.167 231.5H149.167V232.5H150.167V231.5ZM235.877 128.256L234.884 128.377L234.941 128.849L235.343 129.102L235.877 128.256ZM44.2565 152.794L44.611 153.729L45.3518 153.448L45.2479 152.663L44.2565 152.794ZM145.013 195.917L144.397 196.705L145.913 195.482L145.013 195.917ZM155.514 177.579L155.897 178.503L155.897 178.503L155.514 177.579ZM178.032 124.083L179.032 124.067L179.032 124.067L178.032 124.083ZM158.393 146.347L158.016 145.421L158.016 145.421L158.393 146.347ZM125.504 84.0864L125.512 85.0863L125.513 85.0863L125.504 84.0864ZM126.571 85.2688L125.959 86.0598L125.959 86.06L126.571 85.2688ZM137.17 113.54L138.126 113.831L138.126 113.831L137.17 113.54ZM115.725 121.054L114.895 121.613L114.895 121.613L115.725 121.054ZM115.502 108.436L116.478 108.655L116.502 108.547V108.436H115.502ZM115.502 108.434L114.526 108.214L114.502 108.323V108.434H115.502ZM115.725 107.064L115.688 108.063L115.688 108.063L115.725 107.064ZM119.769 175.364L120.342 174.544L120.342 174.544L119.769 175.364ZM121.101 173.834L122.094 173.717L122.094 173.717L121.101 173.834ZM141.494 139.962L140.941 139.129L140.941 139.129L141.494 139.962ZM141.065 140.572L140.324 139.901L140.324 139.901L141.065 140.572ZM17 190.833C17 213.845 35.6548 232.5 58.6667 232.5V230.5C36.7594 230.5 19 212.741 19 190.833H17ZM58.6667 232.5H129.833V230.5H58.6667V232.5ZM130.833 231.5V221.333H128.833V231.5H130.833ZM130.833 221.333C130.833 215.912 128.444 212.471 126.036 210.407C124.842 209.384 123.651 208.704 122.757 208.278C122.309 208.065 121.933 207.914 121.665 207.815C121.53 207.766 121.422 207.73 121.345 207.705C121.307 207.692 121.276 207.683 121.254 207.676C121.243 207.672 121.234 207.67 121.227 207.668C121.223 207.667 121.22 207.666 121.218 207.665C121.217 207.665 121.216 207.664 121.215 207.664C121.214 207.664 121.214 207.664 121.213 207.664C121.213 207.664 121.212 207.663 120.938 208.625C120.663 209.587 120.662 209.586 120.662 209.586C120.662 209.586 120.661 209.586 120.661 209.586C120.661 209.586 120.661 209.586 120.66 209.586C120.66 209.586 120.66 209.586 120.661 209.586C120.663 209.587 120.666 209.588 120.672 209.589C120.683 209.593 120.703 209.599 120.729 209.607C120.783 209.625 120.866 209.653 120.975 209.693C121.193 209.773 121.511 209.9 121.898 210.084C122.672 210.452 123.704 211.043 124.735 211.926C126.775 213.674 128.833 216.588 128.833 221.333H130.833ZM120.938 209.625H121.083V207.625H120.938V209.625ZM121.348 207.661C91.6491 199.492 69.8333 172.292 69.8333 140H67.8333C67.8333 173.216 90.2731 201.188 120.818 209.589L121.348 207.661ZM69.8333 140C69.8333 101.248 101.248 69.8333 140 69.8333V67.8333C100.143 67.8333 67.8333 100.143 67.8333 140H69.8333ZM140 69.8333C178.752 69.8333 210.167 101.248 210.167 140H212.167C212.167 100.143 179.857 67.8333 140 67.8333V69.8333ZM210.167 140C210.167 172.292 188.351 199.492 158.652 207.661L159.182 209.589C189.727 201.188 212.167 173.216 212.167 140H210.167ZM158.917 209.625H159.063V207.625H158.917V209.625ZM159.063 208.625C158.788 207.663 158.787 207.664 158.787 207.664C158.786 207.664 158.786 207.664 158.785 207.664C158.784 207.664 158.783 207.665 158.782 207.665C158.78 207.666 158.777 207.667 158.773 207.668C158.766 207.67 158.757 207.672 158.746 207.676C158.724 207.683 158.693 207.692 158.655 207.705C158.578 207.73 158.47 207.766 158.335 207.815C158.067 207.914 157.691 208.065 157.243 208.278C156.349 208.704 155.158 209.384 153.964 210.407C151.556 212.471 149.167 215.912 149.167 221.333H151.167C151.167 216.588 153.226 213.674 155.265 211.926C156.296 211.043 157.328 210.452 158.102 210.084C158.489 209.9 158.807 209.773 159.025 209.693C159.134 209.653 159.217 209.625 159.271 209.607C159.297 209.599 159.317 209.593 159.328 209.589C159.334 209.588 159.337 209.587 159.339 209.586C159.34 209.586 159.34 209.586 159.34 209.586C159.339 209.586 159.339 209.586 159.339 209.586C159.339 209.586 159.338 209.586 159.338 209.586C159.338 209.586 159.337 209.587 159.063 208.625ZM149.167 221.333V231.5H151.167V221.333H149.167ZM150.167 232.5H206.083V230.5H150.167V232.5ZM206.083 232.5C237.517 232.5 263 207.017 263 175.583H261C261 205.913 236.413 230.5 206.083 230.5V232.5ZM263 175.583C263 155.296 252.385 137.488 236.41 127.411L235.343 129.102C250.761 138.829 261 156.011 261 175.583H263ZM236.869 128.136C231.015 79.837 189.878 42.4167 140 42.4167V44.4167C188.854 44.4167 229.15 81.0696 234.884 128.377L236.869 128.136ZM140 42.4167C86.1063 42.4167 42.4167 86.1063 42.4167 140H44.4167C44.4167 87.2108 87.2108 44.4167 140 44.4167V42.4167ZM42.4167 140C42.4167 144.381 42.7055 148.695 43.2652 152.925L45.2479 152.663C44.6997 148.52 44.4167 144.293 44.4167 140H42.4167ZM43.9021 151.859C28.1795 157.818 17 173.019 17 190.833H19C19 173.877 29.6399 159.403 44.611 153.729L43.9021 151.859ZM145.013 195.917C145.913 195.482 145.914 195.483 145.914 195.484C145.914 195.484 145.914 195.484 145.914 195.484C145.915 195.485 145.915 195.485 145.915 195.485C145.915 195.485 145.915 195.485 145.914 195.484C145.913 195.481 145.911 195.476 145.907 195.469C145.9 195.453 145.888 195.427 145.873 195.391C145.842 195.319 145.796 195.206 145.741 195.058C145.632 194.76 145.488 194.32 145.362 193.769C145.108 192.663 144.928 191.133 145.207 189.418C145.753 186.068 148.103 181.739 155.897 178.503L155.13 176.656C146.81 180.111 143.909 184.951 143.233 189.096C142.902 191.13 143.117 192.929 143.413 194.216C143.561 194.861 143.73 195.383 143.864 195.749C143.932 195.932 143.991 196.076 144.034 196.177C144.056 196.228 144.074 196.269 144.087 196.298C144.094 196.312 144.099 196.324 144.103 196.333C144.105 196.337 144.107 196.341 144.109 196.344C144.109 196.345 144.11 196.347 144.11 196.348C144.111 196.349 144.111 196.349 144.111 196.35C144.112 196.35 144.112 196.351 145.013 195.917ZM155.897 178.503C174.626 170.725 180.396 156.025 181.467 143.822C182.002 137.737 181.374 132.26 180.614 128.532C180.235 126.672 179.818 125.222 179.484 124.336C179.401 124.113 179.318 123.914 179.237 123.747C179.167 123.6 179.065 123.409 178.932 123.252C178.88 123.191 178.718 123.007 178.446 122.911C178.287 122.854 178.065 122.819 177.818 122.888C177.571 122.957 177.398 123.102 177.29 123.235C177.107 123.461 177.065 123.704 177.052 123.785C177.034 123.9 177.031 124.01 177.033 124.099L179.032 124.067C179.032 124.039 179.034 124.056 179.027 124.098C179.026 124.106 179.002 124.299 178.843 124.496C178.747 124.614 178.587 124.75 178.355 124.814C178.124 124.879 177.917 124.845 177.776 124.795C177.539 124.711 177.418 124.56 177.412 124.552C177.369 124.503 177.379 124.499 177.436 124.615C177.482 124.712 177.542 124.852 177.612 125.04C177.897 125.797 178.289 127.138 178.654 128.932C179.384 132.511 179.989 137.791 179.475 143.647C178.449 155.326 172.99 169.239 155.13 176.656L155.897 178.503ZM177.033 124.099C177.219 135.93 170.543 142.034 164.801 144.82C161.898 146.228 159.296 146.755 158.002 146.759C157.673 146.76 157.51 146.726 157.468 146.712C157.445 146.704 157.532 146.726 157.635 146.83C157.767 146.961 157.884 147.188 157.859 147.461C157.84 147.684 157.735 147.805 157.729 147.813C157.715 147.829 157.732 147.805 157.815 147.748C157.979 147.634 158.281 147.472 158.77 147.273L158.016 145.421C157.465 145.645 157.013 145.871 156.678 146.102C156.511 146.217 156.342 146.355 156.202 146.521C156.069 146.678 155.898 146.936 155.867 147.283C155.832 147.68 155.994 148.017 156.222 148.245C156.421 148.444 156.656 148.548 156.828 148.607C157.177 148.724 157.596 148.76 158.008 148.759C159.677 148.754 162.577 148.121 165.674 146.619C171.928 143.585 179.234 136.865 179.032 124.067L177.033 124.099ZM158.77 147.273C163.598 145.311 167.375 140.17 169.502 133.821C171.642 127.436 172.183 119.645 170.38 112.098C168.575 104.54 164.411 97.2062 157.128 91.7987C149.846 86.392 139.523 82.9687 125.496 83.0864L125.513 85.0863C139.204 84.9715 149.075 88.3106 155.936 93.4045C162.795 98.4975 166.724 105.402 168.435 112.563C170.148 119.736 169.63 127.146 167.606 133.185C165.571 139.26 162.082 143.768 158.016 145.421L158.77 147.273ZM125.497 83.0864C125.399 83.0872 125.191 83.0945 124.972 83.1911C124.851 83.2447 124.689 83.3425 124.553 83.5182C124.409 83.7052 124.341 83.922 124.334 84.1297C124.323 84.4826 124.489 84.7357 124.543 84.8146C124.619 84.9262 124.706 85.0199 124.774 85.0883C125.027 85.3422 125.478 85.6875 125.959 86.0598L127.183 84.4777C126.639 84.0575 126.327 83.8134 126.189 83.6752C126.16 83.6455 126.172 83.6534 126.198 83.6916C126.202 83.697 126.343 83.8889 126.333 84.1927C126.327 84.3758 126.267 84.5711 126.137 84.7396C126.016 84.8968 125.874 84.9792 125.781 85.0203C125.689 85.0609 125.615 85.0749 125.579 85.0803C125.541 85.086 125.517 85.0863 125.512 85.0863L125.497 83.0864ZM125.959 86.06C129.895 89.1016 140.949 97.6849 136.213 113.249L138.126 113.831C143.283 96.8856 131.096 87.5023 127.182 84.4775L125.959 86.06ZM136.213 113.248C134.599 118.55 130.945 122.41 127.086 123.897C125.164 124.637 123.215 124.784 121.426 124.269C119.646 123.756 117.948 122.566 116.554 120.496L114.895 121.613C116.523 124.031 118.594 125.534 120.873 126.191C123.144 126.845 125.543 126.635 127.805 125.764C132.311 124.027 136.357 119.642 138.126 113.831L136.213 113.248ZM116.554 120.496C115.602 119.082 115.366 116.916 115.515 114.584C115.661 112.293 116.161 110.061 116.478 108.655L114.526 108.216C114.212 109.614 113.677 111.989 113.519 114.456C113.364 116.88 113.554 119.622 114.895 121.613L116.554 120.496ZM116.502 108.436V108.435H114.502V108.436H116.502ZM116.502 108.435V108.435H114.502V108.435H116.502ZM116.502 108.435V108.434H114.502V108.435H116.502ZM116.478 108.654C116.571 108.239 116.654 107.871 116.701 107.608C116.723 107.485 116.747 107.332 116.752 107.191C116.754 107.135 116.757 106.986 116.71 106.818C116.674 106.69 116.456 106.089 115.761 106.064L115.688 108.063C115.401 108.052 115.156 107.919 114.994 107.738C114.856 107.584 114.804 107.429 114.784 107.359C114.762 107.281 114.756 107.219 114.754 107.19C114.752 107.158 114.752 107.136 114.753 107.128C114.753 107.112 114.752 107.142 114.732 107.255C114.695 107.464 114.624 107.78 114.526 108.214L116.478 108.654ZM115.761 106.064C115.095 106.04 114.407 106.264 113.757 106.596C113.094 106.934 112.392 107.424 111.674 108.032C110.237 109.249 108.661 111.003 107.116 113.169C104.023 117.503 100.986 123.583 99.4214 130.552C97.8558 137.528 97.761 145.423 100.598 153.35C103.437 161.285 109.188 169.179 119.195 176.183L120.342 174.544C110.631 167.748 105.164 160.174 102.481 152.676C99.7951 145.171 99.8736 137.67 101.373 130.99C102.874 124.304 105.792 118.467 108.744 114.331C110.22 112.261 111.688 110.641 112.966 109.558C113.606 109.017 114.18 108.625 114.666 108.378C115.165 108.123 115.5 108.056 115.688 108.063L115.761 106.064ZM119.195 176.183C119.61 176.474 120.026 176.732 120.41 176.851C120.608 176.912 120.9 176.97 121.222 176.889C121.589 176.797 121.853 176.56 122.011 176.285C122.147 176.046 122.193 175.797 122.213 175.618C122.234 175.429 122.233 175.23 122.224 175.042C122.207 174.669 122.152 174.208 122.094 173.717L120.108 173.951C120.169 174.47 120.213 174.849 120.226 175.133C120.233 175.273 120.23 175.357 120.225 175.402C120.219 175.457 120.216 175.395 120.274 175.293C120.308 175.234 120.363 175.159 120.45 175.091C120.538 175.02 120.637 174.974 120.734 174.95C120.912 174.905 121.025 174.948 121.002 174.941C120.988 174.936 120.927 174.913 120.804 174.843C120.685 174.776 120.534 174.678 120.342 174.544L119.195 176.183ZM122.094 173.717C121.799 171.208 121.269 166.695 123.522 160.978C125.776 155.256 130.868 148.213 142.047 140.796L140.941 139.129C129.505 146.717 124.099 154.057 121.661 160.244C119.221 166.435 119.802 171.356 120.108 173.951L122.094 173.717ZM142.046 140.796C142.077 140.776 142.078 140.776 142.061 140.785C142.054 140.789 142.022 140.807 141.973 140.825C141.956 140.832 141.793 140.899 141.571 140.885C141.444 140.877 141.22 140.837 141.008 140.665C140.778 140.478 140.68 140.233 140.651 140.036C140.607 139.733 140.721 139.507 140.726 139.495C140.771 139.397 140.819 139.339 140.801 139.363C140.757 139.422 140.615 139.579 140.324 139.901L141.806 141.244C142.054 140.97 142.282 140.72 142.395 140.571C142.416 140.543 142.491 140.446 142.548 140.321C142.559 140.296 142.675 140.06 142.63 139.749C142.601 139.549 142.501 139.301 142.269 139.113C142.055 138.938 141.828 138.897 141.696 138.889C141.467 138.875 141.291 138.945 141.259 138.957C141.195 138.982 141.143 139.008 141.112 139.025C141.049 139.059 140.989 139.098 140.941 139.129L142.046 140.796ZM140.324 139.901C138.273 142.165 131.179 149.981 128.653 160.428C127.384 165.676 127.264 171.601 129.516 177.81C131.768 184.017 136.362 190.43 144.397 196.705L145.628 195.128C137.825 189.035 133.495 182.912 131.397 177.128C129.3 171.348 129.405 165.83 130.597 160.898C132.993 150.987 139.763 143.499 141.806 141.244L140.324 139.901Z" fill="white" fill-opacity="0.33" mask="url(#path-1-inside-1_1_2)"/>
</g>
<g style="mix-blend-mode:screen">
<path d="M207.168 116.434C215.919 141.432 210.304 170.34 190.322 190.322C181.278 199.366 170.406 205.467 158.896 208.625H160.333C160.333 208.625 150.167 208.625 150.167 218.792V241.667H206.083C225.736 241.667 241.667 225.736 241.667 206.083V91.0267L212.423 107.911L212.347 107.956C208.135 110.387 207.101 113.67 207.168 116.434Z" fill="white" fill-opacity="0.15"/>
<path d="M241.167 91.8927V206.083C241.167 225.459 225.459 241.167 206.083 241.167H150.667V218.792C150.667 216.338 151.279 214.53 152.171 213.191C153.066 211.85 154.262 210.949 155.474 210.343C156.687 209.736 157.907 209.43 158.827 209.277C159.286 209.201 159.667 209.163 159.932 209.144C160.064 209.134 160.167 209.13 160.236 209.127C160.27 209.126 160.296 209.126 160.312 209.125L160.33 209.125L160.333 209.125H160.333H160.334C160.334 209.125 160.333 209.125 160.333 208.736C171.441 205.46 181.911 199.44 190.676 190.676C210.778 170.573 216.441 141.5 207.666 116.344C207.645 115.051 207.88 113.656 208.595 112.304C209.323 110.926 210.563 109.563 212.597 108.389L212.6 108.387L212.673 108.344L212.676 108.342L241.167 91.8927Z" stroke="white" stroke-opacity="0.33"/>
<path d="M241.151 67.8457L202.075 90.4065C197.32 93.0976 193.288 91.748 190.596 89.9536C190.505 89.8616 190.414 89.7695 190.322 89.6775C162.53 61.8852 117.47 61.8852 89.677 89.6775C89.6175 89.737 89.5581 89.7965 89.4991 89.8565C89.9647 89.1163 90.1833 88.5673 90.1833 88.5673L89.4422 89.9134C88.5785 90.7852 87.7418 91.6738 86.9325 92.5781C84.9698 93.8967 82.0515 94.4777 77.9996 92.0418L77.9233 91.9966L38.7515 68.4446C41.3837 51.3903 56.1254 38.3333 73.9166 38.3333H206.083C223.666 38.3333 238.27 51.0856 241.151 67.8457Z" fill="white" fill-opacity="0.15"/>
<path d="M190.675 89.324C162.96 61.6087 118.193 61.3391 90.1453 88.515L89.7453 88.3262L89.0378 89.6112C88.2007 90.4577 87.3888 91.32 86.6025 92.1971C85.7 92.7917 84.5911 93.2128 83.2476 93.2179C81.8762 93.2231 80.2224 92.7947 78.2572 91.6133L78.2547 91.6118L78.181 91.568L78.1785 91.5666L39.2983 68.1899C42.0319 51.5381 56.4911 38.8333 73.9166 38.8333H206.083C223.298 38.8333 237.618 51.2328 240.597 67.5879L201.828 89.9714C201.828 89.9717 201.827 89.9721 201.826 89.9725C197.312 92.5268 193.504 91.2773 190.916 89.5654C190.836 89.485 190.756 89.4045 190.675 89.324Z" stroke="white" stroke-opacity="0.33"/>
<path d="M38.3333 91.9188L67.6289 109.533C71.3216 111.795 72.4557 114.688 72.5513 117.248C64.2031 142.058 69.9115 170.557 89.677 190.322C98.7208 199.366 109.593 205.467 121.103 208.625H119.667C119.667 208.625 129.833 208.625 129.833 218.792V241.667H73.9167C54.2645 241.667 38.3333 225.735 38.3333 206.083V91.9188Z" fill="white" fill-opacity="0.15"/>
<path d="M89.3235 190.676C98.0879 199.44 108.559 205.461 119.667 208.736C119.667 209.125 119.666 209.125 119.666 209.125H119.667H119.667L119.67 209.125L119.688 209.125C119.704 209.126 119.73 209.126 119.764 209.127C119.833 209.129 119.936 209.134 120.068 209.144C120.333 209.162 120.714 209.201 121.173 209.277C122.093 209.43 123.313 209.736 124.526 210.343C125.738 210.949 126.934 211.85 127.829 213.191C128.721 214.53 129.333 216.337 129.333 218.792V241.167H73.9166C54.5407 241.167 38.8333 225.459 38.8333 206.083V92.8028L67.3677 109.959C67.3683 109.959 67.3688 109.96 67.3694 109.96C70.8671 112.103 71.9354 114.798 72.0478 117.176C63.6845 142.139 69.4419 170.794 89.3235 190.676Z" stroke="white" stroke-opacity="0.33"/>
<path d="M145.013 195.916C145.013 195.916 139.399 184.27 155.513 177.578C192.102 162.384 177.973 120.353 178.032 124.082C178.42 148.711 150.07 149.729 158.393 146.347C176.181 139.116 180.94 83.6202 125.504 84.0854C125.046 84.0889 125.546 84.4753 126.571 85.2677C130.495 88.301 142.116 97.2842 137.169 113.539C133.786 124.651 121.769 130.03 115.725 121.053C113.431 117.648 114.871 111.241 115.501 108.436C115.693 107.585 115.809 107.066 115.725 107.063C108.896 106.815 80.3319 147.763 119.768 175.363C121.417 176.517 121.339 175.853 121.101 173.833C120.5 168.729 118.878 154.966 141.494 139.961C141.804 139.755 141.604 139.976 141.065 140.571C136.971 145.09 113.336 171.181 145.013 195.916Z" fill="white" fill-opacity="0.15"/>
<path d="M126.504 84.583C139.766 84.6339 149.436 87.9555 156.233 93.002C163.199 98.1737 167.187 105.186 168.921 112.446C170.657 119.712 170.133 127.217 168.08 133.343C166.022 139.487 162.461 144.153 158.205 145.883C157.669 146.101 157.255 146.311 156.962 146.513C156.816 146.614 156.685 146.723 156.584 146.843C156.486 146.959 156.383 147.122 156.365 147.327C156.345 147.556 156.437 147.752 156.575 147.89C156.699 148.014 156.853 148.086 156.988 148.132C157.26 148.224 157.615 148.259 158.007 148.258C159.582 148.253 162.407 147.647 165.455 146.168C171.235 143.364 177.924 137.361 178.496 126.148C178.705 126.875 178.929 127.778 179.144 128.831C179.881 132.447 180.492 137.777 179.973 143.69C178.936 155.5 173.398 169.609 155.322 177.116C147.133 180.517 144.37 185.229 143.727 189.176C143.408 191.129 143.615 192.861 143.9 194.103C143.928 194.224 143.956 194.34 143.985 194.451C136.956 188.664 132.939 182.845 130.927 177.298C128.791 171.41 128.9 165.791 130.111 160.78C132.539 150.735 139.391 143.164 141.436 140.907C141.436 140.907 141.436 140.907 141.436 140.907L141.464 140.876C141.709 140.605 141.904 140.39 141.997 140.268C142.017 140.241 142.061 140.182 142.092 140.113L142.093 140.111C142.103 140.088 142.158 139.97 142.135 139.818C142.12 139.717 142.069 139.593 141.953 139.499C141.845 139.412 141.731 139.391 141.665 139.387C141.548 139.38 141.457 139.415 141.437 139.423C141.401 139.437 141.37 139.453 141.349 139.464C141.306 139.487 141.26 139.516 141.217 139.545L141.217 139.545C129.845 147.09 124.518 154.356 122.126 160.427C119.734 166.498 120.301 171.316 120.604 173.889L120.605 173.891C120.665 174.403 120.712 174.803 120.726 175.109C120.73 175.212 120.731 175.297 120.728 175.367C120.58 175.298 120.363 175.169 120.055 174.953C110.27 168.105 104.732 160.451 102.01 152.844C99.2862 145.233 99.3689 137.634 100.885 130.879C102.401 124.122 105.35 118.225 108.337 114.039C109.83 111.946 111.325 110.292 112.643 109.176C113.303 108.617 113.908 108.202 114.438 107.931C114.71 107.793 114.952 107.697 115.166 107.638C115.126 107.827 115.074 108.057 115.014 108.326L115.012 108.335C114.697 109.736 114.172 112.07 114.018 114.487C113.864 116.888 114.066 119.486 115.31 121.333C116.879 123.663 118.857 125.089 121.011 125.709C123.161 126.328 125.448 126.135 127.625 125.296C131.969 123.622 135.917 119.368 137.647 113.684L137.647 113.684C142.695 97.1 130.817 87.9184 126.888 84.8807L126.877 84.8722C126.877 84.8722 126.877 84.8722 126.877 84.8722C126.74 84.7667 126.616 84.6706 126.504 84.583ZM115.252 107.143C115.252 107.136 115.253 107.136 115.252 107.142L115.252 107.143Z" stroke="white" stroke-opacity="0.33"/>
</g>
<g style="mix-blend-mode:screen">
<path d="M58.6667 70.856C61.5195 67.5035 64.5759 64.3297 67.8167 61.3536V136.637C67.7648 137.752 67.7386 138.873 67.7386 140.001C67.7386 141.128 67.7648 142.249 67.8167 143.364V218.646C64.5759 215.671 61.5195 212.496 58.6667 209.144V70.856Z" fill="white" fill-opacity="0.15"/>
<path d="M59.1667 208.96V71.0402C61.7244 68.0449 64.4457 65.1936 67.3167 62.4999V136.625C67.2648 137.744 67.2386 138.869 67.2386 140.001C67.2386 141.132 67.2648 142.257 67.3167 143.375V217.5C64.4457 214.807 61.7244 211.955 59.1667 208.96Z" stroke="white" stroke-opacity="0.33"/>
<path d="M138.905 211.167C117.692 211.167 98.6466 201.886 85.6083 187.162V231.873C101.537 241.324 120.135 246.75 140 246.75C198.956 246.75 246.75 198.957 246.75 140C246.75 81.0435 198.956 33.25 140 33.25C120.135 33.25 101.537 38.6761 85.6083 48.1269V92.8384C98.6466 78.115 117.692 68.8338 138.905 68.8338C178.209 68.8338 210.072 100.696 210.072 140.001C210.072 179.304 178.209 211.167 138.905 211.167Z" fill="white" fill-opacity="0.15"/>
<path d="M86.1083 231.588V188.463C99.2072 202.726 118.013 211.667 138.905 211.667C178.486 211.667 210.572 179.58 210.572 140.001C210.572 100.42 178.486 68.3338 138.905 68.3338C118.013 68.3338 99.2072 77.2746 86.1083 91.5374V48.4121C101.908 39.0952 120.329 33.75 140 33.75C198.68 33.75 246.25 81.3196 246.25 140C246.25 198.68 198.68 246.25 140 246.25C120.329 246.25 101.908 240.905 86.1083 231.588Z" stroke="white" stroke-opacity="0.33"/>
<path d="M43.4167 94.4742C36.8962 108.283 33.25 123.716 33.25 140C33.25 156.284 36.8962 171.716 43.4167 185.526V94.4742Z" fill="white" fill-opacity="0.15"/>
<path d="M33.75 140C33.75 124.602 37.0252 109.97 42.9167 96.7618V183.238C37.0252 170.03 33.75 155.398 33.75 140Z" stroke="white" stroke-opacity="0.33"/>
<mask id="path-17-inside-2_1_2" fill="white">
<path d="M145.013 195.917C145.013 195.917 139.399 184.272 155.514 177.58C192.102 162.386 177.973 120.354 178.032 124.084C178.42 148.712 150.071 149.731 158.393 146.348C176.182 139.118 180.94 83.6218 125.504 84.0869C125.046 84.091 125.546 84.4773 126.571 85.2693C130.495 88.3025 142.116 97.2858 137.17 113.54C133.787 124.653 121.769 130.031 115.725 121.055C113.431 117.65 114.871 111.242 115.501 108.438C115.693 107.587 115.809 107.067 115.725 107.064C108.896 106.818 80.3323 147.764 119.769 175.364C121.417 176.518 121.339 175.855 121.101 173.834C120.5 168.73 118.879 154.968 141.494 139.963C141.805 139.757 141.604 139.978 141.065 140.573C136.972 145.091 113.336 171.183 145.013 195.917Z"/>
</mask>
<path d="M145.013 195.917C145.013 195.917 139.399 184.272 155.514 177.58C192.102 162.386 177.973 120.354 178.032 124.084C178.42 148.712 150.071 149.731 158.393 146.348C176.182 139.118 180.94 83.6218 125.504 84.0869C125.046 84.091 125.546 84.4773 126.571 85.2693C130.495 88.3025 142.116 97.2858 137.17 113.54C133.787 124.653 121.769 130.031 115.725 121.055C113.431 117.65 114.871 111.242 115.501 108.438C115.693 107.587 115.809 107.067 115.725 107.064C108.896 106.818 80.3323 147.764 119.769 175.364C121.417 176.518 121.339 175.855 121.101 173.834C120.5 168.73 118.879 154.968 141.494 139.963C141.805 139.757 141.604 139.978 141.065 140.573C136.972 145.091 113.336 171.183 145.013 195.917Z" fill="white" fill-opacity="0.15"/>
<path d="M145.013 195.917L144.397 196.705L145.913 195.483L145.013 195.917ZM155.514 177.58L155.13 176.656L155.13 176.656L155.514 177.58ZM178.032 124.084L179.032 124.068L179.032 124.068L178.032 124.084ZM158.393 146.348L158.77 147.274L158.77 147.274L158.393 146.348ZM125.504 84.0869L125.496 83.0869L125.495 83.0869L125.504 84.0869ZM126.571 85.2693L127.182 84.4781L127.182 84.478L126.571 85.2693ZM137.17 113.54L138.126 113.831L138.126 113.831L137.17 113.54ZM115.725 121.055L114.895 121.613L114.895 121.613L115.725 121.055ZM115.501 108.438L116.477 108.657L116.477 108.657L115.501 108.438ZM115.725 107.064L115.688 108.063L115.689 108.063L115.725 107.064ZM119.769 175.364L120.342 174.545L120.342 174.545L119.769 175.364ZM121.101 173.834L122.094 173.717L122.094 173.717L121.101 173.834ZM141.494 139.963L142.047 140.797L142.047 140.796L141.494 139.963ZM141.065 140.573L140.324 139.901L140.324 139.902L141.065 140.573ZM145.013 195.917C145.913 195.483 145.914 195.483 145.914 195.484C145.914 195.484 145.914 195.485 145.914 195.485C145.915 195.485 145.915 195.485 145.915 195.486C145.915 195.486 145.915 195.485 145.914 195.484C145.913 195.482 145.911 195.477 145.907 195.469C145.9 195.454 145.888 195.428 145.873 195.391C145.842 195.319 145.796 195.207 145.741 195.058C145.632 194.761 145.488 194.321 145.362 193.769C145.108 192.664 144.928 191.134 145.207 189.419C145.753 186.068 148.103 181.74 155.897 178.503L155.13 176.656C146.81 180.112 143.909 184.952 143.233 189.097C142.902 191.13 143.117 192.929 143.413 194.217C143.561 194.862 143.73 195.384 143.864 195.749C143.932 195.932 143.991 196.076 144.034 196.178C144.056 196.229 144.074 196.269 144.087 196.298C144.094 196.313 144.099 196.324 144.103 196.333C144.105 196.338 144.107 196.341 144.109 196.344C144.109 196.346 144.11 196.347 144.11 196.348C144.111 196.349 144.111 196.35 144.111 196.35C144.112 196.351 144.112 196.351 145.013 195.917ZM155.897 178.503C174.626 170.726 180.396 156.026 181.467 143.823C182.002 137.738 181.374 132.261 180.614 128.533C180.235 126.673 179.818 125.223 179.484 124.337C179.401 124.114 179.318 123.915 179.237 123.748C179.166 123.601 179.065 123.41 178.932 123.253C178.879 123.192 178.718 123.008 178.446 122.912C178.286 122.855 178.064 122.82 177.818 122.889C177.571 122.958 177.398 123.103 177.29 123.236C177.107 123.462 177.065 123.705 177.052 123.786C177.034 123.901 177.031 124.011 177.033 124.1L179.032 124.068C179.032 124.04 179.034 124.057 179.027 124.099C179.026 124.107 179.002 124.3 178.843 124.497C178.747 124.615 178.588 124.75 178.356 124.815C178.124 124.88 177.918 124.846 177.776 124.796C177.539 124.712 177.418 124.561 177.412 124.553C177.369 124.504 177.379 124.499 177.436 124.616C177.482 124.712 177.542 124.853 177.612 125.041C177.897 125.798 178.289 127.139 178.654 128.932C179.384 132.511 179.989 137.792 179.475 143.648C178.449 155.327 172.99 169.24 155.13 176.656L155.897 178.503ZM177.033 124.1C177.219 135.931 170.543 142.034 164.801 144.82C161.898 146.228 159.296 146.756 158.002 146.76C157.673 146.761 157.51 146.727 157.468 146.712C157.445 146.705 157.532 146.727 157.635 146.83C157.766 146.962 157.884 147.188 157.859 147.461C157.84 147.684 157.735 147.806 157.729 147.814C157.715 147.83 157.732 147.806 157.814 147.749C157.979 147.635 158.281 147.473 158.77 147.274L158.016 145.422C157.465 145.646 157.013 145.872 156.678 146.103C156.511 146.218 156.342 146.356 156.202 146.522C156.069 146.679 155.898 146.937 155.867 147.284C155.832 147.681 155.994 148.018 156.222 148.246C156.421 148.445 156.656 148.549 156.828 148.607C157.177 148.725 157.596 148.761 158.008 148.76C159.677 148.754 162.577 148.122 165.674 146.62C171.928 143.585 179.234 136.865 179.032 124.068L177.033 124.1ZM158.77 147.274C163.598 145.312 167.375 140.171 169.503 133.822C171.642 127.437 172.183 119.646 170.38 112.099C168.575 104.541 164.411 97.2068 157.128 91.7993C149.846 86.3926 139.523 82.9692 125.496 83.0869L125.513 85.0869C139.204 84.972 149.075 88.3112 155.936 93.4051C162.795 98.4981 166.725 105.403 168.435 112.564C170.149 119.737 169.63 127.147 167.606 133.186C165.571 139.261 162.082 143.769 158.016 145.422L158.77 147.274ZM125.495 83.0869C125.398 83.0878 125.189 83.0954 124.971 83.1923C124.85 83.2461 124.688 83.3442 124.552 83.5198C124.409 83.7066 124.341 83.9231 124.334 84.1305C124.323 84.4832 124.489 84.7361 124.543 84.8153C124.618 84.927 124.706 85.0208 124.774 85.0891C125.028 85.3432 125.478 85.6884 125.959 86.0605L127.182 84.478C126.639 84.0581 126.327 83.8142 126.189 83.6761C126.16 83.6464 126.172 83.6544 126.198 83.6927C126.202 83.6983 126.343 83.89 126.333 84.1935C126.327 84.3762 126.267 84.5712 126.137 84.7395C126.017 84.8966 125.875 84.9792 125.782 85.0204C125.691 85.0611 125.616 85.0753 125.581 85.0807C125.542 85.0865 125.518 85.0868 125.513 85.0869L125.495 83.0869ZM125.959 86.0605C129.895 89.1022 140.949 97.6854 136.213 113.249L138.126 113.831C143.283 96.8861 131.096 87.5028 127.182 84.4781L125.959 86.0605ZM136.213 113.249C134.599 118.551 130.945 122.411 127.086 123.898C125.164 124.638 123.215 124.784 121.426 124.269C119.646 123.757 117.948 122.567 116.554 120.496L114.895 121.613C116.523 124.031 118.594 125.535 120.873 126.191C123.144 126.845 125.543 126.635 127.805 125.764C132.311 124.028 136.357 119.643 138.126 113.831L136.213 113.249ZM116.554 120.496C115.602 119.082 115.365 116.917 115.515 114.585C115.661 112.295 116.161 110.063 116.477 108.657L114.526 108.218C114.211 109.616 113.676 111.991 113.519 114.457C113.364 116.881 113.554 119.622 114.895 121.613L116.554 120.496ZM116.477 108.657C116.57 108.242 116.653 107.873 116.701 107.61C116.723 107.486 116.747 107.333 116.752 107.192C116.754 107.136 116.757 106.986 116.71 106.818C116.673 106.688 116.455 106.09 115.76 106.065L115.689 108.063C115.402 108.053 115.158 107.92 114.995 107.739C114.857 107.586 114.804 107.43 114.785 107.36C114.762 107.281 114.756 107.219 114.754 107.191C114.752 107.159 114.753 107.136 114.753 107.128C114.753 107.112 114.753 107.143 114.732 107.256C114.694 107.466 114.624 107.783 114.526 108.218L116.477 108.657ZM115.761 106.065C115.095 106.041 114.407 106.265 113.757 106.596C113.094 106.935 112.392 107.425 111.674 108.033C110.237 109.25 108.661 111.004 107.116 113.17C104.023 117.504 100.986 123.583 99.4214 130.553C97.8558 137.528 97.761 145.424 100.598 153.351C103.437 161.285 109.188 169.18 119.195 176.184L120.342 174.545C110.631 167.749 105.164 160.175 102.481 152.677C99.7951 145.172 99.8736 137.671 101.373 130.991C102.874 124.304 105.792 118.468 108.744 114.332C110.22 112.262 111.688 110.642 112.966 109.559C113.606 109.017 114.18 108.626 114.666 108.378C115.165 108.123 115.5 108.057 115.688 108.063L115.761 106.065ZM119.195 176.183C119.61 176.474 120.026 176.732 120.41 176.851C120.608 176.913 120.9 176.971 121.222 176.89C121.589 176.797 121.853 176.561 122.011 176.286C122.147 176.047 122.193 175.798 122.213 175.619C122.234 175.429 122.233 175.231 122.224 175.042C122.207 174.67 122.152 174.208 122.094 173.717L120.108 173.951C120.169 174.47 120.213 174.849 120.226 175.134C120.233 175.274 120.23 175.357 120.225 175.402C120.219 175.458 120.216 175.396 120.274 175.293C120.308 175.235 120.363 175.16 120.45 175.091C120.538 175.021 120.637 174.975 120.734 174.95C120.912 174.905 121.025 174.948 121.002 174.941C120.988 174.937 120.927 174.914 120.804 174.844C120.685 174.776 120.534 174.679 120.342 174.545L119.195 176.183ZM122.094 173.717C121.799 171.208 121.269 166.695 123.522 160.978C125.776 155.257 130.868 148.214 142.047 140.797L140.941 139.13C129.505 146.718 124.099 154.058 121.661 160.245C119.221 166.436 119.802 171.357 120.108 173.951L122.094 173.717ZM142.047 140.796C142.078 140.776 142.079 140.776 142.063 140.785C142.056 140.789 142.023 140.807 141.975 140.825C141.959 140.832 141.796 140.899 141.576 140.886C141.449 140.879 141.225 140.84 141.011 140.668C140.78 140.482 140.68 140.235 140.651 140.038C140.607 139.733 140.721 139.506 140.727 139.495C140.771 139.397 140.82 139.339 140.801 139.363C140.757 139.422 140.615 139.58 140.324 139.901L141.806 141.244C142.054 140.971 142.282 140.721 142.395 140.572C142.416 140.544 142.491 140.447 142.547 140.322C142.559 140.298 142.676 140.061 142.63 139.749C142.601 139.548 142.5 139.299 142.266 139.111C142.05 138.937 141.823 138.897 141.692 138.89C141.463 138.876 141.289 138.946 141.257 138.959C141.193 138.983 141.141 139.01 141.111 139.027C141.048 139.061 140.988 139.099 140.941 139.131L142.047 140.796ZM140.324 139.902C138.273 142.165 131.179 149.981 128.653 160.429C127.384 165.677 127.264 171.602 129.517 177.811C131.768 184.017 136.362 190.431 144.397 196.705L145.628 195.129C137.825 189.036 133.495 182.913 131.397 177.129C129.3 171.348 129.405 165.831 130.597 160.899C132.993 150.988 139.764 143.499 141.806 141.244L140.324 139.902Z" fill="white" fill-opacity="0.33" mask="url(#path-17-inside-2_1_2)"/>
<path d="M58.6667 70.857C61.5195 67.5047 64.5759 64.3309 67.8167 61.3548V136.638C67.7648 137.753 67.7386 138.874 67.7386 140.002C67.7386 141.129 67.7648 142.25 67.8167 143.365V218.648C64.5759 215.672 61.5195 212.497 58.6667 209.146V70.857Z" fill="white" fill-opacity="0.15"/>
<path d="M59.1667 208.961V71.0412C61.7244 68.0461 64.4457 65.1947 67.3167 62.5011V136.626C67.2648 137.745 67.2386 138.87 67.2386 140.002C67.2386 141.133 67.2648 142.258 67.3167 143.377V217.501C64.4457 214.808 61.7244 211.956 59.1667 208.961Z" stroke="white" stroke-opacity="0.33"/>
<path d="M43.4167 94.4752C36.8962 108.285 33.25 123.717 33.25 140.001C33.25 156.285 36.8962 171.718 43.4167 185.527V94.4752Z" fill="white" fill-opacity="0.15"/>
<path d="M33.75 140.001C33.75 124.603 37.0252 109.971 42.9167 96.7628V183.239C37.0252 170.031 33.75 155.399 33.75 140.001Z" stroke="white" stroke-opacity="0.33"/>
</g>
<g style="mix-blend-mode:screen">
<path d="M189.563 195.941L246.75 228.958L189.563 261.976V246.75H140C81.0435 246.75 33.25 198.956 33.25 140C33.25 81.0435 81.0435 33.25 140 33.25C198.957 33.25 246.75 81.0435 246.75 140C246.75 159.954 241.275 178.629 231.746 194.605L200.839 176.944C207.392 166.175 211.167 153.528 211.167 140C211.167 100.696 179.304 68.8333 140 68.8333C100.696 68.8333 68.8333 100.696 68.8333 140C68.8333 179.304 100.696 211.167 140 211.167H189.563V195.941Z" fill="white" fill-opacity="0.15"/>
<path d="M201.532 176.764C207.968 166.015 211.667 153.438 211.667 140C211.667 100.42 179.58 68.3333 140 68.3333C100.42 68.3333 68.3333 100.42 68.3333 140C68.3333 179.58 100.42 211.667 140 211.667H189.562H190.062V211.167V196.807L245.75 228.958L190.062 261.11V246.75V246.25H189.562H140C81.3196 246.25 33.75 198.68 33.75 140C33.75 81.3196 81.3196 33.75 140 33.75C198.68 33.75 246.25 81.3196 246.25 140C246.25 159.685 240.897 178.119 231.567 193.927L201.532 176.764Z" stroke="white" stroke-opacity="0.33"/>
<path d="M155.514 177.579C139.399 184.271 145.013 195.917 145.013 195.917C113.336 171.182 136.971 145.091 141.065 140.572C141.604 139.977 141.805 139.757 141.494 139.962C118.879 154.967 120.5 168.73 121.101 173.834C121.339 175.854 121.417 176.518 119.769 175.364C80.3323 147.764 108.896 106.817 115.725 107.064C115.809 107.067 115.693 107.586 115.501 108.437C114.871 111.241 113.431 117.649 115.725 121.054C121.769 130.031 133.787 124.652 137.17 113.54C142.116 97.2853 130.495 88.302 126.571 85.2688C125.546 84.4763 125.046 84.0899 125.504 84.0864C180.94 83.6213 176.181 139.117 158.393 146.347C150.071 149.73 178.42 148.712 178.032 124.083C177.973 120.354 192.102 162.385 155.514 177.579Z" fill="white"/>
</g>
<g style="mix-blend-mode:screen">
<path fill-rule="evenodd" clip-rule="evenodd" d="M129.833 23.869C136.124 20.2368 143.875 20.2368 150.166 23.869L235.488 73.1293C241.78 76.7618 245.655 83.4744 245.655 90.739V118.275L174.751 77.8796C164.474 72.1177 152.62 68.8326 140 68.8326C120.087 68.8326 102.083 77.0114 89.1667 90.1925V47.3477L129.833 23.869ZM68.8329 59.0874L44.5113 73.1293C38.2201 76.7618 34.3446 83.4744 34.3446 90.739V189.26C34.3446 196.524 38.2201 203.237 44.5113 206.869L85.4457 230.503L122.634 209.032C93.3096 201.679 71.2032 176.13 69.0118 145.083H68.8329V59.0874ZM129.839 210.446L129.967 210.668L130.25 210.504C130.113 210.485 129.976 210.466 129.839 210.446ZM105.78 242.242L137.592 223.875L137.592 223.875L179.446 199.71C198.678 186.97 211.166 164.797 211.166 139.999C211.166 133.896 210.398 127.973 208.953 122.321L245.655 143.511V189.26C245.655 196.524 241.78 203.237 235.488 206.869L150.166 256.129C143.875 259.762 136.124 259.762 129.833 256.129L105.78 242.242ZM155.513 177.579C139.399 184.27 145.013 195.916 145.013 195.916C113.335 171.181 136.971 145.09 141.064 140.572C141.604 139.977 141.804 139.756 141.493 139.962C118.878 154.966 120.5 168.73 121.101 173.833C121.339 175.854 121.417 176.517 119.768 175.363C80.3318 147.763 108.896 106.816 115.724 107.063C115.809 107.066 115.693 107.585 115.501 108.436L115.501 108.436C114.871 111.241 113.431 117.648 115.724 121.053C121.769 130.03 133.786 124.652 137.169 113.539C142.116 97.2848 130.495 88.3015 126.571 85.2683C125.546 84.4758 125.046 84.0894 125.504 84.0859C180.94 83.6203 176.181 139.116 158.393 146.347C150.07 149.73 178.42 148.711 178.032 124.083C177.973 120.353 192.102 162.384 155.513 177.579Z" fill="white" fill-opacity="0.15"/>
<path d="M143.985 194.451C136.956 188.665 132.939 182.846 130.926 177.298C128.79 171.411 128.899 165.791 130.111 160.78C132.539 150.735 139.391 143.165 141.435 140.908L141.458 140.883C141.706 140.609 141.904 140.391 141.997 140.268C142.017 140.241 142.061 140.182 142.092 140.113C142.099 140.097 142.158 139.976 142.135 139.819C142.12 139.718 142.069 139.593 141.952 139.499C141.844 139.412 141.731 139.391 141.664 139.387C141.547 139.38 141.457 139.416 141.437 139.424C141.401 139.437 141.37 139.453 141.349 139.465C141.306 139.488 141.26 139.517 141.217 139.545C141.217 139.545 141.217 139.545 141.217 139.545L141.493 139.962C141.399 140.024 141.306 140.087 141.212 140.149L143.985 194.451ZM143.985 194.451C143.956 194.34 143.928 194.224 143.9 194.104C143.615 192.862 143.408 191.13 143.727 189.176C144.37 185.23 147.133 180.517 155.322 177.117C173.398 169.61 178.936 155.501 179.973 143.691C180.492 137.777 179.881 132.448 179.144 128.831C178.929 127.779 178.705 126.875 178.496 126.149C177.924 137.362 171.235 143.364 165.455 146.169C162.407 147.647 159.582 148.253 158.006 148.258C157.615 148.26 157.26 148.224 156.988 148.132C156.853 148.087 156.699 148.014 156.575 147.89C156.437 147.753 156.345 147.556 156.365 147.327C156.383 147.122 156.485 146.959 156.584 146.843C156.685 146.723 156.816 146.614 156.962 146.513C157.254 146.311 157.669 146.101 158.205 145.883C162.461 144.153 166.022 139.487 168.08 133.344C170.133 127.218 170.657 119.713 168.921 112.446C167.187 105.186 163.199 98.174 156.233 93.0023C149.436 87.9558 139.766 84.6342 126.504 84.5836M143.985 194.451L126.504 84.5836M126.504 84.5836C126.616 84.6711 126.74 84.7673 126.877 84.8727L126.59 85.2433L126.877 84.8727L126.888 84.8812C130.817 87.9189 142.695 97.1006 137.647 113.684L137.169 113.539L137.647 113.684C135.917 119.368 131.969 123.622 127.625 125.296C125.448 126.135 123.161 126.329 121.011 125.709C118.857 125.089 116.879 123.664 115.309 121.333L115.724 121.053L115.309 121.333C114.066 119.486 113.864 116.888 114.017 114.488C114.172 112.072 114.696 109.739 115.01 108.338L115.013 108.327L115.044 108.188L115.045 108.187C115.092 107.977 115.133 107.794 115.166 107.638C114.952 107.697 114.71 107.793 114.438 107.932C113.908 108.202 113.302 108.618 112.643 109.176C111.325 110.293 109.83 111.946 108.336 114.04C105.35 118.226 102.401 124.123 100.885 130.88C99.3688 137.634 99.2862 145.233 102.01 152.844C104.732 160.451 110.27 168.105 120.055 174.954L119.768 175.363L120.055 174.954C120.363 175.169 120.58 175.298 120.728 175.367L126.504 84.5836ZM245.155 90.739V117.415L174.999 77.4452L174.996 77.4435C164.645 71.6408 152.708 68.3326 140 68.3326C120.384 68.3326 102.607 76.2146 89.6667 88.9825V47.6364L130.083 24.302C136.219 20.7591 143.78 20.7591 149.916 24.302L235.238 73.5623C241.375 77.1055 245.155 83.653 245.155 90.739ZM44.7613 73.5623L68.3329 59.9534V145.083V145.583H68.5473C70.9086 176.22 92.5334 201.46 121.327 209.209L85.4457 229.925L44.7613 206.436C38.6248 202.893 34.8446 196.346 34.8446 189.26V90.739C34.8446 83.653 38.6248 77.1055 44.7613 73.5623ZM106.78 242.242L137.842 224.308L138.412 223.979L138.411 223.979L179.696 200.143L179.709 200.135L179.722 200.127C199.093 187.295 211.666 164.966 211.666 139.999C211.666 134.265 210.993 128.687 209.72 123.341L245.155 143.799V189.26C245.155 196.346 241.375 202.893 235.238 206.436L149.916 255.696L150.166 256.129L149.916 255.696C143.78 259.24 136.219 259.24 130.083 255.696L106.78 242.242ZM115.252 107.144C115.252 107.138 115.252 107.137 115.252 107.143L115.252 107.144Z" stroke="white" stroke-opacity="0.33"/>
</g>
</svg>
