<svg width="320" height="256" viewBox="0 0 320 256" fill="none" xmlns="http://www.w3.org/2000/svg">
<g clip-path="url(#clip0_264_142)">
<path d="M63.2 90.2579C78.2221 90.2579 90.4 78.0992 90.4 63.1006C90.4 48.1021 78.2221 35.9434 63.2 35.9434C48.1779 35.9434 36 48.1021 36 63.1006C36 78.0992 48.1779 90.2579 63.2 90.2579Z" fill="white"/>
<path fill-rule="evenodd" clip-rule="evenodd" d="M64 31.9497C81.6612 31.9497 96 46.2659 96 63.8994C96 81.5329 81.6612 95.8491 64 95.8491C46.3387 95.8491 32 81.5329 32 63.8994C32 46.2659 46.3387 31.9497 64 31.9497ZM66.2719 88.6794C66.2719 88.6794 63.7276 83.5185 71.0312 80.5529C87.6139 73.8196 81.2104 55.1931 81.2372 56.8457C81.4129 67.7601 68.5641 68.2114 72.3363 66.7123C80.3984 63.508 82.5552 38.9145 57.4301 39.1207C56.428 39.129 65.5448 43.0884 62.7171 52.1732C61.1839 57.0979 55.7373 59.4813 52.9976 55.5034C51.6429 53.5365 53.1627 49.3091 52.9976 49.3033C49.9027 49.1939 36.9568 67.3399 54.8305 79.5711C57.4655 81.3742 50.3695 73.1646 64.6769 63.8827C65.886 63.0978 50.0232 76.2735 66.2719 88.6794Z" fill="url(#paint0_linear_264_142)"/>
<path d="M120.186 48.3905H124.746L137.066 76.5461H131.866L129.026 69.7968H115.786L112.906 76.5461H107.866L120.186 48.3905ZM127.226 65.4436L122.386 54.2612L117.586 65.4436H127.226ZM139.975 55.4593H144.815V58.9738C145.588 57.8822 146.548 56.9503 147.695 56.1782C148.841 55.4061 150.281 55.02 152.015 55.02C153.241 55.02 154.441 55.2597 155.615 55.7389C156.815 56.2182 157.868 56.9237 158.775 57.8556C159.681 58.7874 160.415 59.9323 160.975 61.2902C161.535 62.648 161.815 64.2056 161.815 65.9628V66.0427C161.815 67.7999 161.535 69.3575 160.975 70.7153C160.441 72.0732 159.708 73.2181 158.775 74.1499C157.868 75.0818 156.828 75.7873 155.655 76.2666C154.481 76.7458 153.268 76.9855 152.015 76.9855C150.255 76.9855 148.801 76.6127 147.655 75.8672C146.508 75.1217 145.561 74.2564 144.815 73.2713V82.9361H139.975V55.4593ZM150.855 72.7921C151.681 72.7921 152.455 72.6323 153.175 72.3128C153.921 71.9933 154.561 71.554 155.095 70.9949C155.655 70.4091 156.095 69.7036 156.415 68.8782C156.735 68.0262 156.895 67.081 156.895 66.0427V65.9628C156.895 64.9511 156.735 64.0325 156.415 63.2071C156.095 62.3552 155.655 61.6363 155.095 61.0505C154.561 60.4648 153.921 60.0122 153.175 59.6927C152.455 59.3732 151.681 59.2134 150.855 59.2134C150.028 59.2134 149.241 59.3732 148.495 59.6927C147.748 60.0122 147.095 60.4781 146.535 61.0905C145.975 61.6762 145.521 62.3818 145.175 63.2071C144.855 64.0325 144.695 64.9511 144.695 65.9628V66.0427C144.695 67.0544 144.855 67.973 145.175 68.7983C145.521 69.6237 145.975 70.3426 146.535 70.9549C147.095 71.5407 147.748 71.9933 148.495 72.3128C149.241 72.6323 150.028 72.7921 150.855 72.7921ZM165.477 55.4593H170.317V58.9738C171.09 57.8822 172.05 56.9503 173.197 56.1782C174.344 55.4061 175.784 55.02 177.517 55.02C178.744 55.02 179.944 55.2597 181.117 55.7389C182.317 56.2182 183.37 56.9237 184.277 57.8556C185.184 58.7874 185.917 59.9323 186.477 61.2902C187.037 62.648 187.317 64.2056 187.317 65.9628V66.0427C187.317 67.7999 187.037 69.3575 186.477 70.7153C185.944 72.0732 185.21 73.2181 184.277 74.1499C183.37 75.0818 182.33 75.7873 181.157 76.2666C179.984 76.7458 178.77 76.9855 177.517 76.9855C175.757 76.9855 174.304 76.6127 173.157 75.8672C172.01 75.1217 171.064 74.2564 170.317 73.2713V82.9361H165.477V55.4593ZM176.357 72.7921C177.184 72.7921 177.957 72.6323 178.677 72.3128C179.424 71.9933 180.064 71.554 180.597 70.9949C181.157 70.4091 181.597 69.7036 181.917 68.8782C182.237 68.0262 182.397 67.081 182.397 66.0427V65.9628C182.397 64.9511 182.237 64.0325 181.917 63.2071C181.597 62.3552 181.157 61.6363 180.597 61.0505C180.064 60.4648 179.424 60.0122 178.677 59.6927C177.957 59.3732 177.184 59.2134 176.357 59.2134C175.53 59.2134 174.744 59.3732 173.997 59.6927C173.25 60.0122 172.597 60.4781 172.037 61.0905C171.477 61.6762 171.024 62.3818 170.677 63.2071C170.357 64.0325 170.197 64.9511 170.197 65.9628V66.0427C170.197 67.0544 170.357 67.973 170.677 68.7983C171.024 69.6237 171.477 70.3426 172.037 70.9549C172.597 71.5407 173.25 71.9933 173.997 72.3128C174.744 72.6323 175.53 72.7921 176.357 72.7921ZM201.34 76.9455C199.18 76.9455 197.113 76.5861 195.14 75.8672C193.166 75.1217 191.34 73.9902 189.66 72.4726L192.62 68.9581C193.98 70.1296 195.353 71.0348 196.74 71.6738C198.153 72.2862 199.726 72.5924 201.46 72.5924C202.98 72.5924 204.18 72.2729 205.06 71.6339C205.966 70.9683 206.42 70.1163 206.42 69.0779V68.998C206.42 68.4922 206.326 68.0529 206.14 67.6801C205.98 67.2807 205.66 66.908 205.18 66.5619C204.726 66.2157 204.086 65.8962 203.26 65.6034C202.46 65.3105 201.406 65.0176 200.1 64.7248C198.606 64.3786 197.273 63.9926 196.1 63.5666C194.953 63.114 193.98 62.5815 193.18 61.9691C192.406 61.3301 191.806 60.558 191.38 59.6527C190.98 58.7475 190.78 57.6559 190.78 56.3779V56.298C190.78 55.0999 191.02 54.0083 191.5 53.0232C191.98 52.0114 192.633 51.1595 193.46 50.4672C194.313 49.7483 195.326 49.1892 196.5 48.7899C197.673 48.3905 198.953 48.1908 200.34 48.1908C202.393 48.1908 204.233 48.497 205.86 49.1093C207.513 49.6951 209.06 50.5604 210.5 51.7053L207.86 55.4194C206.58 54.4875 205.313 53.782 204.06 53.3027C202.806 52.7969 201.54 52.5439 200.26 52.5439C198.82 52.5439 197.7 52.8634 196.9 53.5024C196.1 54.1414 195.7 54.9269 195.7 55.8587V55.9386C195.7 56.4711 195.793 56.9503 195.98 57.3763C196.166 57.7757 196.513 58.1484 197.02 58.4946C197.526 58.8141 198.206 59.1202 199.06 59.4131C199.913 59.706 201.02 60.0122 202.38 60.3317C203.846 60.7044 205.14 61.1171 206.26 61.5697C207.38 62.0223 208.313 62.5815 209.06 63.2471C209.833 63.8861 210.406 64.6449 210.78 65.5235C211.153 66.3755 211.34 67.3739 211.34 68.5188V68.5987C211.34 69.9033 211.086 71.0748 210.58 72.1131C210.1 73.1515 209.42 74.0301 208.54 74.749C207.66 75.4678 206.606 76.0136 205.38 76.3864C204.153 76.7591 202.806 76.9455 201.34 76.9455ZM224.993 77.0254C223.42 77.0254 221.966 76.7458 220.633 76.1867C219.3 75.601 218.14 74.8155 217.153 73.8304C216.193 72.8453 215.433 71.6871 214.873 70.3559C214.34 69.0247 214.073 67.6135 214.073 66.1226V66.0427C214.073 64.5517 214.34 63.1406 214.873 61.8093C215.433 60.4515 216.206 59.28 217.193 58.2949C218.18 57.2831 219.34 56.4844 220.673 55.8987C222.006 55.3129 223.473 55.02 225.073 55.02C226.06 55.02 226.953 55.1132 227.753 55.2996C228.58 55.4593 229.326 55.699 229.993 56.0185C230.686 56.338 231.313 56.724 231.873 57.1766C232.46 57.6293 233.006 58.1218 233.513 58.6543L230.473 61.8892C229.726 61.1171 228.926 60.4914 228.073 60.0122C227.246 59.5063 226.233 59.2534 225.033 59.2534C224.153 59.2534 223.34 59.4397 222.593 59.8125C221.846 60.1586 221.193 60.6379 220.633 61.2502C220.1 61.836 219.673 62.5415 219.353 63.3669C219.06 64.1923 218.913 65.0576 218.913 65.9628V66.0427C218.913 66.9745 219.06 67.8532 219.353 68.6785C219.673 69.5039 220.113 70.2228 220.673 70.8351C221.233 71.4475 221.9 71.9268 222.673 72.2729C223.446 72.619 224.3 72.7921 225.233 72.7921C226.38 72.7921 227.38 72.5524 228.233 72.0732C229.113 71.5939 229.94 70.9683 230.713 70.1961L233.633 73.0716C232.593 74.2431 231.406 75.2016 230.073 75.9471C228.74 76.666 227.046 77.0254 224.993 77.0254ZM242.83 76.9855C241.844 76.9855 240.897 76.839 239.99 76.5461C239.084 76.2799 238.284 75.8805 237.59 75.348C236.924 74.7889 236.377 74.11 235.95 73.3112C235.55 72.4859 235.35 71.5407 235.35 70.4757V70.3958C235.35 69.251 235.564 68.2525 235.99 67.4005C236.417 66.5486 237.004 65.843 237.75 65.2839C238.524 64.7248 239.444 64.3121 240.51 64.0458C241.604 63.753 242.79 63.6065 244.07 63.6065C245.27 63.6065 246.31 63.6864 247.19 63.8461C248.07 64.0059 248.924 64.2189 249.75 64.4851V63.966C249.75 62.4483 249.297 61.3035 248.39 60.5314C247.51 59.7592 246.217 59.3732 244.51 59.3732C243.31 59.3732 242.244 59.493 241.31 59.7326C240.377 59.9722 239.43 60.2917 238.47 60.6911L237.19 56.8971C238.364 56.3646 239.564 55.9519 240.79 55.659C242.017 55.3395 243.47 55.1798 245.15 55.1798C248.297 55.1798 250.63 55.9652 252.15 57.5361C252.924 58.3082 253.497 59.2401 253.87 60.3317C254.244 61.4233 254.43 62.6613 254.43 64.0458V76.5461H249.71V73.9103C248.99 74.7623 248.07 75.4945 246.95 76.1068C245.83 76.6926 244.457 76.9855 242.83 76.9855ZM244.19 73.471C244.99 73.471 245.737 73.3645 246.43 73.1515C247.124 72.9385 247.71 72.6323 248.19 72.2329C248.697 71.8336 249.097 71.3543 249.39 70.7952C249.684 70.2361 249.83 69.6237 249.83 68.9581V67.5204C249.217 67.2807 248.497 67.081 247.67 66.9213C246.87 66.7616 245.99 66.6817 245.03 66.6817C243.457 66.6817 242.23 66.9879 241.35 67.6002C240.497 68.2126 240.07 69.0779 240.07 70.1961V70.276C240.07 71.2878 240.457 72.0732 241.23 72.6323C242.03 73.1914 243.017 73.471 244.19 73.471ZM258.894 55.4593H263.734V58.6943C264.081 58.215 264.454 57.7491 264.854 57.2965C265.281 56.8438 265.761 56.4578 266.294 56.1383C266.854 55.7922 267.454 55.5259 268.094 55.3395C268.761 55.1265 269.508 55.02 270.334 55.02C272.734 55.02 274.588 55.7522 275.894 57.2166C277.201 58.6809 277.854 60.6379 277.854 63.0873V76.5461H273.014V64.565C273.014 62.9143 272.614 61.6496 271.814 60.771C271.041 59.8657 269.934 59.4131 268.494 59.4131C267.081 59.4131 265.934 59.8791 265.054 60.8109C264.174 61.7162 263.734 62.9941 263.734 64.6449V76.5461H258.894V55.4593Z" fill="#0066B0"/>
<path d="M128 255.597V127.799L0 127.799L0 255.597H128Z" fill="url(#paint1_linear_264_142)"/>
<g opacity="0.5" clip-path="url(#clip1_264_142)">
<path d="M52.8373 177.258C52.7541 177.284 52.6609 177.322 52.5578 177.375C52.3224 177.495 52.0528 177.68 51.7584 177.929C51.1698 178.426 50.5015 179.164 49.833 180.1C48.4966 181.97 47.177 184.605 46.4983 187.624C45.8199 190.642 45.7831 194.036 47.0014 197.436C48.2191 200.833 50.697 204.253 55.0777 207.314C55.192 207.394 55.2772 207.447 55.3393 207.479C55.3393 207.458 55.3387 207.434 55.3375 207.407C55.3312 207.271 55.3104 207.094 55.2833 206.864L55.2832 206.863C55.1472 205.71 54.8923 203.55 55.9668 200.827C57.0412 198.105 59.4323 194.851 64.5311 191.473L52.8373 177.258ZM52.8373 177.258C52.821 177.333 52.8013 177.421 52.7786 177.522L52.7777 177.526C52.6366 178.153 52.4012 179.199 52.3317 180.283C52.2628 181.358 52.3526 182.528 52.9151 183.362C53.6215 184.409 54.5126 185.051 55.4843 185.33C56.4539 185.609 57.4844 185.522 58.464 185.145C60.4192 184.393 62.1933 182.483 62.9707 179.933L62.7484 179.865L62.9707 179.933C65.2377 172.496 59.9017 168.378 58.1408 167.019L58.1353 167.014C58.098 166.986 58.0627 166.958 58.0295 166.933C63.9281 166.968 68.2314 168.45 71.2587 170.694C74.3744 173.003 76.1582 176.135 76.934 179.378C77.7106 182.623 77.4759 185.976 76.5578 188.712C75.6367 191.457 74.045 193.536 72.1477 194.306C71.9068 194.404 71.7191 194.499 71.586 194.591C71.5195 194.636 71.4588 194.687 71.4112 194.743C71.3655 194.797 71.3161 194.875 71.3072 194.974C71.2972 195.086 71.3422 195.181 71.4088 195.247C71.4682 195.306 71.5415 195.341 71.604 195.362C71.73 195.404 71.8923 195.42 72.0686 195.419C72.7792 195.417 74.0492 195.145 75.4173 194.482C77.9866 193.237 80.9564 190.587 81.2669 185.659C81.3478 185.955 81.4327 186.306 81.5145 186.707C81.8443 188.323 82.118 190.705 81.8856 193.347C81.4214 198.624 78.9444 204.926 70.8557 208.279C67.1796 209.804 65.9343 211.918 65.6443 213.695C65.5009 214.573 65.594 215.351 65.7223 215.909C65.7284 215.936 65.7347 215.963 65.741 215.988M21.187 197.656L21.3724 197.585L21.3463 197.389C21.0995 195.527 20.9721 193.627 20.9721 191.698C20.9721 167.972 40.236 148.738 63.9999 148.738C85.9927 148.738 104.131 165.212 106.713 186.474L106.727 186.592L106.828 186.656C113.792 191.042 118.417 198.791 118.417 207.617C118.417 221.295 107.311 232.384 93.611 232.384H68.8055V223.431C84.2756 221.115 96.1388 207.79 96.1388 191.698C96.1388 173.976 81.7494 159.609 63.9999 159.609C46.2505 159.609 31.861 173.976 31.861 191.698C31.861 207.79 43.7242 221.115 59.1944 223.431V232.384H27.5555C17.6293 232.384 9.58325 224.35 9.58325 214.44C9.58325 206.77 14.4041 200.222 21.187 197.656Z" stroke="url(#paint2_linear_264_142)" stroke-width="0.5"/>
</g>
<g opacity="0.5">
<path d="M65.741 215.988C62.632 213.418 60.8526 210.836 59.9587 208.376C59.0037 205.748 59.0522 203.239 59.594 201.001C60.6805 196.515 63.7462 193.132 64.6623 192.122L64.6763 192.107C64.7853 191.987 64.8732 191.89 64.9153 191.834C64.9244 191.822 64.9457 191.794 64.9611 191.76L64.9615 191.759C64.9665 191.748 64.9936 191.69 64.9824 191.614C64.975 191.563 64.9495 191.501 64.8912 191.454C64.8372 191.41 64.7803 191.4 64.7472 191.398C64.6891 191.395 64.6443 191.412 64.6347 191.416C64.617 191.423 64.6021 191.43 64.5922 191.436C64.5719 191.447 64.5507 191.46 64.5312 191.473M64.5312 191.473C64.5312 191.473 64.5312 191.473 64.5312 191.473L64.6677 191.679L64.5312 191.473Z" stroke="url(#paint3_linear_264_142)" stroke-width="0.5"/>
</g>
<g opacity="0.5" clip-path="url(#clip2_264_142)">
<mask id="path-7-inside-1_264_142" fill="white">
<path fill-rule="evenodd" clip-rule="evenodd" d="M63.9998 223.537H86.2082V216.725L111.833 231.497L86.2082 246.268V239.456H63.9998C37.5822 239.456 16.1665 218.074 16.1665 191.698C16.1665 165.322 37.5822 143.94 63.9998 143.94C90.4174 143.94 111.833 165.322 111.833 191.698C111.833 200.625 109.38 208.98 105.11 216.127L91.2609 208.226C94.1974 203.408 95.8887 197.75 95.8887 191.698C95.8887 174.114 81.6116 159.859 63.9998 159.859C46.3881 159.859 32.1109 174.114 32.1109 191.698C32.1109 209.282 46.3881 223.537 63.9998 223.537ZM70.9513 208.51C63.7306 211.504 66.246 216.714 66.246 216.714C52.052 205.648 62.6428 193.976 64.477 191.954C64.7187 191.688 64.8084 191.589 64.6692 191.681C54.5356 198.394 55.2621 204.551 55.5315 206.835C55.6382 207.739 55.6732 208.035 54.9344 207.519C37.2634 195.171 50.0624 176.852 53.1223 176.963C53.1603 176.964 53.108 177.196 53.0224 177.577L53.0223 177.577L53.0223 177.577C52.7399 178.832 52.0947 181.699 53.1223 183.222C55.8309 187.238 61.2157 184.832 62.7315 179.86C64.9481 172.588 59.7407 168.569 57.9825 167.212C57.5232 166.858 57.2993 166.685 57.5045 166.683C82.3446 166.475 80.2123 191.303 72.2416 194.538C68.5123 196.051 81.2153 195.596 81.0416 184.577C81.0151 182.909 87.346 201.713 70.9513 208.51Z"/>
</mask>
<path d="M86.2082 223.537V224.037H86.7082V223.537H86.2082ZM86.2082 216.725L86.4579 216.292L85.7082 215.86V216.725H86.2082ZM111.833 231.497L112.083 231.93L112.834 231.497L112.083 231.063L111.833 231.497ZM86.2082 246.268H85.7082V247.133L86.4579 246.701L86.2082 246.268ZM86.2082 239.456H86.7082V238.956H86.2082V239.456ZM105.11 216.127L104.862 216.562L105.288 216.805L105.539 216.384L105.11 216.127ZM91.2609 208.226L90.8339 207.966L90.5661 208.405L91.0131 208.66L91.2609 208.226ZM66.2461 216.714L65.9386 217.109L66.6963 216.497L66.2461 216.714ZM70.9513 208.51L70.7598 208.048L70.7598 208.048L70.9513 208.51ZM64.477 191.954L64.1067 191.618L64.1067 191.618L64.477 191.954ZM64.6692 191.681L64.9453 192.098L64.9455 192.098L64.6692 191.681ZM55.5315 206.835L56.0281 206.776L56.0281 206.776L55.5315 206.835ZM54.9344 207.519L55.2208 207.109L55.2208 207.109L54.9344 207.519ZM53.1223 176.963L53.1404 176.463L53.1403 176.463L53.1223 176.963ZM53.0223 177.577L52.5345 177.467L52.5345 177.467L53.0223 177.577ZM53.1223 183.222L52.7078 183.502L52.7078 183.502L53.1223 183.222ZM62.7315 179.86L63.2097 180.006L63.2097 180.006L62.7315 179.86ZM57.9825 167.212L58.288 166.816L58.288 166.816L57.9825 167.212ZM57.5045 166.683L57.5003 166.183L57.5002 166.183L57.5045 166.683ZM72.2416 194.538L72.4296 195.001L72.4296 195.001L72.2416 194.538ZM81.0416 184.577L81.5415 184.569L81.5415 184.569L81.0416 184.577ZM63.9998 224.037H86.2082V223.037H63.9998V224.037ZM86.7082 223.537V216.725H85.7082V223.537H86.7082ZM85.9585 217.158L111.583 231.93L112.083 231.063L86.4579 216.292L85.9585 217.158ZM111.583 231.063L85.9585 245.835L86.4579 246.701L112.083 231.93L111.583 231.063ZM86.7082 246.268V239.456H85.7082V246.268H86.7082ZM86.2082 238.956H63.9998V239.956H86.2082V238.956ZM63.9998 238.956C37.8576 238.956 16.6665 217.797 16.6665 191.698H15.6665C15.6665 218.351 37.3068 239.956 63.9998 239.956V238.956ZM16.6665 191.698C16.6665 165.599 37.8576 144.44 63.9998 144.44V143.44C37.3068 143.44 15.6665 165.045 15.6665 191.698H16.6665ZM63.9998 144.44C90.1421 144.44 111.333 165.599 111.333 191.698H112.333C112.333 165.045 90.6929 143.44 63.9998 143.44V144.44ZM111.333 191.698C111.333 200.532 108.906 208.799 104.681 215.871L105.539 216.384C109.854 209.161 112.333 200.718 112.333 191.698H111.333ZM105.358 215.693L91.5087 207.792L91.0131 208.66L104.862 216.562L105.358 215.693ZM91.6878 208.486C94.6707 203.592 96.3887 197.845 96.3887 191.698H95.3887C95.3887 197.656 93.724 203.224 90.8339 207.966L91.6878 208.486ZM96.3887 191.698C96.3887 173.837 81.887 159.359 63.9998 159.359V160.359C81.3362 160.359 95.3887 174.391 95.3887 191.698H96.3887ZM63.9998 159.359C46.1127 159.359 31.6109 173.837 31.6109 191.698H32.6109C32.6109 174.391 46.6635 160.359 63.9998 160.359V159.359ZM31.6109 191.698C31.6109 209.559 46.1127 224.037 63.9998 224.037V223.037C46.6635 223.037 32.6109 209.005 32.6109 191.698H31.6109ZM66.2461 216.714C66.6963 216.497 66.6965 216.497 66.6966 216.497C66.6966 216.497 66.6967 216.498 66.6968 216.498C66.6969 216.498 66.697 216.498 66.697 216.498C66.6971 216.499 66.697 216.498 66.6968 216.498C66.6964 216.497 66.6954 216.495 66.694 216.492C66.691 216.485 66.6859 216.474 66.6792 216.458C66.6657 216.427 66.6454 216.377 66.6212 216.312C66.5728 216.18 66.5092 215.986 66.4531 215.741C66.3406 215.252 66.2605 214.574 66.3844 213.816C66.6256 212.338 67.664 210.415 71.1428 208.972L70.7598 208.048C67.018 209.6 65.7037 211.779 65.3975 213.654C65.2476 214.573 65.3451 215.385 65.4785 215.965C65.5454 216.257 65.622 216.492 65.6829 216.658C65.7134 216.74 65.7402 216.806 65.76 216.852C65.7699 216.875 65.7781 216.893 65.7842 216.907C65.7872 216.913 65.7897 216.919 65.7917 216.923C65.7927 216.925 65.7935 216.927 65.7942 216.928C65.7945 216.929 65.7948 216.93 65.7951 216.93C65.7952 216.931 65.7954 216.931 65.7955 216.931C65.7956 216.931 65.7958 216.932 66.2461 216.714ZM64.1067 191.618C63.1876 192.631 60.0002 196.137 58.865 200.825C58.2945 203.181 58.2402 205.843 59.2537 208.632C60.2666 211.42 62.3321 214.297 65.9386 217.109L66.5535 216.32C63.063 213.599 61.1296 210.867 60.1935 208.291C59.258 205.716 59.3047 203.258 59.8369 201.06C60.9071 196.641 63.9322 193.299 64.8473 192.29L64.1067 191.618ZM64.9455 192.098C64.9587 192.089 64.9577 192.091 64.9482 192.096C64.944 192.098 64.9272 192.107 64.9025 192.116C64.8938 192.12 64.8121 192.153 64.7015 192.147C64.638 192.143 64.5263 192.123 64.42 192.037C64.3048 191.944 64.2549 191.822 64.2403 191.723C64.2179 191.57 64.275 191.457 64.2779 191.45C64.292 191.419 64.3057 191.399 64.3092 191.393C64.312 191.389 64.3142 191.386 64.3154 191.384C64.3167 191.382 64.3174 191.381 64.3175 191.381C64.3176 191.381 64.3163 191.383 64.313 191.387C64.3098 191.391 64.3055 191.396 64.2999 191.403C64.2885 191.416 64.2737 191.433 64.2548 191.454C64.2167 191.497 64.1678 191.551 64.1067 191.618L64.8473 192.29C64.9573 192.169 65.0619 192.055 65.1144 191.985C65.1238 191.973 65.1607 191.925 65.1887 191.863C65.1942 191.851 65.2526 191.733 65.2296 191.577C65.2149 191.477 65.1643 191.353 65.0481 191.259C64.9407 191.173 64.8276 191.153 64.7622 191.149C64.6479 191.142 64.5609 191.176 64.5453 191.182C64.5135 191.195 64.4881 191.208 64.4734 191.216C64.4431 191.232 64.4145 191.25 64.3929 191.265L64.9455 192.098ZM56.0281 206.776C55.8959 205.656 55.6597 203.648 56.6643 201.103C57.6698 198.555 59.9427 195.412 64.9453 192.098L64.3931 191.265C59.2621 194.663 56.8315 197.955 55.7342 200.736C54.636 203.518 54.8977 205.73 55.035 206.893L56.0281 206.776ZM54.648 207.929C54.8342 208.059 55.0262 208.179 55.2064 208.235C55.2998 208.264 55.4411 208.292 55.5979 208.253C55.7775 208.208 55.9072 208.092 55.9839 207.958C56.0504 207.842 56.0722 207.722 56.0813 207.639C56.091 207.55 56.0905 207.458 56.0866 207.373C56.0788 207.204 56.0539 206.995 56.0281 206.776L55.035 206.893C55.0625 207.126 55.0819 207.294 55.0876 207.419C55.0905 207.48 55.089 207.514 55.0872 207.53C55.0849 207.552 55.0847 207.516 55.1162 207.461C55.134 207.43 55.1629 207.391 55.2076 207.356C55.2533 207.319 55.3043 207.295 55.3544 207.283C55.4023 207.271 55.4414 207.271 55.4652 207.273C55.4884 207.275 55.5017 207.279 55.5023 207.28C55.5033 207.28 55.4972 207.278 55.4826 207.271C55.4684 207.265 55.449 207.255 55.4236 207.24C55.3723 207.211 55.3058 207.169 55.2208 207.109L54.648 207.929ZM53.1403 176.463C52.8299 176.452 52.5126 176.556 52.2174 176.707C51.9156 176.86 51.5976 177.082 51.274 177.356C50.6261 177.904 49.917 178.692 49.2228 179.664C47.8334 181.608 46.4691 184.334 45.7664 187.46C45.0631 190.588 45.0202 194.131 46.2953 197.689C47.5718 201.25 50.1561 204.79 54.648 207.929L55.2208 207.109C50.8772 204.074 48.4348 200.694 47.2367 197.351C46.0373 194.005 46.072 190.66 46.7421 187.679C47.4128 184.695 48.7175 182.09 50.0364 180.245C50.6962 179.322 51.351 178.6 51.9197 178.119C52.2044 177.879 52.4579 177.706 52.6711 177.598C52.8909 177.486 53.0322 177.46 53.1043 177.463L53.1403 176.463ZM53.5101 177.687C53.5518 177.502 53.5893 177.336 53.6108 177.216C53.6207 177.161 53.6323 177.089 53.6345 177.022C53.6353 176.995 53.6372 176.922 53.6137 176.838C53.5956 176.774 53.4867 176.476 53.1404 176.463L53.1042 177.463C52.9606 177.457 52.8382 177.391 52.7566 177.3C52.6874 177.223 52.6612 177.145 52.6512 177.11C52.6399 177.07 52.6369 177.038 52.6358 177.023C52.6346 177.007 52.6348 176.995 52.635 176.99C52.6354 176.979 52.6356 176.989 52.6266 177.039C52.6099 177.132 52.5785 177.272 52.5345 177.467L53.5101 177.687ZM53.5368 182.943C53.1205 182.325 53.0134 181.372 53.0801 180.331C53.1454 179.311 53.3684 178.317 53.5101 177.687L52.5345 177.467C52.3938 178.093 52.1531 179.159 52.0821 180.267C52.0125 181.354 52.0965 182.595 52.7078 183.502L53.5368 182.943ZM62.2532 179.714C61.5342 182.073 59.9071 183.786 58.1947 184.445C57.3426 184.773 56.4804 184.836 55.6914 184.61C54.9066 184.384 54.1554 183.86 53.5368 182.943L52.7078 183.502C53.4435 184.592 54.3812 185.273 55.4151 185.571C56.4449 185.867 57.5316 185.771 58.5537 185.378C60.5897 184.595 62.4129 182.619 63.2097 180.006L62.2532 179.714ZM57.677 167.608C59.4411 168.97 64.3644 172.788 62.2532 179.714L63.2097 180.006C65.5318 172.388 60.0404 168.169 58.288 166.816L57.677 167.608ZM57.5002 166.183C57.4545 166.184 57.3526 166.187 57.2449 166.235C57.1851 166.261 57.1043 166.31 57.037 166.397C56.9653 166.49 56.9315 166.598 56.9282 166.701C56.9228 166.877 57.0054 167.002 57.0309 167.039C57.0676 167.093 57.1092 167.138 57.1408 167.169C57.2574 167.286 57.4628 167.443 57.677 167.608L58.288 166.816C58.0429 166.627 57.9067 166.521 57.8478 166.462C57.8355 166.45 57.8437 166.456 57.858 166.477C57.8611 166.482 57.9325 166.579 57.9278 166.732C57.9249 166.825 57.8943 166.923 57.829 167.008C57.7681 167.087 57.6968 167.128 57.6496 167.149C57.6031 167.17 57.5648 167.177 57.5462 167.18C57.526 167.183 57.5124 167.183 57.5087 167.183L57.5002 166.183ZM72.4296 195.001C74.613 194.115 76.3129 191.799 77.2687 188.951C78.2304 186.085 78.4736 182.589 77.6634 179.203C76.8518 175.811 74.9798 172.519 71.7052 170.091C68.4312 167.664 63.7942 166.131 57.5003 166.183L57.5087 167.183C63.6348 167.132 68.0463 168.624 71.1097 170.895C74.1725 173.165 75.9269 176.243 76.6908 179.436C77.4562 182.635 77.2243 185.94 76.3207 188.632C75.4111 191.343 73.8555 193.343 72.0536 194.074L72.4296 195.001ZM80.5417 184.585C80.6247 189.852 77.6502 192.567 75.0903 193.807C73.7948 194.434 72.6363 194.668 72.0662 194.669C71.9985 194.67 71.9448 194.666 71.9045 194.662C71.8846 194.659 71.8694 194.657 71.8586 194.655C71.8475 194.652 71.843 194.651 71.8435 194.651C71.8438 194.651 71.8531 194.654 71.8682 194.662C71.8829 194.671 71.9092 194.687 71.9383 194.716C72.0067 194.784 72.0667 194.901 72.0542 195.041C72.0439 195.156 71.9899 195.22 71.9833 195.228C71.9732 195.24 71.9767 195.232 72.0116 195.208C72.0808 195.16 72.2121 195.089 72.4296 195.001L72.0536 194.074C71.8049 194.175 71.5985 194.278 71.444 194.385C71.367 194.438 71.2872 194.502 71.2204 194.581C71.1572 194.656 71.0733 194.781 71.0581 194.952C71.0407 195.147 71.1207 195.313 71.2322 195.424C71.3295 195.521 71.4428 195.571 71.524 195.599C71.6883 195.654 71.8827 195.67 72.0693 195.669C72.8267 195.667 74.1339 195.381 75.5262 194.707C78.342 193.343 81.6322 190.32 81.5415 184.569L80.5417 184.585ZM71.1428 208.972C79.5574 205.483 82.1511 198.886 82.6326 193.413C82.8726 190.684 82.5905 188.229 82.2492 186.557C82.079 185.723 81.8915 185.072 81.7408 184.672C81.7028 184.571 81.665 184.48 81.6281 184.404C81.596 184.337 81.5483 184.246 81.4837 184.171C81.4588 184.142 81.3791 184.051 81.2441 184.003C81.165 183.975 81.0544 183.958 80.9318 183.992C80.8089 184.026 80.7228 184.098 80.6691 184.164C80.5778 184.276 80.5573 184.397 80.5511 184.435C80.5423 184.491 80.541 184.544 80.5417 184.585L81.5415 184.569C81.5414 184.559 81.5424 184.569 81.5387 184.593C81.5377 184.599 81.5252 184.696 81.4446 184.796C81.3963 184.855 81.3162 184.923 81.2 184.955C81.084 184.987 80.9807 184.971 80.9095 184.945C80.7903 184.903 80.7289 184.827 80.7244 184.822C80.7007 184.794 80.7028 184.787 80.7276 184.838C80.7475 184.88 80.7736 184.941 80.805 185.024C80.9314 185.36 81.106 185.956 81.2694 186.757C81.5955 188.354 81.8664 190.712 81.6365 193.325C81.1781 198.536 78.7399 204.74 70.7598 208.048L71.1428 208.972Z" fill="url(#paint4_linear_264_142)" mask="url(#path-7-inside-1_264_142)"/>
</g>
<g opacity="0.5">
<path d="M65.7222 215.91C65.7284 215.936 65.7346 215.963 65.7409 215.989L64.5311 191.473C59.4322 194.851 57.0411 198.106 55.9667 200.828C54.8922 203.55 55.1472 205.711 55.2831 206.863L55.2833 206.864C55.3103 207.094 55.3312 207.271 55.3374 207.407C55.3386 207.434 55.3392 207.458 55.3392 207.479C55.2771 207.447 55.1919 207.394 55.0776 207.315C50.6969 204.253 48.2191 200.833 47.0014 197.436C45.783 194.037 45.8198 190.642 46.4982 187.624C47.1769 184.605 48.4965 181.97 49.833 180.1C50.5014 179.165 51.1698 178.427 51.7583 177.929C52.0527 177.68 52.3223 177.495 52.5577 177.375C52.6609 177.323 52.754 177.284 52.8372 177.258C52.8209 177.334 52.8011 177.422 52.7784 177.523L52.7774 177.527C52.6364 178.154 52.401 179.2 52.3316 180.283C52.2627 181.359 52.3525 182.528 52.915 183.362C53.6215 184.409 54.5125 185.051 55.4842 185.331C56.4538 185.609 57.4843 185.522 58.4639 185.145C60.4191 184.393 62.1933 182.483 62.9706 179.933C65.2377 172.496 59.9016 168.378 58.1407 167.019L58.1352 167.015C58.0979 166.986 58.0626 166.959 58.0294 166.933C63.9281 166.968 68.2313 168.45 71.2586 170.694C74.3743 173.004 76.1581 176.135 76.934 179.378C77.7106 182.624 77.4759 185.976 76.5577 188.712C75.6366 191.457 74.0449 193.536 72.1476 194.306C71.9067 194.404 71.7191 194.499 71.5859 194.591C71.5194 194.637 71.4587 194.687 71.4112 194.743C71.3654 194.797 71.316 194.875 71.3071 194.974C71.2972 195.086 71.3422 195.181 71.4087 195.247C71.4682 195.307 71.5414 195.341 71.6039 195.362C71.7299 195.404 71.8922 195.42 72.0685 195.42C72.7791 195.417 74.0491 195.145 75.4173 194.482C77.9865 193.238 80.9563 190.587 81.2668 185.659C81.3477 185.955 81.4326 186.307 81.5144 186.707C81.8442 188.323 82.1179 190.705 81.8855 193.347C81.4213 198.624 78.9443 204.926 70.8556 208.28C67.1795 209.804 65.9342 211.919 65.6442 213.695C65.5008 214.573 65.594 215.352 65.7222 215.91ZM27.8054 222.54V160.856C28.9361 159.535 30.138 158.276 31.4054 157.086V190.188C31.3822 190.688 31.3704 191.192 31.3704 191.698C31.3704 192.205 31.3822 192.708 31.4054 193.209V226.31C30.138 225.12 28.9361 223.861 27.8054 222.54ZM63.5093 159.609C54.1639 159.609 45.7499 163.592 39.8776 169.95V150.738C46.9505 146.577 55.1955 144.19 63.9998 144.19C90.2798 144.19 111.583 165.46 111.583 191.698C111.583 217.936 90.2798 239.206 63.9998 239.206C55.1955 239.206 46.9505 236.819 39.8776 232.658V213.446C45.7499 219.804 54.1639 223.787 63.5093 223.787C81.2587 223.787 95.6482 209.421 95.6482 191.698C95.6482 173.976 81.2587 159.609 63.5093 159.609ZM16.4165 191.698C16.4165 184.856 17.8649 178.353 20.4721 172.476V210.92C17.8649 205.043 16.4165 198.54 16.4165 191.698Z" stroke="url(#paint5_linear_264_142)" stroke-width="0.5"/>
</g>
<mask id="path-10-inside-2_264_142" fill="white">
<path fill-rule="evenodd" clip-rule="evenodd" d="M59.4441 139.743C62.2631 138.118 65.7363 138.118 68.5553 139.743L106.787 161.781C109.606 163.406 111.342 166.409 111.342 169.659V181.979L79.5714 163.907C74.9662 161.329 69.6549 159.859 63.9997 159.859C55.0769 159.859 47.01 163.518 41.2221 169.415V150.247L59.4441 139.743ZM32.1108 155.499L21.2125 161.781C18.3936 163.406 16.657 166.409 16.657 169.659V213.736C16.657 216.986 18.3935 219.989 21.2125 221.614L39.9247 232.401L56.7397 222.708C43.3411 219.593 33.1857 208.045 32.1909 193.972H32.1108L32.1108 155.499ZM59.1772 223.175L59.3191 223.42L59.6312 223.24C59.4795 223.219 59.3282 223.198 59.1772 223.175ZM49.0358 237.653L62.9208 229.649L62.7357 229.329L81.6751 218.411L81.5878 218.26C90.2057 212.56 95.8886 202.792 95.8886 191.698C95.8886 188.968 95.5444 186.318 94.897 183.789L111.342 193.269V213.736C111.342 216.986 109.606 219.989 106.787 221.614L68.5553 243.652C65.7363 245.277 62.2631 245.277 59.4441 243.652L49.0358 237.653ZM70.9512 208.51C63.7305 211.504 66.2459 216.714 66.2459 216.714C52.0519 205.648 62.6427 193.976 64.4769 191.954C64.7186 191.688 64.8082 191.589 64.6691 191.681C54.5355 198.394 55.262 204.551 55.5314 206.834C55.6381 207.738 55.6731 208.035 54.9343 207.519C37.2633 195.171 50.0623 176.852 53.1222 176.963C53.1601 176.964 53.1078 177.196 53.0222 177.577C52.7398 178.832 52.0946 181.698 53.1222 183.222C55.8308 187.238 61.2155 184.832 62.7313 179.86C64.948 172.588 59.7406 168.569 57.9824 167.212C57.5231 166.858 57.2991 166.685 57.5043 166.683C82.3445 166.475 80.2121 191.303 72.2415 194.537C68.5122 196.051 81.2152 195.595 81.0415 184.577C81.015 182.909 87.3458 201.713 70.9512 208.51Z"/>
</mask>
<path fill-rule="evenodd" clip-rule="evenodd" d="M59.4441 139.743C62.2631 138.118 65.7363 138.118 68.5553 139.743L106.787 161.781C109.606 163.406 111.342 166.409 111.342 169.659V181.979L79.5714 163.907C74.9662 161.329 69.6549 159.859 63.9997 159.859C55.0769 159.859 47.01 163.518 41.2221 169.415V150.247L59.4441 139.743ZM32.1108 155.499L21.2125 161.781C18.3936 163.406 16.657 166.409 16.657 169.659V213.736C16.657 216.986 18.3935 219.989 21.2125 221.614L39.9247 232.401L56.7397 222.708C43.3411 219.593 33.1857 208.045 32.1909 193.972H32.1108L32.1108 155.499ZM59.1772 223.175L59.3191 223.42L59.6312 223.24C59.4795 223.219 59.3282 223.198 59.1772 223.175ZM49.0358 237.653L62.9208 229.649L62.7357 229.329L81.6751 218.411L81.5878 218.26C90.2057 212.56 95.8886 202.792 95.8886 191.698C95.8886 188.968 95.5444 186.318 94.897 183.789L111.342 193.269V213.736C111.342 216.986 109.606 219.989 106.787 221.614L68.5553 243.652C65.7363 245.277 62.2631 245.277 59.4441 243.652L49.0358 237.653ZM70.9512 208.51C63.7305 211.504 66.2459 216.714 66.2459 216.714C52.0519 205.648 62.6427 193.976 64.4769 191.954C64.7186 191.688 64.8082 191.589 64.6691 191.681C54.5355 198.394 55.262 204.551 55.5314 206.834C55.6381 207.738 55.6731 208.035 54.9343 207.519C37.2633 195.171 50.0623 176.852 53.1222 176.963C53.1601 176.964 53.1078 177.196 53.0222 177.577C52.7398 178.832 52.0946 181.698 53.1222 183.222C55.8308 187.238 61.2155 184.832 62.7313 179.86C64.948 172.588 59.7406 168.569 57.9824 167.212C57.5231 166.858 57.2991 166.685 57.5043 166.683C82.3445 166.475 80.2121 191.303 72.2415 194.537C68.5122 196.051 81.2152 195.595 81.0415 184.577C81.015 182.909 87.3458 201.713 70.9512 208.51Z" fill="url(#paint6_linear_264_142)" fill-opacity="0.3"/>
<path d="M68.5553 139.743L68.805 139.31L68.5553 139.743ZM59.4441 139.743L59.1944 139.31L59.1944 139.31L59.4441 139.743ZM106.787 161.781L107.037 161.348L107.037 161.348L106.787 161.781ZM111.342 181.979L111.095 182.414L111.842 182.839V181.979H111.342ZM79.5714 163.907L79.8187 163.472L79.8157 163.47L79.5714 163.907ZM41.2221 169.415H40.7221V170.638L41.5789 169.765L41.2221 169.415ZM41.2221 150.247L40.9724 149.814L40.7221 149.958V150.247H41.2221ZM21.2125 161.781L20.9628 161.348L20.9628 161.348L21.2125 161.781ZM32.1108 155.499H32.6108V154.634L31.8611 155.066L32.1108 155.499ZM21.2125 221.614L20.9628 222.047L20.9628 222.047L21.2125 221.614ZM39.9247 232.401L39.675 232.834L39.9247 232.978L40.1744 232.834L39.9247 232.401ZM56.7397 222.708L56.9895 223.141L58.0878 222.508L56.853 222.221L56.7397 222.708ZM32.1909 193.972L32.6897 193.937L32.6568 193.472H32.1909V193.972ZM32.1108 193.972H31.6108V194.472H32.1108V193.972ZM59.1772 223.175L59.252 222.68L58.2237 222.525L58.7443 223.425L59.1772 223.175ZM59.3191 223.42L58.8862 223.67L59.1362 224.103L59.5688 223.853L59.3191 223.42ZM59.6312 223.24L59.8809 223.673L61.1479 222.943L59.6989 222.745L59.6312 223.24ZM62.9208 229.649L63.1705 230.082L63.6043 229.832L63.3537 229.398L62.9208 229.649ZM49.0358 237.653L48.7861 237.219L48.0346 237.653L48.7861 238.086L49.0358 237.653ZM62.7357 229.329L62.486 228.896L62.0522 229.146L62.3029 229.579L62.7357 229.329ZM81.6751 218.411L81.9248 218.844L82.3586 218.594L82.108 218.161L81.6751 218.411ZM81.5878 218.26L81.3119 217.843L80.9192 218.103L81.1549 218.51L81.5878 218.26ZM94.897 183.789L95.1467 183.356L94.1182 182.763L94.4126 183.913L94.897 183.789ZM111.342 193.269H111.842V192.98L111.592 192.836L111.342 193.269ZM106.787 221.614L107.037 222.047L107.037 222.047L106.787 221.614ZM68.5553 243.652L68.805 244.086L68.805 244.086L68.5553 243.652ZM59.4441 243.652L59.1944 244.086L59.1944 244.086L59.4441 243.652ZM66.2459 216.714L65.9385 217.108L66.6962 216.497L66.2459 216.714ZM70.9512 208.51L70.7597 208.048L70.7597 208.048L70.9512 208.51ZM64.4769 191.954L64.1066 191.618L64.1066 191.618L64.4769 191.954ZM64.6691 191.681L64.9452 192.098L64.9453 192.098L64.6691 191.681ZM55.5314 206.834L55.0348 206.893L55.0348 206.893L55.5314 206.834ZM54.9343 207.519L55.2207 207.109L55.2207 207.109L54.9343 207.519ZM53.1222 176.963L53.1041 177.462L53.1041 177.462L53.1222 176.963ZM53.0222 177.577L53.5094 177.689L53.51 177.687L53.0222 177.577ZM53.0222 177.577L52.535 177.465L52.5344 177.467L53.0222 177.577ZM53.1222 183.222L52.7076 183.501L52.7076 183.501L53.1222 183.222ZM62.7313 179.86L63.2096 180.006L63.2096 180.006L62.7313 179.86ZM57.9824 167.212L58.2878 166.816L58.2878 166.816L57.9824 167.212ZM57.5043 166.683L57.5001 166.183L57.5001 166.183L57.5043 166.683ZM72.2415 194.537L72.4295 195.001L72.4295 195.001L72.2415 194.537ZM81.0415 184.577L81.5414 184.569L81.5414 184.569L81.0415 184.577ZM68.805 139.31C65.8314 137.596 62.168 137.596 59.1944 139.31L59.6939 140.176C62.3583 138.64 65.6411 138.64 68.3056 140.176L68.805 139.31ZM107.037 161.348L68.805 139.31L68.3056 140.176L106.537 162.215L107.037 161.348ZM111.842 169.659C111.842 166.23 110.01 163.062 107.037 161.348L106.537 162.215C109.202 163.75 110.842 166.589 110.842 169.659H111.842ZM111.842 181.979V169.659H110.842V181.979H111.842ZM79.3242 164.341L111.095 182.414L111.59 181.544L79.8187 163.472L79.3242 164.341ZM63.9997 160.359C69.5672 160.359 74.7947 161.806 79.3272 164.343L79.8157 163.47C75.1377 160.852 69.7425 159.359 63.9997 159.359V160.359ZM41.5789 169.765C47.2766 163.96 55.2164 160.359 63.9997 160.359V159.359C54.9373 159.359 46.7434 163.076 40.8652 169.065L41.5789 169.765ZM40.7221 150.247V169.415H41.7221V150.247H40.7221ZM59.1944 139.31L40.9724 149.814L41.4718 150.68L59.6939 140.176L59.1944 139.31ZM21.4622 162.215L32.3605 155.932L31.8611 155.066L20.9628 161.348L21.4622 162.215ZM17.157 169.659C17.157 166.589 18.7979 163.75 21.4622 162.215L20.9628 161.348C17.9892 163.062 16.157 166.23 16.157 169.659H17.157ZM17.157 213.736V169.659H16.157V213.736H17.157ZM21.4622 221.181C18.7979 219.645 17.157 216.807 17.157 213.736H16.157C16.157 217.165 17.9892 220.333 20.9628 222.047L21.4622 221.181ZM40.1744 231.967L21.4622 221.181L20.9628 222.047L39.675 232.834L40.1744 231.967ZM40.1744 232.834L56.9895 223.141L56.49 222.275L39.675 231.967L40.1744 232.834ZM31.6922 194.007C32.7027 208.303 43.0179 220.031 56.6265 223.195L56.853 222.221C43.6643 219.155 33.6687 207.787 32.6897 193.937L31.6922 194.007ZM32.1108 194.472H32.1909V193.472H32.1108V194.472ZM31.6108 155.499V193.972H32.6108V155.499H31.6108ZM58.7443 223.425L58.8862 223.67L59.7519 223.17L59.61 222.925L58.7443 223.425ZM59.3815 222.807L59.0693 222.987L59.5688 223.853L59.8809 223.673L59.3815 222.807ZM59.1023 223.669C59.2557 223.692 59.4094 223.715 59.5634 223.736L59.6989 222.745C59.5496 222.724 59.4007 222.703 59.252 222.68L59.1023 223.669ZM62.6711 229.216L48.7861 237.219L49.2855 238.086L63.1705 230.082L62.6711 229.216ZM62.3029 229.579L62.488 229.899L63.3537 229.398L63.1686 229.078L62.3029 229.579ZM81.4254 217.978L62.486 228.896L62.9854 229.762L81.9248 218.844L81.4254 217.978ZM81.1549 218.51L81.2423 218.662L82.108 218.161L82.0206 218.01L81.1549 218.51ZM95.3886 191.698C95.3886 202.617 89.796 212.232 81.3119 217.843L81.8636 218.677C90.6153 212.889 96.3886 202.967 96.3886 191.698H95.3886ZM94.4126 183.913C95.0497 186.401 95.3886 189.01 95.3886 191.698H96.3886C96.3886 188.925 96.0391 186.234 95.3814 183.665L94.4126 183.913ZM111.592 192.836L95.1467 183.356L94.6473 184.222L111.093 193.702L111.592 192.836ZM111.842 213.736V193.269H110.842V213.736H111.842ZM107.037 222.047C110.01 220.333 111.842 217.165 111.842 213.736H110.842C110.842 216.807 109.202 219.645 106.537 221.181L107.037 222.047ZM68.805 244.086L107.037 222.047L106.537 221.181L68.3056 243.219L68.805 244.086ZM59.1944 244.086C62.168 245.8 65.8314 245.8 68.805 244.086L68.3056 243.219C65.6411 244.755 62.3583 244.755 59.6939 243.219L59.1944 244.086ZM48.7861 238.086L59.1944 244.086L59.6939 243.219L49.2855 237.219L48.7861 238.086ZM66.2459 216.714C66.6962 216.497 66.6963 216.497 66.6964 216.497C66.6965 216.497 66.6966 216.497 66.6966 216.498C66.6968 216.498 66.6968 216.498 66.6969 216.498C66.697 216.498 66.6969 216.498 66.6967 216.498C66.6963 216.497 66.6953 216.495 66.6938 216.491C66.6908 216.485 66.6858 216.474 66.679 216.458C66.6655 216.426 66.6452 216.377 66.6211 216.311C66.5727 216.18 66.5091 215.985 66.453 215.741C66.3405 215.251 66.2604 214.574 66.3843 213.815C66.6255 212.338 67.6639 210.414 71.1427 208.972L70.7597 208.048C67.0178 209.6 65.7036 211.778 65.3973 213.654C65.2474 214.572 65.3449 215.384 65.4784 215.965C65.5453 216.256 65.6218 216.492 65.6828 216.657C65.7133 216.74 65.74 216.805 65.7598 216.852C65.7697 216.875 65.7779 216.893 65.784 216.906C65.7871 216.913 65.7896 216.919 65.7915 216.923C65.7925 216.925 65.7934 216.927 65.794 216.928C65.7944 216.929 65.7947 216.929 65.795 216.93C65.7951 216.93 65.7953 216.931 65.7953 216.931C65.7955 216.931 65.7956 216.931 66.2459 216.714ZM64.1066 191.618C63.1875 192.631 60.0001 196.136 58.8649 200.825C58.2943 203.181 58.2401 205.843 59.2535 208.632C60.2664 211.42 62.332 214.297 65.9385 217.108L66.5533 216.32C63.0628 213.598 61.1295 210.867 60.1934 208.29C59.2579 205.716 59.3046 203.258 59.8368 201.06C60.907 196.64 63.9321 193.299 64.8472 192.29L64.1066 191.618ZM64.9453 192.098C64.9585 192.089 64.9576 192.09 64.9481 192.095C64.9438 192.098 64.9271 192.107 64.9023 192.116C64.8937 192.119 64.812 192.153 64.7014 192.146C64.6379 192.143 64.5262 192.123 64.4199 192.037C64.3047 191.944 64.2547 191.822 64.2402 191.723C64.2177 191.57 64.2749 191.456 64.2778 191.45C64.2918 191.419 64.3055 191.398 64.3091 191.393C64.3119 191.389 64.314 191.386 64.3153 191.384C64.3165 191.382 64.3173 191.381 64.3174 191.381C64.3174 191.381 64.3161 191.383 64.3128 191.387C64.3097 191.391 64.3054 191.396 64.2997 191.402C64.2884 191.416 64.2735 191.433 64.2546 191.454C64.2166 191.497 64.1677 191.551 64.1066 191.618L64.8472 192.29C64.9572 192.169 65.0618 192.054 65.1143 191.985C65.1237 191.973 65.1605 191.925 65.1885 191.863C65.1941 191.851 65.2524 191.733 65.2295 191.577C65.2147 191.477 65.1641 191.353 65.048 191.259C64.9406 191.172 64.8274 191.152 64.7621 191.148C64.6478 191.141 64.5608 191.176 64.5451 191.182C64.5134 191.194 64.4879 191.207 64.4733 191.215C64.443 191.232 64.4144 191.25 64.3928 191.264L64.9453 192.098ZM56.0279 206.776C55.8958 205.656 55.6596 203.648 56.6642 201.102C57.6696 198.555 59.9426 195.412 64.9452 192.098L64.3929 191.264C59.262 194.663 56.8314 197.955 55.734 200.735C54.6358 203.518 54.8976 205.73 55.0348 206.893L56.0279 206.776ZM54.6479 207.929C54.8341 208.059 55.0261 208.179 55.2063 208.235C55.2996 208.263 55.4409 208.292 55.5978 208.253C55.7774 208.207 55.9071 208.092 55.9837 207.958C56.0503 207.842 56.0721 207.722 56.0812 207.639C56.0909 207.55 56.0904 207.458 56.0865 207.372C56.0787 207.204 56.0538 206.995 56.0279 206.776L55.0348 206.893C55.0623 207.126 55.0818 207.293 55.0875 207.418C55.0903 207.48 55.0888 207.514 55.0871 207.53C55.0847 207.552 55.0846 207.516 55.116 207.461C55.1338 207.43 55.1628 207.391 55.2074 207.355C55.2531 207.319 55.3041 207.295 55.3542 207.283C55.4022 207.271 55.4413 207.271 55.465 207.273C55.4883 207.275 55.5016 207.279 55.5022 207.279C55.5032 207.28 55.497 207.278 55.4825 207.271C55.4683 207.264 55.4488 207.255 55.4235 207.24C55.3721 207.211 55.3057 207.168 55.2207 207.109L54.6479 207.929ZM53.1402 176.463C52.8297 176.452 52.5125 176.556 52.2172 176.706C51.9155 176.86 51.5975 177.082 51.2738 177.356C50.626 177.904 49.9169 178.692 49.2226 179.663C47.8333 181.608 46.4689 184.334 45.7663 187.459C45.063 190.588 45.0201 194.131 46.2952 197.688C47.5716 201.25 50.156 204.79 54.6479 207.929L55.2207 207.109C50.877 204.074 48.4347 200.694 47.2366 197.351C46.0372 194.005 46.0719 190.659 46.742 187.679C47.4127 184.695 48.7174 182.09 50.0362 180.245C50.696 179.321 51.3508 178.6 51.9196 178.119C52.2042 177.878 52.4577 177.706 52.671 177.597C52.8908 177.486 53.0321 177.46 53.1041 177.462L53.1402 176.463ZM53.51 177.687C53.5517 177.501 53.5892 177.335 53.6106 177.216C53.6206 177.161 53.6322 177.089 53.6343 177.022C53.6352 176.995 53.6371 176.922 53.6135 176.838C53.5954 176.774 53.4865 176.475 53.1402 176.463L53.1041 177.462C52.9605 177.457 52.8382 177.391 52.7565 177.3C52.6873 177.223 52.661 177.145 52.651 177.109C52.6398 177.07 52.6367 177.038 52.6357 177.023C52.6345 177.006 52.6347 176.994 52.6349 176.99C52.6352 176.978 52.6355 176.989 52.6264 177.039C52.6098 177.131 52.5784 177.272 52.5344 177.467L53.51 177.687ZM53.5094 177.689L53.5094 177.689L52.535 177.464L52.535 177.465L53.5094 177.689ZM53.5367 182.942C53.1204 182.325 53.0132 181.372 53.0799 180.331C53.1452 179.311 53.3683 178.316 53.51 177.687L52.5344 177.467C52.3937 178.092 52.1529 179.158 52.082 180.267C52.0123 181.353 52.0964 182.595 52.7076 183.501L53.5367 182.942ZM62.2531 179.714C61.5341 182.072 59.907 183.786 58.1945 184.445C57.3424 184.772 56.4803 184.836 55.6913 184.609C54.9064 184.384 54.1553 183.859 53.5367 182.942L52.7076 183.501C53.4433 184.592 54.381 185.273 55.415 185.57C56.4448 185.866 57.5314 185.771 58.5536 185.378C60.5896 184.595 62.4128 182.619 63.2096 180.006L62.2531 179.714ZM57.6769 167.608C59.4409 168.969 64.3643 172.788 62.2531 179.714L63.2096 180.006C65.5317 172.388 60.0403 168.169 58.2878 166.816L57.6769 167.608ZM57.5001 166.183C57.4544 166.183 57.3524 166.187 57.2448 166.234C57.1849 166.261 57.1042 166.309 57.0369 166.397C56.9652 166.49 56.9313 166.598 56.9281 166.701C56.9227 166.876 57.0053 167.001 57.0308 167.039C57.0674 167.093 57.1091 167.137 57.1406 167.169C57.2573 167.285 57.4627 167.443 57.6769 167.608L58.2878 166.816C58.0427 166.627 57.9065 166.52 57.8477 166.462C57.8354 166.449 57.8435 166.456 57.8578 166.477C57.861 166.481 57.9324 166.579 57.9276 166.732C57.9248 166.824 57.8942 166.923 57.8289 167.007C57.768 167.086 57.6967 167.128 57.6495 167.149C57.6029 167.17 57.5647 167.177 57.546 167.18C57.5258 167.183 57.5122 167.183 57.5086 167.183L57.5001 166.183ZM72.4295 195.001C74.6129 194.115 76.3128 191.798 77.2686 188.95C78.2302 186.085 78.4734 182.589 77.6632 179.203C76.8516 175.811 74.9797 172.518 71.7051 170.091C68.4311 167.664 63.794 166.13 57.5001 166.183L57.5085 167.183C63.6347 167.132 68.0462 168.623 71.1096 170.894C74.1724 173.165 75.9267 176.242 76.6907 179.435C77.4561 182.635 77.2242 185.939 76.3205 188.632C75.411 191.343 73.8554 193.343 72.0535 194.074L72.4295 195.001ZM80.5415 184.585C80.6246 189.852 77.6501 192.567 75.0901 193.807C73.7946 194.434 72.6362 194.667 72.0661 194.669C71.9983 194.669 71.9447 194.666 71.9044 194.661C71.8844 194.659 71.8693 194.657 71.8585 194.654C71.8474 194.652 71.8428 194.65 71.8434 194.651C71.8436 194.651 71.853 194.654 71.868 194.662C71.8828 194.67 71.9091 194.687 71.9382 194.716C72.0065 194.784 72.0665 194.9 72.054 195.04C72.0438 195.155 71.9898 195.22 71.9831 195.227C71.973 195.239 71.9765 195.232 72.0114 195.208C72.0807 195.16 72.212 195.089 72.4295 195.001L72.0535 194.074C71.8048 194.175 71.5983 194.278 71.4439 194.384C71.3669 194.437 71.287 194.502 71.2203 194.581C71.157 194.655 71.0732 194.781 71.058 194.951C71.0405 195.147 71.1205 195.313 71.232 195.424C71.3294 195.521 71.4427 195.571 71.5239 195.598C71.6882 195.654 71.8825 195.67 72.0691 195.669C72.8265 195.667 74.1337 195.381 75.5261 194.707C78.3419 193.343 81.6321 190.32 81.5414 184.569L80.5415 184.585ZM71.1427 208.972C79.5572 205.483 82.151 198.886 82.6325 193.413C82.8725 190.684 82.5903 188.228 82.2491 186.557C82.0789 185.723 81.8914 185.071 81.7406 184.671C81.7027 184.571 81.6649 184.48 81.628 184.403C81.5959 184.337 81.5482 184.246 81.4836 184.171C81.4586 184.142 81.379 184.051 81.2439 184.003C81.1648 183.975 81.0543 183.957 80.9316 183.992C80.8087 184.026 80.7226 184.098 80.669 184.164C80.5776 184.276 80.5571 184.397 80.551 184.435C80.5421 184.491 80.5409 184.543 80.5415 184.585L81.5414 184.569C81.5412 184.558 81.5423 184.569 81.5385 184.592C81.5376 184.598 81.5251 184.696 81.4445 184.795C81.3962 184.855 81.3161 184.923 81.1998 184.955C81.0838 184.987 80.9806 184.97 80.9094 184.945C80.7901 184.903 80.7287 184.827 80.7243 184.821C80.7005 184.794 80.7026 184.787 80.7274 184.838C80.7473 184.879 80.7735 184.941 80.8048 185.024C80.9312 185.359 81.1059 185.956 81.2693 186.757C81.5953 188.354 81.8662 190.711 81.6363 193.325C81.1779 198.536 78.7398 204.739 70.7597 208.048L71.1427 208.972Z" fill="white" mask="url(#path-10-inside-2_264_142)"/>
<path d="M66.246 216.714C66.246 216.714 63.7306 211.504 70.9513 208.51C87.3459 201.713 81.0151 182.909 81.0416 184.577C81.2153 195.595 68.5123 196.051 72.2416 194.538C80.2122 191.303 82.3446 166.475 57.5044 166.683C57.2993 166.685 57.5232 166.858 57.9825 167.212C59.7407 168.569 64.9481 172.588 62.7314 179.86C61.2156 184.832 55.8309 187.238 53.1223 183.222C52.0947 181.698 52.7399 178.832 53.0223 177.577C53.1079 177.196 53.1602 176.964 53.1223 176.963C50.0624 176.852 37.2634 195.171 54.9344 207.519C55.6732 208.035 55.6382 207.738 55.5315 206.834C55.2621 204.551 54.5356 198.394 64.6692 191.681C64.8084 191.589 64.7187 191.688 64.477 191.954C62.6428 193.976 52.052 205.648 66.246 216.714Z" fill="white"/>
<path d="M165.333 230.304C174.17 230.304 181.333 223.152 181.333 214.329C181.333 205.506 174.17 198.354 165.333 198.354C156.497 198.354 149.333 205.506 149.333 214.329C149.333 223.152 156.497 230.304 165.333 230.304Z" fill="#14A1DE"/>
<path d="M193.407 220.985L196.26 205.842H197.303L194.448 220.985H193.407ZM197.708 220.985L200.573 205.842H201.615L198.749 220.985H197.708ZM203.177 211.167H192.344V210.169H203.177V211.167ZM202.396 216.721H191.552V215.734H202.396V216.721ZM210.312 205.78V220.985H209.073V207.351L204.948 208.879V207.704L210.104 205.78H210.312ZM226.364 216.097V217.158H215.625V216.44L222.636 205.842H223.677L222.197 208.412L217.145 216.097H226.364ZM224 205.842V220.985H222.76V205.842H224ZM233.656 206.748L228.407 220.985H227.073L232.803 205.842H233.729L233.656 206.748ZM238.427 220.985L233.167 206.748L233.093 205.842H234.021L239.76 220.985H238.427ZM237.489 215.639V216.741H229.437V215.639H237.489ZM247.312 205.78V220.985H246.073V207.351L241.948 208.879V207.704L247.104 205.78H247.312ZM257.989 220.985H254.552L254.573 219.894H257.989C259.08 219.894 260.017 219.65 260.803 219.166C261.593 218.673 262.205 217.994 262.636 217.127C263.065 216.261 263.281 215.254 263.281 214.111V212.696C263.281 211.822 263.156 211.032 262.907 210.325C262.663 209.618 262.312 209.015 261.855 208.516C261.396 208.01 260.847 207.621 260.208 207.351C259.576 207.081 258.868 206.945 258.083 206.945H254.489V205.842H258.083C259.028 205.842 259.892 206.005 260.677 206.331C261.469 206.651 262.153 207.115 262.729 207.725C263.312 208.328 263.76 209.052 264.073 209.899C264.392 210.744 264.552 211.688 264.552 212.728V214.111C264.552 215.15 264.392 216.094 264.073 216.94C263.76 217.785 263.312 218.511 262.729 219.114C262.145 219.717 261.455 220.181 260.656 220.507C259.857 220.826 258.969 220.985 257.989 220.985ZM255.125 205.842V220.985H253.844V205.842H255.125ZM277.251 219.894V220.985H268.719V219.894H277.251ZM269.104 205.842V220.985H267.823V205.842H269.104ZM276.188 212.634V213.726H268.719V212.634H276.188ZM277.197 205.842V206.945H268.719V205.842H277.197Z" fill="white"/>
<path d="M165.333 185.042C174.17 185.042 181.333 177.89 181.333 169.067C181.333 160.244 174.17 153.092 165.333 153.092C156.497 153.092 149.333 160.244 149.333 169.067C149.333 177.89 156.497 185.042 165.333 185.042Z" fill="#0066B0"/>
<path d="M193.407 175.723L196.26 160.58H197.303L194.448 175.723H193.407ZM197.708 175.723L200.573 160.58H201.615L198.749 175.723H197.708ZM203.177 165.905H192.344V164.907H203.177V165.905ZM202.396 171.459H191.552V170.472H202.396V171.459ZM213.656 166.852V169.4C213.656 170.509 213.552 171.477 213.344 172.302C213.136 173.119 212.829 173.8 212.427 174.34C212.031 174.874 211.545 175.272 210.969 175.536C210.399 175.799 209.747 175.931 209.011 175.931C208.427 175.931 207.892 175.848 207.407 175.682C206.92 175.516 206.487 175.263 206.104 174.922C205.729 174.576 205.409 174.142 205.145 173.623C204.881 173.102 204.68 172.492 204.541 171.792C204.403 171.085 204.333 170.288 204.333 169.4V166.852C204.333 165.735 204.437 164.771 204.645 163.96C204.861 163.15 205.167 162.476 205.563 161.942C205.965 161.408 206.455 161.014 207.031 160.757C207.608 160.494 208.26 160.362 208.989 160.362C209.573 160.362 210.108 160.449 210.593 160.622C211.087 160.788 211.521 161.038 211.896 161.371C212.277 161.704 212.597 162.13 212.855 162.65C213.119 163.163 213.316 163.77 213.448 164.47C213.587 165.171 213.656 165.964 213.656 166.852ZM212.416 169.545V166.696C212.416 166.009 212.368 165.385 212.271 164.823C212.18 164.263 212.045 163.77 211.864 163.347C211.684 162.923 211.455 162.571 211.177 162.286C210.907 162.002 210.587 161.791 210.219 161.652C209.857 161.506 209.448 161.434 208.989 161.434C208.427 161.434 207.931 161.548 207.5 161.776C207.076 161.998 206.723 162.331 206.437 162.774C206.153 163.212 205.937 163.759 205.792 164.418C205.653 165.077 205.584 165.836 205.584 166.696V169.545C205.584 170.225 205.628 170.846 205.719 171.407C205.809 171.961 205.948 172.454 206.136 172.884C206.323 173.314 206.552 173.678 206.823 173.977C207.101 174.267 207.42 174.489 207.781 174.642C208.149 174.787 208.559 174.861 209.011 174.861C209.587 174.861 210.087 174.746 210.511 174.517C210.935 174.282 211.288 173.938 211.573 173.487C211.857 173.03 212.069 172.471 212.208 171.812C212.347 171.146 212.416 170.392 212.416 169.545ZM225.489 166.852V169.4C225.489 170.509 225.385 171.477 225.177 172.302C224.969 173.119 224.663 173.8 224.26 174.34C223.864 174.874 223.379 175.272 222.803 175.536C222.232 175.799 221.58 175.931 220.844 175.931C220.26 175.931 219.725 175.848 219.24 175.682C218.753 175.516 218.32 175.263 217.937 174.922C217.563 174.576 217.243 174.142 216.979 173.623C216.715 173.102 216.513 172.492 216.375 171.792C216.236 171.085 216.167 170.288 216.167 169.4V166.852C216.167 165.735 216.271 164.771 216.479 163.96C216.695 163.15 217 162.476 217.396 161.942C217.799 161.408 218.288 161.014 218.864 160.757C219.441 160.494 220.093 160.362 220.823 160.362C221.407 160.362 221.941 160.449 222.427 160.622C222.92 160.788 223.355 161.038 223.729 161.371C224.111 161.704 224.431 162.13 224.688 162.65C224.952 163.163 225.149 163.77 225.281 164.47C225.42 165.171 225.489 165.964 225.489 166.852ZM224.251 169.545V166.696C224.251 166.009 224.201 165.385 224.104 164.823C224.013 164.263 223.879 163.77 223.697 163.347C223.517 162.923 223.288 162.571 223.011 162.286C222.74 162.002 222.42 161.791 222.052 161.652C221.691 161.506 221.281 161.434 220.823 161.434C220.26 161.434 219.764 161.548 219.333 161.776C218.909 161.998 218.556 162.331 218.271 162.774C217.987 163.212 217.771 163.759 217.625 164.418C217.487 165.077 217.416 165.836 217.416 166.696V169.545C217.416 170.225 217.461 170.846 217.552 171.407C217.643 171.961 217.781 172.454 217.969 172.884C218.156 173.314 218.385 173.678 218.656 173.977C218.935 174.267 219.253 174.489 219.615 174.642C219.983 174.787 220.392 174.861 220.844 174.861C221.42 174.861 221.92 174.746 222.344 174.517C222.768 174.282 223.121 173.938 223.407 173.487C223.691 173.03 223.903 172.471 224.041 171.812C224.18 171.146 224.251 170.392 224.251 169.545ZM235.355 160.466H235.531V161.558H235.355C234.396 161.558 233.541 161.715 232.792 162.026C232.048 162.338 231.42 162.789 230.907 163.379C230.399 163.96 230.013 164.667 229.749 165.499C229.487 166.331 229.355 167.265 229.355 168.298V170.388C229.355 171.088 229.448 171.716 229.636 172.27C229.823 172.819 230.083 173.286 230.416 173.674C230.749 174.063 231.139 174.357 231.584 174.558C232.028 174.759 232.507 174.861 233.021 174.861C233.528 174.861 233.983 174.755 234.385 174.548C234.788 174.34 235.128 174.049 235.407 173.674C235.691 173.3 235.907 172.87 236.052 172.385C236.205 171.892 236.281 171.366 236.281 170.804C236.281 170.27 236.212 169.767 236.073 169.296C235.941 168.817 235.736 168.395 235.459 168.027C235.18 167.66 234.833 167.372 234.416 167.163C234 166.956 233.511 166.852 232.948 166.852C232.309 166.852 231.712 166.997 231.156 167.289C230.601 167.58 230.145 167.967 229.792 168.453C229.444 168.939 229.26 169.469 229.24 170.044L228.521 170.035C228.569 169.383 228.719 168.797 228.969 168.276C229.219 167.749 229.548 167.302 229.959 166.934C230.375 166.56 230.851 166.277 231.385 166.082C231.927 165.881 232.511 165.78 233.136 165.78C233.864 165.78 234.5 165.912 235.041 166.176C235.591 166.439 236.045 166.803 236.407 167.267C236.775 167.725 237.048 168.256 237.229 168.859C237.416 169.456 237.511 170.087 237.511 170.752C237.511 171.479 237.407 172.16 237.197 172.791C236.996 173.415 236.697 173.962 236.303 174.433C235.913 174.905 235.441 175.272 234.885 175.536C234.337 175.799 233.715 175.931 233.021 175.931C232.257 175.931 231.573 175.786 230.969 175.494C230.364 175.203 229.847 174.801 229.416 174.288C228.993 173.774 228.667 173.186 228.437 172.52C228.215 171.848 228.104 171.129 228.104 170.368V169.036C228.104 167.746 228.253 166.578 228.552 165.531C228.851 164.477 229.299 163.572 229.896 162.817C230.5 162.061 231.253 161.482 232.156 161.08C233.065 160.671 234.132 160.466 235.355 160.466ZM247.188 160.466H247.364V161.558H247.188C246.229 161.558 245.375 161.715 244.625 162.026C243.881 162.338 243.253 162.789 242.74 163.379C242.232 163.96 241.847 164.667 241.584 165.499C241.32 166.331 241.188 167.265 241.188 168.298V170.388C241.188 171.088 241.281 171.716 241.469 172.27C241.656 172.819 241.917 173.286 242.251 173.674C242.584 174.063 242.972 174.357 243.416 174.558C243.861 174.759 244.34 174.861 244.855 174.861C245.361 174.861 245.816 174.755 246.219 174.548C246.621 174.34 246.961 174.049 247.24 173.674C247.524 173.3 247.74 172.87 247.885 172.385C248.039 171.892 248.115 171.366 248.115 170.804C248.115 170.27 248.045 169.767 247.907 169.296C247.775 168.817 247.569 168.395 247.292 168.027C247.013 167.66 246.667 167.372 246.251 167.163C245.833 166.956 245.344 166.852 244.781 166.852C244.143 166.852 243.545 166.997 242.989 167.289C242.435 167.58 241.979 167.967 241.625 168.453C241.277 168.939 241.093 169.469 241.073 170.044L240.355 170.035C240.403 169.383 240.552 168.797 240.803 168.276C241.052 167.749 241.381 167.302 241.792 166.934C242.208 166.56 242.684 166.277 243.219 166.082C243.76 165.881 244.344 165.78 244.969 165.78C245.697 165.78 246.333 165.912 246.875 166.176C247.424 166.439 247.879 166.803 248.24 167.267C248.608 167.725 248.881 168.256 249.063 168.859C249.251 169.456 249.344 170.087 249.344 170.752C249.344 171.479 249.24 172.16 249.031 172.791C248.829 173.415 248.531 173.962 248.136 174.433C247.747 174.905 247.275 175.272 246.719 175.536C246.171 175.799 245.548 175.931 244.855 175.931C244.091 175.931 243.407 175.786 242.803 175.494C242.197 175.203 241.68 174.801 241.251 174.288C240.827 173.774 240.5 173.186 240.271 172.52C240.048 171.848 239.937 171.129 239.937 170.368V169.036C239.937 167.746 240.087 166.578 240.385 165.531C240.684 164.477 241.132 163.572 241.729 162.817C242.333 162.061 243.087 161.482 243.989 161.08C244.899 160.671 245.965 160.466 247.188 160.466ZM257.563 168.443H253.292L253.271 167.362H256.948C257.697 167.362 258.337 167.254 258.864 167.04C259.392 166.824 259.792 166.506 260.063 166.082C260.34 165.652 260.479 165.125 260.479 164.501C260.479 163.863 260.344 163.336 260.073 162.921C259.803 162.497 259.396 162.186 258.855 161.985C258.312 161.784 257.632 161.683 256.812 161.683H253.625V175.723H252.344V160.58H256.812C257.584 160.58 258.275 160.656 258.885 160.809C259.496 160.961 260.017 161.201 260.448 161.527C260.879 161.853 261.205 162.266 261.427 162.765C261.656 163.256 261.771 163.846 261.771 164.533C261.771 165.156 261.632 165.722 261.355 166.228C261.076 166.727 260.684 167.135 260.177 167.455C259.677 167.766 259.076 167.961 258.375 168.038L257.563 168.443ZM257.469 175.723H252.885L253.541 174.632H257.469C258.219 174.632 258.857 174.506 259.385 174.256C259.92 174.001 260.329 173.636 260.615 173.165C260.899 172.693 261.041 172.132 261.041 171.479C261.041 170.904 260.917 170.388 260.667 169.93C260.416 169.473 260.035 169.112 259.521 168.849C259.007 168.579 258.355 168.443 257.563 168.443H254.907L254.927 167.362H258.688L258.917 167.746C259.597 167.816 260.191 168.027 260.697 168.38C261.212 168.728 261.608 169.168 261.885 169.702C262.171 170.236 262.312 170.822 262.312 171.459C262.312 172.374 262.108 173.151 261.697 173.789C261.295 174.42 260.729 174.902 260 175.235C259.277 175.561 258.435 175.723 257.469 175.723ZM274.073 166.852V169.4C274.073 170.509 273.969 171.477 273.76 172.302C273.552 173.119 273.247 173.8 272.844 174.34C272.448 174.874 271.961 175.272 271.385 175.536C270.816 175.799 270.163 175.931 269.427 175.931C268.844 175.931 268.309 175.848 267.823 175.682C267.337 175.516 266.903 175.263 266.521 174.922C266.145 174.576 265.827 174.142 265.563 173.623C265.299 173.102 265.097 172.492 264.959 171.792C264.82 171.085 264.749 170.288 264.749 169.4V166.852C264.749 165.735 264.855 164.771 265.063 163.96C265.277 163.15 265.584 162.476 265.979 161.942C266.381 161.408 266.872 161.014 267.448 160.757C268.024 160.494 268.677 160.362 269.407 160.362C269.989 160.362 270.524 160.449 271.011 160.622C271.504 160.788 271.937 161.038 272.312 161.371C272.695 161.704 273.013 162.13 273.271 162.65C273.535 163.163 273.732 163.77 273.864 164.47C274.004 165.171 274.073 165.964 274.073 166.852ZM272.833 169.545V166.696C272.833 166.009 272.785 165.385 272.688 164.823C272.597 164.263 272.461 163.77 272.281 163.347C272.101 162.923 271.872 162.571 271.593 162.286C271.323 162.002 271.004 161.791 270.636 161.652C270.275 161.506 269.864 161.434 269.407 161.434C268.844 161.434 268.347 161.548 267.917 161.776C267.493 161.998 267.139 162.331 266.855 162.774C266.569 163.212 266.355 163.759 266.208 164.418C266.069 165.077 266 165.836 266 166.696V169.545C266 170.225 266.045 170.846 266.136 171.407C266.225 171.961 266.364 172.454 266.552 172.884C266.74 173.314 266.969 173.678 267.24 173.977C267.517 174.267 267.837 174.489 268.197 174.642C268.565 174.787 268.976 174.861 269.427 174.861C270.004 174.861 270.504 174.746 270.927 174.517C271.351 174.282 271.705 173.938 271.989 173.487C272.275 173.03 272.487 172.471 272.625 171.812C272.764 171.146 272.833 170.392 272.833 169.545Z" fill="white"/>
<g opacity="0.33">
<path d="M62.6464 122.354C62.8417 122.549 63.1583 122.549 63.3536 122.354L66.5355 119.172C66.7308 118.976 66.7308 118.66 66.5355 118.464C66.3403 118.269 66.0237 118.269 65.8284 118.464L63 121.293L60.1716 118.464C59.9763 118.269 59.6597 118.269 59.4645 118.464C59.2692 118.66 59.2692 118.976 59.4645 119.172L62.6464 122.354ZM62.5 101L62.5 122L63.5 122L63.5 101L62.5 101Z" fill="white"/>
<path d="M164.646 138.354C164.842 138.549 165.158 138.549 165.354 138.354L168.536 135.172C168.731 134.976 168.731 134.66 168.536 134.464C168.34 134.269 168.024 134.269 167.828 134.464L165 137.293L162.172 134.464C161.976 134.269 161.66 134.269 161.464 134.464C161.269 134.66 161.269 134.976 161.464 135.172L164.646 138.354ZM164.5 110L164.5 138L165.5 138L165.5 110L164.5 110Z" fill="white"/>
<line x1="165" y1="110.5" x2="63" y2="110.5" stroke="white"/>
</g>
</g>
<defs>
<linearGradient id="paint0_linear_264_142" x1="96" y1="31.9497" x2="32.1007" y2="95.9496" gradientUnits="userSpaceOnUse">
<stop stop-color="#0066B0"/>
<stop offset="1" stop-color="#2ABDEA"/>
</linearGradient>
<linearGradient id="paint1_linear_264_142" x1="128" y1="255.597" x2="0.201414" y2="127.598" gradientUnits="userSpaceOnUse">
<stop stop-color="#0066B0"/>
<stop offset="1" stop-color="#2ABDEA"/>
</linearGradient>
<linearGradient id="paint2_linear_264_142" x1="118.667" y1="148.488" x2="37.326" y2="254.177" gradientUnits="userSpaceOnUse">
<stop stop-color="white"/>
<stop offset="1" stop-color="white"/>
</linearGradient>
<linearGradient id="paint3_linear_264_142" x1="107.278" y1="148.488" x2="20.8584" y2="235.044" gradientUnits="userSpaceOnUse">
<stop stop-color="white"/>
<stop offset="1" stop-color="white"/>
</linearGradient>
<linearGradient id="paint4_linear_264_142" x1="111.833" y1="143.94" x2="9.73666" y2="239.39" gradientUnits="userSpaceOnUse">
<stop stop-color="white"/>
<stop offset="1" stop-color="white"/>
</linearGradient>
<linearGradient id="paint5_linear_264_142" x1="111.833" y1="143.94" x2="16.3171" y2="239.607" gradientUnits="userSpaceOnUse">
<stop stop-color="white"/>
<stop offset="1" stop-color="white"/>
</linearGradient>
<linearGradient id="paint6_linear_264_142" x1="111.342" y1="138.524" x2="5.70886" y2="232.575" gradientUnits="userSpaceOnUse">
<stop stop-color="white"/>
<stop offset="1" stop-color="white"/>
</linearGradient>
<clipPath id="clip0_264_142">
<rect width="320" height="255.597" fill="white"/>
</clipPath>
<clipPath id="clip1_264_142">
<rect width="109.333" height="109.161" fill="white" transform="translate(9.33325 137.117)"/>
</clipPath>
<clipPath id="clip2_264_142">
<rect width="109.333" height="109.161" fill="white" transform="translate(9.33325 137.117)"/>
</clipPath>
</defs>
</svg>
