<svg width="1200" height="630" viewBox="0 0 1200 630" fill="none" xmlns="http://www.w3.org/2000/svg">
<g clip-path="url(#clip0_21_45)">
<rect width="1200" height="630" fill="url(#paint0_linear_21_45)"/>
<rect width="1200" height="630" fill="url(#paint1_linear_21_45)"/>
<g filter="url(#filter0_d_21_45)">
<path fill-rule="evenodd" clip-rule="evenodd" d="M516.719 155L502 155C488.745 155 478 165.745 478 179L478 451C478 464.255 488.745 475 502 475H516.719V155ZM530.384 475H672.107C680.943 475 688.107 467.837 688.107 459L688.107 171C688.107 162.163 680.943 155 672.107 155L530.384 155V475Z" fill="#473F45"/>
<path fill-rule="evenodd" clip-rule="evenodd" d="M611.875 315.163C611.875 326.745 602.588 336.133 591.133 336.133C579.678 336.133 570.39 326.742 570.39 315.163C570.39 303.584 579.677 294.193 591.133 294.193C602.589 294.193 611.875 303.582 611.875 315.163ZM634.63 315.163C634.63 326.065 629.987 334.905 624.259 334.905C618.531 334.905 613.887 326.065 613.887 315.163C613.887 304.262 618.53 295.421 624.258 295.421C629.986 295.421 634.629 304.259 634.629 315.163H634.63ZM643.937 315.163C643.937 324.928 642.304 332.849 640.29 332.849C638.275 332.849 636.643 324.93 636.643 315.163C636.643 305.396 638.276 297.478 640.29 297.478C642.304 297.478 643.937 305.396 643.937 315.163Z" fill="white"/>
<path fill-rule="evenodd" clip-rule="evenodd" d="M721.132 192.011H702.911V419.769H721.132V192.011ZM712.903 451.655L721.132 419.769H702.911L712.315 451.655H712.903Z" fill="#473F45"/>
</g>
</g>
<defs>
<filter id="filter0_d_21_45" x="466" y="143" width="267.132" height="344" filterUnits="userSpaceOnUse" color-interpolation-filters="sRGB">
<feFlood flood-opacity="0" result="BackgroundImageFix"/>
<feColorMatrix in="SourceAlpha" type="matrix" values="0 0 0 0 0 0 0 0 0 0 0 0 0 0 0 0 0 0 127 0" result="hardAlpha"/>
<feOffset/>
<feGaussianBlur stdDeviation="6"/>
<feComposite in2="hardAlpha" operator="out"/>
<feColorMatrix type="matrix" values="0 0 0 0 0 0 0 0 0 0 0 0 0 0 0 0 0 0 0.25 0"/>
<feBlend mode="normal" in2="BackgroundImageFix" result="effect1_dropShadow_21_45"/>
<feBlend mode="normal" in="SourceGraphic" in2="effect1_dropShadow_21_45" result="shape"/>
</filter>
<linearGradient id="paint0_linear_21_45" x1="-17.5" y1="1.32484e-05" x2="1224" y2="630" gradientUnits="userSpaceOnUse">
<stop offset="0.406972" stop-color="#F6DAE1" stop-opacity="0"/>
<stop offset="0.833399" stop-color="#F6DAE1" stop-opacity="0.483332"/>
<stop offset="1" stop-color="#F6DAE1"/>
</linearGradient>
<linearGradient id="paint1_linear_21_45" x1="1162" y1="630" x2="6.91414e-06" y2="-1.27527e-05" gradientUnits="userSpaceOnUse">
<stop offset="0.192617" stop-color="#F6DAE1" stop-opacity="0"/>
<stop offset="0.694028" stop-color="#F6DAE1" stop-opacity="0"/>
<stop offset="1" stop-color="#CEEBEF"/>
</linearGradient>
<clipPath id="clip0_21_45">
<rect width="1200" height="630" fill="white"/>
</clipPath>
</defs>
</svg>
