<svg width="1200" height="630" viewBox="0 0 1200 630" fill="none" xmlns="http://www.w3.org/2000/svg">
<g clip-path="url(#clip0_27_78)">
<rect width="1200" height="630" fill="url(#paint0_linear_27_78)"/>
<rect width="1200" height="630" fill="url(#paint1_linear_27_78)"/>
<g filter="url(#filter0_d_27_78)">
<path fill-rule="evenodd" clip-rule="evenodd" d="M539.756 155H570.415L599.956 238.31L629.497 155H660.156L618.256 273.164H635.884C637.824 273.164 639.397 274.736 639.397 276.677C639.397 278.617 637.824 280.19 635.884 280.19H615.764H614.806H585.106H584.148H564.347C562.407 280.19 560.834 278.617 560.834 276.677C560.834 274.736 562.407 273.164 564.347 273.164H581.656L539.756 155ZM482 288.493C468.745 288.493 458 299.238 458 312.493V451C458 464.255 468.745 475 482 475H717.593C730.848 475 741.593 464.255 741.593 451V312.493C741.593 299.238 730.848 288.493 717.593 288.493H482Z" fill="#473F45"/>
<path d="M546.105 363.862C542.449 363.862 538.875 364.93 535.836 366.93C532.796 368.93 530.427 371.773 529.028 375.1C527.629 378.426 527.263 382.086 527.976 385.617C528.689 389.148 530.45 392.392 533.035 394.938C535.62 397.484 538.913 399.217 542.499 399.92C546.085 400.622 549.801 400.262 553.179 398.884C556.556 397.506 559.443 395.173 561.474 392.179C563.505 389.186 564.589 385.666 564.589 382.066C564.589 377.238 562.642 372.608 559.175 369.194C555.709 365.78 551.007 363.862 546.105 363.862ZM546.105 397.469C543.012 397.469 539.988 396.566 537.416 394.873C534.844 393.18 532.839 390.775 531.655 387.96C530.471 385.146 530.162 382.049 530.765 379.061C531.369 376.073 532.858 373.328 535.046 371.174C537.233 369.02 540.02 367.553 543.054 366.959C546.088 366.364 549.232 366.67 552.09 367.835C554.948 369.001 557.391 370.975 559.11 373.508C560.828 376.041 561.746 379.019 561.746 382.066C561.746 386.151 560.098 390.069 557.165 392.957C554.231 395.846 550.253 397.469 546.105 397.469Z" fill="white"/>
<path d="M538.698 381.702C538.83 381.833 538.987 381.937 539.161 382.008C539.334 382.079 539.52 382.116 539.708 382.116C539.895 382.116 540.081 382.079 540.254 382.008C540.428 381.937 540.585 381.833 540.717 381.702L544.059 378.411C544.686 377.784 545.069 376.959 545.14 376.081C545.21 375.203 544.963 374.328 544.443 373.612C543.923 372.895 543.163 372.383 542.296 372.164C541.43 371.946 540.513 372.036 539.708 372.418C538.901 372.012 537.973 371.905 537.092 372.116C536.212 372.328 535.438 372.843 534.911 373.569C534.384 374.295 534.139 375.183 534.221 376.072C534.303 376.96 534.706 377.79 535.357 378.411L538.698 381.702ZM537.361 375.065C537.448 374.976 537.551 374.905 537.666 374.856C537.781 374.808 537.905 374.783 538.03 374.783C538.155 374.783 538.278 374.808 538.393 374.856C538.508 374.905 538.612 374.976 538.698 375.065C538.83 375.196 538.987 375.3 539.161 375.371C539.334 375.442 539.52 375.479 539.708 375.479C539.895 375.479 540.081 375.442 540.254 375.371C540.428 375.3 540.585 375.196 540.717 375.065C540.804 374.977 540.908 374.908 541.023 374.861C541.138 374.814 541.261 374.789 541.385 374.789C541.51 374.789 541.633 374.814 541.748 374.861C541.862 374.908 541.966 374.977 542.054 375.065C542.144 375.15 542.216 375.252 542.265 375.365C542.314 375.478 542.339 375.6 542.339 375.723C542.339 375.846 542.314 375.967 542.265 376.081C542.216 376.194 542.144 376.296 542.054 376.381L539.708 378.733L537.361 376.465C537.271 376.38 537.199 376.278 537.15 376.165C537.101 376.051 537.076 375.93 537.076 375.807C537.076 375.684 537.101 375.562 537.15 375.449C537.199 375.336 537.271 375.234 537.361 375.149V375.065Z" fill="white"/>
<path d="M551.495 381.702C551.627 381.833 551.784 381.937 551.957 382.008C552.131 382.079 552.316 382.116 552.504 382.116C552.692 382.116 552.878 382.079 553.051 382.008C553.224 381.937 553.381 381.833 553.514 381.702L556.855 378.411C557.483 377.784 557.866 376.959 557.936 376.081C558.007 375.203 557.76 374.328 557.24 373.612C556.72 372.895 555.96 372.383 555.093 372.164C554.227 371.946 553.31 372.036 552.504 372.418C551.697 372.012 550.769 371.905 549.889 372.116C549.009 372.328 548.235 372.843 547.707 373.569C547.181 374.295 546.936 375.183 547.018 376.072C547.099 376.96 547.502 377.79 548.153 378.411L551.495 381.702ZM550.158 375.065C550.244 374.976 550.348 374.905 550.463 374.856C550.578 374.808 550.701 374.783 550.826 374.783C550.951 374.783 551.075 374.808 551.19 374.856C551.305 374.905 551.408 374.976 551.495 375.065C551.627 375.196 551.784 375.3 551.957 375.371C552.131 375.442 552.316 375.479 552.504 375.479C552.692 375.479 552.878 375.442 553.051 375.371C553.224 375.3 553.381 375.196 553.514 375.065C553.601 374.977 553.705 374.908 553.82 374.861C553.935 374.814 554.058 374.789 554.182 374.789C554.306 374.789 554.429 374.814 554.544 374.861C554.659 374.908 554.763 374.977 554.85 375.065C554.941 375.15 555.013 375.252 555.062 375.365C555.111 375.478 555.136 375.6 555.136 375.723C555.136 375.846 555.111 375.967 555.062 376.081C555.013 376.194 554.941 376.296 554.85 376.381L552.504 378.733L550.158 376.465C550.068 376.38 549.996 376.278 549.947 376.165C549.898 376.051 549.872 375.93 549.872 375.807C549.872 375.684 549.898 375.562 549.947 375.449C549.996 375.336 550.068 375.234 550.158 375.149V375.065Z" fill="white"/>
<path d="M556.058 383.466C555.681 383.466 555.319 383.614 555.053 383.876C554.786 384.139 554.636 384.495 554.636 384.867C554.636 388.731 550.811 391.868 546.105 391.868C541.399 391.868 537.574 388.731 537.574 384.867C537.574 384.495 537.424 384.139 537.157 383.876C536.891 383.614 536.529 383.466 536.152 383.466C535.775 383.466 535.413 383.614 535.147 383.876C534.88 384.139 534.73 384.495 534.73 384.867C534.73 390.272 539.835 394.669 546.105 394.669C552.375 394.669 557.48 390.272 557.48 384.867C557.48 384.495 557.33 384.139 557.064 383.876C556.797 383.614 556.435 383.466 556.058 383.466Z" fill="white"/>
<path d="M585.282 387.829H577.478L575.879 392.19H571.923L579.293 373.102H583.629L590.945 392.19H586.88L585.282 387.829ZM578.724 384.436H584.035L581.38 377.221L578.724 384.436Z" fill="white"/>
<path d="M600.122 388.744C600.899 388.744 601.639 388.627 602.344 388.394C603.048 388.143 603.663 387.766 604.186 387.263C604.71 386.761 605.126 386.133 605.433 385.379C605.74 384.607 605.893 383.701 605.893 382.66C605.893 381.619 605.74 380.721 605.433 379.967C605.126 379.196 604.71 378.558 604.186 378.056C603.681 377.553 603.075 377.176 602.371 376.925C601.666 376.674 600.926 376.548 600.149 376.548H597.141V388.744H600.122ZM593.402 392.19V373.102H600.285C601.657 373.102 602.922 373.318 604.078 373.748C605.234 374.179 606.228 374.807 607.059 375.633C607.908 376.441 608.567 377.437 609.037 378.621C609.524 379.806 609.768 381.152 609.768 382.66C609.768 384.167 609.524 385.513 609.037 386.698C608.567 387.882 607.908 388.879 607.059 389.686C606.21 390.494 605.207 391.113 604.051 391.544C602.895 391.975 601.63 392.19 600.257 392.19H593.402Z" fill="white"/>
<path d="M619.73 381.798C620.669 381.798 621.401 381.556 621.925 381.071C622.467 380.569 622.738 379.905 622.738 379.079C622.738 378.217 622.467 377.544 621.925 377.06C621.401 376.575 620.669 376.333 619.73 376.333H616.776V381.798H619.73ZM616.749 385.002V392.19H613.01V373.102H620.191C621.13 373.102 621.988 373.255 622.765 373.56C623.542 373.847 624.21 374.26 624.77 374.798C625.33 375.319 625.754 375.947 626.043 376.683C626.351 377.401 626.504 378.191 626.504 379.052C626.504 379.914 626.351 380.712 626.043 381.448C625.754 382.184 625.33 382.812 624.77 383.333C624.21 383.853 623.542 384.266 622.765 384.571C621.988 384.858 621.13 385.002 620.191 385.002H616.749Z" fill="white"/>
<path d="M629.363 392.19V373.102H633.103V388.636H641.665V392.19H629.363Z" fill="white"/>
<path d="M644.255 392.19V378.944H647.859V392.19H644.255ZM643.821 374.61C643.821 373.982 644.038 373.452 644.472 373.021C644.905 372.591 645.429 372.375 646.043 372.375C646.675 372.375 647.199 372.591 647.615 373.021C648.048 373.452 648.265 373.982 648.265 374.61C648.265 375.202 648.048 375.714 647.615 376.144C647.199 376.575 646.675 376.791 646.043 376.791C645.429 376.791 644.905 376.575 644.472 376.144C644.038 375.714 643.821 375.202 643.821 374.61Z" fill="white"/>
<path d="M653.668 387.829C653.704 388.349 653.921 388.816 654.318 389.229C654.716 389.641 655.312 389.848 656.107 389.848C656.703 389.848 657.145 389.722 657.434 389.471C657.723 389.202 657.868 388.888 657.868 388.529C657.868 388.223 657.759 387.963 657.543 387.748C657.326 387.515 656.956 387.344 656.432 387.236L654.67 386.833C653.37 386.545 652.421 386.052 651.825 385.352C651.229 384.634 650.931 383.808 650.931 382.875C650.931 382.283 651.057 381.726 651.31 381.206C651.563 380.667 651.907 380.21 652.34 379.833C652.792 379.438 653.316 379.124 653.912 378.891C654.526 378.657 655.194 378.541 655.917 378.541C656.856 378.541 657.651 378.675 658.301 378.944C658.952 379.196 659.476 379.519 659.873 379.914C660.289 380.308 660.596 380.73 660.794 381.179C660.993 381.61 661.11 382.004 661.147 382.363L658.139 383.036C658.103 382.839 658.04 382.642 657.949 382.444C657.877 382.229 657.75 382.031 657.57 381.852C657.389 381.672 657.163 381.529 656.892 381.421C656.639 381.314 656.323 381.26 655.944 381.26C655.474 381.26 655.068 381.385 654.725 381.637C654.399 381.888 654.237 382.202 654.237 382.579C654.237 382.902 654.345 383.162 654.562 383.36C654.797 383.557 655.095 383.692 655.456 383.763L657.353 384.167C658.672 384.436 659.656 384.939 660.307 385.675C660.975 386.411 661.309 387.263 661.309 388.232C661.309 388.771 661.201 389.3 660.984 389.821C660.785 390.341 660.469 390.808 660.036 391.221C659.602 391.634 659.06 391.966 658.41 392.217C657.759 392.468 657.001 392.594 656.134 392.594C655.122 392.594 654.273 392.45 653.587 392.163C652.9 391.876 652.34 391.526 651.907 391.113C651.473 390.7 651.148 390.261 650.931 389.794C650.732 389.309 650.615 388.879 650.579 388.502L653.668 387.829Z" fill="white"/>
<path d="M668.651 378.944H671.333V382.121H668.651V387.667C668.651 388.241 668.777 388.645 669.03 388.879C669.301 389.094 669.699 389.202 670.223 389.202C670.439 389.202 670.656 389.193 670.873 389.175C671.089 389.157 671.243 389.13 671.333 389.094V392.056C671.171 392.127 670.918 392.199 670.574 392.271C670.249 392.343 669.825 392.379 669.301 392.379C668 392.379 666.971 392.02 666.212 391.302C665.453 390.584 665.074 389.579 665.074 388.286V382.121H662.662V378.944H663.339C664.044 378.944 664.559 378.747 664.884 378.352C665.228 377.939 665.399 377.437 665.399 376.844V374.987H668.651V378.944Z" fill="white"/>
</g>
</g>
<defs>
<filter id="filter0_d_27_78" x="446" y="143" width="307.593" height="344" filterUnits="userSpaceOnUse" color-interpolation-filters="sRGB">
<feFlood flood-opacity="0" result="BackgroundImageFix"/>
<feColorMatrix in="SourceAlpha" type="matrix" values="0 0 0 0 0 0 0 0 0 0 0 0 0 0 0 0 0 0 127 0" result="hardAlpha"/>
<feOffset/>
<feGaussianBlur stdDeviation="6"/>
<feComposite in2="hardAlpha" operator="out"/>
<feColorMatrix type="matrix" values="0 0 0 0 0 0 0 0 0 0 0 0 0 0 0 0 0 0 0.25 0"/>
<feBlend mode="normal" in2="BackgroundImageFix" result="effect1_dropShadow_27_78"/>
<feBlend mode="normal" in="SourceGraphic" in2="effect1_dropShadow_27_78" result="shape"/>
</filter>
<linearGradient id="paint0_linear_27_78" x1="-17.5" y1="1.32484e-05" x2="1224" y2="630" gradientUnits="userSpaceOnUse">
<stop offset="0.406972" stop-color="#F6DAE1" stop-opacity="0"/>
<stop offset="0.833399" stop-color="#F6DAE1" stop-opacity="0.483332"/>
<stop offset="1" stop-color="#F6DAE1"/>
</linearGradient>
<linearGradient id="paint1_linear_27_78" x1="1162" y1="630" x2="6.91414e-06" y2="-1.27527e-05" gradientUnits="userSpaceOnUse">
<stop offset="0.192617" stop-color="#F6DAE1" stop-opacity="0"/>
<stop offset="0.694028" stop-color="#F6DAE1" stop-opacity="0"/>
<stop offset="1" stop-color="#CEEBEF"/>
</linearGradient>
<clipPath id="clip0_27_78">
<rect width="1200" height="630" fill="white"/>
</clipPath>
</defs>
</svg>
