<?xml version="1.0" encoding="UTF-8"?>
<svg width="1200px" height="800px" viewBox="0 0 1200 800" version="1.1" xmlns="http://www.w3.org/2000/svg" xmlns:xlink="http://www.w3.org/1999/xlink">
    <title>project_appscan</title>
    <g id="project_appscan" stroke="none" stroke-width="1" fill="none" fill-rule="evenodd">
        <rect id="Rectangle" fill="#E5E9F1" x="0" y="0" width="1200" height="800"></rect>
        <g id="Group" transform="translate(360.000000, 320.000000)" fill-rule="nonzero">
            <g id="Group-2">
                <g id="appscan_logo">
                    <g id="brand/logo/AS/dark" transform="translate(117.164861, 17.543402)" fill="#0066B0">
                        <path d="M0,66.1170593 L13.6648046,66.1170593 L18.4381268,51.9424569 L40.9944138,51.9424569 L45.8613306,66.1170593 L59.9005133,66.1170593 L36.4082808,0.466269812 L23.4922326,0.466269812 L0,66.1170593 Z M22.556287,40.0059499 L29.7630676,18.7440464 L36.8762534,40.0059499 L22.556287,40.0059499 Z M66.8265102,80.1984075 L80.1169367,80.1984075 L80.1169367,59.6825359 C82.9247732,63.4126943 86.9493389,67.0495988 93.6881467,67.0495988 C103.702764,67.0495988 112.781435,58.9365041 112.781435,41.8710291 L112.781435,40.3789656 C112.781435,23.3134905 103.609169,15.2003958 93.6881467,15.2003958 C87.0429335,15.2003958 83.0183676,18.8373004 80.1169367,23.0337287 L80.1169367,16.1329355 L66.8265102,16.1329355 L66.8265102,80.1984075 Z M89.7571754,55.4861076 C84.235097,55.4861076 79.9297475,50.0773778 79.9297475,41.5912671 L79.9297475,40.6587276 C79.9297475,32.1726169 84.235097,26.7638871 89.7571754,26.7638871 C95.279254,26.7638871 99.4910089,32.1726169 99.4910089,40.6587276 L99.4910089,41.5912671 C99.4910089,50.0773778 95.279254,55.4861076 89.7571754,55.4861076 Z M121.672918,80.1984075 L134.963344,80.1984075 L134.963344,59.6825359 C137.771181,63.4126943 141.795746,67.0495988 148.534554,67.0495988 C158.549171,67.0495988 167.627843,58.9365041 167.627843,41.8710291 L167.627843,40.3789656 C167.627843,23.3134905 158.455577,15.2003958 148.534554,15.2003958 C141.889341,15.2003958 137.864775,18.8373004 134.963344,23.0337287 L134.963344,16.1329355 L121.672918,16.1329355 L121.672918,80.1984075 Z M144.603583,55.4861076 C139.081504,55.4861076 134.776155,50.0773778 134.776155,41.5912671 L134.776155,40.6587276 C134.776155,32.1726169 139.081504,26.7638871 144.603583,26.7638871 C150.125662,26.7638871 154.337416,32.1726169 154.337416,40.6587276 L154.337416,41.5912671 C154.337416,50.0773778 150.125662,55.4861076 144.603583,55.4861076 Z M197.203721,66.9563449 C209.716837,66.9563449 218.88335,59.7467769 219.190485,47.9854053 L219.19844,47.1865048 C219.19844,37.0218231 213.021201,32.1726169 201.602665,27.6964268 L199.666686,26.8881705 C191.315039,23.3415542 189.251509,21.5650994 189.15798,18.2438388 L189.15459,17.9047607 C189.15459,14.5476181 192.056021,12.216269 196.735749,12.216269 C201.789854,12.216269 206.563177,14.920634 210.681337,18.2777766 L218.262496,8.01984075 C212.272445,2.61111094 204.78488,0 197.110127,0 C184.692712,0 175.981491,7.47548045 175.684795,18.531862 L175.676974,19.3035702 C175.676974,30.2788442 182.609236,34.7058898 193.824819,39.0949846 L195.776215,39.8495497 C203.816796,43.0138256 205.63184,45.0026167 205.717566,47.9811887 L205.720825,48.3055525 C205.720825,52.1289649 202.538611,54.7400758 197.297316,54.7400758 C190.745697,54.7400758 185.410808,51.1964252 181.011864,47.3730128 L172.962732,57.3511868 C180.169513,64.0654722 188.873806,66.9563449 197.203721,66.9563449 Z M248.77432,67.2361067 C256.636261,67.2361067 261.690367,64.158726 265.808529,59.5892818 L258.788936,50.8234093 C256.168289,53.5277743 253.641237,55.3928535 249.710264,55.3928535 C243.216079,55.3928535 239.403552,49.8709281 239.233609,41.8734473 L239.227675,40.9384894 C239.227675,32.8253948 243.345835,27.0436491 249.429481,27.0436491 C253.454047,27.0436491 255.981101,29.0019823 258.414559,31.5198392 L265.621338,21.9146811 C261.31599,17.6249989 256.449073,15.2003958 249.242292,15.2003958 C235.671082,15.2003958 226.030844,25.9246014 226.030844,40.7519814 L226.030844,41.8710291 C226.030844,56.605155 235.483893,67.2361067 248.77432,67.2361067 Z M285.556978,67.0495988 C291.453435,67.0495988 295.571595,64.6249958 298.566621,60.7083295 L298.566621,66.1170593 L311.576264,66.1170593 L311.576264,35.8095216 C311.576264,29.3749982 309.891561,24.1527761 306.428563,20.7023796 C303.152755,17.4384909 298.005053,15.5734117 291.172652,15.5734117 C283.965871,15.5734117 278.911765,17.1587291 274.044849,19.5833321 L277.695037,29.9345218 C280.783656,28.6289664 284.527438,27.1369029 289.207165,27.1369029 C295.197218,27.1369029 298.660216,30.1210298 298.660216,35.9027754 L298.660216,37.394839 C295.571595,36.1825372 292.38938,35.3432516 288.177625,35.3432516 C277.882225,35.3432516 270.675444,40.2857117 270.675444,51.2896793 L270.675444,51.8492031 C270.675444,61.5476151 277.320657,67.0495988 285.556978,67.0495988 Z M289.955923,57.3511868 C286.118546,57.2579329 283.497898,55.2063456 283.497898,51.1031713 L283.497898,50.9166634 C283.497898,46.3472192 286.586518,43.9226162 291.453435,43.9226162 C294.167678,43.9226162 296.881918,44.5753939 298.847405,45.5079336 L298.847405,49.7043619 C298.847405,54.2738061 295.103622,57.4444408 289.955923,57.3511868 Z M321.778071,66.1170593 L335.068496,66.1170593 L335.068496,35.9960295 C335.068496,30.1210298 337.969929,27.1369029 342.368872,27.1369029 C346.86141,27.1369029 349.482057,30.1210298 349.482057,35.9960295 L349.482057,66.1170593 L362.772484,66.1170593 L362.772484,32.079363 C362.772484,21.7281731 357.343999,15.2003958 347.984545,15.2003958 C341.620116,15.2003958 337.969929,18.8373004 335.068496,22.8472208 L335.068496,16.1329355 L321.778071,16.1329355 L321.778071,66.1170593 Z" id="HCLAppScanSource"></path>
                    </g>
                    <g id="atoms/icons/16x16/appScan/dark">
                        <circle id="Oval" fill="#FFFFFF" opacity="0" cx="51.0638298" cy="51.0638298" r="44.6808511"></circle>
                        <g fill="#0066B0" id="shape">
                            <path d="M51.0638298,0 C79.2466798,0 102.12766,22.8809798 102.12766,51.0638298 C102.12766,79.2467289 79.2466798,102.12766 51.0638298,102.12766 C22.8809306,102.12766 0,79.2467289 0,51.0638298 C0,22.8809798 22.8809306,0 51.0638298,0 Z M54.6892543,90.668657 C54.6892543,90.668657 50.6292502,82.4201904 62.2838381,77.6804257 C88.7455568,66.9188619 78.5272911,37.1489374 78.5700123,39.790297 C78.8504021,57.2341715 58.3470879,57.9555243 64.3663826,55.5594934 C77.2314094,50.4382317 80.6731809,11.1316193 40.579906,11.461114 C38.9808496,11.4743724 53.5289023,17.8025376 49.0165428,32.322404 C46.569983,40.1934494 37.8786872,44.0025264 33.5068664,37.6448983 C31.3451647,34.5011943 33.7701185,27.744833 33.5068664,27.7355032 C28.5680789,27.5606891 7.90983826,56.5626602 36.4317094,76.1113236 C40.6362785,78.9931013 29.312904,65.87209 52.1441404,51.037313 C54.073477,49.7826796 28.7603251,70.8407826 54.6892543,90.668657 Z"></path>
                        </g>
                    </g>
                </g>
                <path d="M65.656,153.224 C66.744,153.224 67.792,153.082667 68.8,152.8 C69.808,152.517333 70.7493333,152.12 71.624,151.608 C72.4986667,151.096 73.296,150.48 74.016,149.76 C74.736,149.04 75.352,148.245333 75.864,147.376 C76.376,146.506667 76.7733333,145.568 77.056,144.56 C77.3386667,143.552 77.48,142.509333 77.48,141.432 C77.48,140.344 77.3386667,139.296 77.056,138.288 C76.7733333,137.28 76.376,136.338667 75.864,135.464 C75.352,134.589333 74.736,133.792 74.016,133.072 C73.296,132.352 72.4986667,131.736 71.624,131.224 C70.7493333,130.712 69.808,130.314667 68.8,130.032 C67.792,129.749333 66.744,129.608 65.656,129.608 C64.568,129.608 63.5226667,129.749333 62.52,130.032 C61.5173333,130.314667 60.5786667,130.712 59.704,131.224 C58.8293333,131.736 58.032,132.352 57.312,133.072 C56.592,133.792 55.976,134.589333 55.464,135.464 C54.952,136.338667 54.5546667,137.28 54.272,138.288 C53.9893333,139.296 53.848,140.344 53.848,141.432 C53.848,142.52 53.9893333,143.565333 54.272,144.568 C54.5546667,145.570667 54.952,146.506667 55.464,147.376 C55.976,148.245333 56.592,149.04 57.312,149.76 C58.032,150.48 58.8293333,151.096 59.704,151.608 C60.5786667,152.12 61.5173333,152.517333 62.52,152.8 C63.5226667,153.082667 64.568,153.224 65.656,153.224 Z M65.656,151.336 C64.3013333,151.336 63.0373333,151.08 61.864,150.568 C60.6906667,150.056 59.6693333,149.354667 58.8,148.464 C57.9306667,147.573333 57.248,146.525333 56.752,145.32 C56.256,144.114667 56.008,142.818667 56.008,141.432 C56.008,140.504 56.12,139.613333 56.344,138.76 C56.568,137.906667 56.888,137.109333 57.304,136.368 C57.72,135.626667 58.2186667,134.954667 58.8,134.352 C59.3813333,133.749333 60.0293333,133.232 60.744,132.8 C61.4586667,132.368 62.2293333,132.034667 63.056,131.8 C63.8826667,131.565333 64.7493333,131.448 65.656,131.448 C66.5626667,131.448 67.432,131.565333 68.264,131.8 C69.096,132.034667 69.8693333,132.368 70.584,132.8 C71.2986667,133.232 71.952,133.749333 72.544,134.352 C73.136,134.954667 73.64,135.626667 74.056,136.368 C74.472,137.109333 74.7946667,137.906667 75.024,138.76 C75.2533333,139.613333 75.368,140.504 75.368,141.432 C75.368,142.818667 75.1173333,144.114667 74.616,145.32 C74.1146667,146.525333 73.4266667,147.573333 72.552,148.464 C71.6773333,149.354667 70.648,150.056 69.464,150.568 C68.28,151.08 67.0106667,151.336 65.656,151.336 Z M65.688,148.808 C66.9146667,148.808 67.9813333,148.608 68.888,148.208 C69.7946667,147.808 70.5466667,147.229333 71.144,146.472 L71.144,146.472 L69.832,145.08 C69.768,144.994667 69.688,144.928 69.592,144.88 C69.496,144.832 69.3893333,144.808 69.272,144.808 C69.0373333,144.872 68.8293333,144.962667 68.648,145.08 C68.4666667,145.197333 68.2586667,145.314667 68.024,145.432 C67.7893333,145.549333 67.504,145.650667 67.168,145.736 C66.832,145.821333 66.4026667,145.864 65.88,145.864 C65.3466667,145.864 64.8533333,145.765333 64.4,145.568 C63.9466667,145.370667 63.5546667,145.082667 63.224,144.704 C62.8933333,144.325333 62.6346667,143.858667 62.448,143.304 C62.2613333,142.749333 62.168,142.109333 62.168,141.384 C62.168,140.690667 62.2586667,140.066667 62.44,139.512 C62.6213333,138.957333 62.8853333,138.485333 63.232,138.096 C63.5786667,137.706667 64.0026667,137.408 64.504,137.2 C65.0053333,136.992 65.576,136.888 66.216,136.888 C66.76,136.888 67.2026667,136.941333 67.544,137.048 C67.8853333,137.154667 68.168,137.272 68.392,137.4 C68.616,137.528 68.808,137.645333 68.968,137.752 C69.128,137.858667 69.2986667,137.912 69.48,137.912 C69.6613333,137.912 69.8053333,137.869333 69.912,137.784 C70.0186667,137.698667 70.104,137.613333 70.168,137.528 L70.168,137.528 L71.208,136.104 C70.632,135.474667 69.92,134.962667 69.072,134.568 C68.224,134.173333 67.2026667,133.976 66.008,133.976 C64.9626667,133.976 63.9946667,134.157333 63.104,134.52 C62.2133333,134.882667 61.4373333,135.392 60.776,136.048 C60.1146667,136.704 59.5973333,137.485333 59.224,138.392 C58.8506667,139.298667 58.664,140.296 58.664,141.384 C58.664,142.44 58.8293333,143.418667 59.16,144.32 C59.4906667,145.221333 59.9626667,146.005333 60.576,146.672 C61.1893333,147.338667 61.928,147.861333 62.792,148.24 C63.656,148.618667 64.6213333,148.808 65.688,148.808 Z M91.176,153 L91.176,142.888 L102.024,142.888 L102.024,153 L106.36,153 L106.36,129.864 L102.024,129.864 L102.024,139.816 L91.176,139.816 L91.176,129.864 L86.84,129.864 L86.84,153 L91.176,153 Z M120.84,153.256 C122.76,153.256 124.405333,152.946667 125.776,152.328 C127.146667,151.709333 128.301333,150.818667 129.24,149.656 L129.24,149.656 L127.544,147.816 C127.373333,147.634667 127.170667,147.544 126.936,147.544 C126.797333,147.544 126.669333,147.573333 126.552,147.632 C126.434667,147.690667 126.322667,147.768 126.216,147.864 C125.864,148.184 125.509333,148.453333 125.152,148.672 C124.794667,148.890667 124.416,149.069333 124.016,149.208 C123.616,149.346667 123.178667,149.448 122.704,149.512 C122.229333,149.576 121.698667,149.608 121.112,149.608 C120.130667,149.608 119.213333,149.424 118.36,149.056 C117.506667,148.688 116.765333,148.157333 116.136,147.464 C115.506667,146.770667 115.008,145.917333 114.64,144.904 C114.272,143.890667 114.088,142.733333 114.088,141.432 C114.088,140.173333 114.272,139.04 114.64,138.032 C115.008,137.024 115.52,136.168 116.176,135.464 C116.832,134.76 117.616,134.218667 118.528,133.84 C119.44,133.461333 120.44,133.272 121.528,133.272 C122.456,133.272 123.221333,133.368 123.824,133.56 C124.426667,133.752 124.925333,133.96 125.32,134.184 C125.714667,134.408 126.04,134.616 126.296,134.808 C126.552,135 126.802667,135.096 127.048,135.096 C127.282667,135.096 127.466667,135.048 127.6,134.952 C127.733333,134.856 127.842667,134.744 127.928,134.616 L127.928,134.616 L129.368,132.616 C128.450667,131.709333 127.349333,130.981333 126.064,130.432 C124.778667,129.882667 123.277333,129.608 121.56,129.608 C119.8,129.608 118.192,129.898667 116.736,130.48 C115.28,131.061333 114.029333,131.874667 112.984,132.92 C111.938667,133.965333 111.128,135.210667 110.552,136.656 C109.976,138.101333 109.688,139.693333 109.688,141.432 C109.688,143.149333 109.946667,144.733333 110.464,146.184 C110.981333,147.634667 111.725333,148.882667 112.696,149.928 C113.666667,150.973333 114.837333,151.789333 116.208,152.376 C117.578667,152.962667 119.122667,153.256 120.84,153.256 Z M146.056,153 L146.056,149.448 L136.792,149.448 L136.792,129.864 L132.488,129.864 L132.488,153 L146.056,153 Z M161.048,153.256 C162.328,153.256 163.464,153.061333 164.456,152.672 C165.448,152.282667 166.288,151.749333 166.976,151.072 C167.664,150.394667 168.186667,149.6 168.544,148.688 C168.901333,147.776 169.08,146.797333 169.08,145.752 C169.08,144.792 168.928,143.976 168.624,143.304 C168.32,142.632 167.917333,142.064 167.416,141.6 C166.914667,141.136 166.344,140.752 165.704,140.448 C165.064,140.144 164.410667,139.877333 163.744,139.648 C163.077333,139.418667 162.424,139.202667 161.784,139 C161.144,138.797333 160.573333,138.568 160.072,138.312 C159.570667,138.056 159.168,137.746667 158.864,137.384 C158.56,137.021333 158.408,136.568 158.408,136.024 C158.408,135.597333 158.482667,135.205333 158.632,134.848 C158.781333,134.490667 159.008,134.184 159.312,133.928 C159.616,133.672 159.989333,133.472 160.432,133.328 C160.874667,133.184 161.394667,133.112 161.992,133.112 C162.653333,133.112 163.226667,133.194667 163.712,133.36 C164.197333,133.525333 164.621333,133.709333 164.984,133.912 C165.346667,134.114667 165.661333,134.298667 165.928,134.464 C166.194667,134.629333 166.434667,134.712 166.648,134.712 C166.861333,134.712 167.045333,134.664 167.2,134.568 C167.354667,134.472 167.490667,134.306667 167.608,134.072 L167.608,134.072 L168.664,132.04 C167.853333,131.272 166.872,130.674667 165.72,130.248 C164.568,129.821333 163.309333,129.608 161.944,129.608 C160.738667,129.608 159.666667,129.794667 158.728,130.168 C157.789333,130.541333 156.997333,131.037333 156.352,131.656 C155.706667,132.274667 155.216,132.984 154.88,133.784 C154.544,134.584 154.376,135.405333 154.376,136.248 C154.376,137.304 154.528,138.192 154.832,138.912 C155.136,139.632 155.538667,140.232 156.04,140.712 C156.541333,141.192 157.112,141.581333 157.752,141.88 C158.392,142.178667 159.042667,142.434667 159.704,142.648 C160.365333,142.861333 161.016,143.058667 161.656,143.24 C162.296,143.421333 162.866667,143.642667 163.368,143.904 C163.869333,144.165333 164.272,144.488 164.576,144.872 C164.88,145.256 165.032,145.752 165.032,146.36 C165.032,147.448 164.696,148.282667 164.024,148.864 C163.352,149.445333 162.402667,149.736 161.176,149.736 C160.376,149.736 159.690667,149.626667 159.12,149.408 C158.549333,149.189333 158.053333,148.946667 157.632,148.68 C157.210667,148.413333 156.845333,148.170667 156.536,147.952 C156.226667,147.733333 155.938667,147.624 155.672,147.624 C155.469333,147.624 155.285333,147.674667 155.12,147.776 C154.954667,147.877333 154.813333,148.002667 154.696,148.152 L154.696,148.152 L153.448,150.216 C153.896,150.674667 154.405333,151.090667 154.976,151.464 C155.546667,151.837333 156.16,152.157333 156.816,152.424 C157.472,152.690667 158.157333,152.896 158.872,153.04 C159.586667,153.184 160.312,153.256 161.048,153.256 Z M179.16,153.24 C180.386667,153.24 181.498667,153.042667 182.496,152.648 C183.493333,152.253333 184.344,151.688 185.048,150.952 C185.752,150.216 186.296,149.325333 186.68,148.28 C187.064,147.234667 187.256,146.061333 187.256,144.76 C187.256,143.469333 187.064,142.301333 186.68,141.256 C186.296,140.210667 185.752,139.325333 185.048,138.6 C184.344,137.874667 183.493333,137.314667 182.496,136.92 C181.498667,136.525333 180.386667,136.328 179.16,136.328 C177.933333,136.328 176.818667,136.525333 175.816,136.92 C174.813333,137.314667 173.957333,137.874667 173.248,138.6 C172.538667,139.325333 171.989333,140.210667 171.6,141.256 C171.210667,142.301333 171.016,143.469333 171.016,144.76 C171.016,146.061333 171.210667,147.234667 171.6,148.28 C171.989333,149.325333 172.538667,150.216 173.248,150.952 C173.957333,151.688 174.813333,152.253333 175.816,152.648 C176.818667,153.042667 177.933333,153.24 179.16,153.24 Z M179.16,150.2 C177.773333,150.2 176.749333,149.738667 176.088,148.816 C175.426667,147.893333 175.096,146.552 175.096,144.792 C175.096,143.032 175.426667,141.685333 176.088,140.752 C176.749333,139.818667 177.773333,139.352 179.16,139.352 C180.525333,139.352 181.536,139.816 182.192,140.744 C182.848,141.672 183.176,143.021333 183.176,144.792 C183.176,146.562667 182.848,147.906667 182.192,148.824 C181.536,149.741333 180.525333,150.2 179.16,150.2 Z M195,153 L195,139.544 L199.144,139.544 L199.144,136.728 L194.872,136.728 L194.872,135.64 C194.872,135.032 194.938667,134.522667 195.072,134.112 C195.205333,133.701333 195.4,133.370667 195.656,133.12 C195.912,132.869333 196.224,132.693333 196.592,132.592 C196.96,132.490667 197.378667,132.44 197.848,132.44 C198.2,132.44 198.509333,132.402667 198.776,132.328 C199.042667,132.253333 199.186667,132.061333 199.208,131.752 L199.208,131.752 L199.288,129.768 C198.637333,129.565333 197.933333,129.464 197.176,129.464 C196.226667,129.464 195.373333,129.602667 194.616,129.88 C193.858667,130.157333 193.216,130.557333 192.688,131.08 C192.16,131.602667 191.754667,132.237333 191.472,132.984 C191.189333,133.730667 191.048,134.573333 191.048,135.512 L191.048,135.512 L191.048,136.728 L188.6,136.728 L188.6,138.344 C188.6,138.632 188.693333,138.856 188.88,139.016 C189.066667,139.176 189.314667,139.282667 189.624,139.336 L189.624,139.336 L191.048,139.56 L191.048,153 L195,153 Z M206.952,153.256 C207.752,153.256 208.525333,153.133333 209.272,152.888 C210.018667,152.642667 210.68,152.28 211.256,151.8 L211.256,151.8 L210.072,149.88 C209.986667,149.762667 209.906667,149.674667 209.832,149.616 C209.757333,149.557333 209.661333,149.528 209.544,149.528 C209.448,149.528 209.352,149.557333 209.256,149.616 C209.16,149.674667 209.050667,149.736 208.928,149.8 C208.805333,149.864 208.661333,149.925333 208.496,149.984 C208.330667,150.042667 208.125333,150.072 207.88,150.072 C207.453333,150.072 207.112,149.928 206.856,149.64 C206.6,149.352 206.472,148.952 206.472,148.44 L206.472,148.44 L206.472,139.544 L210.792,139.544 L210.792,136.728 L206.472,136.728 L206.472,131.56 L204.424,131.56 C204.189333,131.56 203.994667,131.618667 203.84,131.736 C203.685333,131.853333 203.586667,132.018667 203.544,132.232 L203.544,132.232 L202.712,136.712 L200.072,137.144 L200.072,138.712 C200.072,138.989333 200.149333,139.197333 200.304,139.336 C200.458667,139.474667 200.642667,139.544 200.856,139.544 L200.856,139.544 L202.52,139.544 L202.52,148.712 C202.52,150.130667 202.904,151.242667 203.672,152.048 C204.44,152.853333 205.533333,153.256 206.952,153.256 Z M220.168,153 C220.594667,153 220.882667,152.765333 221.032,152.296 L221.032,152.296 L224.024,142.84 C224.12,142.52 224.205333,142.202667 224.28,141.888 C224.354667,141.573333 224.424,141.256 224.488,140.936 C224.541333,141.245333 224.608,141.557333 224.688,141.872 C224.768,142.186667 224.856,142.498667 224.952,142.808 L224.952,142.808 L227.912,152.296 C228.061333,152.765333 228.306667,153 228.648,153 L228.648,153 L231.832,153 L237.032,136.584 L234.04,136.584 C233.773333,136.584 233.538667,136.653333 233.336,136.792 C233.133333,136.930667 233.005333,137.106667 232.952,137.32 L232.952,137.32 L230.52,146.088 C230.381333,146.578667 230.266667,147.053333 230.176,147.512 C230.085333,147.970667 230.002667,148.429333 229.928,148.888 C229.821333,148.450667 229.712,148.016 229.6,147.584 C229.488,147.152 229.362667,146.706667 229.224,146.248 L229.224,146.248 L226.536,137.288 C226.472,137.074667 226.344,136.898667 226.152,136.76 C225.96,136.621333 225.72,136.552 225.432,136.552 L225.432,136.552 L223.688,136.552 C223.432,136.552 223.208,136.621333 223.016,136.76 C222.824,136.898667 222.696,137.074667 222.632,137.288 L222.632,137.288 L219.912,146.088 C219.762667,146.568 219.621333,147.037333 219.488,147.496 C219.354667,147.954667 219.229333,148.413333 219.112,148.872 C219.037333,148.413333 218.96,147.954667 218.88,147.496 C218.8,147.037333 218.696,146.568 218.568,146.088 L218.568,146.088 L216.216,137.32 C216.162667,137.106667 216.034667,136.930667 215.832,136.792 C215.629333,136.653333 215.378667,136.584 215.08,136.584 L215.08,136.584 L211.944,136.584 L217.144,153 L220.168,153 Z M243.208,153.256 C243.794667,153.256 244.328,153.208 244.808,153.112 C245.288,153.016 245.741333,152.872 246.168,152.68 C246.594667,152.488 247.008,152.250667 247.408,151.968 C247.808,151.685333 248.216,151.357333 248.632,150.984 L248.632,150.984 L248.984,152.152 C249.090667,152.493333 249.250667,152.72 249.464,152.832 C249.677333,152.944 249.970667,153 250.344,153 L250.344,153 L252.12,153 L252.12,142.632 C252.12,141.704 251.984,140.850667 251.712,140.072 C251.44,139.293333 251.042667,138.624 250.52,138.064 C249.997333,137.504 249.36,137.066667 248.608,136.752 C247.856,136.437333 247,136.28 246.04,136.28 C243.373333,136.28 241.096,137.144 239.208,138.872 L239.208,138.872 L239.928,140.136 C240.045333,140.338667 240.2,140.509333 240.392,140.648 C240.584,140.786667 240.813333,140.856 241.08,140.856 C241.4,140.856 241.693333,140.781333 241.96,140.632 C242.226667,140.482667 242.517333,140.314667 242.832,140.128 C243.146667,139.941333 243.517333,139.773333 243.944,139.624 C244.370667,139.474667 244.904,139.4 245.544,139.4 C246.429333,139.4 247.104,139.664 247.568,140.192 C248.032,140.72 248.264,141.533333 248.264,142.632 L248.264,142.632 L248.264,143.592 C246.397333,143.634667 244.834667,143.816 243.576,144.136 C242.317333,144.456 241.309333,144.858667 240.552,145.344 C239.794667,145.829333 239.253333,146.373333 238.928,146.976 C238.602667,147.578667 238.44,148.189333 238.44,148.808 C238.44,149.544 238.557333,150.189333 238.792,150.744 C239.026667,151.298667 239.354667,151.762667 239.776,152.136 C240.197333,152.509333 240.701333,152.789333 241.288,152.976 C241.874667,153.162667 242.514667,153.256 243.208,153.256 Z M244.44,150.536 C243.778667,150.536 243.242667,150.386667 242.832,150.088 C242.421333,149.789333 242.216,149.293333 242.216,148.6 C242.216,148.248 242.314667,147.922667 242.512,147.624 C242.709333,147.325333 243.042667,147.064 243.512,146.84 C243.981333,146.616 244.602667,146.432 245.376,146.288 C246.149333,146.144 247.112,146.045333 248.264,145.992 L248.264,145.992 L248.264,148.76 C247.976,149.058667 247.690667,149.317333 247.408,149.536 C247.125333,149.754667 246.832,149.938667 246.528,150.088 C246.224,150.237333 245.901333,150.349333 245.56,150.424 C245.218667,150.498667 244.845333,150.536 244.44,150.536 Z M259.96,153 L259.96,142.776 C260.365333,141.901333 260.861333,141.237333 261.448,140.784 C262.034667,140.330667 262.738667,140.104 263.56,140.104 C264.018667,140.104 264.386667,140.141333 264.664,140.216 C264.941333,140.290667 265.16,140.328 265.32,140.328 C265.501333,140.328 265.645333,140.288 265.752,140.208 C265.858667,140.128 265.928,139.992 265.96,139.8 L265.96,139.8 L266.472,136.84 C265.938667,136.466667 265.266667,136.28 264.456,136.28 C263.474667,136.28 262.589333,136.573333 261.8,137.16 C261.010667,137.746667 260.322667,138.546667 259.736,139.56 L259.736,139.56 L259.496,137.576 C259.442667,137.213333 259.336,136.957333 259.176,136.808 C259.016,136.658667 258.733333,136.584 258.328,136.584 L258.328,136.584 L256.008,136.584 L256.008,153 L259.96,153 Z M276.056,153.24 C276.632,153.24 277.226667,153.197333 277.84,153.112 C278.453333,153.026667 279.056,152.88 279.648,152.672 C280.24,152.464 280.808,152.186667 281.352,151.84 C281.896,151.493333 282.386667,151.064 282.824,150.552 L282.824,150.552 L281.672,149.112 C281.586667,148.994667 281.485333,148.904 281.368,148.84 C281.250667,148.776 281.112,148.744 280.952,148.744 C280.706667,148.744 280.453333,148.818667 280.192,148.968 C279.930667,149.117333 279.626667,149.282667 279.28,149.464 C278.933333,149.645333 278.528,149.810667 278.064,149.96 C277.6,150.109333 277.048,150.184 276.408,150.184 C275.106667,150.184 274.061333,149.789333 273.272,149 C272.482667,148.210667 272.029333,146.973333 271.912,145.288 L271.912,145.288 L282.056,145.288 C282.237333,145.288 282.386667,145.264 282.504,145.216 C282.621333,145.168 282.714667,145.088 282.784,144.976 C282.853333,144.864 282.901333,144.709333 282.928,144.512 C282.954667,144.314667 282.968,144.066667 282.968,143.768 C282.968,142.584 282.792,141.530667 282.44,140.608 C282.088,139.685333 281.597333,138.906667 280.968,138.272 C280.338667,137.637333 279.589333,137.154667 278.72,136.824 C277.850667,136.493333 276.898667,136.328 275.864,136.328 C274.637333,136.328 273.536,136.541333 272.56,136.968 C271.584,137.394667 270.757333,137.973333 270.08,138.704 C269.402667,139.434667 268.882667,140.293333 268.52,141.28 C268.157333,142.266667 267.976,143.32 267.976,144.44 C267.976,145.88 268.184,147.146667 268.6,148.24 C269.016,149.333333 269.586667,150.250667 270.312,150.992 C271.037333,151.733333 271.890667,152.293333 272.872,152.672 C273.853333,153.050667 274.914667,153.24 276.056,153.24 Z M279.416,142.904 L271.992,142.904 C272.173333,141.709333 272.589333,140.786667 273.24,140.136 C273.890667,139.485333 274.792,139.16 275.944,139.16 C276.530667,139.16 277.042667,139.258667 277.48,139.456 C277.917333,139.653333 278.28,139.922667 278.568,140.264 C278.856,140.605333 279.069333,141.002667 279.208,141.456 C279.346667,141.909333 279.416,142.392 279.416,142.904 L279.416,142.904 Z M302.392,153.256 C304.312,153.256 305.957333,152.946667 307.328,152.328 C308.698667,151.709333 309.853333,150.818667 310.792,149.656 L310.792,149.656 L309.096,147.816 C308.925333,147.634667 308.722667,147.544 308.488,147.544 C308.349333,147.544 308.221333,147.573333 308.104,147.632 C307.986667,147.690667 307.874667,147.768 307.768,147.864 C307.416,148.184 307.061333,148.453333 306.704,148.672 C306.346667,148.890667 305.968,149.069333 305.568,149.208 C305.168,149.346667 304.730667,149.448 304.256,149.512 C303.781333,149.576 303.250667,149.608 302.664,149.608 C301.682667,149.608 300.765333,149.424 299.912,149.056 C299.058667,148.688 298.317333,148.157333 297.688,147.464 C297.058667,146.770667 296.56,145.917333 296.192,144.904 C295.824,143.890667 295.64,142.733333 295.64,141.432 C295.64,140.173333 295.824,139.04 296.192,138.032 C296.56,137.024 297.072,136.168 297.728,135.464 C298.384,134.76 299.168,134.218667 300.08,133.84 C300.992,133.461333 301.992,133.272 303.08,133.272 C304.008,133.272 304.773333,133.368 305.376,133.56 C305.978667,133.752 306.477333,133.96 306.872,134.184 C307.266667,134.408 307.592,134.616 307.848,134.808 C308.104,135 308.354667,135.096 308.6,135.096 C308.834667,135.096 309.018667,135.048 309.152,134.952 C309.285333,134.856 309.394667,134.744 309.48,134.616 L309.48,134.616 L310.92,132.616 C310.002667,131.709333 308.901333,130.981333 307.616,130.432 C306.330667,129.882667 304.829333,129.608 303.112,129.608 C301.352,129.608 299.744,129.898667 298.288,130.48 C296.832,131.061333 295.581333,131.874667 294.536,132.92 C293.490667,133.965333 292.68,135.210667 292.104,136.656 C291.528,138.101333 291.24,139.693333 291.24,141.432 C291.24,143.149333 291.498667,144.733333 292.016,146.184 C292.533333,147.634667 293.277333,148.882667 294.248,149.928 C295.218667,150.973333 296.389333,151.789333 297.76,152.376 C299.130667,152.962667 300.674667,153.256 302.392,153.256 Z M320.824,153.24 C322.050667,153.24 323.162667,153.042667 324.16,152.648 C325.157333,152.253333 326.008,151.688 326.712,150.952 C327.416,150.216 327.96,149.325333 328.344,148.28 C328.728,147.234667 328.92,146.061333 328.92,144.76 C328.92,143.469333 328.728,142.301333 328.344,141.256 C327.96,140.210667 327.416,139.325333 326.712,138.6 C326.008,137.874667 325.157333,137.314667 324.16,136.92 C323.162667,136.525333 322.050667,136.328 320.824,136.328 C319.597333,136.328 318.482667,136.525333 317.48,136.92 C316.477333,137.314667 315.621333,137.874667 314.912,138.6 C314.202667,139.325333 313.653333,140.210667 313.264,141.256 C312.874667,142.301333 312.68,143.469333 312.68,144.76 C312.68,146.061333 312.874667,147.234667 313.264,148.28 C313.653333,149.325333 314.202667,150.216 314.912,150.952 C315.621333,151.688 316.477333,152.253333 317.48,152.648 C318.482667,153.042667 319.597333,153.24 320.824,153.24 Z M320.824,150.2 C319.437333,150.2 318.413333,149.738667 317.752,148.816 C317.090667,147.893333 316.76,146.552 316.76,144.792 C316.76,143.032 317.090667,141.685333 317.752,140.752 C318.413333,139.818667 319.437333,139.352 320.824,139.352 C322.189333,139.352 323.2,139.816 323.856,140.744 C324.512,141.672 324.84,143.021333 324.84,144.792 C324.84,146.562667 324.512,147.906667 323.856,148.824 C323.2,149.741333 322.189333,150.2 320.824,150.2 Z M335.96,153 L335.96,140.984 C336.386667,140.493333 336.848,140.106667 337.344,139.824 C337.84,139.541333 338.370667,139.4 338.936,139.4 C339.8,139.4 340.453333,139.650667 340.896,140.152 C341.338667,140.653333 341.56,141.453333 341.56,142.552 L341.56,142.552 L341.56,153 L345.528,153 L345.528,142.552 C345.528,142.04 345.602667,141.586667 345.752,141.192 C345.901333,140.797333 346.106667,140.469333 346.368,140.208 C346.629333,139.946667 346.933333,139.746667 347.28,139.608 C347.626667,139.469333 348.002667,139.4 348.408,139.4 C349.293333,139.4 349.965333,139.664 350.424,140.192 C350.882667,140.72 351.112,141.506667 351.112,142.552 L351.112,142.552 L351.112,153 L355.064,153 L355.064,142.552 C355.064,141.56 354.938667,140.68 354.688,139.912 C354.437333,139.144 354.072,138.493333 353.592,137.96 C353.112,137.426667 352.52,137.021333 351.816,136.744 C351.112,136.466667 350.306667,136.328 349.4,136.328 C348.877333,136.328 348.357333,136.386667 347.84,136.504 C347.322667,136.621333 346.834667,136.802667 346.376,137.048 C345.917333,137.293333 345.496,137.610667 345.112,138 C344.728,138.389333 344.408,138.856 344.152,139.4 C343.821333,138.472 343.322667,137.728 342.656,137.168 C341.989333,136.608 341.138667,136.328 340.104,136.328 C339.613333,136.328 339.162667,136.384 338.752,136.496 C338.341333,136.608 337.957333,136.76 337.6,136.952 C337.242667,137.144 336.906667,137.373333 336.592,137.64 C336.277333,137.906667 335.976,138.2 335.688,138.52 L335.688,138.52 L335.432,137.304 C335.272,136.824 334.936,136.584 334.424,136.584 L334.424,136.584 L332.008,136.584 L332.008,153 L335.96,153 Z M362.904,158.36 L362.904,151.64 C363.416,152.141333 363.994667,152.533333 364.64,152.816 C365.285333,153.098667 366.072,153.24 367,153.24 C368.077333,153.24 369.050667,153.024 369.92,152.592 C370.789333,152.16 371.530667,151.56 372.144,150.792 C372.757333,150.024 373.229333,149.117333 373.56,148.072 C373.890667,147.026667 374.056,145.890667 374.056,144.664 C374.056,143.32 373.909333,142.128 373.616,141.088 C373.322667,140.048 372.906667,139.173333 372.368,138.464 C371.829333,137.754667 371.189333,137.213333 370.448,136.84 C369.706667,136.466667 368.888,136.28 367.992,136.28 C366.84,136.28 365.834667,136.514667 364.976,136.984 C364.117333,137.453333 363.357333,138.066667 362.696,138.824 L362.696,138.824 L362.376,137.304 C362.322667,137.058667 362.205333,136.877333 362.024,136.76 C361.842667,136.642667 361.624,136.584 361.368,136.584 L361.368,136.584 L358.952,136.584 L358.952,158.36 L362.904,158.36 Z M366.072,150.232 C365.464,150.232 364.896,150.122667 364.368,149.904 C363.84,149.685333 363.352,149.298667 362.904,148.744 L362.904,148.744 L362.904,141.384 C363.405333,140.754667 363.946667,140.266667 364.528,139.92 C365.109333,139.573333 365.810667,139.4 366.632,139.4 C367.154667,139.4 367.621333,139.496 368.032,139.688 C368.442667,139.88 368.792,140.184 369.08,140.6 C369.368,141.016 369.589333,141.557333 369.744,142.224 C369.898667,142.890667 369.976,143.704 369.976,144.664 C369.976,145.613333 369.885333,146.437333 369.704,147.136 C369.522667,147.834667 369.264,148.413333 368.928,148.872 C368.592,149.330667 368.181333,149.672 367.696,149.896 C367.210667,150.12 366.669333,150.232 366.072,150.232 Z M381,153.256 C381.586667,153.256 382.12,153.208 382.6,153.112 C383.08,153.016 383.533333,152.872 383.96,152.68 C384.386667,152.488 384.8,152.250667 385.2,151.968 C385.6,151.685333 386.008,151.357333 386.424,150.984 L386.424,150.984 L386.776,152.152 C386.882667,152.493333 387.042667,152.72 387.256,152.832 C387.469333,152.944 387.762667,153 388.136,153 L388.136,153 L389.912,153 L389.912,142.632 C389.912,141.704 389.776,140.850667 389.504,140.072 C389.232,139.293333 388.834667,138.624 388.312,138.064 C387.789333,137.504 387.152,137.066667 386.4,136.752 C385.648,136.437333 384.792,136.28 383.832,136.28 C381.165333,136.28 378.888,137.144 377,138.872 L377,138.872 L377.72,140.136 C377.837333,140.338667 377.992,140.509333 378.184,140.648 C378.376,140.786667 378.605333,140.856 378.872,140.856 C379.192,140.856 379.485333,140.781333 379.752,140.632 C380.018667,140.482667 380.309333,140.314667 380.624,140.128 C380.938667,139.941333 381.309333,139.773333 381.736,139.624 C382.162667,139.474667 382.696,139.4 383.336,139.4 C384.221333,139.4 384.896,139.664 385.36,140.192 C385.824,140.72 386.056,141.533333 386.056,142.632 L386.056,142.632 L386.056,143.592 C384.189333,143.634667 382.626667,143.816 381.368,144.136 C380.109333,144.456 379.101333,144.858667 378.344,145.344 C377.586667,145.829333 377.045333,146.373333 376.72,146.976 C376.394667,147.578667 376.232,148.189333 376.232,148.808 C376.232,149.544 376.349333,150.189333 376.584,150.744 C376.818667,151.298667 377.146667,151.762667 377.568,152.136 C377.989333,152.509333 378.493333,152.789333 379.08,152.976 C379.666667,153.162667 380.306667,153.256 381,153.256 Z M382.232,150.536 C381.570667,150.536 381.034667,150.386667 380.624,150.088 C380.213333,149.789333 380.008,149.293333 380.008,148.6 C380.008,148.248 380.106667,147.922667 380.304,147.624 C380.501333,147.325333 380.834667,147.064 381.304,146.84 C381.773333,146.616 382.394667,146.432 383.168,146.288 C383.941333,146.144 384.904,146.045333 386.056,145.992 L386.056,145.992 L386.056,148.76 C385.768,149.058667 385.482667,149.317333 385.2,149.536 C384.917333,149.754667 384.624,149.938667 384.32,150.088 C384.016,150.237333 383.693333,150.349333 383.352,150.424 C383.010667,150.498667 382.637333,150.536 382.232,150.536 Z M397.752,153 L397.752,141.128 C398.285333,140.594667 398.850667,140.173333 399.448,139.864 C400.045333,139.554667 400.685333,139.4 401.368,139.4 C402.296,139.4 402.992,139.674667 403.456,140.224 C403.92,140.773333 404.152,141.549333 404.152,142.552 L404.152,142.552 L404.152,153 L408.104,153 L408.104,142.552 C408.104,141.634667 407.984,140.794667 407.744,140.032 C407.504,139.269333 407.152,138.613333 406.688,138.064 C406.224,137.514667 405.645333,137.088 404.952,136.784 C404.258667,136.48 403.464,136.328 402.568,136.328 C402.013333,136.328 401.501333,136.381333 401.032,136.488 C400.562667,136.594667 400.122667,136.749333 399.712,136.952 C399.301333,137.154667 398.912,137.394667 398.544,137.672 C398.176,137.949333 397.826667,138.258667 397.496,138.6 L397.496,138.6 L397.224,137.304 C397.064,136.824 396.728,136.584 396.216,136.584 L396.216,136.584 L393.8,136.584 L393.8,153 L397.752,153 Z M415.928,158.36 C416.312,158.36 416.597333,158.288 416.784,158.144 C416.970667,158 417.122667,157.789333 417.24,157.512 L417.24,157.512 L426.184,136.584 L423.016,136.584 C422.770667,136.584 422.549333,136.653333 422.352,136.792 C422.154667,136.930667 422.013333,137.106667 421.928,137.32 L421.928,137.32 L418.632,145.816 C418.514667,146.114667 418.405333,146.408 418.304,146.696 C418.202667,146.984 418.109333,147.282667 418.024,147.592 C417.96,147.293333 417.885333,146.994667 417.8,146.696 C417.714667,146.397333 417.613333,146.109333 417.496,145.832 L417.496,145.832 L413.992,137.32 C413.906667,137.128 413.778667,136.957333 413.608,136.808 C413.437333,136.658667 413.192,136.584 412.872,136.584 L412.872,136.584 L409.416,136.584 L416.056,151.784 L412.984,158.36 L415.928,158.36 Z" id="©HCLSoftwareCompany" fill="#1C1C1C"></path>
            </g>
        </g>
    </g>
</svg>