<?xml version="1.0" standalone="no"?>
<!DOCTYPE svg PUBLIC "-//W3C//DTD SVG 20010904//EN"
 "http://www.w3.org/TR/2001/REC-SVG-20010904/DTD/svg10.dtd">
<svg version="1.0" xmlns="http://www.w3.org/2000/svg"
 width="700.000000pt" height="700.000000pt" viewBox="0 0 700.000000 700.000000"
 preserveAspectRatio="xMidYMid meet">
<metadata>
Created by potrace 1.11, written by Peter Selinger 2001-2013
</metadata>
<g transform="translate(0.000000,700.000000) scale(0.100000,-0.100000)"
fill="#000000" stroke="none">
<path d="M3477 6964 c-1 -1 -34 -5 -73 -8 -86 -8 -101 -11 -173 -32 -208 -60
-365 -207 -483 -452 -27 -57 -54 -116 -58 -130 -9 -30 -7 -25 -139 -362 -50
-129 -95 -244 -100 -255 -5 -11 -37 -92 -70 -180 -34 -88 -66 -169 -70 -180
-10 -22 -23 -55 -27 -70 -3 -10 -332 -851 -349 -890 -4 -11 -9 -24 -11 -30 -5
-23 -495 -1241 -536 -1335 -6 -14 -14 -34 -18 -45 -5 -11 -24 -58 -43 -105
-19 -47 -63 -152 -97 -235 -33 -82 -67 -163 -74 -180 -8 -16 -33 -75 -57 -129
-65 -150 -118 -214 -218 -264 -53 -25 -66 -27 -226 -32 l-170 -5 0 -630 0
-630 830 0 c784 0 831 1 857 18 59 40 59 40 61 590 2 498 2 502 24 547 27 54
73 86 151 104 73 17 123 18 680 19 l462 0 0 618 0 618 -414 -2 c-228 -1 -417
1 -420 4 -5 5 42 135 147 399 25 63 82 210 127 325 44 116 85 219 90 230 5 11
59 146 119 300 101 260 147 378 295 752 l56 143 0 759 0 760 -36 -2 c-20 -1
-36 -3 -37 -3z"/>
<path d="M3550 4598 c0 -271 5 -511 10 -532 15 -66 67 -118 131 -130 13 -2
185 -5 381 -5 281 -1 356 -4 353 -13 -12 -37 -227 -616 -234 -633 -5 -11 -71
-186 -146 -390 -76 -203 -148 -397 -160 -430 -13 -33 -93 -248 -179 -478
l-156 -419 0 -785 0 -785 83 6 c143 11 228 32 342 88 90 43 127 70 202 145 95
96 144 183 243 433 34 85 67 169 74 185 22 50 34 81 138 340 55 137 106 264
113 280 7 17 26 64 43 105 17 41 87 217 157 390 70 173 152 376 181 450 30 74
59 144 64 155 5 11 57 139 115 285 58 146 110 274 115 285 5 11 37 90 71 175
99 249 99 250 165 350 48 74 110 138 174 181 80 54 121 61 400 65 217 4 394 9
423 13 4 1 7 262 7 581 l0 580 -1555 0 -1555 0 0 -492z"/>
</g>
</svg>
