<?xml version="1.0" standalone="no"?>
<!DOCTYPE svg PUBLIC "-//W3C//DTD SVG 20010904//EN"
 "http://www.w3.org/TR/2001/REC-SVG-20010904/DTD/svg10.dtd">
<svg version="1.0" xmlns="http://www.w3.org/2000/svg"
 width="700.000000pt" height="700.000000pt" viewBox="0 0 700.000000 700.000000"
 preserveAspectRatio="xMidYMid meet">
<metadata>
Created by potrace 1.14, written by Peter Selinger 2001-2017
</metadata>
<g transform="translate(0.000000,700.000000) scale(0.100000,-0.100000)"
fill="#000000" stroke="none">
<path d="M3324 6983 c-238 -35 -410 -146 -538 -347 -58 -90 -101 -185 -205
-456 -56 -146 -106 -274 -112 -285 -8 -18 -107 -272 -199 -510 -84 -220 -171
-441 -180 -460 -5 -11 -36 -90 -69 -175 -113 -299 -628 -1590 -672 -1687 -10
-23 -19 -45 -19 -48 0 -4 -6 -21 -14 -38 -15 -32 -39 -89 -101 -242 -81 -198
-169 -403 -192 -449 -62 -123 -152 -196 -274 -222 -13 -2 -86 -5 -162 -6 -123
-1 -140 -3 -145 -19 -8 -22 -8 -1232 0 -1245 5 -7 1490 -12 1640 -5 32 1 86
44 100 80 6 17 9 199 9 501 -2 507 1 550 45 607 58 76 127 91 441 92 136 1
381 3 543 4 l295 2 0 620 0 620 -413 -3 c-227 -1 -417 0 -421 3 -9 5 57 177
396 1040 72 182 96 245 255 650 38 99 74 189 79 200 4 11 29 72 55 135 l47
115 1 772 1 773 -56 -3 c-30 -1 -91 -7 -135 -14z"/>
<path d="M3521 5105 c-4 -5 -7 -228 -6 -495 1 -528 3 -554 56 -607 48 -50 76
-53 468 -53 198 0 361 -2 361 -5 0 -2 -63 -174 -141 -382 -77 -208 -204 -547
-280 -753 -77 -206 -145 -388 -152 -405 -6 -16 -12 -32 -13 -35 0 -3 -5 -16
-11 -30 -6 -14 -45 -119 -88 -235 -42 -115 -90 -244 -106 -285 -15 -41 -43
-115 -61 -165 l-33 -90 0 -780 0 -780 84 2 c273 7 507 135 646 353 49 76 67
114 136 287 28 70 57 142 64 158 12 27 62 151 175 435 23 58 48 119 55 135 7
17 41 100 75 185 34 85 68 169 75 185 7 17 59 145 115 285 55 140 105 264 110
275 5 11 34 83 65 160 31 77 60 149 65 160 8 17 77 188 272 675 17 41 36 89
43 105 7 17 25 62 41 100 56 142 168 295 259 356 97 65 131 71 420 74 355 5
415 7 422 18 4 7 7 900 4 1122 l-1 40 -1556 0 c-1026 0 -1558 -3 -1563 -10z"/>
</g>
</svg>
