<svg width="48" height="48" viewBox="0 0 48 48" fill="none" xmlns="http://www.w3.org/2000/svg">
<path d="M37.2134 19.364C38.9349 24.2818 37.8303 29.9686 33.8994 33.8995C32.1203 35.6786 29.9816 36.8787 27.7172 37.5H28C28 37.5 26 37.5 26 39.5V44H37C40.866 44 44 40.866 44 37L44 14.3659L38.2471 17.6874L38.2321 17.6962C37.4036 18.1745 37.2002 18.8203 37.2134 19.364Z" fill="url(#paint0_linear_79_12703)"/>
<path d="M43.8985 9.80571L36.2114 14.2439C35.2761 14.7733 34.4828 14.5078 33.9534 14.1548C33.9355 14.1367 33.9175 14.1186 33.8994 14.1005C28.4321 8.63316 19.5678 8.63316 14.1004 14.1005C14.0887 14.1122 14.077 14.1239 14.0654 14.1357C14.157 13.9901 14.2 13.8821 14.2 13.8821L14.0542 14.1469C13.8843 14.3184 13.7197 14.4932 13.5605 14.6711C13.1744 14.9305 12.6003 15.0448 11.8032 14.5656L11.7882 14.5567L4.08226 9.92352C4.60008 6.56859 7.50008 4 11 4L37 4C40.4588 4 43.3318 6.50865 43.8985 9.80571Z" fill="url(#paint1_linear_79_12703)"/>
<path d="M4 14.5414L9.76307 18.0064C10.4895 18.4514 10.7126 19.0206 10.7314 19.5241C9.08914 24.4048 10.2121 30.0112 14.1004 33.8995C15.8795 35.6786 18.0183 36.8787 20.2826 37.5H20C20 37.5 22 37.5 22 39.5V44H11C7.13401 44 4 40.866 4 37V14.5414Z" fill="url(#paint2_linear_79_12703)"/>
<path d="M24.9861 34.9998C24.9861 34.9998 23.8818 32.7088 27.0518 31.3924C34.2495 28.4034 31.4701 20.135 31.4817 20.8686C31.558 25.7136 25.981 25.9139 27.6183 25.2485C31.1176 23.826 32.0538 12.9089 21.1483 13.0004C21.0582 13.0011 21.1566 13.0771 21.3582 13.233C22.1301 13.8297 24.4163 15.5969 23.4431 18.7945C22.7776 20.9806 20.4136 22.0386 19.2245 20.2728C18.7733 19.6029 19.0566 18.3424 19.1806 17.7906C19.2182 17.6232 19.2411 17.5211 19.2245 17.5205C17.8811 17.4719 12.262 25.5271 20.02 30.9566C20.3444 31.1836 20.329 31.0531 20.2822 30.6556C20.1639 29.6516 19.8449 26.9442 24.2938 23.9924C24.3549 23.9519 24.3156 23.9953 24.2095 24.1124C23.4042 25.0013 18.7546 30.134 24.9861 34.9998Z" fill="url(#paint3_linear_79_12703)"/>
<defs>
<linearGradient id="paint0_linear_79_12703" x1="44" y1="4" x2="4.00001" y2="44" gradientUnits="userSpaceOnUse">
<stop stop-color="#0066B0"/>
<stop offset="1" stop-color="#2ABDEA"/>
</linearGradient>
<linearGradient id="paint1_linear_79_12703" x1="44" y1="4" x2="4.00001" y2="44" gradientUnits="userSpaceOnUse">
<stop stop-color="#0066B0"/>
<stop offset="1" stop-color="#2ABDEA"/>
</linearGradient>
<linearGradient id="paint2_linear_79_12703" x1="44" y1="4" x2="4.00001" y2="44" gradientUnits="userSpaceOnUse">
<stop stop-color="#0066B0"/>
<stop offset="1" stop-color="#2ABDEA"/>
</linearGradient>
<linearGradient id="paint3_linear_79_12703" x1="44" y1="4" x2="4.00001" y2="44" gradientUnits="userSpaceOnUse">
<stop stop-color="#0066B0"/>
<stop offset="1" stop-color="#2ABDEA"/>
</linearGradient>
</defs>
</svg>
