<svg width="48" height="48" viewBox="0 0 48 48" fill="none" xmlns="http://www.w3.org/2000/svg">
<path fill-rule="evenodd" clip-rule="evenodd" d="M0 34C0 38.4183 3.58172 42 8 42H22V40C22 38 20.25 37.5 20.25 37.5H20.2786C14.353 35.8702 10 30.4434 10 24C10 16.268 16.268 10 24 10C31.732 10 38 16.268 38 24C38 30.4434 33.647 35.8702 27.7214 37.5H27.75C27.75 37.5 26 38 26 40V42H37C43.0751 42 48 37.0751 48 31C48 27.0793 45.9488 23.6377 42.861 21.6898C41.7211 12.2859 33.7114 5 24 5C13.5066 5 5 13.5066 5 24C5 24.8532 5.05624 25.6933 5.16522 26.5168C2.14617 27.6611 0 30.5799 0 34ZM24.9861 35C24.9861 35 23.8818 32.709 27.0519 31.3926C34.2495 28.4036 31.4701 20.1352 31.4818 20.8688C31.558 25.7138 25.9811 25.9141 27.6183 25.2486C31.1176 23.8262 32.0538 12.9091 21.1484 13.0006C21.0583 13.0013 21.1566 13.0773 21.3582 13.2332C22.1302 13.8299 24.4163 15.5971 23.4432 18.7947C22.7777 20.9808 20.4136 22.0388 19.2245 20.273C18.7734 19.6031 19.0567 18.3423 19.1807 17.7906L19.1807 17.7905L19.1807 17.7904L19.1807 17.7903C19.2183 17.6232 19.2411 17.5213 19.2245 17.5207C17.8811 17.4721 12.2621 25.5273 20.0201 30.9568C20.3444 31.1838 20.329 31.0533 20.2822 30.6558C20.1639 29.6518 19.845 26.9444 24.2939 23.9926C24.355 23.9521 24.3156 23.9955 24.2095 24.1126C23.4042 25.0015 18.7546 30.1341 24.9861 35Z" fill="url(#paint0_linear_79_12704)"/>
<defs>
<linearGradient id="paint0_linear_79_12704" x1="48" y1="5" x2="12.2189" y2="51.4187" gradientUnits="userSpaceOnUse">
<stop stop-color="#0066B0"/>
<stop offset="1" stop-color="#2ABDEA"/>
</linearGradient>
</defs>
</svg>
