<svg width="48" height="48" viewBox="0 0 48 48" fill="none" xmlns="http://www.w3.org/2000/svg">
<path fill-rule="evenodd" clip-rule="evenodd" d="M21.9999 1.15455C23.2375 0.440019 24.7623 0.44002 25.9999 1.15455L42.7845 10.8451C44.0222 11.5597 44.7845 12.8802 44.7845 14.3093V19.7263L30.8363 11.7796C28.8145 10.6461 26.4827 9.99985 23.9999 9.99985C20.0826 9.99985 16.541 11.6088 14 14.2018V5.77332L21.9999 1.15455ZM9.99992 8.08276L5.21533 10.8451C3.97773 11.5597 3.21533 12.8802 3.21533 14.3093V33.6904C3.21533 35.1195 3.97773 36.44 5.21533 37.1546L13.268 41.8038L20.5837 37.5801C14.815 36.1335 10.4662 31.1075 10.0351 24.9999H9.99992L9.99992 8.08276ZM22.0011 37.8582L22.0262 37.9018L22.082 37.8696C22.055 37.8659 22.028 37.8621 22.0011 37.8582ZM17.2681 44.1132L23.5263 40.5L23.5262 40.4999L31.7599 35.7462C35.5433 33.2399 37.9999 28.878 37.9999 23.9998C37.9999 22.7993 37.8488 21.6341 37.5646 20.5222L44.7845 24.6906V33.6904C44.7845 35.1195 44.0222 36.44 42.7845 37.1546L25.9999 46.8451C24.7623 47.5597 23.2375 47.5597 21.9999 46.8451L17.2681 44.1132ZM27.0518 31.3925C23.8818 32.7089 24.9861 34.9999 24.9861 34.9999C18.7545 30.134 23.4042 25.0014 24.2094 24.1125C24.3156 23.9954 24.3549 23.9519 24.2938 23.9925C19.8449 26.9442 20.1639 29.6517 20.2821 30.6557C20.329 31.0532 20.3443 31.1837 20.02 30.9567C12.262 25.5271 17.8811 17.472 19.2244 17.5206C19.2411 17.5212 19.2182 17.6233 19.1806 17.7906L19.1806 17.7906L19.1805 17.7907L19.1805 17.7907C19.0566 18.3424 18.7733 19.6029 19.2244 20.2728C20.4136 22.0386 22.7776 20.9807 23.4431 18.7945C24.4163 15.597 22.1301 13.8298 21.3582 13.2331C21.1565 13.0772 21.0582 13.0012 21.1483 13.0005C32.0538 12.9089 31.1176 23.8261 27.6183 25.2485C25.981 25.914 31.558 25.7136 31.4817 20.8687C31.4701 20.1351 34.2495 28.4035 27.0518 31.3925Z" fill="url(#paint0_linear_79_12707)"/>
<defs>
<linearGradient id="paint0_linear_79_12707" x1="44.7845" y1="0.618652" x2="-1.65569" y2="41.9015" gradientUnits="userSpaceOnUse">
<stop stop-color="#0066B0"/>
<stop offset="1" stop-color="#2ABDEA"/>
</linearGradient>
</defs>
</svg>
