<svg width="48" height="48" viewBox="0 0 48 48" fill="none" xmlns="http://www.w3.org/2000/svg">
<path d="M33.75 35.0048L45 41.5L33.75 47.9952V45H24C12.402 45 3 35.598 3 24C3 12.402 12.402 3 24 3C35.598 3 45 12.402 45 24C45 27.9253 43.923 31.5991 42.0484 34.742L35.9683 31.2676C37.2575 29.1491 38 26.6612 38 24C38 16.268 31.732 10 24 10C16.268 10 10 16.268 10 24C10 31.732 16.268 38 24 38H33.75V35.0048Z" fill="url(#paint0_linear_79_12705)"/>
<path d="M27.0519 31.3926C23.8818 32.709 24.9861 35 24.9861 35C18.7546 30.1341 23.4042 25.0015 24.2095 24.1126C24.3156 23.9955 24.355 23.9521 24.2939 23.9926C19.845 26.9444 20.1639 29.6518 20.2822 30.6558C20.329 31.0533 20.3444 31.1838 20.0201 30.9568C12.2621 25.5273 17.8811 17.4721 19.2245 17.5207C19.2412 17.5213 19.2182 17.6234 19.1806 17.7908C19.0566 18.3425 18.7734 19.6031 19.2245 20.273C20.4136 22.0388 22.7777 20.9808 23.4432 18.7947C24.4163 15.5971 22.1302 13.8299 21.3582 13.2332C21.1566 13.0773 21.0583 13.0013 21.1484 13.0006C32.0538 12.9091 31.1176 23.8262 27.6183 25.2486C25.9811 25.9141 31.558 25.7138 31.4818 20.8688C31.4701 20.1352 34.2495 28.4036 27.0519 31.3926Z" fill="url(#paint1_linear_79_12705)"/>
<defs>
<linearGradient id="paint0_linear_79_12705" x1="45" y1="13" x2="10.6137" y2="41.4954" gradientUnits="userSpaceOnUse">
<stop stop-color="#0066B0"/>
<stop offset="1" stop-color="#2ABDEA"/>
</linearGradient>
<linearGradient id="paint1_linear_79_12705" x1="45" y1="13" x2="10.6137" y2="41.4954" gradientUnits="userSpaceOnUse">
<stop stop-color="#0066B0"/>
<stop offset="1" stop-color="#2ABDEA"/>
</linearGradient>
</defs>
</svg>
