<svg width="69" height="13" viewBox="0 0 69 13" fill="none" xmlns="http://www.w3.org/2000/svg">
<g clip-path="url(#clip0_8_588)">
<g clip-path="url(#clip1_8_588)">
<mask id="mask0_8_588" style="mask-type:luminance" maskUnits="userSpaceOnUse" x="0" y="0" width="69" height="13">
<path d="M69 0H0V13H69V0Z" fill="white"/>
</mask>
<g mask="url(#mask0_8_588)">
<path d="M9.60182 0.145142V12.8214H6.94433V7.51562H2.64067V12.8214H0V0.145142H2.64067V5.17901H6.94433V0.145142H9.60182Z" fill="black"/>
<path d="M11.0375 6.48329C11.0375 2.20987 13.7218 0 16.7824 0C19.6639 0 21.7748 1.81122 22.0861 4.54533H19.516C19.3525 3.22379 18.2226 2.33546 16.7824 2.33546C14.9324 2.33546 13.5079 3.76646 13.5079 6.48213C13.5079 9.19783 14.9324 10.6115 16.7824 10.6115C18.2562 10.6115 19.385 9.72437 19.5821 8.4201H22.038C21.8252 11.1369 19.7131 12.9655 16.7836 12.9655C13.6736 12.9655 11.0375 10.7556 11.0375 6.48213V6.48329Z" fill="black"/>
<path d="M35.2985 2.51405H31.6544V0.178589H41.5821V2.51405H37.938V12.8548H35.2973V2.51405H35.2985Z" fill="black"/>
<path d="M49.1257 9.75896C48.774 11.7326 47.0842 13.0012 44.9014 13.0012C41.8912 13.0012 40.3424 10.5747 40.3424 8.27496C40.3424 5.97522 41.7153 3.58444 44.7256 3.58444C47.7358 3.58444 49.1086 5.95678 49.1086 8.03989C49.1086 8.38439 49.091 8.65517 49.0739 8.85448H42.7019C42.8778 10.1403 43.6695 10.9376 44.9025 10.9376C45.8882 10.9376 46.5398 10.539 46.7333 9.76012H49.128L49.1257 9.75896ZM42.7355 7.25989H46.6607C46.5903 6.24599 45.9035 5.43024 44.7244 5.43024C43.6158 5.43024 42.9461 5.99133 42.7355 7.25989Z" fill="black"/>
<path d="M50.2654 8.29108C50.2654 5.62956 52.0968 3.58212 54.8424 3.58212C57.1663 3.58212 59.0139 5.0304 59.1731 7.14926H56.7081C56.5669 6.33467 55.8102 5.73667 54.9132 5.73667C53.5927 5.73667 52.8188 6.80476 52.8188 8.28992C52.8188 9.77508 53.6107 10.8258 54.9488 10.8258C55.8472 10.8258 56.5683 10.2648 56.7441 9.44901H59.2435C58.9792 11.4768 57.1496 12.9988 54.8437 12.9988C52.0977 12.9988 50.2667 10.9526 50.2667 8.28992L50.2654 8.29108Z" fill="black"/>
<path d="M60.5518 0.163635H62.9984V4.99587C63.5093 4.10869 64.4767 3.58329 65.7096 3.58329C67.6985 3.58329 69.0009 5.06843 69.0009 7.16886V12.8548H66.5543V7.72995C66.5543 6.62504 65.8499 5.82889 64.8293 5.82889C63.7556 5.82889 62.9984 6.68034 62.9984 7.8567V12.8548H60.5518V0.163635Z" fill="black"/>
<path d="M26.2802 10.4675V0.145142H23.6395V10.3949C23.6395 11.9699 24.4671 12.8214 25.9979 12.8214H31.6399V10.4675H26.2802Z" fill="black"/>
</g>
</g>
</g>
<defs>
<clipPath id="clip0_8_588">
<rect width="69" height="13" fill="white"/>
</clipPath>
<clipPath id="clip1_8_588">
<rect width="69" height="13" fill="white"/>
</clipPath>
</defs>
</svg>
