<svg width="90" height="90" viewBox="0 0 90 90" fill="none" xmlns="http://www.w3.org/2000/svg">
<path d="M11.125 30.6875V32.6117H24.8112V30.6875H11.125ZM26.7503 30.6875V32.6117H46.2538C46.2538 32.6117 44.2616 30.6875 41.623 30.6875H26.7503ZM50.0798 30.6875V32.6117H61.8791L61.1787 30.6875H50.0798ZM70.3386 30.6875L69.6382 32.6117H81.3304V30.6875H70.3386ZM11.125 34.4297V36.3539H24.8112V34.4297H11.125ZM26.7503 34.4324V36.3539H48.517C48.517 36.3539 48.2627 34.8729 47.8193 34.4324H26.7503ZM50.0798 34.4324V36.3539H63.1727L62.5245 34.4324H50.0798ZM68.9378 34.4324L68.2896 36.3539H81.3304V34.4324H68.9378ZM15.0581 38.1719V40.0988H20.9852V38.1719H15.0581ZM30.6834 38.1719V40.0988H36.6105V38.1719H30.6834ZM42.3756 38.1719V40.0988H48.3027C48.3027 40.0988 48.679 39.0812 48.679 38.1719H42.3756ZM54.0129 38.1719V40.0988H64.5213L63.8209 38.1719H54.0129ZM67.6469 38.1719L66.9438 40.0988H77.5044V38.1719H67.6469ZM15.0581 41.9168V43.841H20.9852V41.9168H15.0581ZM30.6834 41.9168V43.841H45.8226C45.8226 43.841 47.089 42.8537 47.4925 41.9168H30.6834ZM54.0129 41.9168V43.841H59.94V42.7699L60.3163 43.841H71.1735L71.5773 42.7699V43.841H77.5044V41.9168H66.378L65.7875 43.5467L65.1942 41.9168H54.0129ZM15.0581 45.659V47.5832H20.9852V45.659H15.0581ZM30.6834 45.659V47.5832H47.4925C47.0889 46.6494 45.8226 45.659 45.8226 45.659H30.6834ZM54.0129 45.659V47.5832H59.94V45.659H54.0129ZM61.0167 45.659L61.7335 47.5832H69.8744L70.5555 45.659H61.0167ZM71.5773 45.659V47.5832H77.5044V45.659H71.5773ZM15.0581 49.4012V51.3254H20.9852V49.4012H15.0581ZM30.6834 49.4012V51.3254H36.6105V49.4012H30.6834ZM42.3756 49.4012V51.3254H48.679C48.679 50.4173 48.3027 49.4012 48.3027 49.4012H42.3756ZM54.0129 49.4012V51.3254H59.94V49.4012H54.0129ZM62.3625 49.4012L63.0574 51.3254H68.5148L69.2152 49.4012H62.3625ZM71.5773 49.4012V51.3254H77.5044V49.4012H71.5773ZM11.2321 53.1433V55.0703H24.9183V53.1433H11.2321ZM26.7503 53.1433V55.0703H47.8193C48.2627 54.6291 48.517 53.1433 48.517 53.1433H26.7503ZM50.1869 53.1433V55.0703H59.94V53.1433H50.1869ZM63.7111 53.1433L64.4252 55.0703H67.202L67.8721 53.1433H63.7111ZM71.5773 53.1433V55.0703H81.4375V53.1433H71.5773ZM11.2321 56.8883V58.8125H24.9183V56.8883H11.2321ZM26.7503 56.8883V58.8098H41.623C44.2616 58.8098 46.2538 56.8883 46.2538 56.8883H26.7503ZM50.1869 56.8883V58.8125H59.94V56.8883H50.1869ZM65.0651 56.8883L65.7518 58.807L65.8699 58.8098L66.5675 56.8883H65.0651ZM71.5773 56.8883V58.8125H81.4375V56.8883H71.5773Z" fill="#171216"/>
</svg>
