<svg width="90" height="90" viewBox="0 0 90 90" fill="none" xmlns="http://www.w3.org/2000/svg">
<g clip-path="url(#clip0_11_2)">
<path d="M41.542 45.95C41.415 45.953 41.294 45.957 41.162 45.957H35.318V35.7H40.974V35.706C43.431 35.706 45.966 37.22 45.966 40.804C45.966 44.304 43.953 45.757 41.542 45.949V45.95ZM51.34 32.096C50.4853 31.2496 49.5076 30.5372 48.44 29.983C46.626 28.947 44.49 28.335 42.141 28.246C41.9905 28.2377 41.8398 28.2334 41.689 28.233H26.415V60.35H35.311V60.345H35.318V53.433L41.878 53.425C43.8538 53.4327 45.8064 52.9988 47.593 52.155C45.8703 48.8774 45.3031 45.1146 45.9831 41.4748C46.663 37.835 48.5503 34.5307 51.34 32.096V32.096Z" fill="#171216"/>
<path d="M78.673 43.49C78.6489 43.0585 78.6072 42.6281 78.548 42.2C78.518 41.949 78.496 41.79 78.496 41.79V41.787H67.346L63.825 41.785V41.787H62.805V49.269H68.446C67.4971 50.5117 66.1994 51.4433 64.7184 51.9448C63.2375 52.4463 61.6407 52.4949 60.132 52.0844C58.6233 51.6739 57.2713 50.823 56.2486 49.6403C55.2259 48.4576 54.5791 46.9968 54.3907 45.4447C54.2023 43.8925 54.4809 42.3195 55.191 40.9265C55.901 39.5335 57.0102 38.3838 58.3769 37.6243C59.7436 36.8648 61.3056 36.53 62.8635 36.6626C64.4214 36.7953 65.9044 37.3894 67.123 38.369L67.157 38.389L73.735 32.713C67.583 26.675 57.815 26.405 51.34 32.096C53.146 33.902 54.494 36.523 54.603 40.314C54.61 40.461 54.613 40.611 54.616 40.761L54.618 40.804V40.809C54.618 40.895 54.624 40.979 54.624 41.066C54.624 45.991 51.794 50.156 47.594 52.155C50.357 57.408 55.867 61 62.204 61C68.531 61 74.034 57.42 76.802 52.18C76.8036 52.1862 76.8046 52.1926 76.805 52.199C77.027 51.792 77.224 51.373 77.395 50.942C78.1855 49.081 78.6249 47.0898 78.691 45.069C78.7047 44.8743 78.7124 44.6792 78.714 44.484C78.714 44.167 78.696 43.824 78.674 43.491L78.673 43.49Z" fill="#171216"/>
<path d="M54.624 41.066C54.624 40.979 54.619 40.894 54.618 40.809V40.804L54.616 40.761C54.614 40.611 54.61 40.461 54.603 40.314C54.494 36.523 53.146 33.901 51.34 32.096C48.5503 34.5307 46.663 37.835 45.9831 41.4748C45.3031 45.1146 45.8703 48.8774 47.593 52.155C51.794 50.155 54.623 45.991 54.623 41.066H54.624Z" fill="#171216"/>
<path d="M12 28.312L12.037 60.35H20.877L20.84 28.312H12Z" fill="#171216"/>
</g>
<defs>
<clipPath id="clip0_11_2">
<rect width="67" height="33" fill="white" transform="translate(12 28)"/>
</clipPath>
</defs>
</svg>
