<svg width="90" height="90" viewBox="0 0 90 90" fill="none" xmlns="http://www.w3.org/2000/svg">
<g clip-path="url(#clip0_8_2)">
<path fill-rule="evenodd" clip-rule="evenodd" d="M66.386 38.102C66.3915 41.9777 65.3388 45.7814 63.3415 49.1028L63.4174 49.1652L63.3244 49.1292C59.5816 55.336 52.7764 59.4882 44.9994 59.4882C37.2228 59.4882 30.4169 55.336 26.6736 49.1292L26.5807 49.1652L26.6585 49.1028C24.6607 45.7816 23.6077 41.9778 23.6132 38.102C23.6132 26.291 33.188 16.7158 44.9994 16.7158C56.8105 16.7158 66.386 26.2906 66.386 38.102ZM61.269 47.4336C62.9036 44.5955 63.7622 41.3771 63.7586 38.102C63.7586 27.8514 55.5343 19.5268 45.3255 19.3525L48.0389 36.7778L61.269 47.4336ZM44.6749 19.3525C34.4661 19.5272 26.2425 27.8518 26.2425 38.102C26.2389 41.377 27.0973 44.5953 28.7313 47.4336L41.9614 36.7778L44.6749 19.3525ZM29.1725 48.1629C32.5017 53.3895 38.3441 56.8596 45.0002 56.8596C51.6571 56.8596 57.4983 53.3895 60.8279 48.1633L45.0002 42.0397L29.1725 48.1629ZM61.0994 68.7032H57.7501V69.4786H61.0994V68.7032ZM1.74014 71.783L2.03952 64.0007L4.49732 70.6448L4.67741 71.1692L4.88694 71.7532L5.09763 72.3396L5.26184 72.8191H5.48687L5.65147 72.3249L5.84744 71.7532L6.05736 71.1994L6.23668 70.704L8.71151 64.0177L8.84513 71.785V71.8589C8.84513 72.5623 8.62011 72.728 7.60113 72.7873V73.1479C8.54536 73.0565 8.90516 73.027 9.47565 73.027C10.045 73.027 10.4056 73.058 11.3498 73.1479V72.7873C10.27 72.7118 10.136 72.5925 10.1197 71.783L9.95435 64.4213V64.3163C9.95435 63.6416 10.1805 63.4921 11.1995 63.4325V63.0568C10.6302 63.1021 10.3893 63.1172 10.0159 63.1172C9.56589 63.1172 9.2514 63.1021 8.57557 63.0433L5.74248 70.6289L2.95471 63.0433C2.4817 63.0968 2.00586 63.1215 1.52984 63.1172C1.10962 63.1172 0.884599 63.1021 0.30094 63.0568V63.4325C1.33464 63.4921 1.54494 63.6416 1.54494 64.3326V64.4213L1.23007 71.783C1.20025 72.5925 1.04959 72.7129 0.000396729 72.7873V73.1479C0.780028 73.089 1.0798 73.0739 1.50002 73.0739C1.91907 73.0739 2.22 73.089 2.98453 73.1479V72.7873C1.93418 72.7129 1.74014 72.577 1.74014 71.9182V71.783ZM14.9761 66.2361C14.0163 66.2361 13.4474 67.1196 13.2971 68.8434H16.5349C16.4455 67.0754 15.9509 66.2361 14.9761 66.2361ZM13.2681 69.3829C13.2816 71.7218 13.8823 72.7714 15.2468 72.7714C16.3103 72.7714 16.9699 72.0813 17.1496 70.807H17.7499C17.5562 72.3508 16.5961 73.266 15.1267 73.266C13.1937 73.266 12.0682 71.917 12.0682 69.6084C12.0682 67.2993 13.1933 65.8446 14.9912 65.8446C16.7607 65.8446 17.7054 67.0743 17.736 69.3829H13.2681ZM18.6279 66.13V66.3992L18.8231 66.4004C19.6016 66.4162 19.6775 66.4902 19.6918 67.1355V72.0363C19.6918 72.6823 19.5268 72.802 18.6132 72.8466V73.1467C19.4374 73.0727 19.7518 73.0561 20.2913 73.0561C20.8161 73.0561 21.1306 73.0727 21.9563 73.1467V72.8466C21.0412 72.802 20.892 72.6823 20.892 72.0363V68.9035C20.892 67.419 21.3866 66.4747 22.1651 66.4747C22.435 66.4747 22.6151 66.6242 22.6151 66.8341V66.9705L22.5853 67.1196C22.5821 67.1342 22.5788 67.1487 22.5757 67.1626C22.5653 67.208 22.5563 67.2478 22.5563 67.2706C22.5563 67.5696 22.8258 67.7799 23.1705 67.7799C23.5454 67.7799 23.8003 67.4956 23.8003 67.0607C23.8003 66.3403 23.2449 65.845 22.4958 65.845C21.7154 65.845 21.0721 66.3403 20.7414 67.1951V67.0297C20.7116 66.5793 20.6817 66.3403 20.6066 65.7849C19.9923 65.9654 19.4819 66.0553 18.6279 66.13ZM29.5358 65.7121V65.711L29.5362 65.7121H29.5358ZM29.5358 65.7121H29.2802L28.8766 66.4771C28.396 66.0123 27.9912 65.8469 27.3464 65.8469C25.5772 65.8469 24.3785 67.3756 24.3785 69.6107C24.3785 71.7985 25.5621 73.2683 27.3014 73.2683C28.65 73.2683 29.5044 72.3992 29.6996 70.7947H29.0853C28.9052 72.1134 28.3506 72.7726 27.4211 72.7726C26.267 72.7726 25.6825 71.7079 25.6825 69.6095C25.6825 67.4658 26.3413 66.2505 27.4668 66.2505C28.3808 66.2505 28.9351 66.8798 29.205 68.1854H29.5358V65.7121ZM33.6764 66.2361C32.7163 66.2361 32.1473 67.1196 31.9974 68.8434H35.2345C35.1454 67.0754 34.6508 66.2361 33.6764 66.2361ZM31.9676 69.3829C31.9827 71.7218 32.5819 72.7714 33.9463 72.7714C35.0106 72.7714 35.6702 72.0813 35.8499 70.807H36.4494C36.2554 72.3508 35.2957 73.266 33.8266 73.266C31.8913 73.266 30.767 71.917 30.767 69.6084C30.767 67.2993 31.8917 65.8446 33.6919 65.8446C35.4595 65.8446 36.4049 67.0743 36.4347 69.3829H31.9676ZM38.9378 69.5944C38.9378 71.7369 39.5072 72.8624 40.5866 72.8624C41.6663 72.8624 42.2213 71.7826 42.2217 69.7009C42.2217 67.4956 41.652 66.3566 40.542 66.3566C39.4622 66.3566 38.9378 67.4217 38.9378 69.5944ZM43.4049 62.9317V71.5871C43.4049 72.5015 43.4952 72.5754 44.4998 72.6053V72.8601L44.2752 72.8895C43.3906 72.9941 43.135 73.0538 42.5211 73.249C42.38 72.7161 42.3711 72.63 42.3215 72.1532C42.3181 72.1209 42.3146 72.0868 42.3108 72.0507C41.8914 72.8895 41.3065 73.2792 40.4522 73.2792C38.817 73.2792 37.6783 71.7664 37.6783 69.6072C37.6783 67.4484 38.8034 65.9344 40.4072 65.9344C41.2171 65.9344 41.652 66.2052 42.2066 67.1041V64.4809C42.2066 63.7017 42.0866 63.5967 41.1423 63.5967V63.3411C41.9816 63.2512 42.6555 63.1323 43.4049 62.9317ZM47.977 66.2361C47.0169 66.2361 46.4475 67.1196 46.2977 68.8434H49.5351C49.4452 67.0754 48.9514 66.2361 47.977 66.2361ZM46.2674 69.3829C46.2833 71.7218 46.8817 72.7714 48.2469 72.7714C49.3101 72.7714 49.9708 72.0813 50.1493 70.807H50.7493C50.5552 72.3508 49.5959 73.266 48.1269 73.266C46.1919 73.266 45.068 71.917 45.068 69.6084C45.068 67.2993 46.1919 65.8446 47.9921 65.8446C49.7605 65.8446 50.7047 67.0743 50.7349 69.3829H46.2674ZM52.008 70.7768V73.2815H52.2756L52.637 72.6076C53.2063 73.0569 53.7462 73.237 54.4363 73.237C55.8442 73.237 56.8492 72.3388 56.8492 71.0793C56.8492 70.1943 56.4429 69.7133 55.3047 69.2203L54.6745 68.9496C53.3101 68.3504 53.0851 68.1544 53.0851 67.5553C53.0851 66.8508 53.7012 66.3109 54.4956 66.3109C55.4394 66.3109 55.9332 66.8794 56.0692 68.0793H56.4147V65.7555H56.1447L55.8906 66.3698C55.3817 66.0266 54.946 65.8918 54.3612 65.8918C53.0409 65.8918 52.1122 66.7001 52.1122 67.8849C52.1122 68.7547 52.4565 69.175 53.5521 69.6843L54.2415 69.9988L54.8109 70.2544C55.5467 70.5851 55.831 70.9294 55.831 71.4391C55.831 72.2021 55.1707 72.7873 54.2872 72.7873C53.2373 72.7873 52.6071 72.1273 52.338 70.7625L52.008 70.7768ZM66.7761 68.5882C66.4306 68.2443 65.9809 68.1087 65.187 68.1087L63.7633 68.1076V71.8562C63.7633 72.5158 63.8976 72.6366 64.6928 72.6366H65.2323C66.5661 72.6366 67.3167 71.7962 67.3167 70.297C67.3167 69.5785 67.1211 68.9345 66.7761 68.5882ZM63.7633 63.5657H65.0367C66.2962 63.5657 66.8504 64.1815 66.8504 65.575C66.8504 66.2644 66.6858 66.7602 66.3562 67.1486C66.0262 67.5247 65.6219 67.6432 64.783 67.6432H63.7633V63.5657ZM67.285 63.6405C67.8551 64.0766 68.1843 64.7652 68.1843 65.5448C68.1843 66.5944 67.6157 67.3593 66.5351 67.766C67.0754 67.8698 67.4058 68.0065 67.7199 68.2462C68.3043 68.6943 68.6494 69.4283 68.6494 70.2397C68.6494 71.1823 68.1548 72.0971 67.4058 72.5766C66.7757 72.9662 66.175 73.1022 65.0661 73.1022H61.2733V72.7416C62.3818 72.6502 62.5026 72.5464 62.5026 71.7366V64.4658C62.5026 63.6564 62.3535 63.5367 61.2733 63.4763V63.1017H65.216C66.192 63.1017 66.7761 63.266 67.285 63.6405ZM72.7768 66.2361C71.8167 66.2361 71.2474 67.1196 71.0967 68.8434H74.335C74.2459 67.0754 73.7505 66.2361 72.7768 66.2361ZM71.0673 69.3829C71.0816 71.7218 71.6824 72.7714 73.0468 72.7714C74.1111 72.7714 74.7707 72.0813 74.9492 70.807H75.5491C75.3543 72.3508 74.3946 73.266 72.9256 73.266C70.9922 73.266 69.8675 71.917 69.8675 69.6084C69.8675 67.2993 70.9922 65.8446 72.7912 65.8446C74.5604 65.8446 75.5054 67.0743 75.5356 69.3829H71.0673ZM76.3284 66.2052V66.4588C76.3707 66.4588 76.4125 66.4638 76.4493 66.4682C76.4782 66.4717 76.5039 66.4747 76.5244 66.4747C77.2734 66.4747 77.3632 66.5634 77.3783 67.1796V72.0359C77.3783 72.6812 77.2277 72.8009 76.314 72.8454V73.1456C77.0933 73.07 77.4089 73.0557 77.9337 73.0557C78.474 73.0557 78.7734 73.07 79.5534 73.1456V72.8454C78.7734 72.8167 78.5774 72.6661 78.5774 72.0665V68.4376C78.5774 67.209 79.1165 66.5634 80.1371 66.5634C81.096 66.5634 81.4856 67.089 81.4856 68.393V72.0665C81.4856 72.6661 81.2904 72.8167 80.481 72.8454V73.1456C81.2614 73.07 81.5604 73.0557 82.1162 73.0557C82.6561 73.0557 82.9554 73.07 83.7498 73.1456V72.8454C82.8362 72.8009 82.6863 72.6812 82.6863 72.0359V68.4376C82.6863 67.8686 82.6115 67.4496 82.4609 67.089C82.1599 66.3535 81.3815 65.8907 80.4814 65.8907C79.6111 65.8907 78.9972 66.2493 78.457 67.0595C78.4279 66.4898 78.3826 66.1014 78.3067 65.7551C77.7079 65.9654 77.1982 66.0843 76.3284 66.2052ZM88.395 66.4151L84.3323 73.1022H89.4907L89.8799 70.9426H89.5651C89.115 72.3078 88.696 72.7118 87.6754 72.7118H85.9221L90.0004 66.0251H84.8431L84.498 67.974H84.7967C85.3358 66.6242 85.5771 66.4151 86.5507 66.4151H88.395Z" fill="#171216"/>
</g>
<defs>
<clipPath id="clip0_8_2">
<rect width="90" height="90" fill="white"/>
</clipPath>
</defs>
</svg>
