<svg width="90" height="90" viewBox="0 0 90 90" fill="none" xmlns="http://www.w3.org/2000/svg">
<path d="M28.8109 65.7445V61.4151L27.329 64.5579L25.9028 61.4151V65.7445H24.7282V59.1079H26.0222L27.329 62.1305L28.6907 59.1079H29.9935V65.7445" fill="#171216"/>
<path d="M31.0615 65.7445H32.2465V59.1079H31.0615V65.7445Z" fill="#171216"/>
<path d="M35.3822 60.1147V65.7445H34.1996V60.1147H32.7798V59.1079H36.8083V60.1147" fill="#171216"/>
<path d="M39.0009 65.9251C37.4593 65.9251 36.9285 64.9136 36.8672 63.6657H37.995C37.995 64.2658 38.2926 64.8515 39.0009 64.8515C39.5922 64.8515 39.9488 64.5579 39.9488 64.0875C39.9488 63.6657 39.6551 63.4899 38.4088 62.7831C37.519 62.2459 36.9285 61.7151 36.9285 60.7665C36.9285 59.7573 37.5819 59.0506 38.9444 59.0506C40.4223 59.0506 40.9571 59.9953 41.016 61.1198H39.835C39.835 60.5874 39.5405 60.051 38.9444 60.051C38.4088 60.051 38.1143 60.2945 38.1143 60.706C38.1143 61.1787 38.4685 61.4151 39.414 61.8934C40.482 62.4903 41.133 62.9574 41.133 64.031C41.133 65.271 40.1302 65.9251 39.0009 65.9251Z" fill="#171216"/>
<path d="M43.9383 65.8591C42.8759 65.8591 41.6296 65.4452 41.6296 63.6657V59.1087H42.8154V63.6657C42.8154 64.378 43.1711 64.7966 43.9383 64.7966C44.5941 64.7966 44.9554 64.378 44.9554 63.6657V59.1087H46.1349V63.6657C46.1349 65.3879 44.9554 65.8591 43.9383 65.8591Z" fill="#171216"/>
<path d="M48.9785 62.8404H48.5065V61.7756H48.9785C49.5722 61.7756 49.9239 61.5392 49.9239 60.9479C49.9239 60.3558 49.5109 60.1147 48.9785 60.1147H48.0911V64.7393H49.0366C49.6868 64.7393 50.103 64.4425 50.103 63.731C50.103 63.0768 49.6868 62.8404 48.9785 62.8404ZM49.3326 65.7445H46.9085V59.1087H49.1002C50.3401 59.1087 51.1081 59.6992 51.1081 60.7665C51.1081 61.6522 50.4635 62.1894 50.1627 62.2459C50.5797 62.3685 51.3461 62.8404 51.3461 63.9069C51.3461 64.9701 50.52 65.7445 49.3326 65.7445Z" fill="#171216"/>
<path d="M62.4824 65.7445V62.8404H60.0654V65.7445H58.8167V59.1079H60.0654V61.7151H62.4267V59.1079H63.6714V65.7445" fill="#171216"/>
<path d="M51.9995 65.7445H53.1853V59.1079H51.9995V65.7445Z" fill="#171216"/>
<path d="M64.7975 65.7445H65.9825V59.1079H64.7975V65.7445Z" fill="#171216"/>
<path d="M56.0886 65.7994C54.5454 65.7994 54.0146 64.8515 53.9549 63.5487H55.0786C55.0786 64.1424 55.3747 64.7958 56.0886 64.7958C56.6838 64.7958 57.0412 64.499 57.0412 64.0302C57.0412 63.6068 56.7459 63.3665 55.5004 62.659C54.6099 62.1886 54.0146 61.6514 54.0146 60.706C54.0146 59.6984 54.6656 58.9925 56.0313 58.9925C57.5123 58.9925 58.0455 59.9356 58.106 61.0561H56.9815C56.917 60.4696 56.6202 59.9945 56.0313 59.9945C55.5585 59.9945 55.2004 60.2285 55.2004 60.6447C55.2004 61.0561 55.5585 61.2997 56.5072 61.8361C57.5712 62.4202 58.2238 62.8396 58.2238 63.9729C58.2238 65.1484 57.2155 65.7994 56.0886 65.7994Z" fill="#171216"/>
<path d="M39.0529 69.1662C38.1641 69.1662 37.6216 70.1719 37.6216 71.5495C37.6216 72.9183 38.1641 73.8688 39.0529 73.8688C39.9489 73.8688 40.4889 72.9183 40.4889 71.5495C40.4889 70.1719 39.9489 69.1662 39.0529 69.1662ZM39.0529 75C37.2112 75 36.3744 73.4 36.3744 71.5495C36.3744 69.6982 37.2112 68.0974 39.0529 68.0974C40.9025 68.0974 41.7346 69.6982 41.7346 71.5495C41.7346 73.4 40.9025 75 39.0529 75Z" fill="#171216"/>
<path d="M54.439 74.824L52.4749 71.2543H52.8285C53.2469 71.2543 53.9637 71.1335 53.9637 70.1726C53.9637 69.3414 53.2469 69.1662 52.7701 69.1662H52.0557V74.824H50.862V68.1534H53.0709C54.3774 68.1534 55.2694 68.807 55.2694 70.0574C55.2694 71.2543 54.5598 71.7231 54.1405 71.9071L55.8694 74.824" fill="#171216"/>
<path d="M57.9071 74.8824C56.3574 74.8824 55.8222 73.936 55.7582 72.6183H56.8926C56.8926 73.2159 57.191 73.8688 57.9071 73.8688C58.5031 73.8688 58.8671 73.572 58.8671 73.1023C58.8671 72.6807 58.5599 72.4399 57.3126 71.7231C56.419 71.2543 55.8222 70.7215 55.8222 69.7614C55.8222 68.751 56.4758 68.0374 57.8463 68.0374C59.3383 68.0374 59.8775 68.9854 59.9311 70.1222H58.7415C58.7415 69.5198 58.4455 69.0518 57.8463 69.0518C57.3702 69.0518 57.0102 69.2854 57.0102 69.6982C57.0102 70.1222 57.3702 70.3559 58.3231 70.8943C59.3959 71.4871 60.0551 71.9071 60.0551 73.0439C60.0551 74.2264 59.0431 74.8824 57.9071 74.8824Z" fill="#171216"/>
<path d="M47.7292 69.1662C46.8355 69.1662 46.2979 70.1719 46.2979 71.5495C46.2979 72.9183 46.8355 73.8688 47.7292 73.8688C48.6252 73.8688 49.1564 72.9183 49.1564 71.5495C49.1564 70.1719 48.6252 69.1662 47.7292 69.1662ZM47.7292 75C45.8851 75 45.0547 73.4 45.0547 71.5495C45.0547 69.6982 45.8851 68.0974 47.7292 68.0974C49.578 68.0974 50.4052 69.6982 50.4052 71.5495C50.4052 73.4 49.578 75 47.7292 75Z" fill="#171216"/>
<path d="M43.9562 69.1662V74.8232H42.7634V69.1662H41.3362V68.1534H45.3883V69.1662" fill="#171216"/>
<path d="M34.7688 74.824V70.4718L33.2759 73.6391L31.8447 70.4718V74.824H30.6502V68.1534H31.9639L33.2759 71.1919L34.6456 68.1534H35.964V74.824" fill="#171216"/>
<path d="M45.3208 41.9804L37.5486 28.5185L45.3208 15L53.1496 28.5185" fill="#171216"/>
<path d="M53.1496 55.4393L45.3198 41.9804H60.9238L68.7001 55.4393" fill="#171216"/>
<path d="M37.5475 55.4393H22L29.7723 41.9804H45.3198" fill="#171216"/>
</svg>
