<svg width="90" height="90" viewBox="0 0 90 90" fill="none" xmlns="http://www.w3.org/2000/svg">
<g clip-path="url(#clip0_8_11)">
<mask id="mask0_8_11" style="mask-type:luminance" maskUnits="userSpaceOnUse" x="-7" y="31" width="104" height="28">
<path d="M-6.89272 31.1059H96.8987V58.677H-6.89272V31.1059Z" fill="white"/>
</mask>
<g mask="url(#mask0_8_11)">
<path d="M85.4488 44.0543V45.9308H86.7675V47.7925C86.7716 47.9589 86.7625 48.1383 86.7339 48.2819C86.6816 48.6291 86.3517 49.2204 85.4156 49.2204C84.4851 49.2204 84.1611 48.6291 84.105 48.2819C84.0813 48.1383 84.0713 47.9589 84.0713 47.7925V41.9122C84.0713 41.7042 84.0853 41.4765 84.1294 41.3042C84.1933 40.9908 84.4711 40.3727 85.4086 40.3727C86.3928 40.3727 86.6385 41.0243 86.6948 41.3042C86.7318 41.4896 86.7339 41.8005 86.7339 41.8005V42.5145H89.9742V42.0924C89.9742 42.0924 89.9889 41.652 89.9496 41.2409C89.7061 38.8274 87.7174 38.0638 85.4372 38.0638C83.1529 38.0638 81.2045 38.8345 80.9207 41.2409C80.8951 41.461 80.8559 41.8568 80.8559 42.0924V47.5017C80.8559 47.7373 80.8635 47.9197 80.9071 48.3503C81.1186 50.6974 83.1529 51.5294 85.4281 51.5294C87.7174 51.5294 89.7376 50.6974 89.9527 48.3503C89.9909 47.9197 89.9949 47.7373 90 47.5017V44.0543H85.4488ZM63.1066 38.4099H59.8526V47.9281C59.8577 48.094 59.8526 48.2804 59.824 48.417C59.7561 48.7365 59.4853 49.3514 58.5876 49.3514C57.7014 49.3514 57.4235 48.7365 57.3607 48.417C57.3282 48.2804 57.324 48.094 57.3282 47.9281V38.4099H54.0752V47.6327C54.071 47.8705 54.0897 48.3562 54.1037 48.4834C54.3283 50.8867 56.2224 51.667 58.5876 51.667C60.9573 51.667 62.8503 50.8867 63.079 48.4834C63.097 48.3562 63.1206 47.8705 63.1066 47.6327V38.4099ZM33.2084 38.4099L31.5852 48.4672L29.963 38.4099H24.7141L24.4358 51.2761H27.6514L27.7385 39.3655L29.951 51.2761H33.2136L35.428 39.3655L35.5154 51.2761H38.7392L38.4514 38.4099H33.2084ZM13.7746 38.4099L11.3913 51.2761H14.8668L16.6628 39.3655L18.4157 51.2761H21.8671L19.4937 38.4099H13.7746ZM74.4786 48.7687L71.4487 38.4099H66.6741V51.142H69.8326L69.6492 40.4517L72.9032 51.142H77.4823V38.4099H74.3032L74.4786 48.7687ZM45.2632 41.7584C45.206 41.5043 45.2225 41.2343 45.2521 41.0932C45.3441 40.6814 45.6209 40.2321 46.4182 40.2321C47.1613 40.2321 47.5969 40.6954 47.5969 41.3906V42.1773H50.769V41.2806C50.769 38.5083 48.2836 38.0728 46.4841 38.0728C44.2177 38.0728 42.3669 38.8199 42.0289 40.9059C41.9395 41.4735 41.9173 41.9774 42.0596 42.6204C42.6107 45.2213 47.1386 45.9759 47.7959 47.6207C47.9118 47.9323 47.8786 48.3296 47.8195 48.5637C47.721 48.9918 47.433 49.4223 46.5794 49.4223C45.7788 49.4223 45.2969 48.962 45.2969 48.2683L45.2959 47.0335H41.8816V48.015C41.8816 50.8591 44.1093 51.7172 46.5087 51.7172C48.8066 51.7172 50.7045 50.932 51.009 48.8034C51.1542 47.7036 51.0447 46.9873 50.9864 46.7175C50.4544 44.0498 45.6285 43.2474 45.2632 41.7584ZM3.41985 41.7268C3.35757 41.4674 3.3721 41.1937 3.4068 41.0509C3.49469 40.641 3.77307 40.1839 4.58442 40.1839C5.33695 40.1839 5.78004 40.6516 5.78004 41.3524V42.1488H8.98926V41.2449C8.98926 38.4461 6.46583 38 4.6467 38C2.36135 38 0.493979 38.7586 0.152323 40.8596C0.0588144 41.4364 0.0427838 41.9437 0.177926 42.5938C0.735015 45.2243 5.30771 45.9849 5.97301 47.6494C6.09758 47.9589 6.05991 48.3562 5.99812 48.5994C5.89255 49.0319 5.60228 49.4686 4.74153 49.4686C3.93779 49.4686 3.45702 49.0004 3.45702 48.2971L3.45256 47.059H0V48.0428C0 50.9194 2.25925 51.7845 4.67727 51.7845C7.00194 51.7845 8.91094 50.9923 9.22237 48.8391C9.37717 47.7292 9.26103 47.0069 9.20882 46.733C8.66578 44.0326 3.78612 43.2329 3.41985 41.7268Z" fill="#171216"/>
</g>
</g>
<defs>
<clipPath id="clip0_8_11">
<rect width="90" height="90" fill="white"/>
</clipPath>
</defs>
</svg>
