<svg width="90" height="90" viewBox="0 0 90 90" fill="none" xmlns="http://www.w3.org/2000/svg">
<path fill-rule="evenodd" clip-rule="evenodd" d="M34.1231 42.7334C32.2535 42.7222 31.8228 44.4848 31.8128 46.0893C31.8028 47.7212 32.2149 49.49 34.0833 49.5012C35.9542 49.5112 36.3849 47.7498 36.3948 46.1154C36.4048 44.5109 35.9928 42.7421 34.1231 42.7334ZM26.8536 34H32.0667L32.0294 40.7728H32.0817C32.8783 39.6189 34.2775 38.9418 35.8322 38.9505C40.413 38.9779 41.6279 42.8815 41.6092 46.0955C41.5893 49.5187 39.6972 53.3252 35.8272 53.304C33.2729 53.2878 32.4887 52.3095 31.8352 51.4356H31.7829L31.773 52.9057H26.8536V34ZM0 38.8322H5.26168L5.26541 52.9057H11.0337L11.0312 38.8322H16.2991V34.0299H0V38.8322ZM19.0426 47.3851C19.7521 47.2308 20.4654 47.0503 21.099 46.7378L21.0928 48.0025C21.0044 49.4253 20.0795 50.1298 18.8945 50.1236C17.9472 50.1174 17.2663 49.4826 17.2701 48.849C17.2738 47.9278 17.8812 47.6428 19.0426 47.3851ZM26.698 52.9082C26.1242 52.0356 26.0781 50.8767 26.0856 49.8498L26.1155 44.2408L26.1159 44.1821C26.1335 41.5679 26.1516 38.8954 19.67 38.8571C16.4298 38.8385 12.7926 39.4496 12.6133 43.2935L17.4593 43.3209C17.4879 42.7421 17.8103 41.9292 19.4161 41.9367C20.2588 41.9404 21.1251 42.289 21.1189 43.2114C21.1152 44.0802 20.4032 44.2869 19.6912 44.4151C19.2683 44.492 18.785 44.552 18.271 44.6157C15.55 44.9533 11.9694 45.3976 11.9474 49.0307C11.9312 51.9012 14.1096 53.1771 16.7423 53.1932C18.4289 53.202 20.0372 52.8435 21.15 51.5862H21.2036C21.1737 51.9534 21.2496 52.5074 21.3791 52.8771L26.698 52.9082ZM46.6668 41.1824C46.6755 39.7347 46.9506 37.8128 48.926 37.8252C50.9003 37.8364 51.1529 39.7596 51.1442 41.2073C51.1355 42.6574 50.8592 44.6043 48.885 44.5931C46.9107 44.5819 46.6593 42.63 46.6668 41.1824ZM41.4536 41.1525C41.43 44.9441 43.7278 48.3548 48.8638 48.3847C52.1154 48.4036 54.2444 47.0539 55.375 45.0991C56.4938 47.0261 58.5947 48.3652 61.8033 48.3847C66.9392 48.4133 69.2757 45.0312 69.2981 41.2371C69.3192 37.4455 67.0214 34.0622 61.8867 34.0324C58.636 34.0135 56.5068 35.3521 55.3766 37.299C54.2572 35.3802 52.1562 34.0527 48.9472 34.0349C43.8112 34.0037 41.476 37.3597 41.4536 41.1525ZM61.8655 37.824C59.8913 37.8115 59.6162 39.7335 59.6087 41.1824C59.5988 42.6301 59.8515 44.5806 61.8269 44.5918C63.7999 44.6043 64.0762 42.6562 64.085 41.2073C64.0924 39.7596 63.8397 37.8352 61.8655 37.824ZM74.9643 34.0336H69.8607V52.9057H74.9643V34.0336ZM84.467 46.693C83.8334 47.0042 83.1201 47.1847 82.4106 47.3378C81.248 47.5955 80.643 47.8818 80.6368 48.8029C80.633 49.4353 81.3139 50.0701 82.2612 50.0763C83.4475 50.0825 84.3724 49.378 84.4595 47.9552L84.467 46.693ZM89.4859 49.8012C89.4855 49.8778 89.4849 49.9555 89.4842 50.0339C89.4759 51.0061 89.4666 52.0982 89.9988 52.9057H84.7582C84.63 52.536 84.5416 51.9061 84.5715 51.5389L84.518 51.5377C83.4052 52.7949 81.7981 53.1547 80.1115 53.1447C77.4775 53.1273 75.2992 51.8514 75.3166 48.9809C75.3386 45.3481 78.917 44.9045 81.638 44.5672C82.1523 44.5034 82.6359 44.4435 83.0591 44.3665C83.7711 44.2383 84.4831 44.0317 84.4881 43.1628C84.4943 42.2404 83.628 41.8931 82.784 41.8882C81.177 41.8795 80.8571 42.6935 80.8285 43.2724L75.9801 43.2462C76.1605 39.4023 79.799 38.7899 83.038 38.8111C89.5183 38.8469 89.5015 41.5196 89.485 44.1333L89.4847 44.1935V49.8012H89.4859ZM55.1387 50.7983C50.9525 50.7746 47.1111 50.0402 43.4092 48.3859L43.3818 52.9418C47.4522 54.8625 50.6588 55.7762 55.1089 55.8023C59.1917 55.826 63.2895 54.8152 67.0674 52.9418L67.0923 48.3859C62.8713 49.9942 59.5365 50.8244 55.1387 50.7983Z" fill="#171216"/>
</svg>
