<svg width="90" height="90" viewBox="0 0 90 90" fill="none" xmlns="http://www.w3.org/2000/svg">
<path fill-rule="evenodd" clip-rule="evenodd" d="M68.1063 52.2447C67.8301 52.3331 67.5394 52.4119 67.2406 52.4777L67.1945 52.4873L67.1614 52.4945C66.66 52.5994 66.1377 52.6639 65.6244 52.6639C63.7424 52.6639 63.2545 51.8952 63.2545 49.9238V41.7122H68.4486V38.3704H63.5333C63.2545 38.3704 63.2545 38.2701 63.2545 38.0361V33.8778C63.2545 33.8778 59.8718 33.8682 59.8707 33.8778C59.7769 34.545 59.6459 35.1268 59.4756 35.6392C58.8262 37.3568 57.5677 38.1387 55.2709 38.3581V41.7154H57.7112C57.99 41.7154 57.99 41.8492 57.99 42.0492V51.0265C57.99 54.802 59.5586 56.4058 63.7074 56.4058C65.6945 56.4058 67.891 55.7711 69.3899 55.0696C69.3899 55.0696 68.1333 52.2362 68.1063 52.2447ZM33.5324 45.5557C33.4976 42.7865 32.363 42.0616 30.9528 42.0616C29.4738 42.0616 28.2703 42.853 28.0639 45.5557H33.5324ZM38.4845 54.7192C36.3523 55.7083 34.0138 56.4005 31.434 56.4005C24.7967 56.4005 22.527 52.4448 22.527 47.3029C22.527 41.3364 26.3443 38.5014 31.056 38.5014C35.5955 38.5014 38.6223 40.7762 38.6223 46.4788C38.6223 46.8741 38.5875 48.028 38.5533 48.6876H28.0295C28.2015 51.0276 29.2674 52.5766 32.0878 52.5766C33.429 52.5766 34.8738 52.28 37.2119 51.4563L38.4845 54.7192ZM76.2276 52.5875C76.6961 52.8245 77.2361 52.9393 77.8465 52.9393C80.0819 52.9393 81.4573 51.4563 81.4573 47.336C81.4573 46.4471 81.3893 45.6952 81.263 45.0546L76.2276 52.5875ZM77.9835 42.0618C75.7142 42.0618 74.2008 43.4133 74.2008 47.3683C74.2008 48.2425 74.2688 48.9944 74.3938 49.6461L79.3457 42.293C78.9442 42.1374 78.4912 42.0618 77.9835 42.0618ZM68.7675 47.5335C68.7675 42.0618 71.7593 38.5016 78.0529 38.5016C84.4146 38.5016 86.8912 42.128 86.8912 47.1706C86.8912 52.7746 83.9336 56.4005 77.6055 56.4005C71.3121 56.4005 68.7675 52.7089 68.7675 47.5335ZM21.3487 33.8789H3.21639V41.0981H6.88762L7.50129 37.7877C7.56585 37.4785 7.66246 37.4475 8.0175 37.4475H14.7641L3.08878 52.9767V55.9775H21.2555V49.0167H17.7694L17.1557 52.3265C17.0914 52.6359 16.9942 52.6667 16.6395 52.6667H9.47928L21.3487 36.8797V33.8789ZM53.8351 38.3502V38.9237C53.8351 38.9237 53.8402 40.1078 53.8351 40.9334V41.7154H53.6992C50.3853 41.7086 48.6105 42.6608 47.8431 43.2354C47.5405 43.483 47.3673 43.6607 47.3673 43.6607V52.3496C47.3673 52.3579 47.3617 52.3685 47.3583 52.3779L47.3598 52.3762L47.36 52.3872L47.3639 52.3832C47.3639 52.6299 47.3813 52.7788 47.4573 52.8752C47.5361 52.9705 47.6754 53.0126 47.9185 53.0461L49.4903 53.2466V55.958H39.977V53.2517L41.5456 53.0512C42.0336 52.9843 42.1035 52.8841 42.1035 52.3832V42.5928C42.1035 42.2253 41.9992 41.9915 41.6501 41.8908L39.7677 41.2564L40.151 38.5496H46.2864L46.7048 41.2232H46.9145C48.0646 39.5189 49.5988 38.216 51.8299 38.216C52.33 38.216 53.1424 38.2676 53.8351 38.347C53.8351 38.347 53.8321 38.3496 53.8317 38.3502H53.8351Z" fill="#171216"/>
</svg>
