<svg width="90" height="90" viewBox="0 0 90 90" fill="none" xmlns="http://www.w3.org/2000/svg">
<g clip-path="url(#clip0_8_13)">
<path d="M56.9068 53.0587H54.4623V51.1496C53.1223 52.3216 51.4138 53.0587 49.5046 53.0587C45.4181 53.0587 42.1025 49.7431 42.1025 45.6566C42.1025 41.5701 45.4181 38.2544 49.5046 38.2544C53.5911 38.2544 56.9068 41.5701 56.9068 45.6566V53.0587ZM49.5384 35.6747C44.1119 35.6747 39.7245 40.096 39.7245 45.4886C39.7245 50.9151 44.1119 55.3026 49.5384 55.3026C51.0125 55.3026 52.419 54.9678 53.6587 54.3987L54.3282 54.6669L59.3186 56.7429V45.4886C59.3186 40.096 54.9311 35.6747 49.5384 35.6747Z" fill="#171216"/>
<path d="M8.67454 51.384C5.493 51.384 2.91441 48.7716 2.91441 45.59C2.91441 42.4074 5.493 39.795 8.67454 39.795C11.891 39.795 14.4696 42.4074 14.4696 45.59C14.4696 48.7716 11.891 51.384 8.67454 51.384ZM8.67454 36.9144C3.88588 36.9144 0 40.8003 0 45.59C0 50.3798 3.88588 54.2646 8.67454 54.2646C10.9195 54.2646 12.9289 53.4272 14.4696 52.0545V54.2646H17.384V45.59C17.384 40.8003 13.4981 36.9144 8.67454 36.9144Z" fill="#171216"/>
<path d="M19.6944 54.2646H22.575V34H19.6944V54.2646Z" fill="#171216"/>
<path d="M87.1194 54.2646H90V34H87.1194V54.2646Z" fill="#171216"/>
<path d="M33.5621 51.384C30.3794 51.384 27.8008 48.7716 27.8008 45.59C27.8008 42.4074 30.3794 39.795 33.5621 39.795C35.1692 39.795 36.6095 40.4645 37.6813 41.5035L39.7245 39.4603C38.1501 37.8859 35.9727 36.9144 33.5621 36.9144C28.7723 36.9144 24.8864 40.8003 24.8864 45.59C24.8864 50.3798 28.7723 54.2646 33.5621 54.2646C35.9727 54.2646 38.1501 53.2931 39.7245 51.7187L37.6813 49.6755C36.6095 50.7145 35.1692 51.384 33.5621 51.384Z" fill="#171216"/>
<path d="M64.5444 36.9144V34H61.6638V54.2646H64.5444V39.795H67.4239V36.9144" fill="#171216"/>
<path d="M76.0996 39.795C78.8123 39.795 81.0572 41.6377 81.7267 44.1497H70.5063C71.1757 41.6377 73.4196 39.795 76.0996 39.795ZM80.487 49.3407C79.449 50.5804 77.8746 51.384 76.0996 51.384C73.4196 51.384 71.1757 49.5424 70.5063 47.0304H84.6738C84.7414 46.5604 84.8079 46.0916 84.8079 45.59C84.8079 40.8003 80.9231 36.9144 76.0996 36.9144C71.3098 36.9144 67.424 40.8003 67.424 45.59C67.424 50.3798 71.3098 54.2646 76.0996 54.2646C79.5493 54.2646 82.5303 52.2551 83.9368 49.3407" fill="#171216"/>
<path d="M49.5046 40.6324C46.7254 40.6324 44.4805 42.8763 44.4805 45.6566C44.4805 48.4369 46.7254 50.6807 49.5046 50.6807C52.2849 50.6807 54.5288 48.4369 54.5288 45.6566C54.5288 42.8763 52.2849 40.6324 49.5046 40.6324Z" fill="#171216"/>
</g>
<defs>
<clipPath id="clip0_8_13">
<rect width="90" height="22.7429" fill="white" transform="translate(0 34)"/>
</clipPath>
</defs>
</svg>
