<svg width="90" height="90" viewBox="0 0 90 90" fill="none" xmlns="http://www.w3.org/2000/svg">
<path fill-rule="evenodd" clip-rule="evenodd" d="M89.9506 54.7788H0.039505V45.4568C0.398948 48.2655 3.19976 50.0785 7.97163 50.0785C9.76983 50.103 11.5533 49.7518 13.208 49.0473C13.2188 49.0438 13.228 49.0368 13.2342 49.0272C13.2403 49.0177 13.243 49.0064 13.2418 48.9951L13.2263 46.4997C13.2267 46.4861 13.2218 46.4729 13.2125 46.4628C13.2033 46.4528 13.1906 46.4468 13.177 46.4461L12.9851 46.4348C12.9732 46.4352 12.9617 46.4394 12.9524 46.4468C12.943 46.4541 12.9362 46.4643 12.9329 46.4757C12.3221 48.7638 10.3768 49.6314 7.97163 49.6314C4.67351 49.6314 2.38683 47.7975 2.38683 44.7759C2.38683 41.7542 4.37586 39.9359 7.98856 39.9359C10.5715 39.9359 12.174 41.0306 12.7975 42.7967C12.8003 42.808 12.8069 42.8181 12.8161 42.8252C12.8253 42.8324 12.8366 42.8362 12.8483 42.8362H13.0458C13.0588 42.8353 13.0712 42.8299 13.0807 42.8209C13.0903 42.8119 13.0964 42.7999 13.098 42.7868L13.3053 40.4593C13.3066 40.4471 13.3036 40.4348 13.2969 40.4246C13.2903 40.4143 13.2803 40.4066 13.2687 40.4028C11.5818 39.7668 9.79118 39.4511 7.98856 39.4718C3.61146 39.4718 0.425965 41.5358 0.039505 44.2626V35H89.9506V46.5225C89.7795 45.7355 89.1756 45.179 88.3256 44.7759C87.3804 44.3287 86.1546 44.0959 84.8455 43.8646L83.8171 43.6812C81.6136 43.3172 80.6685 42.8348 80.6685 41.6767C80.6685 40.6158 81.8788 39.9035 84.2487 39.9035C86.7879 39.9035 87.9701 41.0729 88.3947 42.5583C88.398 42.5724 88.4062 42.5848 88.4178 42.5933C88.4295 42.6018 88.4438 42.6059 88.4582 42.6049H88.6726C88.6865 42.6043 88.6997 42.5986 88.7098 42.589C88.7199 42.5795 88.7262 42.5665 88.7276 42.5527L88.9364 40.2335C88.9372 40.2289 88.9362 40.2241 88.9336 40.2201C88.931 40.2162 88.9269 40.2134 88.9223 40.2124C87.421 39.7145 85.8487 39.4644 84.2671 39.4718C81.1848 39.4718 78.8149 40.4339 78.8149 42.3721C78.8149 44.347 80.6882 44.924 83.2246 45.3881L84.2008 45.5546L84.366 45.5847C86.5558 45.9837 88.2127 46.2856 88.2127 47.7086C88.2127 49.0516 86.3788 49.6299 84.0188 49.6299C81.7956 49.6299 79.7361 48.7469 79.0604 46.4757C79.0571 46.4631 79.0496 46.4519 79.039 46.4442C79.0285 46.4365 79.0156 46.4327 79.0025 46.4334H78.7994C78.7846 46.4337 78.7705 46.4395 78.7598 46.4497C78.7491 46.4599 78.7426 46.4737 78.7415 46.4884L78.5158 49.0459C78.5152 49.0526 78.5167 49.0593 78.5203 49.0649C78.5239 49.0705 78.5293 49.0748 78.5356 49.077C79.2494 49.3803 81.2271 50.0785 84.016 50.0785C87.3835 50.0785 89.5984 49.2601 89.9506 47.5087V54.7788ZM40.8216 49.5919C39.7227 49.4508 39.0371 48.5014 38.2824 47.1937L35.179 41.9066C34.4737 40.6976 33.6357 39.311 33.6357 39.311C33.6244 39.2955 33.6146 39.2926 33.5849 39.2926H33.4918C33.482 39.2914 33.4721 39.2934 33.4635 39.2982C33.4549 39.303 33.448 39.3105 33.4439 39.3194C33.3355 39.4992 33.2258 39.6879 33.0911 39.9197L33.0909 39.9199C32.8207 40.3847 32.4498 41.0227 31.7864 42.1097L29.0356 46.5674C27.773 48.6552 26.9859 49.4466 26.4555 49.5904C26.4447 49.595 26.4353 49.6024 26.4283 49.6118C26.4214 49.6212 26.4171 49.6324 26.416 49.6441V49.8571C26.417 49.8722 26.4237 49.8863 26.4347 49.8968C26.4456 49.9072 26.4601 49.9132 26.4752 49.9135C26.842 49.898 27.2737 49.8825 28.1074 49.8825C28.9072 49.8825 30.0907 49.9135 30.0907 49.9135C30.1058 49.9128 30.12 49.9061 30.1303 49.8951C30.1406 49.884 30.1462 49.8693 30.1458 49.8542V49.6426C30.1452 49.6298 30.1405 49.6175 30.1324 49.6076C30.1242 49.5977 30.1131 49.5907 30.1006 49.5876C29.2232 49.3845 28.9199 48.9415 28.9199 48.3886C28.9199 47.8356 29.2514 47.1951 29.6986 46.3995L30.0386 45.7958C30.044 45.7828 30.0533 45.7718 30.0651 45.7643C30.0769 45.7567 30.0908 45.7529 30.1049 45.7535H35.203C35.2173 45.7538 35.2313 45.7575 35.2438 45.7644C35.2563 45.7713 35.267 45.7811 35.2749 45.7929L35.9464 46.9299L36.0517 47.1088L36.0519 47.109C36.4472 47.7791 36.742 48.2788 36.742 48.7356C36.742 49.1926 36.3893 49.4564 35.4964 49.5904C35.4834 49.5933 35.4718 49.6004 35.4634 49.6106C35.4549 49.6208 35.4502 49.6336 35.4498 49.6469V49.8514C35.4495 49.8592 35.4506 49.867 35.4533 49.8743C35.4559 49.8816 35.4599 49.8884 35.4652 49.8942C35.4704 49.8999 35.4767 49.9046 35.4838 49.9079C35.4908 49.9112 35.4985 49.9131 35.5063 49.9135C35.9876 49.9135 36.4488 49.9046 36.898 49.8959C37.3243 49.8877 37.7398 49.8796 38.1513 49.8796C38.9962 49.8796 40.8146 49.9135 40.8146 49.9135C40.8294 49.9124 40.8433 49.9056 40.8533 49.8946C40.8632 49.8836 40.8686 49.8691 40.8682 49.8542V49.6525C40.8688 49.6383 40.8643 49.6244 40.8555 49.6133C40.8467 49.6021 40.8341 49.5945 40.8202 49.5919H40.8216ZM34.8856 45.2893H30.4335C30.4232 45.2892 30.4132 45.2863 30.4044 45.281C30.3956 45.2756 30.3884 45.268 30.3835 45.259C30.3786 45.2499 30.3762 45.2397 30.3766 45.2294C30.3769 45.2192 30.3801 45.2092 30.3856 45.2005L30.9103 44.3611C31.5618 43.2807 31.9593 42.6329 32.2404 42.1748L32.2408 42.1742L32.2408 42.1741C32.3959 41.9213 32.5155 41.7263 32.6229 41.5483C32.628 41.5395 32.6353 41.5322 32.6441 41.5271C32.6528 41.522 32.6628 41.5194 32.673 41.5194C32.6831 41.5194 32.6931 41.522 32.7019 41.5271C32.7107 41.5322 32.718 41.5395 32.723 41.5483C32.7989 41.6752 32.8927 41.8287 33.0077 42.0172L33.0085 42.0184L33.0086 42.0186C33.3104 42.513 33.7587 43.2472 34.4158 44.3696L34.9251 45.2089C34.9305 45.2174 34.9336 45.2272 34.9341 45.2372C34.9346 45.2473 34.9325 45.2573 34.9279 45.2663C34.9233 45.2753 34.9165 45.2829 34.9081 45.2884C34.8997 45.2939 34.89 45.2972 34.8799 45.2978L34.8856 45.2893ZM26.7404 46.5984L26.8279 46.6182L26.8237 46.6196C26.8312 46.6212 26.8383 46.6244 26.8446 46.6289C26.8508 46.6334 26.8561 46.6391 26.8601 46.6457C26.864 46.6523 26.8666 46.6597 26.8676 46.6673C26.8686 46.6749 26.8681 46.6827 26.866 46.6901L26.6191 47.4533L25.8376 49.874C25.8337 49.8852 25.8264 49.8949 25.8169 49.902C25.8073 49.909 25.7959 49.913 25.784 49.9135H25.6091L25.0448 49.9022L24.2337 49.8895H23.2928H17.1889H16.5922C16.5016 49.8901 16.409 49.8921 16.3142 49.8941H16.3142H16.3141H16.3141H16.3141H16.314H16.314C16.1932 49.8967 16.0691 49.8994 15.9418 49.8994L15.2788 49.9163C15.2634 49.9159 15.2487 49.9095 15.2379 49.8985C15.227 49.8874 15.221 49.8725 15.221 49.857V49.6553C15.2205 49.6411 15.2253 49.6272 15.2344 49.6163C15.2435 49.6053 15.2563 49.5982 15.2704 49.5961C15.2704 49.5961 15.5398 49.5495 15.6555 49.5157C15.774 49.481 15.8885 49.4337 15.9969 49.3746C16.0908 49.3231 16.178 49.2601 16.2564 49.187C16.3305 49.1173 16.395 49.0381 16.4483 48.9514C16.5084 48.845 16.5558 48.7318 16.5893 48.6143C16.6289 48.4862 16.6577 48.355 16.6754 48.2221C16.6951 48.081 16.705 47.9301 16.7135 47.7679C16.7219 47.6056 16.7219 47.4307 16.7219 47.2445V42.3241C16.7219 42.1379 16.7205 41.963 16.7135 41.8008C16.7064 41.6386 16.6951 41.4876 16.6754 41.3466C16.6576 41.2132 16.6288 41.0816 16.5893 40.953C16.5555 40.836 16.5082 40.7233 16.4483 40.6172C16.3947 40.5308 16.3302 40.4516 16.2564 40.3817C16.1784 40.3081 16.0912 40.2451 15.9969 40.194C15.8882 40.1355 15.7738 40.0883 15.6555 40.053C15.53 40.0179 15.4023 39.9915 15.2732 39.974C15.259 39.9717 15.246 39.9645 15.2365 39.9537C15.2269 39.9429 15.2215 39.9291 15.221 39.9147V39.7116C15.2214 39.6961 15.2278 39.6814 15.2388 39.6706C15.2499 39.6598 15.2648 39.6538 15.2802 39.6538C15.3564 39.6559 15.431 39.6585 15.5043 39.661C15.6715 39.6666 15.8316 39.6721 15.9856 39.6721L16.6218 39.6806H17.2044H17.7461H18.5431L19.1976 39.6735L19.7309 39.6636L20.1089 39.6524C20.1166 39.6523 20.1243 39.6539 20.1314 39.6569C20.1385 39.6599 20.1449 39.6643 20.1503 39.6698C20.1557 39.6753 20.16 39.6818 20.1628 39.689C20.1656 39.6962 20.167 39.7039 20.1668 39.7116V39.9119C20.1671 39.9257 20.1626 39.9391 20.1541 39.9499C20.1456 39.9607 20.1336 39.9682 20.1202 39.9712C19.9891 39.9885 19.8595 40.0154 19.7323 40.0516C19.614 40.0868 19.4996 40.1341 19.3909 40.1926C19.2966 40.2436 19.2094 40.3067 19.1313 40.3803C19.0572 40.4499 18.9927 40.5291 18.9395 40.6158C18.8767 40.7215 18.8265 40.8342 18.79 40.9516C18.751 41.0802 18.7227 41.2118 18.7053 41.3451C18.6867 41.4781 18.6781 41.6199 18.6689 41.7715L18.6672 41.7994C18.6574 41.9615 18.6574 42.1364 18.6574 42.3225V42.3227V47.2445C18.6488 47.5842 18.6734 47.9239 18.7307 48.2588C18.7712 48.5158 18.8832 48.7563 19.0538 48.9528C19.2523 49.1551 19.5059 49.2944 19.7831 49.3535C20.2076 49.4507 20.6427 49.4938 21.0781 49.4818H21.4914C22.1392 49.491 22.7857 49.4218 23.4169 49.2759C23.9048 49.1581 24.3697 48.9597 24.7923 48.689C25.1733 48.4365 25.5127 48.1262 25.7981 47.7693C26.0876 47.4037 26.3444 47.0133 26.5655 46.6027C26.5716 46.5917 26.5811 46.5831 26.5925 46.578C26.604 46.5729 26.6168 46.5716 26.629 46.5745L26.6614 46.5815L26.7404 46.5984ZM77.3873 39.6566C76.7102 39.6721 75.9894 39.6876 75.3771 39.6876C74.8148 39.6876 74.2846 39.6769 73.6645 39.6644L73.2724 39.6566C73.2635 39.656 73.2547 39.6572 73.2463 39.6604C73.238 39.6635 73.2304 39.6683 73.2241 39.6746C73.2179 39.6809 73.213 39.6885 73.2099 39.6968C73.2068 39.7051 73.2055 39.714 73.2061 39.7229V39.9303C73.2053 39.9453 73.2102 39.9601 73.2199 39.9716C73.2296 39.9831 73.2434 39.9906 73.2583 39.9923C74.1513 40.0967 74.5872 40.3915 74.8467 40.8147C75.1952 41.3945 75.2121 42.2564 75.2121 43.4823V44.6757C75.2121 45.7921 75.2208 46.6053 75.2248 46.98V46.9806L75.2262 47.1091C75.2282 47.1188 75.2269 47.1288 75.2226 47.1378C75.2184 47.1467 75.2113 47.1539 75.2025 47.1584C75.1936 47.1629 75.1836 47.1644 75.1739 47.1626C75.1641 47.1608 75.1553 47.1559 75.1486 47.1486C74.9723 46.9751 74.4009 46.432 73.1229 45.3556L69.3917 42.1111C67.8978 40.8415 66.8525 39.9161 66.6593 39.6947C66.654 39.689 66.6477 39.6845 66.6406 39.6814C66.6336 39.6782 66.626 39.6765 66.6183 39.6763C66.1218 39.6918 65.4094 39.6919 64.9862 39.6919C64.3669 39.6919 64.1652 39.6919 63.1848 39.6608C63.1701 39.6612 63.1561 39.6673 63.1458 39.6778C63.1355 39.6884 63.1298 39.7025 63.1298 39.7172V39.9458C63.1301 39.9583 63.1346 39.9704 63.1425 39.9801C63.1504 39.9898 63.1613 39.9966 63.1735 39.9994C63.7378 40.1122 64.3232 40.2505 64.8663 40.7992C64.8727 40.8057 64.8777 40.8135 64.8811 40.8219C64.8845 40.8304 64.8862 40.8395 64.8861 40.8486V46.0553C64.8861 47.2826 64.8705 48.1431 64.5221 48.7229C64.2611 49.1461 63.8168 49.4282 63.0762 49.5763C63.0633 49.5789 63.0518 49.5857 63.0433 49.5957C63.0348 49.6057 63.03 49.6183 63.0296 49.6313V49.8571C63.0296 49.8649 63.0312 49.8727 63.0343 49.8799C63.0374 49.8871 63.0419 49.8936 63.0476 49.899C63.0532 49.9044 63.0599 49.9086 63.0673 49.9113C63.0746 49.9141 63.0825 49.9153 63.0903 49.9149L63.3921 49.9077C63.9253 49.8949 64.387 49.8839 64.903 49.8839C65.5843 49.8839 66.3926 49.8994 67.2024 49.9163C67.2171 49.9149 67.2307 49.908 67.2407 49.8971C67.2506 49.8861 67.256 49.8718 67.256 49.8571V49.6356C67.2572 49.6218 67.2533 49.6081 67.2449 49.5972C67.2366 49.5862 67.2244 49.5787 67.2108 49.5763C66.4745 49.4254 65.992 49.1461 65.731 48.7229C65.3826 48.1431 65.3671 47.2826 65.3671 46.0553V44.7956C65.3671 43.1744 65.3459 41.8675 65.3379 41.3762L65.3361 41.2591C65.3355 41.2501 65.3378 41.2411 65.3424 41.2333C65.3471 41.2256 65.354 41.2194 65.3622 41.2156C65.3704 41.2118 65.3795 41.2105 65.3885 41.212C65.3974 41.2135 65.4057 41.2176 65.4122 41.2238L65.4211 41.2318L65.4212 41.2319L65.4214 41.2321L65.4218 41.2325C65.5491 41.3473 66.9169 42.5806 68.5467 43.9676L72.0296 46.9835C72.9917 47.8116 75.576 50.0997 75.576 50.0997L75.6169 50.135C75.626 50.1409 75.6364 50.1442 75.6472 50.1446C75.658 50.145 75.6687 50.1424 75.6781 50.1372C75.6875 50.132 75.6954 50.1243 75.7007 50.1149C75.7061 50.1056 75.7089 50.095 75.7086 50.0842L75.7078 49.9374L75.7078 49.9349L75.7077 49.9164L75.7076 49.9124C75.704 49.294 75.6917 47.1694 75.6917 46.2218V43.4781C75.6917 42.2522 75.7086 41.3903 76.0571 40.8105C76.3166 40.3873 76.6721 40.1404 77.4028 39.9909C77.4163 39.988 77.4282 39.9804 77.4367 39.9696C77.4452 39.9588 77.4497 39.9454 77.4494 39.9317V39.7144C77.4498 39.7062 77.4485 39.6979 77.4455 39.6902C77.4425 39.6825 77.4379 39.6755 77.4321 39.6696C77.4263 39.6638 77.4193 39.6592 77.4115 39.6563C77.4038 39.6533 77.3956 39.6519 77.3873 39.6524V39.6566ZM52.9871 47.6593C53.3807 48.5748 53.7404 49.3295 54.8337 49.6045V49.6088C54.8458 49.6118 54.8566 49.6187 54.8645 49.6283C54.8723 49.638 54.8769 49.6499 54.8774 49.6624V49.8571C54.8778 49.8722 54.8723 49.8868 54.862 49.8979C54.8517 49.909 54.8375 49.9156 54.8224 49.9163C54.1595 49.9008 53.7462 49.9008 52.955 49.9008H52.9547H52.1929C51.8107 49.9008 51.2647 48.6086 50.8331 47.514C50.2533 46.006 49.3575 44.9451 46.855 44.9451C46.6391 44.9451 46.2219 44.9496 45.8144 44.9539C45.4259 44.958 45.0462 44.9621 44.8589 44.9621C44.8237 44.9621 44.7997 44.9804 44.7997 45.0298V47.2445C44.7997 47.9908 44.8335 48.5367 45.0818 48.9514C45.292 49.2914 45.6447 49.5044 46.2625 49.5919C46.2759 49.5945 46.2878 49.6017 46.2963 49.6123C46.3048 49.6229 46.3094 49.6361 46.3091 49.6497V49.8514C46.3091 49.8666 46.3033 49.8813 46.2927 49.8923C46.2822 49.9034 46.2679 49.9099 46.2527 49.9107C46.2527 49.9107 44.6361 49.8796 43.8884 49.8796H43.8881C43.1899 49.8796 42.4155 49.8796 41.4282 49.9107C41.4202 49.9111 41.4122 49.9098 41.4047 49.9069C41.3972 49.904 41.3905 49.8995 41.3849 49.8937C41.3793 49.888 41.3749 49.8811 41.3722 49.8736C41.3695 49.866 41.3684 49.858 41.369 49.85V49.6469C41.37 49.6332 41.3755 49.6202 41.3847 49.61C41.3939 49.5998 41.4062 49.5929 41.4198 49.5904C42.032 49.5044 42.3861 49.29 42.5962 48.9514C42.8445 48.5367 42.8784 47.9908 42.8784 47.2445V42.3227C42.8784 41.5765 42.8445 41.0306 42.5962 40.6158C42.3861 40.2773 42.0348 40.0629 41.4183 39.9754C41.4044 39.9736 41.3916 39.9667 41.3825 39.956C41.3733 39.9453 41.3685 39.9316 41.369 39.9176V39.7144C41.369 39.6991 41.3751 39.6844 41.3859 39.6735C41.3968 39.6627 41.4115 39.6566 41.4268 39.6566C42.2873 39.6876 43.4243 39.6876 44.1212 39.6876H46.4643C46.7401 39.6876 47.0159 39.6833 47.2896 39.6791C47.5589 39.6749 47.8262 39.6707 48.0893 39.6707C50.8571 39.6707 53.3257 39.9415 53.3257 42.0575C53.3257 43.818 51.6569 44.632 49.6904 44.7448C49.6797 44.7467 49.6699 44.7524 49.6629 44.7608C49.6558 44.7691 49.652 44.7797 49.652 44.7907C49.652 44.8016 49.6558 44.8122 49.6629 44.8206C49.6699 44.829 49.6797 44.8346 49.6904 44.8365C51.6456 44.9395 52.2099 45.7309 52.8884 47.4096L52.9871 47.6593ZM44.7955 44.4486C44.7969 44.481 44.8152 44.4937 44.8589 44.4937L47.1668 44.4966C49.0387 44.4966 51.1434 44.4303 51.1434 42.0603C51.1434 40.2674 49.421 40.0854 47.6972 40.0854C47.2966 40.0854 45.4472 40.1009 44.8561 40.1165C44.848 40.1158 44.8398 40.117 44.8322 40.1198C44.8245 40.1226 44.8176 40.1271 44.8118 40.1328C44.806 40.1386 44.8016 40.1455 44.7988 40.1532C44.796 40.1608 44.7948 40.169 44.7955 40.1771V44.4486ZM61.0886 49.8514V49.6525C61.0898 49.6378 61.0854 49.6232 61.0762 49.6117C61.067 49.6001 61.0538 49.5925 61.0392 49.5904C60.4241 49.503 60.0729 49.29 59.8627 48.9514C59.6144 48.5367 59.5806 47.9908 59.5806 47.2445V42.3227C59.5806 41.5765 59.613 41.0306 59.8627 40.6158C60.0729 40.2759 60.427 40.0629 61.0476 39.9754C61.0606 39.9718 61.0718 39.9637 61.0793 39.9526C61.0868 39.9415 61.0901 39.9281 61.0886 39.9147V39.713C61.0887 39.7055 61.0874 39.6981 61.0847 39.6912C61.0819 39.6843 61.0777 39.678 61.0725 39.6727C61.0672 39.6674 61.0609 39.6633 61.054 39.6605C61.047 39.6577 61.0396 39.6564 61.0321 39.6566C60.1321 39.6876 59.4169 39.6876 58.6707 39.6876C57.9654 39.6876 57.1923 39.6876 56.2091 39.6566C56.2012 39.6562 56.1933 39.6574 56.186 39.6603C56.1786 39.6631 56.1719 39.6675 56.1663 39.673C56.1607 39.6786 56.1564 39.6853 56.1535 39.6927C56.1507 39.7001 56.1494 39.7079 56.1498 39.7158V39.9161C56.15 39.9304 56.1552 39.9442 56.1644 39.955C56.1737 39.9659 56.1865 39.9731 56.2006 39.9754C56.8157 40.0643 57.1669 40.2773 57.3771 40.6158C57.6254 41.0306 57.6592 41.5765 57.6592 42.3227V47.2445C57.6592 47.9908 57.6268 48.5367 57.3771 48.9514C57.1613 49.2998 56.7973 49.5157 56.1498 49.5975V49.9121C57.1612 49.8796 57.9568 49.8796 58.6705 49.8796H58.6707H58.671C59.4171 49.8796 60.1323 49.8796 61.0335 49.9107C61.0486 49.9099 61.0628 49.9033 61.0731 49.8922C61.0834 49.8812 61.0889 49.8665 61.0886 49.8514Z" fill="#171216"/>
</svg>
