<svg width="90" height="90" viewBox="0 0 90 90" fill="none" xmlns="http://www.w3.org/2000/svg">
<g clip-path="url(#clip0_8_136)">
<mask id="mask0_8_136" style="mask-type:luminance" maskUnits="userSpaceOnUse" x="0" y="37" width="90" height="17">
<path d="M90 37H0V53.9565H90V37Z" fill="white"/>
</mask>
<g mask="url(#mask0_8_136)">
<mask id="mask1_8_136" style="mask-type:luminance" maskUnits="userSpaceOnUse" x="0" y="37" width="90" height="17">
<path d="M90 37H0V53.9565H90V37Z" fill="white"/>
</mask>
<g mask="url(#mask1_8_136)">
<mask id="mask2_8_136" style="mask-type:luminance" maskUnits="userSpaceOnUse" x="0" y="37" width="90" height="17">
<path d="M90 37H0V53.9565H90V37Z" fill="white"/>
</mask>
<g mask="url(#mask2_8_136)">
<path d="M12.5241 37.1893V53.7236H9.05782V46.803H3.44435V53.7236H0V37.1893H3.44435V43.7552H9.05782V37.1893H12.5241Z" fill="#171216"/>
<path d="M14.3967 45.4565C14.3967 39.8824 17.898 37 21.8901 37C25.6486 37 28.4019 39.3625 28.808 42.9287H25.4557C25.2424 41.2049 23.7686 40.0463 21.8901 40.0463C19.477 40.0463 17.619 41.9128 17.619 45.455C17.619 48.9972 19.477 50.8411 21.8901 50.8411C23.8124 50.8411 25.2848 49.684 25.5419 47.9827H28.7452C28.4677 51.5264 25.7127 53.9115 21.8917 53.9115C17.8351 53.9115 14.3967 51.029 14.3967 45.455V45.4565Z" fill="#171216"/>
<path d="M46.0415 40.2792H41.2883V37.2329H54.2375V40.2792H49.4843V53.7671H46.04V40.2792H46.0415Z" fill="#171216"/>
<path d="M64.077 49.7291C63.6183 52.3034 61.4142 53.9581 58.567 53.9581C54.6407 53.9581 52.6205 50.7931 52.6205 47.7934C52.6205 44.7938 54.4113 41.6754 58.3377 41.6754C62.2641 41.6754 64.0547 44.7697 64.0547 47.4868C64.0547 47.9362 64.0317 48.2893 64.0094 48.5493H55.6981C55.9276 50.2265 56.9602 51.2664 58.5685 51.2664C59.8542 51.2664 60.7041 50.7465 60.9565 49.7306H64.08L64.077 49.7291ZM55.742 46.4694H60.8618C60.77 45.1469 59.8741 44.0829 58.3362 44.0829C56.8902 44.0829 56.0167 44.8148 55.742 46.4694Z" fill="#171216"/>
<path d="M65.5636 47.8145C65.5636 44.3429 67.9524 41.6723 71.5336 41.6723C74.5647 41.6723 76.9747 43.5614 77.1823 46.3251H73.9671C73.7829 45.2626 72.7959 44.4826 71.6259 44.4826C69.9035 44.4826 68.8941 45.8758 68.8941 47.8129C68.8941 49.7501 69.927 51.1206 71.6723 51.1206C72.8442 51.1206 73.7847 50.3889 74.014 49.3248H77.2741C76.9294 51.9697 74.543 53.955 71.5353 53.955C67.9535 53.955 65.5653 51.286 65.5653 47.8129L65.5636 47.8145Z" fill="#171216"/>
<path d="M78.9806 37.2134H82.1718V43.5164C82.8382 42.3592 84.1 41.6739 85.7082 41.6739C88.3024 41.6739 90.0012 43.611 90.0012 46.3507V53.7671H86.81V47.0825C86.81 45.6414 85.8912 44.6029 84.56 44.6029C83.1595 44.6029 82.1718 45.7135 82.1718 47.2479V53.7671H78.9806V37.2134Z" fill="#171216"/>
<path d="M34.2785 50.6533V37.1893H30.8341V50.5586C30.8341 52.6129 31.9136 53.7236 33.9103 53.7236H41.2694V50.6533H34.2785Z" fill="#171216"/>
</g>
</g>
</g>
</g>
<defs>
<clipPath id="clip0_8_136">
<rect width="90" height="16.9565" fill="white" transform="translate(0 37)"/>
</clipPath>
</defs>
</svg>
