<svg width="90" height="90" viewBox="0 0 90 90" fill="none" xmlns="http://www.w3.org/2000/svg">
<mask id="mask0_8_6" style="mask-type:luminance" maskUnits="userSpaceOnUse" x="23" y="19" width="44" height="51">
<path d="M66.15 19.55H23.85V69.95H66.15V19.55Z" fill="white"/>
</mask>
<g mask="url(#mask0_8_6)">
<path d="M35.01 49.925C34.425 50.33 31.35 51.395 31.35 47.78V36.08H27.675V47.615C27.675 56.045 36.69 53.36 38.685 51.995V36.095H35.01V49.925ZM23.85 24.26V49.1C23.85 60.77 32.28 64.31 44.97 69.815C57.615 64.31 66.09 60.8 66.09 49.1V24.26C52.995 17.33 34.38 18.68 23.85 24.26ZM64.14 49.1C64.14 58.85 58.155 61.88 44.97 67.7C31.755 61.865 25.785 58.85 25.785 49.1V34.88C37.29 24.32 51.84 23.63 64.14 24.77V49.1ZM40.56 37.025V60.965H44.235V53.24C46.98 54.065 52.305 52.955 52.305 44.405C52.305 33.44 43.215 35.3 40.56 37.025ZM44.235 50.225V38.945C45.18 38.465 48.555 37.52 48.555 44.495C48.555 52.115 44.46 50.315 44.235 50.225ZM53.13 40.505C53.145 45.83 58.935 45.29 58.995 48.425C59.055 51.065 55.575 51.005 53.28 48.98V52.37C57.36 54.785 62.49 53.285 62.64 48.605C62.835 42.815 56.55 43.37 56.625 40.37C56.685 38.09 60.06 38.06 62.085 40.115V36.92C58.89 34.43 53.115 35.87 53.13 40.505Z" fill="#171216"/>
</g>
</svg>
